<svg xmlns="http://www.w3.org/2000/svg" width="463.93" height="307.09" viewBox="0 0 463.93 307.09">
	<path fill="#131313" stroke="#898989" stroke-miterlimit="10" d="M364.46 138.2l-8.31 43.3s-14.15-18.03-52.07-34.08c-16.11-6.81-34.1-10.07-51.19-11.74-15.05-1.47-30.25-1.4-45.29.15-18.06 1.86-35.97 6.01-52.75 13.03-1.24.52-2.49 1.03-3.71 1.58-3.95 1.78-44.81 19.58-51.92 38.25.78-12.17 1.72-31.33 1.72-31.33l.07-22.43c-.01-.57 0-1.13.01-1.7.52-17.39-1.59-55.11 51.71-75.65 25.64-9.88 87.54-16.13 148.66-1.47 20.63 4.96 22.68 23.57 22.68 25.17 25.68 14.83 43.57 35.85 40.39 56.92z"/>
	<path fill="#131313" stroke="#898989" stroke-miterlimit="10" d="M99.22 188.69c-.58 8.85-1.07 14.01-1.07 5.38 0-1.79.37-3.59 1.07-5.38z"/>
	<path fill="#131313" stroke="#898989" stroke-miterlimit="10" d="M463.43 182.2c-1.93 39.63-32.55 63.8-64.77 83.28-1.04.63-2.11 1.26-3.18 1.89-5.01 2.91-10.25 5.6-15.6 8.19-1.45.7-2.92 1.38-4.39 2.06-14.53 6.69-29.7 11.94-45.12 16.15-3.13.85-6.21 1.76-9.39 2.52-23.39 5.64-47.32 8.78-71.35 9.82-1.26.05-2.51.21-3.77.25-4.53.16-8.95.23-13.49.23-16.61 0-33.38-1.15-49.86-3.25-33.19-4.21-66.67-12.75-96.96-27.13-5.86-2.78-11.56-5.72-17.03-8.89-45.25-26.12-65.39-60.35-66.8-88.92l-.81-33.85c.09 17.13 163.44 86.51 231.46 86.58v.01c0 2.04 230.61-93.74 230.59-96.21l.47 47.27z"/>
	<path fill="#131313" stroke="#898989" stroke-miterlimit="10" d="M394.75 40.21C349.5 14.09 290.22.99 231.08.99S112.81 14.09 67.79 40.25C22.83 66.38.41 100.67.6 134.93c-1.9 28.77 23.01 68.55 68.25 94.67 45.32 26.17 104.38 39.27 163.52 39.27 59.14 0 118.49-13.1 163.45-39.23 45.02-26.16 67.33-60.46 67.14-94.71-.19-34.26-22.89-68.56-68.21-94.72zm-70.07 148.36c-25.45 14.79-58.77 22.18-92.31 22.14-33.47 0-67.16-7.35-92.84-22.18-25.61-14.79-38.41-34.22-38.52-53.6-.18-19.43 12.47-38.82 37.92-53.6 25.51-14.83 58.94-22.22 92.48-22.18 33.54-.05 67.05 7.35 92.66 22.13 25.68 14.83 38.56 34.22 38.59 53.65.18 19.42-12.47 38.81-37.98 53.64z"/>
	<path fill="none" stroke="#898989" stroke-miterlimit="10" d="M133.1 293.64v-37.11l47.85-51.85M17.88 222.63v-38.19l88.68-27.8M447.38 225.34l-4.18-35.71-85.81-32.99M231.73 59.15l14.8-57.83M231.73 134.63V59.06"/>
</svg>