<?xml version="1.0" encoding="utf-8"?>
<!-- Generator: Adobe Illustrator 23.0.2, SVG Export Plug-In . SVG Version: 6.00 Build 0)  -->
<svg version="1.1" id="Layer_1" xmlns="http://www.w3.org/2000/svg" xmlns:xlink="http://www.w3.org/1999/xlink" x="0px" y="0px"
	 width="25.21px" height="19.35px" viewBox="0 0 25.21 19.35" style="enable-background:new 0 0 25.21 19.35;" xml:space="preserve"
	>
<style type="text/css">
	.st0{fill-rule:evenodd;clip-rule:evenodd;fill:#131313;}
	.st1{fill:none;stroke:#898989;stroke-width:0.72;stroke-linejoin:round;}
	.st2{fill-rule:evenodd;clip-rule:evenodd;fill:#606060;}
	.st3{fill:none;stroke:#898989;stroke-width:0.72;}
	.st4{fill:none;stroke:#F1E82B;}
	.st5{fill:none;stroke:#898989;}
	.st6{fill:none;stroke:#929292;}
</style>
<g transform="translate(1)">
	<g>
		<path class="st2" d="M5.85,18.18h11.51l5.69-5.68V6.85l-5.69-5.68H5.85L0.17,6.85v5.65L5.85,18.18z M17.53,18.99H5.68
			c-0.11,0-0.21-0.04-0.28-0.12l-5.92-5.91c-0.08-0.08-0.12-0.18-0.12-0.29V6.68c0-0.11,0.04-0.21,0.12-0.28L5.4,0.48
			C5.48,0.4,5.58,0.36,5.68,0.36h11.84c0.11,0,0.21,0.04,0.28,0.12l5.92,5.92c0.07,0.07,0.12,0.18,0.12,0.28v5.98
			c0,0.11-0.04,0.21-0.12,0.29l-5.92,5.92C17.73,18.94,17.63,18.99,17.53,18.99L17.53,18.99z"/>
		<path class="st1" d="M5.85,18.18h11.51l5.69-5.68V6.85l-5.69-5.68H5.85L0.17,6.85v5.65L5.85,18.18z M17.53,18.99H5.68
			c-0.11,0-0.21-0.04-0.28-0.12l-5.92-5.91c-0.08-0.08-0.12-0.18-0.12-0.29V6.68c0-0.11,0.04-0.21,0.12-0.28L5.4,0.48
			C5.48,0.4,5.58,0.36,5.68,0.36h11.84c0.11,0,0.21,0.04,0.28,0.12l5.92,5.92c0.07,0.07,0.12,0.18,0.12,0.28v5.98
			c0,0.11-0.04,0.21-0.12,0.29l-5.92,5.92C17.73,18.94,17.63,18.99,17.53,18.99z"/>
		<path class="st0" d="M-0.24,6.68v5.98l5.92,5.92V12.6L-0.24,6.68z M5.69,18.58h11.84V12.6H5.69V18.58z"/>
		<path class="st1" d="M-0.24,6.68v5.98l5.92,5.92V12.6L-0.24,6.68z M5.69,18.58h11.84V12.6H5.69V18.58z"/>
		<polygon class="st0" points="17.52,12.6 17.52,18.58 23.45,12.66 23.45,6.68 		"/>
		<polygon class="st1" points="17.52,12.6 17.52,18.58 23.45,12.66 23.45,6.68 		"/>
		<path class="st0" d="M8.89,9.7c0.81-0.25,1.72-0.37,2.72-0.37c0.99,0,1.89,0.12,2.71,0.37c-0.82,0.25-1.72,0.37-2.71,0.37
			C10.61,10.07,9.7,9.95,8.89,9.7 M17.52,0.76H5.68l-5.92,5.92l5.92,5.92h11.84l5.92-5.92L17.52,0.76"/>
		<path class="st1" d="M8.89,9.7c0.81-0.25,1.72-0.37,2.72-0.37c0.99,0,1.89,0.12,2.71,0.37c-0.82,0.25-1.72,0.37-2.71,0.37
			C10.61,10.07,9.7,9.95,8.89,9.7z M17.52,0.76H5.68l-5.92,5.92l5.92,5.92h11.84l5.92-5.92L17.52,0.76L17.52,0.76z"/>
		<path class="st0" d="M9.4,9.7c0.67,0.16,1.41,0.24,2.2,0.24c0.78,0,1.52-0.08,2.19-0.24c-0.67-0.16-1.41-0.24-2.19-0.24
			C10.82,9.46,10.08,9.54,9.4,9.7L9.4,9.7z M11.6,10.21c-1.01,0-1.93-0.13-2.76-0.38C8.79,9.81,8.75,9.76,8.75,9.7
			c0-0.06,0.04-0.11,0.09-0.13c0.82-0.25,1.75-0.38,2.76-0.38c1,0,1.93,0.13,2.75,0.38c0.06,0.02,0.09,0.07,0.09,0.13
			c0,0.06-0.04,0.11-0.09,0.13C13.53,10.08,12.6,10.21,11.6,10.21L11.6,10.21z M5.74,12.47h11.73l5.79-5.79L17.47,0.9H5.74
			l-5.79,5.79L5.74,12.47z M17.66,12.66v5.6l5.65-5.65V7L17.66,12.66z M-0.1,12.61l5.65,5.65v-5.6L-0.1,7.01V12.61z M5.82,18.45
			h11.57v-5.71H5.82V18.45z M17.53,18.72L17.53,18.72H5.68c-0.04,0-0.07-0.02-0.09-0.04l-5.92-5.91c-0.03-0.03-0.04-0.06-0.04-0.1
			V6.68V6.68c0-0.03,0.02-0.06,0.04-0.09c0,0,0,0,0,0l5.92-5.92c0.03-0.03,0.06-0.04,0.09-0.04h11.84c0.04,0,0.07,0.02,0.09,0.04
			l5.92,5.91c0,0,0,0,0,0c0.03,0.03,0.04,0.06,0.04,0.09v5.98c0,0.03-0.01,0.07-0.04,0.09l-5.92,5.92l-0.01,0.01v0
			C17.59,18.7,17.56,18.72,17.53,18.72L17.53,18.72z"/>
		<path class="st1" d="M9.4,9.7c0.67,0.16,1.41,0.24,2.2,0.24c0.78,0,1.52-0.08,2.19-0.24c-0.67-0.16-1.41-0.24-2.19-0.24
			C10.82,9.46,10.08,9.54,9.4,9.7z M11.6,10.21c-1.01,0-1.93-0.13-2.76-0.38C8.79,9.81,8.75,9.76,8.75,9.7
			c0-0.06,0.04-0.11,0.09-0.13c0.82-0.25,1.75-0.38,2.76-0.38c1,0,1.93,0.13,2.75,0.38c0.06,0.02,0.09,0.07,0.09,0.13
			c0,0.06-0.04,0.11-0.09,0.13C13.53,10.08,12.6,10.21,11.6,10.21z M5.74,12.47h11.73l5.79-5.79L17.47,0.9H5.74l-5.79,5.79
			L5.74,12.47z M17.66,12.66v5.6l5.65-5.65V7L17.66,12.66z M-0.1,12.61l5.65,5.65v-5.6L-0.1,7.01V12.61z M5.82,18.45h11.57v-5.71
			H5.82V18.45z M17.53,18.72L17.53,18.72H5.68c-0.04,0-0.07-0.02-0.09-0.04l-5.92-5.91c-0.03-0.03-0.04-0.06-0.04-0.1V6.68V6.68
			c0-0.03,0.02-0.06,0.04-0.09c0,0,0,0,0,0l5.92-5.92c0.03-0.03,0.06-0.04,0.09-0.04h11.84c0.04,0,0.07,0.02,0.09,0.04l5.92,5.91
			c0,0,0,0,0,0c0.03,0.03,0.04,0.06,0.04,0.09v5.98c0,0.03-0.01,0.07-0.04,0.09l-5.92,5.92l-0.01,0.01v0
			C17.59,18.7,17.56,18.72,17.53,18.72L17.53,18.72z"/>
		<path class="st0" d="M7.44,4.27c-0.51,0.3-0.9,0.62-1.19,0.97C5.89,5.67,5.72,6.15,5.72,6.67c0,0.35,0.08,0.67,0.24,0.98
			c0-0.01,0-0.01,0-0.01C6.23,7.1,6.72,6.59,7.44,6.13c1.15-0.75,2.53-1.18,4.17-1.29c1.63-0.12,3.01,0.12,4.16,0.7
			c0.72,0.36,1.21,0.79,1.48,1.3c0.07,0.13,0.13,0.26,0.17,0.41c0.05-0.18,0.08-0.38,0.08-0.57c0-0.52-0.18-1-0.53-1.44
			c-0.28-0.35-0.68-0.67-1.2-0.97c-1.15-0.66-2.53-0.99-4.16-0.99C9.97,3.28,8.58,3.61,7.44,4.27 M6.78,8.63
			c0.01,0.01,0.03,0.03,0.05,0.04c0.18,0.14,0.38,0.27,0.61,0.4c0.33,0.19,0.67,0.35,1.04,0.49c0.1-0.04,0.2-0.09,0.3-0.12
			c0.84-0.33,1.78-0.53,2.83-0.61c1.04-0.07,1.97,0,2.81,0.21c0.31,0.07,0.6,0.17,0.88,0.28c0.16-0.07,0.31-0.15,0.46-0.24
			c0.22-0.13,0.43-0.27,0.61-0.4c0.16-0.13,0.31-0.27,0.44-0.41c-0.12-0.13-0.27-0.25-0.44-0.37c-0.18-0.13-0.39-0.25-0.61-0.36
			c-1.15-0.58-2.53-0.82-4.16-0.7C9.97,6.95,8.58,7.38,7.44,8.12c-0.22,0.15-0.43,0.3-0.61,0.45L6.78,8.63 M5.96,7.67
			c0.18,0.34,0.45,0.66,0.82,0.95l0.05-0.05c0.18-0.15,0.38-0.31,0.61-0.45c1.15-0.74,2.53-1.17,4.17-1.29
			c1.63-0.12,3.01,0.12,4.16,0.7c0.22,0.11,0.43,0.23,0.61,0.36c0.17,0.12,0.31,0.24,0.44,0.37c0.18-0.19,0.32-0.38,0.43-0.59
			c0.07-0.14,0.13-0.28,0.17-0.42c-0.04-0.14-0.09-0.28-0.17-0.41c-0.27-0.51-0.77-0.94-1.48-1.3c-1.15-0.58-2.53-0.82-4.16-0.7
			C9.97,4.96,8.58,5.39,7.44,6.13C6.72,6.59,6.23,7.1,5.96,7.64c0,0,0,0.01,0,0.01S5.96,7.67,5.96,7.67 M8.78,9.66
			C8.81,9.68,8.85,9.69,8.89,9.7c0.81-0.25,1.72-0.37,2.72-0.37c0.99,0,1.9,0.12,2.72,0.37c0.03-0.01,0.06-0.02,0.1-0.03
			c0.3-0.1,0.6-0.21,0.88-0.35c-0.28-0.11-0.58-0.21-0.88-0.28c-0.84-0.21-1.78-0.28-2.81-0.21C10.56,8.9,9.62,9.11,8.78,9.44
			c-0.1,0.04-0.2,0.08-0.3,0.12C8.58,9.6,8.68,9.63,8.78,9.66"/>
		<path class="st1" d="M7.44,4.27c-0.51,0.3-0.9,0.62-1.19,0.97C5.89,5.67,5.72,6.15,5.72,6.67c0,0.35,0.08,0.67,0.24,0.98
			c0-0.01,0-0.01,0-0.01C6.23,7.1,6.72,6.59,7.44,6.13c1.15-0.75,2.53-1.18,4.17-1.29c1.63-0.12,3.01,0.12,4.16,0.7
			c0.72,0.36,1.21,0.79,1.48,1.3c0.07,0.13,0.13,0.26,0.17,0.41c0.05-0.18,0.08-0.38,0.08-0.57c0-0.52-0.18-1-0.53-1.44
			c-0.28-0.35-0.68-0.67-1.2-0.97c-1.15-0.66-2.53-0.99-4.16-0.99C9.97,3.28,8.58,3.61,7.44,4.27z M6.78,8.63
			c0.01,0.01,0.03,0.03,0.05,0.04c0.18,0.14,0.38,0.27,0.61,0.4c0.33,0.19,0.67,0.35,1.04,0.49c0.1-0.04,0.2-0.09,0.3-0.12
			c0.84-0.33,1.78-0.53,2.83-0.61c1.04-0.07,1.97,0,2.81,0.21c0.31,0.07,0.6,0.17,0.88,0.28c0.16-0.07,0.31-0.15,0.46-0.24
			c0.22-0.13,0.43-0.27,0.61-0.4c0.16-0.13,0.31-0.27,0.44-0.41c-0.12-0.13-0.27-0.25-0.44-0.37c-0.18-0.13-0.39-0.25-0.61-0.36
			c-1.15-0.58-2.53-0.82-4.16-0.7C9.97,6.95,8.58,7.38,7.44,8.12c-0.22,0.15-0.43,0.3-0.61,0.45L6.78,8.63L6.78,8.63z M5.96,7.67
			c0.18,0.34,0.45,0.66,0.82,0.95l0.05-0.05c0.18-0.15,0.38-0.31,0.61-0.45c1.15-0.74,2.53-1.17,4.17-1.29
			c1.63-0.12,3.01,0.12,4.16,0.7c0.22,0.11,0.43,0.23,0.61,0.36c0.17,0.12,0.31,0.24,0.44,0.37c0.18-0.19,0.32-0.38,0.43-0.59
			c0.07-0.14,0.13-0.28,0.17-0.42c-0.04-0.14-0.09-0.28-0.17-0.41c-0.27-0.51-0.77-0.94-1.48-1.3c-1.15-0.58-2.53-0.82-4.16-0.7
			C9.97,4.96,8.58,5.39,7.44,6.13C6.72,6.59,6.23,7.1,5.96,7.64c0,0,0,0.01,0,0.01S5.96,7.67,5.96,7.67L5.96,7.67z M8.78,9.66
			C8.81,9.68,8.85,9.69,8.89,9.7c0.81-0.25,1.72-0.37,2.72-0.37c0.99,0,1.9,0.12,2.72,0.37c0.03-0.01,0.06-0.02,0.1-0.03
			c0.3-0.1,0.6-0.21,0.88-0.35c-0.28-0.11-0.58-0.21-0.88-0.28c-0.84-0.21-1.78-0.28-2.81-0.21C10.56,8.9,9.62,9.11,8.78,9.44
			c-0.1,0.04-0.2,0.08-0.3,0.12C8.58,9.6,8.68,9.63,8.78,9.66L8.78,9.66z"/>
		<path class="st0" d="M5.95,7.79c-0.07,0-0.13-0.06-0.13-0.13c0-0.03,0.01-0.06,0.02-0.08c0.28-0.56,0.79-1.08,1.52-1.55
			c1.16-0.76,2.58-1.2,4.23-1.31c1.64-0.12,3.07,0.12,4.23,0.71c0.74,0.37,1.26,0.83,1.54,1.36c0.07,0.13,0.13,0.28,0.18,0.44
			c0.02,0.07-0.02,0.15-0.09,0.16c-0.07,0.02-0.15-0.02-0.16-0.09c-0.04-0.13-0.09-0.26-0.15-0.38C16.87,6.42,16.39,6,15.7,5.66
			c-1.12-0.57-2.49-0.8-4.09-0.68c-1.6,0.11-2.98,0.54-4.1,1.27C6.82,6.69,6.34,7.17,6.08,7.69C6.07,7.75,6.01,7.79,5.95,7.79
			L5.95,7.79z M6.78,8.76c-0.04,0-0.07-0.01-0.1-0.04c-0.05-0.05-0.05-0.14,0-0.19l0.05-0.05l0.01-0.01
			c0.19-0.16,0.4-0.31,0.62-0.46c1.16-0.75,2.58-1.19,4.23-1.31c1.64-0.12,3.07,0.12,4.23,0.71c0.23,0.11,0.44,0.24,0.63,0.37
			c0.17,0.12,0.33,0.25,0.46,0.38c0.05,0.05,0.05,0.14,0,0.19c-0.05,0.05-0.14,0.05-0.19,0c-0.12-0.12-0.26-0.24-0.42-0.35
			c-0.18-0.13-0.38-0.25-0.6-0.35c-1.12-0.57-2.5-0.8-4.09-0.69c-1.6,0.12-2.98,0.54-4.1,1.27C7.29,8.38,7.09,8.53,6.92,8.68
			L6.87,8.72C6.85,8.75,6.81,8.76,6.78,8.76L6.78,8.76z M8.48,9.7c-0.05,0-0.1-0.03-0.12-0.08c-0.03-0.07,0-0.15,0.07-0.18
			c0.1-0.05,0.2-0.09,0.31-0.13c0.85-0.33,1.81-0.54,2.86-0.62c1.05-0.07,2.01,0,2.86,0.21c0.31,0.08,0.61,0.17,0.9,0.29
			c0.07,0.03,0.1,0.11,0.07,0.17c-0.03,0.07-0.11,0.1-0.18,0.07c-0.27-0.11-0.56-0.2-0.86-0.28c-0.82-0.2-1.76-0.27-2.77-0.2
			c-1.02,0.08-1.96,0.28-2.78,0.6c-0.1,0.04-0.2,0.08-0.29,0.12C8.52,9.69,8.5,9.7,8.48,9.7L8.48,9.7z M8.89,9.83
			c-0.06,0-0.11-0.04-0.13-0.09C8.74,9.67,8.78,9.59,8.85,9.57c0.82-0.25,1.75-0.38,2.76-0.38c1,0,1.93,0.13,2.76,0.38
			c0.07,0.02,0.11,0.1,0.09,0.17c-0.02,0.07-0.1,0.11-0.17,0.09c-0.8-0.24-1.71-0.37-2.68-0.37c-0.98,0-1.88,0.12-2.68,0.37
			C8.91,9.83,8.9,9.83,8.89,9.83L8.89,9.83z"/>
		<path class="st1" d="M5.95,7.79c-0.07,0-0.13-0.06-0.13-0.13c0-0.03,0.01-0.06,0.02-0.08c0.28-0.56,0.79-1.08,1.52-1.55
			c1.16-0.76,2.58-1.2,4.23-1.31c1.64-0.12,3.07,0.12,4.23,0.71c0.74,0.37,1.26,0.83,1.54,1.36c0.07,0.13,0.13,0.28,0.18,0.44
			c0.02,0.07-0.02,0.15-0.09,0.16c-0.07,0.02-0.15-0.02-0.16-0.09c-0.04-0.13-0.09-0.26-0.15-0.38C16.87,6.42,16.39,6,15.7,5.66
			c-1.12-0.57-2.49-0.8-4.09-0.68c-1.6,0.11-2.98,0.54-4.1,1.27C6.82,6.69,6.34,7.17,6.08,7.69C6.07,7.75,6.01,7.79,5.95,7.79z
			 M6.78,8.76c-0.04,0-0.07-0.01-0.1-0.04c-0.05-0.05-0.05-0.14,0-0.19l0.05-0.05l0.01-0.01c0.19-0.16,0.4-0.31,0.62-0.46
			c1.16-0.75,2.58-1.19,4.23-1.31c1.64-0.12,3.07,0.12,4.23,0.71c0.23,0.11,0.44,0.24,0.63,0.37c0.17,0.12,0.33,0.25,0.46,0.38
			c0.05,0.05,0.05,0.14,0,0.19c-0.05,0.05-0.14,0.05-0.19,0c-0.12-0.12-0.26-0.24-0.42-0.35c-0.18-0.13-0.38-0.25-0.6-0.35
			c-1.12-0.57-2.5-0.8-4.09-0.69c-1.6,0.12-2.98,0.54-4.1,1.27C7.29,8.38,7.09,8.53,6.92,8.68L6.87,8.72
			C6.85,8.75,6.81,8.76,6.78,8.76z M8.48,9.7c-0.05,0-0.1-0.03-0.12-0.08c-0.03-0.07,0-0.15,0.07-0.18c0.1-0.05,0.2-0.09,0.31-0.13
			c0.85-0.33,1.81-0.54,2.86-0.62c1.05-0.07,2.01,0,2.86,0.21c0.31,0.08,0.61,0.17,0.9,0.29c0.07,0.03,0.1,0.11,0.07,0.17
			c-0.03,0.07-0.11,0.1-0.18,0.07c-0.27-0.11-0.56-0.2-0.86-0.28c-0.82-0.2-1.76-0.27-2.77-0.2c-1.02,0.08-1.96,0.28-2.78,0.6
			c-0.1,0.04-0.2,0.08-0.29,0.12C8.52,9.69,8.5,9.7,8.48,9.7z M8.89,9.83c-0.06,0-0.11-0.04-0.13-0.09
			C8.74,9.67,8.78,9.59,8.85,9.57c0.82-0.25,1.75-0.38,2.76-0.38c1,0,1.93,0.13,2.76,0.38c0.07,0.02,0.11,0.1,0.09,0.17
			c-0.02,0.07-0.1,0.11-0.17,0.09c-0.8-0.24-1.71-0.37-2.68-0.37c-0.98,0-1.88,0.12-2.68,0.37C8.91,9.83,8.9,9.83,8.89,9.83z"/>
		<path class="st0" d="M11.6,3.41c-1.6,0-2.98,0.33-4.1,0.97c-1.1,0.63-1.65,1.4-1.65,2.29c0,0.33,0.08,0.64,0.23,0.94
			c0.18,0.33,0.46,0.66,0.83,0.95C7.08,8.7,7.29,8.83,7.5,8.96c0.4,0.24,0.85,0.43,1.32,0.58l0.11,0.04c0.8,0.24,1.7,0.36,2.68,0.36
			c0.97,0,1.87-0.12,2.67-0.37c0.03-0.01,0.06-0.02,0.1-0.03c0.47-0.15,0.91-0.34,1.32-0.58c0.22-0.13,0.42-0.26,0.6-0.39
			c0.37-0.29,0.65-0.62,0.83-0.95c0.15-0.29,0.23-0.61,0.23-0.94c0-0.88-0.56-1.65-1.66-2.29C14.58,3.74,13.2,3.41,11.6,3.41
			 M11.6,10.21c-1.01,0-1.93-0.13-2.76-0.38L8.74,9.79c-0.49-0.15-0.95-0.36-1.37-0.6C7.14,9.06,6.93,8.92,6.75,8.78
			C6.34,8.46,6.03,8.1,5.84,7.74C5.67,7.4,5.58,7.05,5.58,6.68c0-0.99,0.6-1.84,1.79-2.52c1.16-0.67,2.59-1.01,4.24-1.01
			c1.64,0,3.06,0.34,4.23,1.01c1.19,0.68,1.79,1.53,1.79,2.52c0,0.37-0.09,0.73-0.26,1.06c-0.19,0.37-0.5,0.72-0.91,1.04
			c-0.19,0.14-0.4,0.28-0.63,0.41c-0.42,0.25-0.88,0.45-1.37,0.6c-0.03,0.01-0.07,0.02-0.1,0.03C13.53,10.08,12.6,10.21,11.6,10.21"
			/>
		<path class="st1" d="M11.6,3.41c-1.6,0-2.98,0.33-4.1,0.97c-1.1,0.63-1.65,1.4-1.65,2.29c0,0.33,0.08,0.64,0.23,0.94
			c0.18,0.33,0.46,0.66,0.83,0.95C7.08,8.7,7.29,8.83,7.5,8.96c0.4,0.24,0.85,0.43,1.32,0.58l0.11,0.04c0.8,0.24,1.7,0.36,2.68,0.36
			c0.97,0,1.87-0.12,2.67-0.37c0.03-0.01,0.06-0.02,0.1-0.03c0.47-0.15,0.91-0.34,1.32-0.58c0.22-0.13,0.42-0.26,0.6-0.39
			c0.37-0.29,0.65-0.62,0.83-0.95c0.15-0.29,0.23-0.61,0.23-0.94c0-0.88-0.56-1.65-1.66-2.29C14.58,3.74,13.2,3.41,11.6,3.41z
			 M11.6,10.21c-1.01,0-1.93-0.13-2.76-0.38L8.74,9.79c-0.49-0.15-0.95-0.36-1.37-0.6C7.14,9.06,6.93,8.92,6.75,8.78
			C6.34,8.46,6.03,8.1,5.84,7.74C5.67,7.4,5.58,7.05,5.58,6.68c0-0.99,0.6-1.84,1.79-2.52c1.16-0.67,2.59-1.01,4.24-1.01
			c1.64,0,3.06,0.34,4.23,1.01c1.19,0.68,1.79,1.53,1.79,2.52c0,0.37-0.09,0.73-0.26,1.06c-0.19,0.37-0.5,0.72-0.91,1.04
			c-0.19,0.14-0.4,0.28-0.63,0.41c-0.42,0.25-0.88,0.45-1.37,0.6c-0.03,0.01-0.07,0.02-0.1,0.03C13.53,10.08,12.6,10.21,11.6,10.21z
			"/>
	</g>
</g>
</svg>
