<?xml version="1.0" encoding="utf-8"?>
<!-- Generator: Adobe Illustrator 23.0.2, SVG Export Plug-In . SVG Version: 6.00 Build 0)  -->
<svg version="1.1" id="Layer_1" xmlns="http://www.w3.org/2000/svg" xmlns:xlink="http://www.w3.org/1999/xlink" x="0px" y="0px"
	 width="25.21px" height="23.95px" viewBox="0 0 25.21 23.95" style="enable-background:new 0 0 25.21 23.95;" xml:space="preserve"
	>
<style type="text/css">
	.st0{fill-rule:evenodd;clip-rule:evenodd;fill:#606060;}
	.st1{fill:none;stroke:#898989;stroke-width:0.72;stroke-linejoin:round;}
	.st2{fill-rule:evenodd;clip-rule:evenodd;fill:#131313;}
	.st3{fill:none;stroke:#898989;stroke-width:0.72;}
	.st4{fill:none;stroke:#F1E82B;}
	.st5{fill:none;stroke:#898989;}
	.st6{fill:none;stroke:#929292;}
</style>
<g transform="translate(1)">
</g>
<g>
	<path class="st2" d="M8.72,21.91c0.31,0.09,0.65,0.18,1.01,0.25c0.03,0,0.05,0.01,0.08,0.02c1.92,0.81,3.78,0.81,5.68-0.02
		c0.02-0.01,0.05-0.02,0.08-0.03c0.32-0.07,0.62-0.14,0.91-0.23c0.06-0.02,0.12-0.04,0.18-0.06c0.67-0.22,1.31-0.5,1.89-0.84
		c0.28-0.16,0.54-0.33,0.78-0.51c0.07-0.05,0.15-0.08,0.24-0.08c0,0,0.01,0,0.01,0c1.93,0,3.43-1.92,4.47-5.72v-6.4
		c-2.2-3.04-4-4.94-5.34-5.64c0,0,0,0-0.01,0c-0.11-0.01-0.21-0.07-0.27-0.15c0,0,0,0-0.01-0.01c-1.6-0.89-3.56-1.34-5.82-1.34
		c-2.32,0-4.32,0.47-5.94,1.4C6.63,2.59,6.6,2.61,6.57,2.63C6.55,2.64,6.54,2.64,6.53,2.65c-1.41,0.7-3.22,2.61-5.36,5.66v6.4
		c1.08,3.52,2.56,5.41,4.38,5.63c0.08,0.01,0.15,0.04,0.2,0.09l0.04,0.03c0.25,0.19,0.54,0.39,0.85,0.57
		c0.58,0.34,1.22,0.62,1.89,0.84C8.59,21.87,8.66,21.89,8.72,21.91 M12.63,23.59c-1.03,0-2.07-0.22-3.1-0.65
		c-0.38-0.08-0.73-0.17-1.06-0.26c-0.01,0-0.03-0.01-0.04-0.01c-0.03-0.01-0.06-0.02-0.09-0.03c-0.01,0-0.02-0.01-0.04-0.01
		c-0.73-0.24-1.43-0.54-2.06-0.91c-0.33-0.19-0.63-0.39-0.9-0.6c-2.13-0.32-3.79-2.41-4.96-6.23c-0.01-0.04-0.02-0.08-0.02-0.12
		V8.18c0-0.08,0.03-0.16,0.07-0.23c2.28-3.26,4.15-5.23,5.72-6.01C6.17,1.92,6.19,1.91,6.21,1.9c0.01-0.01,0.02-0.01,0.03-0.02
		c1.75-1.01,3.89-1.52,6.36-1.52c2.46,0,4.6,0.51,6.35,1.52c0.01,0.01,0.03,0.02,0.04,0.03c0.01,0,0.02,0.01,0.02,0.01
		c1.5,0.76,3.39,2.73,5.76,6.03c0.05,0.07,0.08,0.15,0.08,0.24v6.58c0,0.04,0,0.07-0.01,0.11c-1.13,4.15-2.85,6.29-5.14,6.36
		c-0.23,0.17-0.49,0.33-0.75,0.48c-0.63,0.37-1.33,0.68-2.06,0.91c-0.01,0-0.02,0.01-0.03,0.01c-0.03,0.01-0.06,0.02-0.09,0.03
		c-0.01,0.01-0.02,0.01-0.04,0.01c-0.3,0.09-0.63,0.17-0.96,0.24C14.72,23.37,13.68,23.59,12.63,23.59"/>
	<path class="st1" d="M8.72,21.91c0.31,0.09,0.65,0.18,1.01,0.25c0.03,0,0.05,0.01,0.08,0.02c1.92,0.81,3.78,0.81,5.68-0.02
		c0.02-0.01,0.05-0.02,0.08-0.03c0.32-0.07,0.62-0.14,0.91-0.23c0.06-0.02,0.12-0.04,0.18-0.06c0.67-0.22,1.31-0.5,1.89-0.84
		c0.28-0.16,0.54-0.33,0.78-0.51c0.07-0.05,0.15-0.08,0.24-0.08c0,0,0.01,0,0.01,0c1.93,0,3.43-1.92,4.47-5.72v-6.4
		c-2.2-3.04-4-4.94-5.34-5.64c0,0,0,0-0.01,0c-0.11-0.01-0.21-0.07-0.27-0.15c0,0,0,0-0.01-0.01c-1.6-0.89-3.56-1.34-5.82-1.34
		c-2.32,0-4.32,0.47-5.94,1.4C6.63,2.59,6.6,2.61,6.57,2.63C6.55,2.64,6.54,2.64,6.53,2.65c-1.41,0.7-3.22,2.61-5.36,5.66v6.4
		c1.08,3.52,2.56,5.41,4.38,5.63c0.08,0.01,0.15,0.04,0.2,0.09l0.04,0.03c0.25,0.19,0.54,0.39,0.85,0.57
		c0.58,0.34,1.22,0.62,1.89,0.84C8.59,21.87,8.66,21.89,8.72,21.91z M12.63,23.59c-1.03,0-2.07-0.22-3.1-0.65
		c-0.38-0.08-0.73-0.17-1.06-0.26c-0.01,0-0.03-0.01-0.04-0.01c-0.03-0.01-0.06-0.02-0.09-0.03c-0.01,0-0.02-0.01-0.04-0.01
		c-0.73-0.24-1.43-0.54-2.06-0.91c-0.33-0.19-0.63-0.39-0.9-0.6c-2.13-0.32-3.79-2.41-4.96-6.23c-0.01-0.04-0.02-0.08-0.02-0.12
		V8.18c0-0.08,0.03-0.16,0.07-0.23c2.28-3.26,4.15-5.23,5.72-6.01C6.17,1.92,6.19,1.91,6.21,1.9c0.01-0.01,0.02-0.01,0.03-0.02
		c1.75-1.01,3.89-1.52,6.36-1.52c2.46,0,4.6,0.51,6.35,1.52c0.01,0.01,0.03,0.02,0.04,0.03c0.01,0,0.02,0.01,0.02,0.01
		c1.5,0.76,3.39,2.73,5.76,6.03c0.05,0.07,0.08,0.15,0.08,0.24v6.58c0,0.04,0,0.07-0.01,0.11c-1.13,4.15-2.85,6.29-5.14,6.36
		c-0.23,0.17-0.49,0.33-0.75,0.48c-0.63,0.37-1.33,0.68-2.06,0.91c-0.01,0-0.02,0.01-0.03,0.01c-0.03,0.01-0.06,0.02-0.09,0.03
		c-0.01,0.01-0.02,0.01-0.04,0.01c-0.3,0.09-0.63,0.17-0.96,0.24C14.72,23.37,13.68,23.59,12.63,23.59z"/>
	<path class="st2" d="M12.6,12.8c-2.41,0-4.46,0.49-6.16,1.47c-1.69,0.98-2.54,2.16-2.54,3.55c0,0.52,0.12,1.01,0.35,1.47
		c0.27,0.52,0.7,1.02,1.28,1.47c0.27,0.21,0.57,0.41,0.9,0.6c0.61,0.36,1.28,0.65,1.98,0.88c0.05,0.01,0.11,0.03,0.16,0.05
		c1.21,0.36,2.54,0.54,4.02,0.54c1.47,0,2.8-0.18,4.01-0.54c0.05-0.02,0.1-0.04,0.16-0.05c0.71-0.23,1.37-0.52,1.98-0.88
		c0.33-0.19,0.64-0.39,0.9-0.6c0.58-0.46,1.01-0.95,1.28-1.47c0.24-0.46,0.36-0.95,0.36-1.47c0-1.39-0.85-2.57-2.55-3.55
		C17.05,13.29,15,12.8,12.6,12.8"/>
	<path class="st1" d="M12.6,12.8c-2.41,0-4.46,0.49-6.16,1.47c-1.69,0.98-2.54,2.16-2.54,3.55c0,0.52,0.12,1.01,0.35,1.47
		c0.27,0.52,0.7,1.02,1.28,1.47c0.27,0.21,0.57,0.41,0.9,0.6c0.61,0.36,1.28,0.65,1.98,0.88c0.05,0.01,0.11,0.03,0.16,0.05
		c1.21,0.36,2.54,0.54,4.02,0.54c1.47,0,2.8-0.18,4.01-0.54c0.05-0.02,0.1-0.04,0.16-0.05c0.71-0.23,1.37-0.52,1.98-0.88
		c0.33-0.19,0.64-0.39,0.9-0.6c0.58-0.46,1.01-0.95,1.28-1.47c0.24-0.46,0.36-0.95,0.36-1.47c0-1.39-0.85-2.57-2.55-3.55
		C17.05,13.29,15,12.8,12.6,12.8z"/>
	<path class="st2" d="M8.63,22.17c1.19,0.35,2.52,0.53,3.97,0.53c1.45,0,2.78-0.18,3.96-0.53c0.05-0.02,0.11-0.04,0.17-0.05
		c0.7-0.22,1.35-0.51,1.95-0.86c0.33-0.19,0.63-0.39,0.89-0.59c0.57-0.44,0.98-0.92,1.25-1.43c0.23-0.44,0.34-0.91,0.34-1.41
		c0-1.33-0.83-2.49-2.48-3.43c-1.67-0.96-3.71-1.45-6.08-1.45c-2.37,0-4.42,0.49-6.09,1.45c-1.64,0.95-2.47,2.1-2.47,3.43
		c0,0.5,0.11,0.97,0.34,1.41c0.26,0.51,0.68,0.99,1.25,1.43c0.26,0.2,0.56,0.4,0.88,0.59c0.6,0.35,1.26,0.64,1.95,0.86
		C8.52,22.13,8.57,22.14,8.63,22.17L8.63,22.17z M12.6,22.97c-1.48,0-2.84-0.18-4.05-0.55c0,0-0.01,0-0.01,0
		c-0.04-0.02-0.09-0.03-0.13-0.04c0,0-0.01,0-0.01,0C7.67,22.14,7,21.84,6.38,21.48c-0.34-0.2-0.64-0.4-0.91-0.61
		c-0.6-0.47-1.04-0.98-1.32-1.52c-0.24-0.48-0.37-0.99-0.37-1.53c0-1.43,0.88-2.67,2.6-3.66c1.71-0.99,3.8-1.49,6.22-1.49
		c2.41,0,4.51,0.5,6.21,1.49c1.74,1,2.62,2.23,2.62,3.66c0,0.54-0.13,1.06-0.37,1.53c-0.28,0.54-0.72,1.05-1.32,1.52
		c-0.27,0.21-0.58,0.41-0.92,0.61c-0.62,0.36-1.29,0.66-2.01,0.89c0,0-0.01,0-0.01,0c-0.05,0.01-0.09,0.03-0.13,0.04
		c0,0-0.01,0-0.01,0C15.43,22.78,14.07,22.97,12.6,22.97L12.6,22.97z"/>
	<path class="st1" d="M8.63,22.17c1.19,0.35,2.52,0.53,3.97,0.53c1.45,0,2.78-0.18,3.96-0.53c0.05-0.02,0.11-0.04,0.17-0.05
		c0.7-0.22,1.35-0.51,1.95-0.86c0.33-0.19,0.63-0.39,0.89-0.59c0.57-0.44,0.98-0.92,1.25-1.43c0.23-0.44,0.34-0.91,0.34-1.41
		c0-1.33-0.83-2.49-2.48-3.43c-1.67-0.96-3.71-1.45-6.08-1.45c-2.37,0-4.42,0.49-6.09,1.45c-1.64,0.95-2.47,2.1-2.47,3.43
		c0,0.5,0.11,0.97,0.34,1.41c0.26,0.51,0.68,0.99,1.25,1.43c0.26,0.2,0.56,0.4,0.88,0.59c0.6,0.35,1.26,0.64,1.95,0.86
		C8.52,22.13,8.57,22.14,8.63,22.17z M12.6,22.97c-1.48,0-2.84-0.18-4.05-0.55c0,0-0.01,0-0.01,0c-0.04-0.02-0.09-0.03-0.13-0.04
		c0,0-0.01,0-0.01,0C7.67,22.14,7,21.84,6.38,21.48c-0.34-0.2-0.64-0.4-0.91-0.61c-0.6-0.47-1.04-0.98-1.32-1.52
		c-0.24-0.48-0.37-0.99-0.37-1.53c0-1.43,0.88-2.67,2.6-3.66c1.71-0.99,3.8-1.49,6.22-1.49c2.41,0,4.51,0.5,6.21,1.49
		c1.74,1,2.62,2.23,2.62,3.66c0,0.54-0.13,1.06-0.37,1.53c-0.28,0.54-0.72,1.05-1.32,1.52c-0.27,0.21-0.58,0.41-0.92,0.61
		c-0.62,0.36-1.29,0.66-2.01,0.89c0,0-0.01,0-0.01,0c-0.05,0.01-0.09,0.03-0.13,0.04c0,0-0.01,0-0.01,0
		C15.43,22.78,14.07,22.97,12.6,22.97z"/>
	<path class="st2" d="M6.69,14.1c-0.12-0.49-0.25-0.96-0.38-1.39C4.89,7.91,3.04,6.4,0.76,8.18v6.58c1.36,4.44,3.33,6.42,5.92,5.92
		V14.1z M18.52,14.1c-3.98-3.34-7.93-3.34-11.84,0v6.58c3.98,3.35,7.93,3.35,11.84,0V14.1L18.52,14.1z"/>
	<path class="st1" d="M6.69,14.1c-0.12-0.49-0.25-0.96-0.38-1.39C4.89,7.91,3.04,6.4,0.76,8.18v6.58c1.36,4.44,3.33,6.42,5.92,5.92
		V14.1z M18.52,14.1c-3.98-3.34-7.93-3.34-11.84,0v6.58c3.98,3.35,7.93,3.35,11.84,0V14.1L18.52,14.1z"/>
	<path class="st2" d="M18.87,12.71c-0.12,0.44-0.24,0.9-0.34,1.39v6.58c2.68,0.73,4.65-1.24,5.92-5.92V8.18
		C22,6.57,20.14,8.08,18.87,12.71"/>
	<path class="st1" d="M18.87,12.71c-0.12,0.44-0.24,0.9-0.34,1.39v6.58c2.68,0.73,4.65-1.24,5.92-5.92V8.18
		C22,6.57,20.14,8.08,18.87,12.71z"/>
	<path class="st2" d="M6.45,2.26c-0.03,0.01-0.06,0.02-0.1,0.03C4.85,3.03,2.99,5,0.76,8.18c2.28-1.78,4.13-0.27,5.55,4.53
		c0.13,0.44,0.25,0.9,0.38,1.39c3.91-3.34,7.86-3.34,11.84,0c0.11-0.49,0.22-0.96,0.34-1.39c1.27-4.63,3.12-6.14,5.58-4.53
		c-2.32-3.22-4.19-5.18-5.62-5.9c-0.03-0.01-0.06-0.01-0.09-0.01l0-0.03C17.05,1.25,15,0.76,12.6,0.76c-2.41,0-4.46,0.49-6.16,1.46
		L6.45,2.26z"/>
	<path class="st1" d="M6.45,2.26c-0.03,0.01-0.06,0.02-0.1,0.03C4.85,3.03,2.99,5,0.76,8.18c2.28-1.78,4.13-0.27,5.55,4.53
		c0.13,0.44,0.25,0.9,0.38,1.39c3.91-3.34,7.86-3.34,11.84,0c0.11-0.49,0.22-0.96,0.34-1.39c1.27-4.63,3.12-6.14,5.58-4.53
		c-2.32-3.22-4.19-5.18-5.62-5.9c-0.03-0.01-0.06-0.01-0.09-0.01l0-0.03C17.05,1.25,15,0.76,12.6,0.76c-2.41,0-4.46,0.49-6.16,1.46
		L6.45,2.26z"/>
	<path class="st2" d="M2.52,7.33c0.21,0,0.41,0.03,0.61,0.1c1.3,0.42,2.38,2.13,3.31,5.25c0.11,0.37,0.22,0.77,0.32,1.19
		c3.84-3.19,7.77-3.19,11.68,0c0.09-0.41,0.19-0.81,0.3-1.18c0.8-2.94,1.83-4.61,3.12-5.1c0.64-0.24,1.35-0.18,2.11,0.18
		c-2.13-2.89-3.87-4.69-5.2-5.36h0c-0.03-0.02-0.06-0.03-0.09-0.06C17.01,1.38,14.96,0.9,12.6,0.9c-2.37,0-4.42,0.48-6.08,1.44
		C6.49,2.36,6.45,2.38,6.42,2.4c0,0-0.01,0-0.01,0c0,0,0,0-0.01,0C5.03,3.09,3.31,4.86,1.29,7.67C1.71,7.44,2.12,7.33,2.52,7.33
		L2.52,7.33z M0.9,14.74c0.67,2.18,1.5,3.78,2.46,4.74c0.92,0.92,2,1.29,3.19,1.09v-6.45c-0.12-0.48-0.24-0.94-0.37-1.37
		C5.3,9.77,4.24,8.06,3.05,7.68C2.39,7.47,1.67,7.66,0.9,8.25V14.74z M18.66,20.58c0.9,0.22,1.72,0.13,2.45-0.29
		c1.34-0.76,2.41-2.63,3.21-5.55V8.25c-0.86-0.55-1.66-0.69-2.35-0.43c-1.19,0.45-2.19,2.11-2.96,4.92
		c-0.12,0.43-0.23,0.89-0.34,1.37V20.58z M6.82,20.62c1.94,1.62,3.89,2.44,5.81,2.44c1.92,0,3.85-0.82,5.76-2.44v-6.45
		c-1.94-1.62-3.9-2.44-5.81-2.44c-1.92,0-3.85,0.82-5.76,2.44V20.62z M12.63,23.32c-1.99,0-3.99-0.83-5.98-2.49
		c-0.25,0.04-0.49,0.07-0.73,0.07c-2.28,0-4.05-2.04-5.29-6.09c0-0.01-0.01-0.03-0.01-0.04V8.18V8.17c0-0.02,0.01-0.05,0.02-0.06
		c2.23-3.18,4.12-5.18,5.63-5.93c0.03-0.02,0.06-0.04,0.08-0.06c0,0,0.01,0,0.01-0.01c1.71-0.98,3.8-1.48,6.22-1.48
		c2.41,0,4.5,0.5,6.21,1.48l0,0c0,0,0,0,0.01,0c0.02,0.01,0.05,0.03,0.07,0.04l0,0c1.44,0.72,3.35,2.72,5.67,5.94
		c0.01,0.02,0.02,0.04,0.03,0.07v0.01v6.58c0,0.01,0,0.02,0,0.04c-0.81,3-1.93,4.92-3.34,5.73c-0.8,0.46-1.7,0.56-2.68,0.31
		C16.6,22.49,14.62,23.32,12.63,23.32L12.63,23.32z"/>
	<path class="st1" d="M2.52,7.33c0.21,0,0.41,0.03,0.61,0.1c1.3,0.42,2.38,2.13,3.31,5.25c0.11,0.37,0.22,0.77,0.32,1.19
		c3.84-3.19,7.77-3.19,11.68,0c0.09-0.41,0.19-0.81,0.3-1.18c0.8-2.94,1.83-4.61,3.12-5.1c0.64-0.24,1.35-0.18,2.11,0.18
		c-2.13-2.89-3.87-4.69-5.2-5.36h0c-0.03-0.02-0.06-0.03-0.09-0.06C17.01,1.38,14.96,0.9,12.6,0.9c-2.37,0-4.42,0.48-6.08,1.44
		C6.49,2.36,6.45,2.38,6.42,2.4c0,0-0.01,0-0.01,0c0,0,0,0-0.01,0C5.03,3.09,3.31,4.86,1.29,7.67C1.71,7.44,2.12,7.33,2.52,7.33z
		 M0.9,14.74c0.67,2.18,1.5,3.78,2.46,4.74c0.92,0.92,2,1.29,3.19,1.09v-6.45c-0.12-0.48-0.24-0.94-0.37-1.37
		C5.3,9.77,4.24,8.06,3.05,7.68C2.39,7.47,1.67,7.66,0.9,8.25V14.74z M18.66,20.58c0.9,0.22,1.72,0.13,2.45-0.29
		c1.34-0.76,2.41-2.63,3.21-5.55V8.25c-0.86-0.55-1.66-0.69-2.35-0.43c-1.19,0.45-2.19,2.11-2.96,4.92
		c-0.12,0.43-0.23,0.89-0.34,1.37V20.58z M6.82,20.62c1.94,1.62,3.89,2.44,5.81,2.44c1.92,0,3.85-0.82,5.76-2.44v-6.45
		c-1.94-1.62-3.9-2.44-5.81-2.44c-1.92,0-3.85,0.82-5.76,2.44V20.62z M12.63,23.32c-1.99,0-3.99-0.83-5.98-2.49
		c-0.25,0.04-0.49,0.07-0.73,0.07c-2.28,0-4.05-2.04-5.29-6.09c0-0.01-0.01-0.03-0.01-0.04V8.18V8.17c0-0.02,0.01-0.05,0.02-0.06
		c2.23-3.18,4.12-5.18,5.63-5.93c0.03-0.02,0.06-0.04,0.08-0.06c0,0,0.01,0,0.01-0.01c1.71-0.98,3.8-1.48,6.22-1.48
		c2.41,0,4.5,0.5,6.21,1.48l0,0c0,0,0,0,0.01,0c0.02,0.01,0.05,0.03,0.07,0.04l0,0c1.44,0.72,3.35,2.72,5.67,5.94
		c0.01,0.02,0.02,0.04,0.03,0.07v0.01v6.58c0,0.01,0,0.02,0,0.04c-0.81,3-1.93,4.92-3.34,5.73c-0.8,0.46-1.7,0.56-2.68,0.31
		C16.6,22.49,14.62,23.32,12.63,23.32z"/>
	<path class="st2" d="M18.24,6.74c0.05-0.18,0.07-0.37,0.07-0.57c0-0.94-0.58-1.74-1.72-2.4c-1.15-0.66-2.53-0.99-4.16-0.99
		c-1.63,0-3.02,0.33-4.16,0.99c-1.15,0.66-1.72,1.46-1.72,2.4c0,0.34,0.08,0.67,0.23,0.98C7.05,6.6,7.55,6.09,8.26,5.63
		c1.15-0.74,2.53-1.17,4.16-1.29c1.63-0.12,3.01,0.12,4.16,0.7c0.72,0.36,1.21,0.79,1.48,1.3C18.14,6.47,18.2,6.6,18.24,6.74
		 M18.24,6.74c-0.04-0.14-0.1-0.27-0.17-0.4c-0.27-0.5-0.76-0.94-1.48-1.3c-1.15-0.58-2.53-0.81-4.16-0.7
		C10.8,4.46,9.41,4.89,8.26,5.63C7.55,6.09,7.05,6.6,6.78,7.15c0,0.01,0.01,0.01,0.01,0.02C6.96,7.51,7.24,7.83,7.6,8.13
		C7.62,8.11,7.64,8.1,7.66,8.08c0.18-0.16,0.38-0.31,0.61-0.45c1.15-0.75,2.53-1.18,4.16-1.29c1.63-0.12,3.01,0.12,4.16,0.7
		c0.23,0.11,0.43,0.23,0.61,0.36c0.17,0.12,0.32,0.24,0.45,0.38c0.18-0.19,0.32-0.39,0.42-0.6C18.14,7.03,18.2,6.89,18.24,6.74
		 M16.13,8.82c0.16-0.08,0.31-0.16,0.46-0.25c0.23-0.13,0.43-0.26,0.61-0.4c0.17-0.13,0.32-0.26,0.45-0.4
		c-0.13-0.13-0.28-0.26-0.45-0.38c-0.18-0.13-0.39-0.25-0.61-0.36c-1.15-0.58-2.53-0.81-4.16-0.7C10.8,6.45,9.41,6.88,8.26,7.63
		c-0.23,0.15-0.43,0.3-0.61,0.45C7.64,8.1,7.62,8.11,7.6,8.13c0.02,0.01,0.04,0.03,0.05,0.04c0.18,0.14,0.38,0.27,0.61,0.4
		C8.59,8.76,8.94,8.92,9.3,9.06c0.1-0.04,0.2-0.08,0.3-0.12c0.84-0.33,1.78-0.53,2.82-0.61c1.04-0.07,1.97-0.01,2.82,0.2
		C15.55,8.61,15.85,8.7,16.13,8.82 M15.24,9.17c0.31-0.1,0.6-0.21,0.88-0.35c-0.28-0.11-0.57-0.21-0.88-0.29
		c-0.84-0.21-1.78-0.28-2.82-0.2c-1.04,0.08-1.98,0.28-2.82,0.61C9.5,8.98,9.4,9.02,9.3,9.06c0.1,0.04,0.2,0.07,0.3,0.11
		c0.03,0.01,0.07,0.02,0.1,0.03c0.82,0.24,1.72,0.37,2.72,0.37c0.99,0,1.9-0.12,2.71-0.37C15.18,9.19,15.21,9.18,15.24,9.17"/>
	<path class="st1" d="M18.24,6.74c0.05-0.18,0.07-0.37,0.07-0.57c0-0.94-0.58-1.74-1.72-2.4c-1.15-0.66-2.53-0.99-4.16-0.99
		c-1.63,0-3.02,0.33-4.16,0.99c-1.15,0.66-1.72,1.46-1.72,2.4c0,0.34,0.08,0.67,0.23,0.98C7.05,6.6,7.55,6.09,8.26,5.63
		c1.15-0.74,2.53-1.17,4.16-1.29c1.63-0.12,3.01,0.12,4.16,0.7c0.72,0.36,1.21,0.79,1.48,1.3C18.14,6.47,18.2,6.6,18.24,6.74z
		 M18.24,6.74c-0.04-0.14-0.1-0.27-0.17-0.4c-0.27-0.5-0.76-0.94-1.48-1.3c-1.15-0.58-2.53-0.81-4.16-0.7
		C10.8,4.46,9.41,4.89,8.26,5.63C7.55,6.09,7.05,6.6,6.78,7.15c0,0.01,0.01,0.01,0.01,0.02C6.96,7.51,7.24,7.83,7.6,8.13
		C7.62,8.11,7.64,8.1,7.66,8.08c0.18-0.16,0.38-0.31,0.61-0.45c1.15-0.75,2.53-1.18,4.16-1.29c1.63-0.12,3.01,0.12,4.16,0.7
		c0.23,0.11,0.43,0.23,0.61,0.36c0.17,0.12,0.32,0.24,0.45,0.38c0.18-0.19,0.32-0.39,0.42-0.6C18.14,7.03,18.2,6.89,18.24,6.74
		L18.24,6.74z M16.13,8.82c0.16-0.08,0.31-0.16,0.46-0.25c0.23-0.13,0.43-0.26,0.61-0.4c0.17-0.13,0.32-0.26,0.45-0.4
		c-0.13-0.13-0.28-0.26-0.45-0.38c-0.18-0.13-0.39-0.25-0.61-0.36c-1.15-0.58-2.53-0.81-4.16-0.7C10.8,6.45,9.41,6.88,8.26,7.63
		c-0.23,0.15-0.43,0.3-0.61,0.45C7.64,8.1,7.62,8.11,7.6,8.13c0.02,0.01,0.04,0.03,0.05,0.04c0.18,0.14,0.38,0.27,0.61,0.4
		C8.59,8.76,8.94,8.92,9.3,9.06c0.1-0.04,0.2-0.08,0.3-0.12c0.84-0.33,1.78-0.53,2.82-0.61c1.04-0.07,1.97-0.01,2.82,0.2
		C15.55,8.61,15.85,8.7,16.13,8.82L16.13,8.82z M15.24,9.17c0.31-0.1,0.6-0.21,0.88-0.35c-0.28-0.11-0.57-0.21-0.88-0.29
		c-0.84-0.21-1.78-0.28-2.82-0.2c-1.04,0.08-1.98,0.28-2.82,0.61C9.5,8.98,9.4,9.02,9.3,9.06c0.1,0.04,0.2,0.07,0.3,0.11
		c0.03,0.01,0.07,0.02,0.1,0.03c0.82,0.24,1.72,0.37,2.72,0.37c0.99,0,1.9-0.12,2.71-0.37C15.18,9.19,15.21,9.18,15.24,9.17
		L15.24,9.17z"/>
	<path class="st2" d="M12.43,2.92c-1.6,0-2.98,0.33-4.1,0.97c-1.1,0.63-1.65,1.4-1.65,2.28c0,0.23,0.04,0.46,0.12,0.67
		c0.3-0.48,0.77-0.92,1.4-1.33c1.16-0.75,2.58-1.19,4.23-1.31c1.64-0.12,3.07,0.12,4.23,0.71c0.73,0.37,1.24,0.81,1.53,1.33
		c0-0.03,0-0.05,0-0.08c0-0.88-0.56-1.65-1.66-2.28C15.4,3.24,14.02,2.92,12.43,2.92 M6.93,7.15C7.08,7.43,7.31,7.7,7.6,7.95
		c0.18-0.15,0.37-0.3,0.59-0.44c1.16-0.76,2.58-1.2,4.23-1.31c1.64-0.12,3.07,0.12,4.23,0.71c0.23,0.12,0.44,0.24,0.63,0.37
		c0.13,0.09,0.25,0.19,0.36,0.29c0.12-0.15,0.23-0.31,0.31-0.46c0.06-0.12,0.11-0.24,0.15-0.37c-0.04-0.11-0.09-0.23-0.15-0.34
		c-0.25-0.48-0.73-0.89-1.42-1.24c-1.12-0.57-2.5-0.8-4.09-0.68c-1.6,0.11-2.98,0.54-4.1,1.27C7.67,6.17,7.2,6.65,6.93,7.15
		 M7.81,8.12c0.15,0.12,0.33,0.23,0.52,0.33c0.3,0.18,0.63,0.33,0.97,0.46c0.09-0.04,0.17-0.07,0.26-0.1
		c0.85-0.33,1.81-0.54,2.86-0.62c1.04-0.07,2.01-0.01,2.86,0.21c0.29,0.07,0.58,0.16,0.84,0.27c0.14-0.07,0.27-0.14,0.4-0.22
		c0.22-0.12,0.42-0.26,0.6-0.39c0.12-0.09,0.24-0.19,0.34-0.29c-0.1-0.09-0.21-0.18-0.33-0.27c-0.18-0.12-0.38-0.24-0.6-0.35
		c-1.12-0.57-2.5-0.8-4.09-0.68c-1.6,0.11-2.98,0.54-4.1,1.27C8.15,7.86,7.97,7.99,7.81,8.12 M9.76,9.08
		c0.8,0.24,1.7,0.36,2.67,0.36c0.97,0,1.87-0.12,2.67-0.36c0.04-0.02,0.08-0.03,0.11-0.04c0.19-0.06,0.38-0.13,0.57-0.21
		c-0.18-0.06-0.37-0.12-0.56-0.17c-0.82-0.2-1.76-0.27-2.77-0.2c-1.01,0.07-1.93,0.27-2.75,0.59C9.71,9.06,9.73,9.07,9.76,9.08
		 M12.43,9.7c-1.01,0-1.93-0.12-2.76-0.37c0,0-0.01,0-0.01,0C9.63,9.31,9.6,9.3,9.57,9.3C9.46,9.26,9.35,9.22,9.25,9.18h0
		c-0.37-0.14-0.73-0.3-1.06-0.5C7.97,8.56,7.76,8.42,7.58,8.28C7.56,8.26,7.54,8.25,7.52,8.23c0,0,0,0,0,0
		c-0.38-0.31-0.66-0.64-0.85-1L6.66,7.21C6.5,6.89,6.41,6.54,6.41,6.17c0-0.99,0.6-1.83,1.79-2.51c1.16-0.67,2.58-1.01,4.23-1.01
		c1.64,0,3.06,0.34,4.23,1.01c1.19,0.68,1.79,1.53,1.79,2.51c0,0.21-0.03,0.41-0.08,0.6c0,0,0,0.01,0,0.01
		c-0.04,0.15-0.1,0.3-0.18,0.45c-0.11,0.21-0.26,0.43-0.44,0.63c0,0,0,0-0.01,0.01c-0.14,0.14-0.29,0.28-0.46,0.41
		c-0.19,0.14-0.4,0.28-0.63,0.41c-0.15,0.09-0.31,0.17-0.47,0.25C15.9,9.08,15.6,9.2,15.28,9.3c-0.03,0.01-0.06,0.02-0.09,0.03
		c0,0-0.01,0-0.01,0C14.36,9.58,13.43,9.7,12.43,9.7"/>
	<path class="st1" d="M12.43,2.92c-1.6,0-2.98,0.33-4.1,0.97c-1.1,0.63-1.65,1.4-1.65,2.28c0,0.23,0.04,0.46,0.12,0.67
		c0.3-0.48,0.77-0.92,1.4-1.33c1.16-0.75,2.58-1.19,4.23-1.31c1.64-0.12,3.07,0.12,4.23,0.71c0.73,0.37,1.24,0.81,1.53,1.33
		c0-0.03,0-0.05,0-0.08c0-0.88-0.56-1.65-1.66-2.28C15.4,3.24,14.02,2.92,12.43,2.92z M6.93,7.15C7.08,7.43,7.31,7.7,7.6,7.95
		c0.18-0.15,0.37-0.3,0.59-0.44c1.16-0.76,2.58-1.2,4.23-1.31c1.64-0.12,3.07,0.12,4.23,0.71c0.23,0.12,0.44,0.24,0.63,0.37
		c0.13,0.09,0.25,0.19,0.36,0.29c0.12-0.15,0.23-0.31,0.31-0.46c0.06-0.12,0.11-0.24,0.15-0.37c-0.04-0.11-0.09-0.23-0.15-0.34
		c-0.25-0.48-0.73-0.89-1.42-1.24c-1.12-0.57-2.5-0.8-4.09-0.68c-1.6,0.11-2.98,0.54-4.1,1.27C7.67,6.17,7.2,6.65,6.93,7.15z
		 M7.81,8.12c0.15,0.12,0.33,0.23,0.52,0.33c0.3,0.18,0.63,0.33,0.97,0.46c0.09-0.04,0.17-0.07,0.26-0.1
		c0.85-0.33,1.81-0.54,2.86-0.62c1.04-0.07,2.01-0.01,2.86,0.21c0.29,0.07,0.58,0.16,0.84,0.27c0.14-0.07,0.27-0.14,0.4-0.22
		c0.22-0.12,0.42-0.26,0.6-0.39c0.12-0.09,0.24-0.19,0.34-0.29c-0.1-0.09-0.21-0.18-0.33-0.27c-0.18-0.12-0.38-0.24-0.6-0.35
		c-1.12-0.57-2.5-0.8-4.09-0.68c-1.6,0.11-2.98,0.54-4.1,1.27C8.15,7.86,7.97,7.99,7.81,8.12z M9.76,9.08
		c0.8,0.24,1.7,0.36,2.67,0.36c0.97,0,1.87-0.12,2.67-0.36c0.04-0.02,0.08-0.03,0.11-0.04c0.19-0.06,0.38-0.13,0.57-0.21
		c-0.18-0.06-0.37-0.12-0.56-0.17c-0.82-0.2-1.76-0.27-2.77-0.2c-1.01,0.07-1.93,0.27-2.75,0.59C9.71,9.06,9.73,9.07,9.76,9.08z
		 M12.43,9.7c-1.01,0-1.93-0.12-2.76-0.37c0,0-0.01,0-0.01,0C9.63,9.31,9.6,9.3,9.57,9.3C9.46,9.26,9.35,9.22,9.25,9.18h0
		c-0.37-0.14-0.73-0.3-1.06-0.5C7.97,8.56,7.76,8.42,7.58,8.28C7.56,8.26,7.54,8.25,7.52,8.23c0,0,0,0,0,0
		c-0.38-0.31-0.66-0.64-0.85-1L6.66,7.21C6.5,6.89,6.41,6.54,6.41,6.17c0-0.99,0.6-1.83,1.79-2.51c1.16-0.67,2.58-1.01,4.23-1.01
		c1.64,0,3.06,0.34,4.23,1.01c1.19,0.68,1.79,1.53,1.79,2.51c0,0.21-0.03,0.41-0.08,0.6c0,0,0,0.01,0,0.01
		c-0.04,0.15-0.1,0.3-0.18,0.45c-0.11,0.21-0.26,0.43-0.44,0.63c0,0,0,0-0.01,0.01c-0.14,0.14-0.29,0.28-0.46,0.41
		c-0.19,0.14-0.4,0.28-0.63,0.41c-0.15,0.09-0.31,0.17-0.47,0.25C15.9,9.08,15.6,9.2,15.28,9.3c-0.03,0.01-0.06,0.02-0.09,0.03
		c0,0-0.01,0-0.01,0C14.36,9.58,13.43,9.7,12.43,9.7z"/>
	<path class="st2" d="M8.63,10.52c1.19,0.35,2.52,0.53,3.97,0.53c1.45,0,2.78-0.18,3.96-0.53c0.05-0.02,0.11-0.04,0.17-0.05
		c0.7-0.22,1.35-0.51,1.95-0.86C19,9.41,19.3,9.22,19.57,9.02c0.57-0.44,0.98-0.92,1.25-1.43c0.23-0.44,0.34-0.92,0.34-1.42
		c0-1.33-0.83-2.48-2.48-3.43C17.01,1.78,14.97,1.3,12.6,1.3c-2.37,0-4.42,0.49-6.09,1.45c-1.64,0.95-2.47,2.1-2.47,3.43
		c0,0.5,0.11,0.97,0.34,1.42c0.26,0.5,0.68,0.98,1.25,1.43c0.26,0.2,0.56,0.4,0.88,0.59c0.6,0.35,1.26,0.64,1.95,0.86
		C8.52,10.48,8.57,10.5,8.63,10.52L8.63,10.52z M12.6,11.32c-1.48,0-2.84-0.18-4.05-0.55c0,0-0.01,0-0.01,0
		c-0.04-0.02-0.09-0.03-0.13-0.04c0,0-0.01,0-0.01,0C7.67,10.5,7,10.2,6.38,9.84c-0.34-0.2-0.64-0.4-0.91-0.61
		c-0.6-0.47-1.04-0.98-1.32-1.52c-0.24-0.48-0.37-1-0.37-1.54c0-1.43,0.88-2.66,2.6-3.66c1.71-0.98,3.8-1.48,6.22-1.48
		c2.41,0,4.51,0.5,6.21,1.48c1.74,1,2.62,2.23,2.62,3.66c0,0.54-0.13,1.06-0.37,1.54c-0.28,0.54-0.72,1.05-1.32,1.52
		c-0.27,0.21-0.58,0.41-0.92,0.61c-0.62,0.36-1.29,0.66-2.01,0.89c0,0-0.01,0-0.01,0c-0.05,0.01-0.09,0.02-0.13,0.04
		c0,0-0.01,0-0.01,0C15.43,11.14,14.07,11.32,12.6,11.32L12.6,11.32z"/>
	<path class="st1" d="M8.63,10.52c1.19,0.35,2.52,0.53,3.97,0.53c1.45,0,2.78-0.18,3.96-0.53c0.05-0.02,0.11-0.04,0.17-0.05
		c0.7-0.22,1.35-0.51,1.95-0.86C19,9.41,19.3,9.22,19.57,9.02c0.57-0.44,0.98-0.92,1.25-1.43c0.23-0.44,0.34-0.92,0.34-1.42
		c0-1.33-0.83-2.48-2.48-3.43C17.01,1.78,14.97,1.3,12.6,1.3c-2.37,0-4.42,0.49-6.09,1.45c-1.64,0.95-2.47,2.1-2.47,3.43
		c0,0.5,0.11,0.97,0.34,1.42c0.26,0.5,0.68,0.98,1.25,1.43c0.26,0.2,0.56,0.4,0.88,0.59c0.6,0.35,1.26,0.64,1.95,0.86
		C8.52,10.48,8.57,10.5,8.63,10.52z M12.6,11.32c-1.48,0-2.84-0.18-4.05-0.55c0,0-0.01,0-0.01,0c-0.04-0.02-0.09-0.03-0.13-0.04
		c0,0-0.01,0-0.01,0C7.67,10.5,7,10.2,6.38,9.84c-0.34-0.2-0.64-0.4-0.91-0.61c-0.6-0.47-1.04-0.98-1.32-1.52
		c-0.24-0.48-0.37-1-0.37-1.54c0-1.43,0.88-2.66,2.6-3.66c1.71-0.98,3.8-1.48,6.22-1.48c2.41,0,4.51,0.5,6.21,1.48
		c1.74,1,2.62,2.23,2.62,3.66c0,0.54-0.13,1.06-0.37,1.54c-0.28,0.54-0.72,1.05-1.32,1.52c-0.27,0.21-0.58,0.41-0.92,0.61
		c-0.62,0.36-1.29,0.66-2.01,0.89c0,0-0.01,0-0.01,0c-0.05,0.01-0.09,0.02-0.13,0.04c0,0-0.01,0-0.01,0
		C15.43,11.14,14.07,11.32,12.6,11.32z"/>
</g>
</svg>
