<?xml version="1.0" encoding="utf-8"?>
<!-- Generator: Adobe Illustrator 23.0.2, SVG Export Plug-In . SVG Version: 6.00 Build 0)  -->
<svg version="1.1" id="Layer_1" xmlns="http://www.w3.org/2000/svg" xmlns:xlink="http://www.w3.org/1999/xlink" x="0px" y="0px"
	 width="19.32px" height="49.59px" viewBox="0 0 19.32 49.59" style="enable-background:new 0 0 19.32 49.59;" xml:space="preserve"
	>
<style type="text/css">
	.st0{fill-rule:evenodd;clip-rule:evenodd;fill:#606060;}
	.st1{fill:none;stroke:#898989;stroke-width:0.72;stroke-linejoin:round;}
	.st2{fill-rule:evenodd;clip-rule:evenodd;fill:#131313;}
	.st3{fill:none;stroke:#898989;stroke-width:0.72;}
	.st4{fill:none;stroke:#F1E82B;}
	.st5{fill:none;stroke:#898989;}
	.st6{fill:none;stroke:#929292;}
</style>
<g transform="translate(1)">
	<g>
		<path class="st2" d="M6.7,44.91c0.5,1.17,1.16,2.27,1.95,3.27c0.32-0.41,0.63-0.86,0.91-1.33c0.04-0.07,0.11-0.12,0.18-0.16
			c0.35-0.15,0.67-0.32,0.96-0.5c0.5-0.32,0.75-0.66,0.75-1.02c0-0.17-0.05-0.33-0.17-0.47c-0.07-0.09-0.1-0.21-0.08-0.33
			c0.02-0.12,0.09-0.21,0.19-0.27c0.06-0.04,0.12-0.07,0.18-0.11c0.75-0.48,1.12-0.98,1.12-1.54c0-0.3-0.1-0.57-0.32-0.82
			c-0.07-0.08-0.11-0.19-0.1-0.3c0.01-0.11,0.06-0.21,0.14-0.28c0.52-0.44,0.77-0.89,0.77-1.39c0-0.29-0.08-0.54-0.25-0.78
			c-0.11-0.16-0.09-0.39,0.06-0.52c0.5-0.46,0.74-0.95,0.74-1.48c0-0.4-0.14-0.75-0.43-1.08c-0.13-0.15-0.14-0.37-0.01-0.52
			c0.29-0.37,0.44-0.74,0.44-1.15c0-0.4-0.14-0.76-0.43-1.08c-0.13-0.15-0.13-0.37-0.01-0.52c0.29-0.37,0.44-0.74,0.44-1.15
			c0-0.4-0.14-0.76-0.43-1.08c-0.13-0.15-0.13-0.37-0.01-0.52c0.3-0.37,0.44-0.74,0.44-1.15c0-0.4-0.14-0.76-0.43-1.08
			c-0.13-0.15-0.13-0.37-0.01-0.52c0.3-0.37,0.44-0.74,0.44-1.15c0-0.4-0.14-0.76-0.43-1.08c-0.13-0.15-0.13-0.37-0.01-0.52
			c0.3-0.37,0.44-0.74,0.44-1.15c0-0.4-0.14-0.76-0.43-1.08c-0.13-0.15-0.13-0.37-0.01-0.52c0.3-0.37,0.44-0.74,0.44-1.15
			c0-0.4-0.14-0.75-0.43-1.08c-0.13-0.15-0.13-0.37-0.01-0.52c0.3-0.37,0.44-0.74,0.44-1.15c0-0.4-0.14-0.76-0.43-1.08
			c-0.13-0.15-0.13-0.37-0.01-0.52c0.28-0.35,0.43-0.71,0.44-1.1c0-0.15,0.09-0.29,0.24-0.36c0.28-0.13,0.54-0.26,0.78-0.4
			c1.61-0.93,2.39-2,2.4-3.27V9.91l0-3.83V6.05c0-0.05,0-0.1,0-0.15s0-0.1,0-0.15c-0.04-0.85-0.43-1.6-1.2-2.29l-1.31,0.76
			c0,0-0.01,0-0.01,0.01h0c-0.09,0.05-0.18,0.06-0.27,0.04h0c-0.02,0-0.03-0.01-0.05-0.01h0c-0.09-0.03-0.17-0.09-0.22-0.17v0
			c0,0,0,0,0,0c0-0.01-0.01-0.01-0.01-0.02l0,0v0C14.06,4.03,14.05,4,14.04,3.97c-0.02-0.07-0.16-0.56-0.31-1.06
			C13.6,2.43,13.52,2.15,13.47,2c-1.39-0.55-3.01-0.83-4.81-0.83c-2.37,0-4.42,0.49-6.09,1.45c-1.62,0.93-2.41,2-2.41,3.28
			c0,0.07,0,0.14,0.01,0.2c0,0.01,0,0.02,0,0.03c0,0.02,0,0.04,0,0.06l0,3.45c0,0.01,0,0.02,0,0.03c0,0.07-0.01,0.15-0.01,0.22
			c0,0.03,0,0.15,0.01,0.36v0.01v0.84c0.09,1.17,0.89,2.2,2.4,3.07c0.26,0.15,0.54,0.29,0.84,0.43c0.18,0.08,0.27,0.28,0.22,0.47
			c-0.04,0.15-0.06,0.29-0.06,0.44c0,0.4,0.14,0.76,0.43,1.08c0.13,0.15,0.14,0.37,0.01,0.52c-0.3,0.37-0.44,0.75-0.44,1.16
			c0,0.4,0.14,0.75,0.43,1.07c0.13,0.15,0.13,0.37,0.01,0.52C3.72,20.22,3.58,20.59,3.58,21c0,0.4,0.14,0.76,0.43,1.08
			c0.13,0.15,0.14,0.37,0.01,0.52c-0.3,0.37-0.44,0.75-0.44,1.15c0,0.4,0.14,0.75,0.43,1.08c0.13,0.15,0.14,0.37,0.01,0.52
			c-0.3,0.37-0.44,0.75-0.44,1.15c0,0.4,0.14,0.75,0.43,1.08c0.13,0.15,0.14,0.37,0.01,0.52c-0.3,0.37-0.44,0.75-0.44,1.15
			c0,0.4,0.14,0.76,0.43,1.08c0.13,0.15,0.14,0.37,0.01,0.52c-0.3,0.37-0.44,0.75-0.44,1.15c0,0.4,0.14,0.76,0.43,1.08
			c0.13,0.15,0.14,0.37,0.01,0.52c-0.3,0.37-0.44,0.75-0.44,1.15c0,0.4,0.14,0.75,0.43,1.08c0.13,0.15,0.14,0.37,0.01,0.52
			c-0.3,0.37-0.44,0.75-0.44,1.16c0,0.52,0.24,0.96,0.72,1.35c0.16,0.13,0.2,0.36,0.08,0.53c-0.17,0.27-0.25,0.54-0.25,0.83
			c0,0.49,0.24,0.91,0.74,1.27c0.09,0.06,0.15,0.16,0.16,0.27c0.01,0.11-0.01,0.22-0.08,0.3c-0.22,0.28-0.33,0.56-0.33,0.87
			c0,0.55,0.36,1.01,1.09,1.38c0.23,0.12,0.47,0.22,0.73,0.3C6.57,44.67,6.67,44.78,6.7,44.91L6.7,44.91z M8.65,49.23
			c-0.12,0-0.23-0.05-0.31-0.14c-0.95-1.14-1.74-2.39-2.33-3.74c-0.24-0.08-0.47-0.18-0.68-0.29c-1.01-0.52-1.52-1.23-1.52-2.1
			c0-0.36,0.09-0.71,0.28-1.04c-0.51-0.47-0.77-1.04-0.77-1.68c0-0.33,0.07-0.66,0.21-0.96c-0.51-0.5-0.76-1.09-0.76-1.75
			c0-0.49,0.14-0.96,0.43-1.4c-0.28-0.41-0.43-0.86-0.43-1.36s0.14-0.96,0.43-1.4c-0.28-0.41-0.43-0.86-0.43-1.36
			c0-0.49,0.14-0.96,0.43-1.4c-0.28-0.41-0.43-0.86-0.43-1.36c0-0.49,0.14-0.96,0.43-1.4C2.91,27.45,2.77,27,2.77,26.51
			c0-0.49,0.14-0.96,0.43-1.4c-0.28-0.41-0.43-0.86-0.43-1.36c0-0.49,0.14-0.96,0.43-1.4C2.91,21.95,2.77,21.5,2.77,21
			c0-0.49,0.14-0.96,0.43-1.4c-0.28-0.41-0.43-0.86-0.43-1.35c0-0.49,0.14-0.96,0.43-1.4C2.91,16.45,2.77,16,2.77,15.5
			c0-0.1,0.01-0.21,0.02-0.31c-0.22-0.11-0.42-0.22-0.62-0.33c-1.76-1.01-2.7-2.27-2.8-3.73c0-0.01,0-0.02,0-0.03v-0.85
			c-0.01-0.21-0.01-0.34-0.01-0.37c0-0.09,0-0.18,0.01-0.26l0-3.41c0-0.02,0-0.04,0-0.07C-0.64,6.07-0.64,5.98-0.64,5.9
			c0-1.57,0.95-2.91,2.81-3.98c1.79-1.03,3.97-1.56,6.49-1.56c1.88,0,3.58,0.29,5.06,0.87c0.07-0.01,0.15-0.01,0.22,0.02
			c0.12,0.05,0.21,0.15,0.24,0.28c0.01,0.03,0.01,0.06,0.02,0.09c0.03,0.11,0.17,0.59,0.31,1.07c0.07,0.24,0.12,0.43,0.17,0.58
			l1.11-0.64c0.13-0.08,0.29-0.07,0.41,0c0.02,0.01,0.03,0.02,0.05,0.03c1.08,0.88,1.65,1.9,1.71,3.05c0,0.06,0,0.12,0,0.19
			c0,0.06,0,0.12,0,0.18l0,4.82c-0.01,1.56-0.95,2.89-2.8,3.96c-0.2,0.11-0.41,0.23-0.63,0.33c-0.05,0.38-0.19,0.73-0.4,1.07
			c0.28,0.41,0.43,0.86,0.43,1.36c0,0.49-0.14,0.96-0.43,1.4c0.28,0.41,0.43,0.86,0.43,1.36s-0.14,0.96-0.43,1.4
			c0.28,0.41,0.43,0.86,0.43,1.36s-0.14,0.96-0.43,1.4c0.28,0.41,0.43,0.86,0.43,1.36c0,0.49-0.14,0.96-0.43,1.4
			c0.28,0.41,0.43,0.86,0.43,1.36c0,0.49-0.14,0.96-0.43,1.4c0.28,0.41,0.43,0.86,0.43,1.36s-0.14,0.96-0.43,1.4
			c0.28,0.41,0.43,0.86,0.43,1.36c0,0.49-0.14,0.96-0.43,1.39c0.28,0.41,0.43,0.86,0.43,1.35c0,0.66-0.26,1.28-0.77,1.84
			c0.15,0.3,0.22,0.61,0.22,0.95c0,0.64-0.26,1.23-0.78,1.75c0.19,0.31,0.28,0.66,0.28,1.03c0,0.81-0.46,1.53-1.36,2.14
			c0.07,0.18,0.11,0.38,0.11,0.58c0,0.65-0.38,1.22-1.12,1.7c-0.29,0.18-0.61,0.35-0.95,0.51c-0.38,0.61-0.79,1.18-1.22,1.7
			C8.89,49.17,8.77,49.23,8.65,49.23L8.65,49.23z"/>
		<path class="st1" d="M6.7,44.91c0.5,1.17,1.16,2.27,1.95,3.27c0.32-0.41,0.63-0.86,0.91-1.33c0.04-0.07,0.11-0.12,0.18-0.16
			c0.35-0.15,0.67-0.32,0.96-0.5c0.5-0.32,0.75-0.66,0.75-1.02c0-0.17-0.05-0.33-0.17-0.47c-0.07-0.09-0.1-0.21-0.08-0.33
			c0.02-0.12,0.09-0.21,0.19-0.27c0.06-0.04,0.12-0.07,0.18-0.11c0.75-0.48,1.12-0.98,1.12-1.54c0-0.3-0.1-0.57-0.32-0.82
			c-0.07-0.08-0.11-0.19-0.1-0.3c0.01-0.11,0.06-0.21,0.14-0.28c0.52-0.44,0.77-0.89,0.77-1.39c0-0.29-0.08-0.54-0.25-0.78
			c-0.11-0.16-0.09-0.39,0.06-0.52c0.5-0.46,0.74-0.95,0.74-1.48c0-0.4-0.14-0.75-0.43-1.08c-0.13-0.15-0.14-0.37-0.01-0.52
			c0.29-0.37,0.44-0.74,0.44-1.15c0-0.4-0.14-0.76-0.43-1.08c-0.13-0.15-0.13-0.37-0.01-0.52c0.29-0.37,0.44-0.74,0.44-1.15
			c0-0.4-0.14-0.76-0.43-1.08c-0.13-0.15-0.13-0.37-0.01-0.52c0.3-0.37,0.44-0.74,0.44-1.15c0-0.4-0.14-0.76-0.43-1.08
			c-0.13-0.15-0.13-0.37-0.01-0.52c0.3-0.37,0.44-0.74,0.44-1.15c0-0.4-0.14-0.76-0.43-1.08c-0.13-0.15-0.13-0.37-0.01-0.52
			c0.3-0.37,0.44-0.74,0.44-1.15c0-0.4-0.14-0.76-0.43-1.08c-0.13-0.15-0.13-0.37-0.01-0.52c0.3-0.37,0.44-0.74,0.44-1.15
			c0-0.4-0.14-0.75-0.43-1.08c-0.13-0.15-0.13-0.37-0.01-0.52c0.3-0.37,0.44-0.74,0.44-1.15c0-0.4-0.14-0.76-0.43-1.08
			c-0.13-0.15-0.13-0.37-0.01-0.52c0.28-0.35,0.43-0.71,0.44-1.1c0-0.15,0.09-0.29,0.24-0.36c0.28-0.13,0.54-0.26,0.78-0.4
			c1.61-0.93,2.39-2,2.4-3.27V9.91l0-3.83V6.05c0-0.05,0-0.1,0-0.15s0-0.1,0-0.15c-0.04-0.85-0.43-1.6-1.2-2.29l-1.31,0.76
			c0,0-0.01,0-0.01,0.01h0c-0.09,0.05-0.18,0.06-0.27,0.04h0c-0.02,0-0.03-0.01-0.05-0.01h0c-0.09-0.03-0.17-0.09-0.22-0.17v0
			c0,0,0,0,0,0c0-0.01-0.01-0.01-0.01-0.02l0,0v0C14.06,4.03,14.05,4,14.04,3.97c-0.02-0.07-0.16-0.56-0.31-1.06
			C13.6,2.43,13.52,2.15,13.47,2c-1.39-0.55-3.01-0.83-4.81-0.83c-2.37,0-4.42,0.49-6.09,1.45c-1.62,0.93-2.41,2-2.41,3.28
			c0,0.07,0,0.14,0.01,0.2c0,0.01,0,0.02,0,0.03c0,0.02,0,0.04,0,0.06l0,3.45c0,0.01,0,0.02,0,0.03c0,0.07-0.01,0.15-0.01,0.22
			c0,0.03,0,0.15,0.01,0.36v0.01v0.84c0.09,1.17,0.89,2.2,2.4,3.07c0.26,0.15,0.54,0.29,0.84,0.43c0.18,0.08,0.27,0.28,0.22,0.47
			c-0.04,0.15-0.06,0.29-0.06,0.44c0,0.4,0.14,0.76,0.43,1.08c0.13,0.15,0.14,0.37,0.01,0.52c-0.3,0.37-0.44,0.75-0.44,1.16
			c0,0.4,0.14,0.75,0.43,1.07c0.13,0.15,0.13,0.37,0.01,0.52C3.72,20.22,3.58,20.59,3.58,21c0,0.4,0.14,0.76,0.43,1.08
			c0.13,0.15,0.14,0.37,0.01,0.52c-0.3,0.37-0.44,0.75-0.44,1.15c0,0.4,0.14,0.75,0.43,1.08c0.13,0.15,0.14,0.37,0.01,0.52
			c-0.3,0.37-0.44,0.75-0.44,1.15c0,0.4,0.14,0.75,0.43,1.08c0.13,0.15,0.14,0.37,0.01,0.52c-0.3,0.37-0.44,0.75-0.44,1.15
			c0,0.4,0.14,0.76,0.43,1.08c0.13,0.15,0.14,0.37,0.01,0.52c-0.3,0.37-0.44,0.75-0.44,1.15c0,0.4,0.14,0.76,0.43,1.08
			c0.13,0.15,0.14,0.37,0.01,0.52c-0.3,0.37-0.44,0.75-0.44,1.15c0,0.4,0.14,0.75,0.43,1.08c0.13,0.15,0.14,0.37,0.01,0.52
			c-0.3,0.37-0.44,0.75-0.44,1.16c0,0.52,0.24,0.96,0.72,1.35c0.16,0.13,0.2,0.36,0.08,0.53c-0.17,0.27-0.25,0.54-0.25,0.83
			c0,0.49,0.24,0.91,0.74,1.27c0.09,0.06,0.15,0.16,0.16,0.27c0.01,0.11-0.01,0.22-0.08,0.3c-0.22,0.28-0.33,0.56-0.33,0.87
			c0,0.55,0.36,1.01,1.09,1.38c0.23,0.12,0.47,0.22,0.73,0.3C6.57,44.67,6.67,44.78,6.7,44.91z M8.65,49.23
			c-0.12,0-0.23-0.05-0.31-0.14c-0.95-1.14-1.74-2.39-2.33-3.74c-0.24-0.08-0.47-0.18-0.68-0.29c-1.01-0.52-1.52-1.23-1.52-2.1
			c0-0.36,0.09-0.71,0.28-1.04c-0.51-0.47-0.77-1.04-0.77-1.68c0-0.33,0.07-0.66,0.21-0.96c-0.51-0.5-0.76-1.09-0.76-1.75
			c0-0.49,0.14-0.96,0.43-1.4c-0.28-0.41-0.43-0.86-0.43-1.36s0.14-0.96,0.43-1.4c-0.28-0.41-0.43-0.86-0.43-1.36
			c0-0.49,0.14-0.96,0.43-1.4c-0.28-0.41-0.43-0.86-0.43-1.36c0-0.49,0.14-0.96,0.43-1.4C2.91,27.45,2.77,27,2.77,26.51
			c0-0.49,0.14-0.96,0.43-1.4c-0.28-0.41-0.43-0.86-0.43-1.36c0-0.49,0.14-0.96,0.43-1.4C2.91,21.95,2.77,21.5,2.77,21
			c0-0.49,0.14-0.96,0.43-1.4c-0.28-0.41-0.43-0.86-0.43-1.35c0-0.49,0.14-0.96,0.43-1.4C2.91,16.45,2.77,16,2.77,15.5
			c0-0.1,0.01-0.21,0.02-0.31c-0.22-0.11-0.42-0.22-0.62-0.33c-1.76-1.01-2.7-2.27-2.8-3.73c0-0.01,0-0.02,0-0.03v-0.85
			c-0.01-0.21-0.01-0.34-0.01-0.37c0-0.09,0-0.18,0.01-0.26l0-3.41c0-0.02,0-0.04,0-0.07C-0.64,6.07-0.64,5.98-0.64,5.9
			c0-1.57,0.95-2.91,2.81-3.98c1.79-1.03,3.97-1.56,6.49-1.56c1.88,0,3.58,0.29,5.06,0.87c0.07-0.01,0.15-0.01,0.22,0.02
			c0.12,0.05,0.21,0.15,0.24,0.28c0.01,0.03,0.01,0.06,0.02,0.09c0.03,0.11,0.17,0.59,0.31,1.07c0.07,0.24,0.12,0.43,0.17,0.58
			l1.11-0.64c0.13-0.08,0.29-0.07,0.41,0c0.02,0.01,0.03,0.02,0.05,0.03c1.08,0.88,1.65,1.9,1.71,3.05c0,0.06,0,0.12,0,0.19
			c0,0.06,0,0.12,0,0.18l0,4.82c-0.01,1.56-0.95,2.89-2.8,3.96c-0.2,0.11-0.41,0.23-0.63,0.33c-0.05,0.38-0.19,0.73-0.4,1.07
			c0.28,0.41,0.43,0.86,0.43,1.36c0,0.49-0.14,0.96-0.43,1.4c0.28,0.41,0.43,0.86,0.43,1.36s-0.14,0.96-0.43,1.4
			c0.28,0.41,0.43,0.86,0.43,1.36s-0.14,0.96-0.43,1.4c0.28,0.41,0.43,0.86,0.43,1.36c0,0.49-0.14,0.96-0.43,1.4
			c0.28,0.41,0.43,0.86,0.43,1.36c0,0.49-0.14,0.96-0.43,1.4c0.28,0.41,0.43,0.86,0.43,1.36s-0.14,0.96-0.43,1.4
			c0.28,0.41,0.43,0.86,0.43,1.36c0,0.49-0.14,0.96-0.43,1.39c0.28,0.41,0.43,0.86,0.43,1.35c0,0.66-0.26,1.28-0.77,1.84
			c0.15,0.3,0.22,0.61,0.22,0.95c0,0.64-0.26,1.23-0.78,1.75c0.19,0.31,0.28,0.66,0.28,1.03c0,0.81-0.46,1.53-1.36,2.14
			c0.07,0.18,0.11,0.38,0.11,0.58c0,0.65-0.38,1.22-1.12,1.7c-0.29,0.18-0.61,0.35-0.95,0.51c-0.38,0.61-0.79,1.18-1.22,1.7
			C8.89,49.17,8.77,49.23,8.65,49.23L8.65,49.23z"/>
		<path class="st2" d="M11.63,34.61H5.6c0,2.5,0.24,5.97,0.72,10.41c0.59,1.38,1.37,2.64,2.34,3.79c0.89-1.06,1.66-2.33,2.33-3.79
			C11.39,40.58,11.6,37.11,11.63,34.61"/>
		<path class="st1" d="M11.63,34.61H5.6c0,2.5,0.24,5.97,0.72,10.41c0.59,1.38,1.37,2.64,2.34,3.79c0.89-1.06,1.66-2.33,2.33-3.79
			C11.39,40.58,11.6,37.11,11.63,34.61z"/>
		<path class="st2" d="M8.65,48.96c-0.04,0-0.08-0.02-0.1-0.05c-0.97-1.16-1.77-2.45-2.36-3.83c0-0.01-0.01-0.03-0.01-0.04
			c-0.48-4.43-0.72-7.93-0.72-10.43c0-0.07,0.06-0.14,0.13-0.14c0.07,0,0.13,0.06,0.13,0.13c0,2.48,0.25,5.97,0.72,10.38
			c0.56,1.3,1.3,2.52,2.2,3.62c0.83-1.02,1.57-2.24,2.2-3.62c0.4-4.41,0.62-7.9,0.65-10.38c0-0.07,0.06-0.13,0.14-0.13
			c0.07,0,0.13,0.06,0.13,0.14c-0.03,2.49-0.25,6-0.65,10.42c0,0.01,0,0.03-0.01,0.04c-0.67,1.47-1.46,2.75-2.35,3.82
			C8.73,48.94,8.69,48.96,8.65,48.96"/>
		<path class="st1" d="M8.65,48.96c-0.04,0-0.08-0.02-0.1-0.05c-0.97-1.16-1.77-2.45-2.36-3.83c0-0.01-0.01-0.03-0.01-0.04
			c-0.48-4.43-0.72-7.93-0.72-10.43c0-0.07,0.06-0.14,0.13-0.14c0.07,0,0.13,0.06,0.13,0.13c0,2.48,0.25,5.97,0.72,10.38
			c0.56,1.3,1.3,2.52,2.2,3.62c0.83-1.02,1.57-2.24,2.2-3.62c0.4-4.41,0.62-7.9,0.65-10.38c0-0.07,0.06-0.13,0.14-0.13
			c0.07,0,0.13,0.06,0.13,0.14c-0.03,2.49-0.25,6-0.65,10.42c0,0.01,0,0.03-0.01,0.04c-0.67,1.47-1.46,2.75-2.35,3.82
			C8.73,48.94,8.69,48.96,8.65,48.96z"/>
		<path class="st2" d="M7.66,43.65l0.11,0.82l1.14,0.93c0.04-0.06,0.04,0.14,0,0.61l-0.16,1.48c0.84-0.26,1.56-0.58,2.17-0.96
			c0.62-0.4,0.94-0.85,0.94-1.36c0-0.51-0.31-0.93-0.94-1.25c-0.63-0.33-1.38-0.46-2.27-0.41C8.3,43.52,7.97,43.57,7.66,43.65"/>
		<path class="st1" d="M7.66,43.65l0.11,0.82l1.14,0.93c0.04-0.06,0.04,0.14,0,0.61l-0.16,1.48c0.84-0.26,1.56-0.58,2.17-0.96
			c0.62-0.4,0.94-0.85,0.94-1.36c0-0.51-0.31-0.93-0.94-1.25c-0.63-0.33-1.38-0.46-2.27-0.41C8.3,43.52,7.97,43.57,7.66,43.65z"/>
		<path class="st2" d="M8.75,47.63c-0.06,0-0.11-0.04-0.13-0.09c-0.02-0.07,0.02-0.15,0.09-0.17c0.83-0.26,1.54-0.58,2.13-0.95
			c0.58-0.37,0.87-0.79,0.87-1.25c0-0.46-0.28-0.83-0.86-1.13c-0.6-0.31-1.34-0.45-2.2-0.4c-0.34,0.02-0.67,0.06-0.96,0.14
			c-0.07,0.02-0.15-0.03-0.16-0.1c-0.02-0.07,0.03-0.15,0.1-0.16c0.31-0.08,0.66-0.13,1.01-0.15c0.9-0.05,1.69,0.09,2.33,0.43
			c0.67,0.35,1.01,0.81,1.01,1.37c0,0.55-0.34,1.05-1,1.47c-0.61,0.38-1.35,0.71-2.2,0.98C8.78,47.63,8.76,47.63,8.75,47.63"/>
		<path class="st1" d="M8.75,47.63c-0.06,0-0.11-0.04-0.13-0.09c-0.02-0.07,0.02-0.15,0.09-0.17c0.83-0.26,1.54-0.58,2.13-0.95
			c0.58-0.37,0.87-0.79,0.87-1.25c0-0.46-0.28-0.83-0.86-1.13c-0.6-0.31-1.34-0.45-2.2-0.4c-0.34,0.02-0.67,0.06-0.96,0.14
			c-0.07,0.02-0.15-0.03-0.16-0.1c-0.02-0.07,0.03-0.15,0.1-0.16c0.31-0.08,0.66-0.13,1.01-0.15c0.9-0.05,1.69,0.09,2.33,0.43
			c0.67,0.35,1.01,0.81,1.01,1.37c0,0.55-0.34,1.05-1,1.47c-0.61,0.38-1.35,0.71-2.2,0.98C8.78,47.63,8.76,47.63,8.75,47.63z"/>
		<path class="st2" d="M5.78,44.24h1.37v1.35h0.72v0.02h0.47v0.26h0.31v0.93c0.98-0.48,1.71-0.96,2.21-1.45
			c0.49-0.49,0.73-0.97,0.71-1.43c-0.02-0.46-0.31-0.84-0.87-1.14c-0.56-0.29-1.24-0.42-2.04-0.37c-0.79,0.04-1.47,0.25-2.03,0.6
			C6.06,43.37,5.78,43.78,5.78,44.24"/>
		<path class="st1" d="M5.78,44.24h1.37v1.35h0.72v0.02h0.47v0.26h0.31v0.93c0.98-0.48,1.71-0.96,2.21-1.45
			c0.49-0.49,0.73-0.97,0.71-1.43c-0.02-0.46-0.31-0.84-0.87-1.14c-0.56-0.29-1.24-0.42-2.04-0.37c-0.79,0.04-1.47,0.25-2.03,0.6
			C6.06,43.37,5.78,43.78,5.78,44.24z"/>
		<path class="st2" d="M8.64,46.93c-0.05,0-0.1-0.03-0.12-0.07c-0.03-0.07,0-0.15,0.06-0.18c0.96-0.47,1.69-0.95,2.18-1.42
			c0.46-0.46,0.69-0.91,0.67-1.33c-0.02-0.42-0.28-0.75-0.8-1.02c-0.54-0.28-1.2-0.4-1.97-0.36c-0.76,0.04-1.43,0.24-1.96,0.58
			c-0.52,0.33-0.79,0.7-0.79,1.11c0,0.07-0.06,0.13-0.13,0.13h0c-0.07,0-0.13-0.06-0.13-0.14c0-0.51,0.31-0.96,0.91-1.33
			c0.58-0.37,1.28-0.58,2.09-0.63c0.81-0.05,1.52,0.08,2.11,0.39c0.61,0.32,0.92,0.74,0.95,1.25c0.02,0.5-0.23,1.01-0.75,1.53
			c-0.5,0.5-1.26,0.99-2.25,1.48C8.68,46.93,8.66,46.93,8.64,46.93"/>
		<path class="st1" d="M8.64,46.93c-0.05,0-0.1-0.03-0.12-0.07c-0.03-0.07,0-0.15,0.06-0.18c0.96-0.47,1.69-0.95,2.18-1.42
			c0.46-0.46,0.69-0.91,0.67-1.33c-0.02-0.42-0.28-0.75-0.8-1.02c-0.54-0.28-1.2-0.4-1.97-0.36c-0.76,0.04-1.43,0.24-1.96,0.58
			c-0.52,0.33-0.79,0.7-0.79,1.11c0,0.07-0.06,0.13-0.13,0.13h0c-0.07,0-0.13-0.06-0.13-0.14c0-0.51,0.31-0.96,0.91-1.33
			c0.58-0.37,1.28-0.58,2.09-0.63c0.81-0.05,1.52,0.08,2.11,0.39c0.61,0.32,0.92,0.74,0.95,1.25c0.02,0.5-0.23,1.01-0.75,1.53
			c-0.5,0.5-1.26,0.99-2.25,1.48C8.68,46.93,8.66,46.93,8.64,46.93z"/>
		<path class="st2" d="M11.8,40.71c-0.87-0.45-1.92-0.64-3.14-0.57c-1.23,0.07-2.27,0.38-3.14,0.93c-0.87,0.55-1.31,1.18-1.31,1.88
			c0,0.71,0.44,1.29,1.31,1.74c0.86,0.45,1.91,0.64,3.14,0.57c1.23-0.07,2.27-0.38,3.14-0.93c0.87-0.55,1.3-1.18,1.3-1.88
			C13.1,41.74,12.67,41.16,11.8,40.71"/>
		<path class="st1" d="M11.8,40.71c-0.87-0.45-1.92-0.64-3.14-0.57c-1.23,0.07-2.27,0.38-3.14,0.93c-0.87,0.55-1.31,1.18-1.31,1.88
			c0,0.71,0.44,1.29,1.31,1.74c0.86,0.45,1.91,0.64,3.14,0.57c1.23-0.07,2.27-0.38,3.14-0.93c0.87-0.55,1.3-1.18,1.3-1.88
			C13.1,41.74,12.67,41.16,11.8,40.71z"/>
		<path class="st2" d="M9.14,40.26c-0.16,0-0.32,0-0.48,0.01c-1.2,0.07-2.23,0.37-3.07,0.91c-0.83,0.52-1.25,1.12-1.25,1.77
			c0,0.66,0.4,1.2,1.23,1.62c0.84,0.44,1.87,0.63,3.07,0.56c1.2-0.07,2.23-0.38,3.08-0.91c0.82-0.52,1.24-1.12,1.24-1.77
			c0-0.66-0.4-1.2-1.23-1.62C11.01,40.45,10.14,40.26,9.14,40.26 M8.19,45.41c-1.04,0-1.96-0.2-2.73-0.6
			c-0.91-0.47-1.38-1.09-1.38-1.86c0-0.75,0.46-1.42,1.37-2c0.88-0.56,1.96-0.88,3.2-0.95c1.24-0.07,2.32,0.12,3.21,0.59
			c0.91,0.47,1.37,1.1,1.37,1.86c0,0.75-0.46,1.42-1.37,2c-0.88,0.56-1.96,0.88-3.2,0.95C8.5,45.41,8.34,45.41,8.19,45.41"/>
		<path class="st1" d="M9.14,40.26c-0.16,0-0.32,0-0.48,0.01c-1.2,0.07-2.23,0.37-3.07,0.91c-0.83,0.52-1.25,1.12-1.25,1.77
			c0,0.66,0.4,1.2,1.23,1.62c0.84,0.44,1.87,0.63,3.07,0.56c1.2-0.07,2.23-0.38,3.08-0.91c0.82-0.52,1.24-1.12,1.24-1.77
			c0-0.66-0.4-1.2-1.23-1.62C11.01,40.45,10.14,40.26,9.14,40.26z M8.19,45.41c-1.04,0-1.96-0.2-2.73-0.6
			c-0.91-0.47-1.38-1.09-1.38-1.86c0-0.75,0.46-1.42,1.37-2c0.88-0.56,1.96-0.88,3.2-0.95c1.24-0.07,2.32,0.12,3.21,0.59
			c0.91,0.47,1.37,1.1,1.37,1.86c0,0.75-0.46,1.42-1.37,2c-0.88,0.56-1.96,0.88-3.2,0.95C8.5,45.41,8.34,45.41,8.19,45.41z"/>
		<path class="st2" d="M11.48,39.53c-0.78-0.41-1.72-0.58-2.83-0.51c-1.1,0.06-2.05,0.34-2.82,0.84c-0.78,0.49-1.18,1.06-1.18,1.7
			c0,0.64,0.39,1.16,1.18,1.56c0.78,0.41,1.72,0.58,2.82,0.51c1.1-0.06,2.05-0.34,2.83-0.84c0.78-0.49,1.18-1.06,1.18-1.7
			C12.66,40.46,12.27,39.94,11.48,39.53"/>
		<path class="st1" d="M11.48,39.53c-0.78-0.41-1.72-0.58-2.83-0.51c-1.1,0.06-2.05,0.34-2.82,0.84c-0.78,0.49-1.18,1.06-1.18,1.7
			c0,0.64,0.39,1.16,1.18,1.56c0.78,0.41,1.72,0.58,2.82,0.51c1.1-0.06,2.05-0.34,2.83-0.84c0.78-0.49,1.18-1.06,1.18-1.7
			C12.66,40.46,12.27,39.94,11.48,39.53z"/>
		<path class="st2" d="M9.09,39.14c-0.14,0-0.28,0-0.42,0.01c-1.08,0.06-2.01,0.34-2.76,0.82c-0.74,0.46-1.12,1-1.12,1.59
			S5.15,42.62,5.9,43c0.75,0.39,1.68,0.56,2.75,0.5c1.08-0.06,2.01-0.33,2.76-0.82c0.74-0.46,1.11-1,1.11-1.58
			c0-0.59-0.36-1.06-1.1-1.45C10.77,39.31,9.98,39.14,9.09,39.14 M8.21,43.78c-0.93,0-1.75-0.18-2.44-0.54
			c-0.83-0.43-1.25-0.99-1.25-1.68c0-0.69,0.42-1.3,1.24-1.81c0.8-0.51,1.77-0.79,2.89-0.86c1.12-0.06,2.1,0.11,2.89,0.53
			c0.83,0.43,1.25,1,1.25,1.69c0,0.69-0.42,1.29-1.24,1.81c-0.79,0.51-1.77,0.8-2.89,0.86C8.51,43.77,8.36,43.78,8.21,43.78"/>
		<path class="st1" d="M9.09,39.14c-0.14,0-0.28,0-0.42,0.01c-1.08,0.06-2.01,0.34-2.76,0.82c-0.74,0.46-1.12,1-1.12,1.59
			S5.15,42.62,5.9,43c0.75,0.39,1.68,0.56,2.75,0.5c1.08-0.06,2.01-0.33,2.76-0.82c0.74-0.46,1.11-1,1.11-1.58
			c0-0.59-0.36-1.06-1.1-1.45C10.77,39.31,9.98,39.14,9.09,39.14z M8.21,43.78c-0.93,0-1.75-0.18-2.44-0.54
			c-0.83-0.43-1.25-0.99-1.25-1.68c0-0.69,0.42-1.3,1.24-1.81c0.8-0.51,1.77-0.79,2.89-0.86c1.12-0.06,2.1,0.11,2.89,0.53
			c0.83,0.43,1.25,1,1.25,1.69c0,0.69-0.42,1.29-1.24,1.81c-0.79,0.51-1.77,0.8-2.89,0.86C8.51,43.77,8.36,43.78,8.21,43.78z"/>
		<path class="st2" d="M5.17,42.16c0.97,0.5,2.13,0.71,3.49,0.64c1.36-0.08,2.53-0.43,3.49-1.04c0.96-0.61,1.45-1.31,1.45-2.09
			c0-0.79-0.48-1.43-1.45-1.93c-0.97-0.5-2.13-0.71-3.49-0.63c-1.36,0.08-2.52,0.42-3.49,1.03c-0.96,0.61-1.45,1.31-1.45,2.1
			S4.2,41.66,5.17,42.16"/>
		<path class="st1" d="M5.17,42.16c0.97,0.5,2.13,0.71,3.49,0.64c1.36-0.08,2.53-0.43,3.49-1.04c0.96-0.61,1.45-1.31,1.45-2.09
			c0-0.79-0.48-1.43-1.45-1.93c-0.97-0.5-2.13-0.71-3.49-0.63c-1.36,0.08-2.52,0.42-3.49,1.03c-0.96,0.61-1.45,1.31-1.45,2.1
			S4.2,41.66,5.17,42.16z"/>
		<path class="st2" d="M9.19,37.22c-0.17,0-0.34,0-0.52,0.02c-1.33,0.08-2.48,0.42-3.43,1.01c-0.92,0.58-1.38,1.25-1.38,1.99
			c0,0.74,0.45,1.33,1.37,1.81c0.94,0.49,2.09,0.7,3.42,0.63c1.33-0.08,2.48-0.42,3.43-1.02c0.92-0.58,1.38-1.25,1.38-1.98
			c0-0.74-0.45-1.33-1.37-1.81C11.27,37.43,10.3,37.22,9.19,37.22 M8.15,42.95c-1.16,0-2.18-0.22-3.04-0.67
			c-1.01-0.52-1.52-1.21-1.52-2.05c0-0.83,0.51-1.58,1.51-2.21c0.98-0.62,2.18-0.98,3.56-1.05c1.38-0.08,2.58,0.14,3.56,0.65
			c1.01,0.52,1.52,1.21,1.52,2.05c0,0.83-0.51,1.57-1.51,2.21c-0.98,0.62-2.18,0.98-3.56,1.06C8.49,42.94,8.31,42.95,8.15,42.95"/>
		<path class="st1" d="M9.19,37.22c-0.17,0-0.34,0-0.52,0.02c-1.33,0.08-2.48,0.42-3.43,1.01c-0.92,0.58-1.38,1.25-1.38,1.99
			c0,0.74,0.45,1.33,1.37,1.81c0.94,0.49,2.09,0.7,3.42,0.63c1.33-0.08,2.48-0.42,3.43-1.02c0.92-0.58,1.38-1.25,1.38-1.98
			c0-0.74-0.45-1.33-1.37-1.81C11.27,37.43,10.3,37.22,9.19,37.22z M8.15,42.95c-1.16,0-2.18-0.22-3.04-0.67
			c-1.01-0.52-1.52-1.21-1.52-2.05c0-0.83,0.51-1.58,1.51-2.21c0.98-0.62,2.18-0.98,3.56-1.05c1.38-0.08,2.58,0.14,3.56,0.65
			c1.01,0.52,1.52,1.21,1.52,2.05c0,0.83-0.51,1.57-1.51,2.21c-0.98,0.62-2.18,0.98-3.56,1.06C8.49,42.94,8.31,42.95,8.15,42.95z"/>
		<path class="st2" d="M11.8,36.58c-0.87-0.45-1.92-0.65-3.14-0.58c-1.23,0.07-2.27,0.38-3.14,0.94c-0.87,0.55-1.31,1.18-1.31,1.89
			c0,0.71,0.44,1.28,1.31,1.74c0.86,0.45,1.91,0.64,3.14,0.57c1.23-0.07,2.27-0.38,3.14-0.93c0.87-0.55,1.3-1.17,1.3-1.88
			C13.1,37.61,12.67,37.03,11.8,36.58"/>
		<path class="st1" d="M11.8,36.58c-0.87-0.45-1.92-0.65-3.14-0.58c-1.23,0.07-2.27,0.38-3.14,0.94c-0.87,0.55-1.31,1.18-1.31,1.89
			c0,0.71,0.44,1.28,1.31,1.74c0.86,0.45,1.91,0.64,3.14,0.57c1.23-0.07,2.27-0.38,3.14-0.93c0.87-0.55,1.3-1.17,1.3-1.88
			C13.1,37.61,12.67,37.03,11.8,36.58z"/>
		<path class="st2" d="M9.13,36.13c-0.15,0-0.3,0-0.46,0.01c-1.2,0.07-2.23,0.38-3.07,0.91c-0.83,0.52-1.25,1.12-1.25,1.77
			c0,0.66,0.4,1.19,1.23,1.62c0.84,0.44,1.87,0.62,3.07,0.55c1.2-0.07,2.23-0.37,3.08-0.91c0.82-0.52,1.24-1.11,1.24-1.77
			c0-0.66-0.4-1.19-1.23-1.62C11,36.32,10.13,36.13,9.13,36.13 M8.17,41.28c-1.04,0-1.95-0.2-2.71-0.6
			c-0.91-0.47-1.38-1.1-1.38-1.86c0-0.76,0.46-1.43,1.37-2c0.88-0.56,1.96-0.88,3.2-0.96c1.25-0.07,2.33,0.13,3.21,0.59
			c0.91,0.47,1.37,1.1,1.37,1.86c0,0.76-0.46,1.43-1.37,2c-0.88,0.56-1.96,0.88-3.21,0.95C8.5,41.28,8.33,41.28,8.17,41.28"/>
		<path class="st1" d="M9.13,36.13c-0.15,0-0.3,0-0.46,0.01c-1.2,0.07-2.23,0.38-3.07,0.91c-0.83,0.52-1.25,1.12-1.25,1.77
			c0,0.66,0.4,1.19,1.23,1.62c0.84,0.44,1.87,0.62,3.07,0.55c1.2-0.07,2.23-0.37,3.08-0.91c0.82-0.52,1.24-1.11,1.24-1.77
			c0-0.66-0.4-1.19-1.23-1.62C11,36.32,10.13,36.13,9.13,36.13z M8.17,41.28c-1.04,0-1.95-0.2-2.71-0.6
			c-0.91-0.47-1.38-1.1-1.38-1.86c0-0.76,0.46-1.43,1.37-2c0.88-0.56,1.96-0.88,3.2-0.96c1.25-0.07,2.33,0.13,3.21,0.59
			c0.91,0.47,1.37,1.1,1.37,1.86c0,0.76-0.46,1.43-1.37,2c-0.88,0.56-1.96,0.88-3.21,0.95C8.5,41.28,8.33,41.28,8.17,41.28z"/>
		<path class="st2" d="M14.15,36.88c0-0.87-0.54-1.59-1.61-2.15c-1.07-0.55-2.37-0.79-3.88-0.7c-1.52,0.09-2.81,0.47-3.88,1.15
			c-1.07,0.68-1.61,1.46-1.61,2.34c0,0.87,0.54,1.59,1.61,2.14c1.07,0.56,2.36,0.79,3.88,0.71c1.52-0.09,2.81-0.47,3.88-1.15
			C13.61,38.54,14.15,37.76,14.15,36.88"/>
		<path class="st1" d="M14.15,36.88c0-0.87-0.54-1.59-1.61-2.15c-1.07-0.55-2.37-0.79-3.88-0.7c-1.52,0.09-2.81,0.47-3.88,1.15
			c-1.07,0.68-1.61,1.46-1.61,2.34c0,0.87,0.54,1.59,1.61,2.14c1.07,0.56,2.36,0.79,3.88,0.71c1.52-0.09,2.81-0.47,3.88-1.15
			C13.61,38.54,14.15,37.76,14.15,36.88z"/>
		<path class="st2" d="M9.25,34.15c-0.19,0-0.39,0.01-0.59,0.02c-1.49,0.08-2.77,0.46-3.81,1.12c-1.03,0.65-1.54,1.4-1.54,2.22
			c0,0.83,0.5,1.49,1.53,2.02c1.04,0.54,2.32,0.78,3.81,0.69c1.49-0.08,2.77-0.46,3.82-1.13c1.03-0.65,1.55-1.4,1.55-2.22
			c0-0.83-0.5-1.49-1.53-2.03C11.57,34.39,10.49,34.15,9.25,34.15 M8.07,40.52c-1.28,0-2.41-0.25-3.35-0.74
			c-1.11-0.58-1.68-1.34-1.68-2.26c0-0.92,0.56-1.74,1.67-2.45c1.08-0.69,2.41-1.08,3.94-1.17c1.53-0.09,2.86,0.15,3.95,0.72
			c1.12,0.58,1.68,1.34,1.68,2.27c0,0.92-0.56,1.74-1.67,2.45c-1.09,0.69-2.41,1.08-3.94,1.17C8.46,40.51,8.26,40.52,8.07,40.52"/>
		<path class="st1" d="M9.25,34.15c-0.19,0-0.39,0.01-0.59,0.02c-1.49,0.08-2.77,0.46-3.81,1.12c-1.03,0.65-1.54,1.4-1.54,2.22
			c0,0.83,0.5,1.49,1.53,2.02c1.04,0.54,2.32,0.78,3.81,0.69c1.49-0.08,2.77-0.46,3.82-1.13c1.03-0.65,1.55-1.4,1.55-2.22
			c0-0.83-0.5-1.49-1.53-2.03C11.57,34.39,10.49,34.15,9.25,34.15z M8.07,40.52c-1.28,0-2.41-0.25-3.35-0.74
			c-1.11-0.58-1.68-1.34-1.68-2.26c0-0.92,0.56-1.74,1.67-2.45c1.08-0.69,2.41-1.08,3.94-1.17c1.53-0.09,2.86,0.15,3.95,0.72
			c1.12,0.58,1.68,1.34,1.68,2.27c0,0.92-0.56,1.74-1.67,2.45c-1.09,0.69-2.41,1.08-3.94,1.17C8.46,40.51,8.26,40.52,8.07,40.52z"/>
		<path class="st2" d="M13.6,35.55c0-0.79-0.48-1.43-1.45-1.93c-0.97-0.5-2.13-0.72-3.49-0.64c-1.36,0.08-2.53,0.43-3.49,1.04
			c-0.96,0.61-1.45,1.31-1.45,2.1c0,0.79,0.48,1.43,1.45,1.93c0.97,0.5,2.13,0.71,3.49,0.63c1.36-0.08,2.52-0.42,3.49-1.03
			C13.11,37.03,13.6,36.33,13.6,35.55"/>
		<path class="st1" d="M13.6,35.55c0-0.79-0.48-1.43-1.45-1.93c-0.97-0.5-2.13-0.72-3.49-0.64c-1.36,0.08-2.53,0.43-3.49,1.04
			c-0.96,0.61-1.45,1.31-1.45,2.1c0,0.79,0.48,1.43,1.45,1.93c0.97,0.5,2.13,0.71,3.49,0.63c1.36-0.08,2.52-0.42,3.49-1.03
			C13.11,37.03,13.6,36.33,13.6,35.55z"/>
		<path class="st2" d="M9.19,33.09c-0.17,0-0.34,0-0.52,0.02c-1.33,0.08-2.48,0.42-3.43,1.02c-0.92,0.58-1.38,1.25-1.38,1.99
			c0,0.74,0.45,1.33,1.37,1.81c0.94,0.49,2.09,0.69,3.42,0.62c1.33-0.07,2.48-0.41,3.43-1.01c0.92-0.58,1.38-1.25,1.38-1.98
			c0-0.74-0.45-1.33-1.37-1.81C11.27,33.31,10.3,33.09,9.19,33.09 M8.11,38.82c-1.15,0-2.16-0.22-3-0.66
			c-1.01-0.52-1.52-1.21-1.52-2.05c0-0.83,0.51-1.58,1.51-2.21c0.98-0.62,2.18-0.98,3.56-1.06c1.38-0.08,2.58,0.14,3.56,0.65
			c1.01,0.52,1.52,1.21,1.52,2.05c0,0.83-0.51,1.58-1.51,2.21c-0.98,0.62-2.18,0.97-3.56,1.05C8.48,38.81,8.29,38.82,8.11,38.82"/>
		<path class="st1" d="M9.19,33.09c-0.17,0-0.34,0-0.52,0.02c-1.33,0.08-2.48,0.42-3.43,1.02c-0.92,0.58-1.38,1.25-1.38,1.99
			c0,0.74,0.45,1.33,1.37,1.81c0.94,0.49,2.09,0.69,3.42,0.62c1.33-0.07,2.48-0.41,3.43-1.01c0.92-0.58,1.38-1.25,1.38-1.98
			c0-0.74-0.45-1.33-1.37-1.81C11.27,33.31,10.3,33.09,9.19,33.09z M8.11,38.82c-1.15,0-2.16-0.22-3-0.66
			c-1.01-0.52-1.52-1.21-1.52-2.05c0-0.83,0.51-1.58,1.51-2.21c0.98-0.62,2.18-0.98,3.56-1.06c1.38-0.08,2.58,0.14,3.56,0.65
			c1.01,0.52,1.52,1.21,1.52,2.05c0,0.83-0.51,1.58-1.51,2.21c-0.98,0.62-2.18,0.97-3.56,1.05C8.48,38.81,8.29,38.82,8.11,38.82z"/>
		<path class="st2" d="M12.54,36.46c1.07-0.68,1.61-1.45,1.61-2.33c0-0.87-0.54-1.59-1.61-2.15c-1.07-0.55-2.37-0.79-3.88-0.7
			c-1.52,0.09-2.81,0.47-3.88,1.15c-1.07,0.68-1.61,1.46-1.61,2.33c0,0.88,0.53,1.59,1.61,2.14c1.07,0.56,2.36,0.79,3.88,0.71
			C10.17,37.53,11.47,37.14,12.54,36.46"/>
		<path class="st1" d="M12.54,36.46c1.07-0.68,1.61-1.45,1.61-2.33c0-0.87-0.54-1.59-1.61-2.15c-1.07-0.55-2.37-0.79-3.88-0.7
			c-1.52,0.09-2.81,0.47-3.88,1.15c-1.07,0.68-1.61,1.46-1.61,2.33c0,0.88,0.53,1.59,1.61,2.14c1.07,0.56,2.36,0.79,3.88,0.71
			C10.17,37.53,11.47,37.14,12.54,36.46z"/>
		<path class="st2" d="M9.25,31.4c-0.19,0-0.39,0.01-0.59,0.02c-1.49,0.09-2.77,0.46-3.81,1.13c-1.03,0.65-1.55,1.4-1.55,2.22
			c0,0.83,0.5,1.49,1.53,2.02c1.04,0.54,2.32,0.78,3.81,0.69c1.49-0.09,2.77-0.46,3.82-1.13c1.03-0.65,1.55-1.39,1.55-2.21
			c0-0.83-0.5-1.49-1.53-2.03C11.57,31.63,10.49,31.4,9.25,31.4 M8.07,37.76c-1.28,0-2.41-0.25-3.35-0.74
			c-1.11-0.58-1.68-1.34-1.68-2.26c0-0.92,0.56-1.74,1.67-2.45c1.08-0.69,2.41-1.08,3.94-1.17s2.86,0.15,3.95,0.72
			c1.12,0.58,1.68,1.35,1.68,2.27c0,0.92-0.56,1.74-1.67,2.44c-1.09,0.69-2.41,1.08-3.94,1.17C8.46,37.76,8.26,37.76,8.07,37.76"/>
		<path class="st1" d="M9.25,31.4c-0.19,0-0.39,0.01-0.59,0.02c-1.49,0.09-2.77,0.46-3.81,1.13c-1.03,0.65-1.55,1.4-1.55,2.22
			c0,0.83,0.5,1.49,1.53,2.02c1.04,0.54,2.32,0.78,3.81,0.69c1.49-0.09,2.77-0.46,3.82-1.13c1.03-0.65,1.55-1.39,1.55-2.21
			c0-0.83-0.5-1.49-1.53-2.03C11.57,31.63,10.49,31.4,9.25,31.4z M8.07,37.76c-1.28,0-2.41-0.25-3.35-0.74
			c-1.11-0.58-1.68-1.34-1.68-2.26c0-0.92,0.56-1.74,1.67-2.45c1.08-0.69,2.41-1.08,3.94-1.17s2.86,0.15,3.95,0.72
			c1.12,0.58,1.68,1.35,1.68,2.27c0,0.92-0.56,1.74-1.67,2.44c-1.09,0.69-2.41,1.08-3.94,1.17C8.46,37.76,8.26,37.76,8.07,37.76z"/>
		<path class="st2" d="M13.6,32.79c0-0.79-0.48-1.43-1.45-1.93c-0.97-0.51-2.13-0.72-3.49-0.64c-1.36,0.08-2.53,0.42-3.49,1.04
			c-0.96,0.61-1.45,1.31-1.45,2.09s0.48,1.43,1.45,1.93c0.97,0.5,2.13,0.71,3.49,0.63s2.52-0.42,3.49-1.03
			C13.11,34.28,13.6,33.58,13.6,32.79"/>
		<path class="st1" d="M13.6,32.79c0-0.79-0.48-1.43-1.45-1.93c-0.97-0.51-2.13-0.72-3.49-0.64c-1.36,0.08-2.53,0.42-3.49,1.04
			c-0.96,0.61-1.45,1.31-1.45,2.09s0.48,1.43,1.45,1.93c0.97,0.5,2.13,0.71,3.49,0.63s2.52-0.42,3.49-1.03
			C13.11,34.28,13.6,33.58,13.6,32.79z"/>
		<path class="st2" d="M9.2,30.34c-0.18,0-0.35,0-0.53,0.02c-1.33,0.08-2.49,0.42-3.43,1.02c-0.92,0.58-1.38,1.25-1.38,1.98
			c0,0.74,0.45,1.33,1.37,1.81c0.94,0.48,2.09,0.69,3.42,0.62c1.33-0.08,2.48-0.42,3.43-1.01c0.92-0.58,1.38-1.25,1.38-1.98
			c0-0.74-0.45-1.33-1.37-1.81C11.28,30.55,10.31,30.34,9.2,30.34 M8.12,36.07c-1.15,0-2.17-0.22-3.02-0.66
			c-1.01-0.52-1.52-1.21-1.52-2.05c0-0.83,0.51-1.57,1.51-2.21c0.98-0.62,2.18-0.98,3.56-1.06c1.38-0.08,2.58,0.14,3.56,0.66
			c1.01,0.52,1.52,1.21,1.52,2.05c0,0.83-0.51,1.58-1.51,2.21c-0.98,0.62-2.18,0.97-3.56,1.05C8.48,36.06,8.3,36.07,8.12,36.07"/>
		<path class="st1" d="M9.2,30.34c-0.18,0-0.35,0-0.53,0.02c-1.33,0.08-2.49,0.42-3.43,1.02c-0.92,0.58-1.38,1.25-1.38,1.98
			c0,0.74,0.45,1.33,1.37,1.81c0.94,0.48,2.09,0.69,3.42,0.62c1.33-0.08,2.48-0.42,3.43-1.01c0.92-0.58,1.38-1.25,1.38-1.98
			c0-0.74-0.45-1.33-1.37-1.81C11.28,30.55,10.31,30.34,9.2,30.34z M8.12,36.07c-1.15,0-2.17-0.22-3.02-0.66
			c-1.01-0.52-1.52-1.21-1.52-2.05c0-0.83,0.51-1.57,1.51-2.21c0.98-0.62,2.18-0.98,3.56-1.06c1.38-0.08,2.58,0.14,3.56,0.66
			c1.01,0.52,1.52,1.21,1.52,2.05c0,0.83-0.51,1.58-1.51,2.21c-0.98,0.62-2.18,0.97-3.56,1.05C8.48,36.06,8.3,36.07,8.12,36.07z"/>
		<path class="st2" d="M14.15,31.38c0-0.87-0.54-1.59-1.61-2.15c-1.07-0.55-2.37-0.79-3.88-0.71C7.14,28.62,5.85,29,4.78,29.68
			c-1.07,0.68-1.61,1.46-1.61,2.33c0,0.87,0.54,1.59,1.61,2.14c1.07,0.56,2.36,0.79,3.88,0.71c1.52-0.09,2.81-0.47,3.88-1.15
			C13.61,33.03,14.15,32.26,14.15,31.38"/>
		<path class="st1" d="M14.15,31.38c0-0.87-0.54-1.59-1.61-2.15c-1.07-0.55-2.37-0.79-3.88-0.71C7.14,28.62,5.85,29,4.78,29.68
			c-1.07,0.68-1.61,1.46-1.61,2.33c0,0.87,0.54,1.59,1.61,2.14c1.07,0.56,2.36,0.79,3.88,0.71c1.52-0.09,2.81-0.47,3.88-1.15
			C13.61,33.03,14.15,32.26,14.15,31.38z"/>
		<path class="st2" d="M9.23,28.65c-0.19,0-0.38,0-0.57,0.02c-1.48,0.08-2.77,0.46-3.81,1.13c-1.03,0.65-1.55,1.4-1.55,2.22
			c0,0.83,0.5,1.49,1.54,2.02c1.04,0.54,2.32,0.78,3.81,0.69c1.49-0.08,2.77-0.46,3.81-1.13c1.03-0.65,1.55-1.39,1.55-2.21
			c0-0.83-0.5-1.49-1.54-2.03C11.57,28.88,10.48,28.65,9.23,28.65 M8.07,35.01c-1.28,0-2.41-0.25-3.35-0.74
			c-1.11-0.58-1.68-1.34-1.68-2.26c0-0.92,0.56-1.74,1.67-2.44c1.08-0.69,2.41-1.08,3.94-1.17c1.53-0.08,2.86,0.16,3.95,0.72
			c1.11,0.58,1.68,1.34,1.68,2.27c0,0.92-0.56,1.74-1.67,2.44c-1.09,0.69-2.41,1.08-3.95,1.17C8.46,35.01,8.26,35.01,8.07,35.01"/>
		<path class="st1" d="M9.23,28.65c-0.19,0-0.38,0-0.57,0.02c-1.48,0.08-2.77,0.46-3.81,1.13c-1.03,0.65-1.55,1.4-1.55,2.22
			c0,0.83,0.5,1.49,1.54,2.02c1.04,0.54,2.32,0.78,3.81,0.69c1.49-0.08,2.77-0.46,3.81-1.13c1.03-0.65,1.55-1.39,1.55-2.21
			c0-0.83-0.5-1.49-1.54-2.03C11.57,28.88,10.48,28.65,9.23,28.65z M8.07,35.01c-1.28,0-2.41-0.25-3.35-0.74
			c-1.11-0.58-1.68-1.34-1.68-2.26c0-0.92,0.56-1.74,1.67-2.44c1.08-0.69,2.41-1.08,3.94-1.17c1.53-0.08,2.86,0.16,3.95,0.72
			c1.11,0.58,1.68,1.34,1.68,2.27c0,0.92-0.56,1.74-1.67,2.44c-1.09,0.69-2.41,1.08-3.95,1.17C8.46,35.01,8.26,35.01,8.07,35.01z"/>
		<path class="st2" d="M8.66,27.47c-1.36,0.08-2.53,0.42-3.49,1.04c-0.96,0.61-1.45,1.31-1.45,2.09c0,0.79,0.48,1.43,1.45,1.93
			c0.97,0.5,2.13,0.71,3.49,0.63c1.36-0.08,2.53-0.42,3.49-1.03c0.96-0.61,1.45-1.31,1.45-2.1s-0.48-1.43-1.45-1.93
			C11.18,27.6,10.02,27.39,8.66,27.47"/>
		<path class="st1" d="M8.66,27.47c-1.36,0.08-2.53,0.42-3.49,1.04c-0.96,0.61-1.45,1.31-1.45,2.09c0,0.79,0.48,1.43,1.45,1.93
			c0.97,0.5,2.13,0.71,3.49,0.63c1.36-0.08,2.53-0.42,3.49-1.03c0.96-0.61,1.45-1.31,1.45-2.1s-0.48-1.43-1.45-1.93
			C11.18,27.6,10.02,27.39,8.66,27.47z"/>
		<path class="st2" d="M9.2,27.59c-0.18,0-0.35,0.01-0.53,0.02c-1.33,0.08-2.49,0.42-3.43,1.02c-0.92,0.58-1.38,1.25-1.38,1.98
			c0,0.74,0.45,1.33,1.37,1.81c0.94,0.48,2.09,0.69,3.42,0.62c1.33-0.08,2.48-0.42,3.43-1.01c0.92-0.58,1.38-1.25,1.38-1.99
			c0-0.74-0.45-1.33-1.37-1.81C11.28,27.8,10.31,27.59,9.2,27.59 M8.12,33.31c-1.15,0-2.17-0.22-3.02-0.66
			c-1.01-0.52-1.52-1.22-1.52-2.05c0-0.83,0.51-1.58,1.51-2.21c0.98-0.62,2.18-0.98,3.56-1.06c1.38-0.08,2.58,0.14,3.56,0.66
			c1.01,0.52,1.52,1.21,1.52,2.05c0,0.83-0.51,1.58-1.51,2.21c-0.98,0.62-2.18,0.97-3.56,1.05C8.48,33.31,8.3,33.31,8.12,33.31"/>
		<path class="st1" d="M9.2,27.59c-0.18,0-0.35,0.01-0.53,0.02c-1.33,0.08-2.49,0.42-3.43,1.02c-0.92,0.58-1.38,1.25-1.38,1.98
			c0,0.74,0.45,1.33,1.37,1.81c0.94,0.48,2.09,0.69,3.42,0.62c1.33-0.08,2.48-0.42,3.43-1.01c0.92-0.58,1.38-1.25,1.38-1.99
			c0-0.74-0.45-1.33-1.37-1.81C11.28,27.8,10.31,27.59,9.2,27.59z M8.12,33.31c-1.15,0-2.17-0.22-3.02-0.66
			c-1.01-0.52-1.52-1.22-1.52-2.05c0-0.83,0.51-1.58,1.51-2.21c0.98-0.62,2.18-0.98,3.56-1.06c1.38-0.08,2.58,0.14,3.56,0.66
			c1.01,0.52,1.52,1.21,1.52,2.05c0,0.83-0.51,1.58-1.51,2.21c-0.98,0.62-2.18,0.97-3.56,1.05C8.48,33.31,8.3,33.31,8.12,33.31z"/>
		<path class="st2" d="M8.66,25.78c-1.52,0.09-2.81,0.47-3.88,1.15c-1.07,0.68-1.61,1.46-1.61,2.33c0,0.88,0.53,1.59,1.61,2.14
			c1.07,0.56,2.36,0.79,3.88,0.71s2.81-0.47,3.88-1.15c1.07-0.68,1.61-1.45,1.61-2.33c0-0.88-0.54-1.59-1.61-2.15
			C11.47,25.93,10.17,25.7,8.66,25.78"/>
		<path class="st1" d="M8.66,25.78c-1.52,0.09-2.81,0.47-3.88,1.15c-1.07,0.68-1.61,1.46-1.61,2.33c0,0.88,0.53,1.59,1.61,2.14
			c1.07,0.56,2.36,0.79,3.88,0.71s2.81-0.47,3.88-1.15c1.07-0.68,1.61-1.45,1.61-2.33c0-0.88-0.54-1.59-1.61-2.15
			C11.47,25.93,10.17,25.7,8.66,25.78z"/>
		<path class="st2" d="M9.25,25.9c-0.19,0-0.39,0.01-0.59,0.02C7.18,26,5.9,26.38,4.85,27.04c-1.03,0.65-1.54,1.4-1.54,2.22
			c0,0.83,0.5,1.49,1.53,2.02c1.04,0.54,2.32,0.78,3.81,0.69c1.49-0.08,2.77-0.46,3.82-1.13c1.03-0.65,1.55-1.39,1.55-2.21
			c0-0.83-0.5-1.49-1.53-2.03C11.57,26.13,10.49,25.9,9.25,25.9 M8.07,32.26c-1.28,0-2.41-0.25-3.35-0.74
			c-1.11-0.58-1.68-1.34-1.68-2.26c0-0.92,0.56-1.74,1.67-2.44c1.08-0.69,2.41-1.08,3.94-1.17s2.86,0.15,3.95,0.72
			c1.12,0.58,1.68,1.34,1.68,2.27c0,0.92-0.56,1.74-1.67,2.44c-1.09,0.69-2.41,1.08-3.94,1.17C8.46,32.25,8.26,32.26,8.07,32.26"/>
		<path class="st1" d="M9.25,25.9c-0.19,0-0.39,0.01-0.59,0.02C7.18,26,5.9,26.38,4.85,27.04c-1.03,0.65-1.54,1.4-1.54,2.22
			c0,0.83,0.5,1.49,1.53,2.02c1.04,0.54,2.32,0.78,3.81,0.69c1.49-0.08,2.77-0.46,3.82-1.13c1.03-0.65,1.55-1.39,1.55-2.21
			c0-0.83-0.5-1.49-1.53-2.03C11.57,26.13,10.49,25.9,9.25,25.9z M8.07,32.26c-1.28,0-2.41-0.25-3.35-0.74
			c-1.11-0.58-1.68-1.34-1.68-2.26c0-0.92,0.56-1.74,1.67-2.44c1.08-0.69,2.41-1.08,3.94-1.17s2.86,0.15,3.95,0.72
			c1.12,0.58,1.68,1.34,1.68,2.27c0,0.92-0.56,1.74-1.67,2.44c-1.09,0.69-2.41,1.08-3.94,1.17C8.46,32.25,8.26,32.26,8.07,32.26z"/>
		<path class="st2" d="M8.66,24.72c-1.36,0.08-2.53,0.42-3.49,1.04c-0.96,0.61-1.45,1.31-1.45,2.09c0,0.79,0.48,1.43,1.45,1.93
			c0.97,0.5,2.13,0.71,3.49,0.64c1.36-0.08,2.53-0.43,3.49-1.03c0.96-0.61,1.45-1.31,1.45-2.1c0-0.79-0.48-1.43-1.45-1.93
			C11.18,24.85,10.02,24.64,8.66,24.72"/>
		<path class="st1" d="M8.66,24.72c-1.36,0.08-2.53,0.42-3.49,1.04c-0.96,0.61-1.45,1.31-1.45,2.09c0,0.79,0.48,1.43,1.45,1.93
			c0.97,0.5,2.13,0.71,3.49,0.64c1.36-0.08,2.53-0.43,3.49-1.03c0.96-0.61,1.45-1.31,1.45-2.1c0-0.79-0.48-1.43-1.45-1.93
			C11.18,24.85,10.02,24.64,8.66,24.72z"/>
		<path class="st2" d="M9.19,24.84c-0.17,0-0.34,0-0.52,0.01c-1.33,0.08-2.48,0.42-3.43,1.02c-0.92,0.58-1.38,1.25-1.38,1.98
			c0,0.74,0.45,1.33,1.37,1.81c0.94,0.48,2.09,0.69,3.42,0.62c1.33-0.08,2.48-0.42,3.43-1.01c0.92-0.58,1.38-1.25,1.38-1.98
			c0-0.74-0.45-1.33-1.37-1.81C11.27,25.05,10.3,24.84,9.19,24.84 M8.14,30.57c-1.16,0-2.18-0.22-3.04-0.66
			c-1.01-0.52-1.52-1.21-1.52-2.05c0-0.83,0.51-1.57,1.51-2.21c0.98-0.62,2.18-0.98,3.56-1.06c1.38-0.08,2.58,0.14,3.56,0.65
			c1.01,0.52,1.52,1.21,1.52,2.05c0,0.83-0.51,1.58-1.51,2.21c-0.98,0.62-2.18,0.97-3.56,1.06C8.49,30.56,8.31,30.57,8.14,30.57"/>
		<path class="st1" d="M9.19,24.84c-0.17,0-0.34,0-0.52,0.01c-1.33,0.08-2.48,0.42-3.43,1.02c-0.92,0.58-1.38,1.25-1.38,1.98
			c0,0.74,0.45,1.33,1.37,1.81c0.94,0.48,2.09,0.69,3.42,0.62c1.33-0.08,2.48-0.42,3.43-1.01c0.92-0.58,1.38-1.25,1.38-1.98
			c0-0.74-0.45-1.33-1.37-1.81C11.27,25.05,10.3,24.84,9.19,24.84z M8.14,30.57c-1.16,0-2.18-0.22-3.04-0.66
			c-1.01-0.52-1.52-1.21-1.52-2.05c0-0.83,0.51-1.57,1.51-2.21c0.98-0.62,2.18-0.98,3.56-1.06c1.38-0.08,2.58,0.14,3.56,0.65
			c1.01,0.52,1.52,1.21,1.52,2.05c0,0.83-0.51,1.58-1.51,2.21c-0.98,0.62-2.18,0.97-3.56,1.06C8.49,30.56,8.31,30.57,8.14,30.57z"/>
		<path class="st2" d="M8.66,23.03c-1.52,0.09-2.81,0.47-3.88,1.15c-1.07,0.68-1.61,1.46-1.61,2.33c0,0.87,0.53,1.59,1.61,2.14
			c1.07,0.56,2.36,0.79,3.88,0.71c1.52-0.09,2.81-0.47,3.88-1.15c1.07-0.68,1.61-1.45,1.61-2.33c0-0.88-0.54-1.59-1.61-2.15
			C11.47,23.18,10.17,22.94,8.66,23.03"/>
		<path class="st1" d="M8.66,23.03c-1.52,0.09-2.81,0.47-3.88,1.15c-1.07,0.68-1.61,1.46-1.61,2.33c0,0.87,0.53,1.59,1.61,2.14
			c1.07,0.56,2.36,0.79,3.88,0.71c1.52-0.09,2.81-0.47,3.88-1.15c1.07-0.68,1.61-1.45,1.61-2.33c0-0.88-0.54-1.59-1.61-2.15
			C11.47,23.18,10.17,22.94,8.66,23.03z"/>
		<path class="st2" d="M9.25,23.15c-0.19,0-0.39,0.01-0.59,0.02c-1.49,0.09-2.77,0.46-3.81,1.12c-1.03,0.65-1.54,1.4-1.54,2.22
			c0,0.83,0.5,1.49,1.53,2.02c1.04,0.54,2.32,0.78,3.81,0.69c1.49-0.08,2.77-0.46,3.82-1.13c1.03-0.65,1.55-1.39,1.55-2.21
			c0-0.83-0.5-1.49-1.53-2.03C11.57,23.38,10.49,23.15,9.25,23.15 M8.07,29.51c-1.28,0-2.41-0.25-3.35-0.74
			c-1.11-0.58-1.68-1.34-1.68-2.26c0-0.92,0.56-1.74,1.67-2.44c1.08-0.69,2.41-1.08,3.94-1.17c1.53-0.09,2.86,0.15,3.95,0.72
			c1.12,0.58,1.68,1.34,1.68,2.27c0,0.92-0.56,1.74-1.67,2.44c-1.09,0.69-2.41,1.08-3.94,1.17C8.46,29.5,8.26,29.51,8.07,29.51"/>
		<path class="st1" d="M9.25,23.15c-0.19,0-0.39,0.01-0.59,0.02c-1.49,0.09-2.77,0.46-3.81,1.12c-1.03,0.65-1.54,1.4-1.54,2.22
			c0,0.83,0.5,1.49,1.53,2.02c1.04,0.54,2.32,0.78,3.81,0.69c1.49-0.08,2.77-0.46,3.82-1.13c1.03-0.65,1.55-1.39,1.55-2.21
			c0-0.83-0.5-1.49-1.53-2.03C11.57,23.38,10.49,23.15,9.25,23.15z M8.07,29.51c-1.28,0-2.41-0.25-3.35-0.74
			c-1.11-0.58-1.68-1.34-1.68-2.26c0-0.92,0.56-1.74,1.67-2.44c1.08-0.69,2.41-1.08,3.94-1.17c1.53-0.09,2.86,0.15,3.95,0.72
			c1.12,0.58,1.68,1.34,1.68,2.27c0,0.92-0.56,1.74-1.67,2.44c-1.09,0.69-2.41,1.08-3.94,1.17C8.46,29.5,8.26,29.51,8.07,29.51z"/>
		<path class="st2" d="M5.17,27.03c0.97,0.5,2.13,0.71,3.49,0.63c1.36-0.08,2.53-0.42,3.49-1.03c0.96-0.61,1.45-1.31,1.45-2.1
			s-0.48-1.43-1.45-1.93c-0.97-0.5-2.13-0.72-3.49-0.64C7.3,22.04,6.13,22.39,5.17,23c-0.96,0.61-1.45,1.31-1.45,2.09
			C3.72,25.88,4.2,26.53,5.17,27.03"/>
		<path class="st1" d="M5.17,27.03c0.97,0.5,2.13,0.71,3.49,0.63c1.36-0.08,2.53-0.42,3.49-1.03c0.96-0.61,1.45-1.31,1.45-2.1
			s-0.48-1.43-1.45-1.93c-0.97-0.5-2.13-0.72-3.49-0.64C7.3,22.04,6.13,22.39,5.17,23c-0.96,0.61-1.45,1.31-1.45,2.09
			C3.72,25.88,4.2,26.53,5.17,27.03z"/>
		<path class="st2" d="M9.19,22.08c-0.17,0-0.34,0-0.52,0.02c-1.33,0.08-2.48,0.42-3.43,1.02c-0.92,0.58-1.38,1.25-1.38,1.98
			c0,0.74,0.45,1.33,1.37,1.81c0.94,0.48,2.09,0.69,3.42,0.62c1.33-0.08,2.48-0.42,3.43-1.01c0.92-0.58,1.38-1.25,1.38-1.99
			c0-0.74-0.45-1.33-1.37-1.81C11.27,22.3,10.3,22.08,9.19,22.08 M8.14,27.81c-1.16,0-2.18-0.22-3.04-0.66
			c-1.01-0.52-1.52-1.22-1.52-2.05c0-0.83,0.51-1.58,1.51-2.21c0.98-0.62,2.18-0.98,3.56-1.06c1.38-0.08,2.58,0.14,3.56,0.65
			c1.01,0.52,1.52,1.21,1.52,2.05c0,0.83-0.51,1.58-1.51,2.21c-0.98,0.62-2.18,0.97-3.56,1.05C8.49,27.81,8.31,27.81,8.14,27.81"/>
		<path class="st1" d="M9.19,22.08c-0.17,0-0.34,0-0.52,0.02c-1.33,0.08-2.48,0.42-3.43,1.02c-0.92,0.58-1.38,1.25-1.38,1.98
			c0,0.74,0.45,1.33,1.37,1.81c0.94,0.48,2.09,0.69,3.42,0.62c1.33-0.08,2.48-0.42,3.43-1.01c0.92-0.58,1.38-1.25,1.38-1.99
			c0-0.74-0.45-1.33-1.37-1.81C11.27,22.3,10.3,22.08,9.19,22.08z M8.14,27.81c-1.16,0-2.18-0.22-3.04-0.66
			c-1.01-0.52-1.52-1.22-1.52-2.05c0-0.83,0.51-1.58,1.51-2.21c0.98-0.62,2.18-0.98,3.56-1.06c1.38-0.08,2.58,0.14,3.56,0.65
			c1.01,0.52,1.52,1.21,1.52,2.05c0,0.83-0.51,1.58-1.51,2.21c-0.98,0.62-2.18,0.97-3.56,1.05C8.49,27.81,8.31,27.81,8.14,27.81z"/>
		<path class="st2" d="M8.66,20.28c-1.52,0.09-2.81,0.47-3.88,1.15c-1.07,0.68-1.61,1.46-1.61,2.33c0,0.88,0.53,1.59,1.61,2.14
			c1.07,0.56,2.36,0.79,3.88,0.71c1.52-0.08,2.81-0.47,3.88-1.15c1.07-0.68,1.61-1.45,1.61-2.33c0-0.88-0.54-1.59-1.61-2.15
			C11.47,20.43,10.17,20.19,8.66,20.28"/>
		<path class="st1" d="M8.66,20.28c-1.52,0.09-2.81,0.47-3.88,1.15c-1.07,0.68-1.61,1.46-1.61,2.33c0,0.88,0.53,1.59,1.61,2.14
			c1.07,0.56,2.36,0.79,3.88,0.71c1.52-0.08,2.81-0.47,3.88-1.15c1.07-0.68,1.61-1.45,1.61-2.33c0-0.88-0.54-1.59-1.61-2.15
			C11.47,20.43,10.17,20.19,8.66,20.28z"/>
		<path class="st2" d="M9.25,20.39c-0.19,0-0.39,0.01-0.59,0.02c-1.49,0.08-2.77,0.46-3.81,1.12c-1.03,0.65-1.54,1.4-1.54,2.22
			c0,0.83,0.5,1.49,1.53,2.02c1.04,0.54,2.32,0.78,3.81,0.69c1.49-0.08,2.77-0.46,3.82-1.13c1.03-0.65,1.55-1.39,1.55-2.21
			c0-0.83-0.5-1.49-1.53-2.03C11.57,20.63,10.49,20.39,9.25,20.39 M8.07,26.76c-1.28,0-2.41-0.25-3.35-0.74
			c-1.11-0.58-1.68-1.34-1.68-2.26c0-0.92,0.56-1.74,1.67-2.44c1.08-0.69,2.41-1.08,3.94-1.17s2.86,0.15,3.95,0.72
			c1.12,0.58,1.68,1.34,1.68,2.27c0,0.92-0.56,1.74-1.67,2.44c-1.09,0.69-2.41,1.09-3.95,1.17C8.46,26.75,8.26,26.76,8.07,26.76"/>
		<path class="st1" d="M9.25,20.39c-0.19,0-0.39,0.01-0.59,0.02c-1.49,0.08-2.77,0.46-3.81,1.12c-1.03,0.65-1.54,1.4-1.54,2.22
			c0,0.83,0.5,1.49,1.53,2.02c1.04,0.54,2.32,0.78,3.81,0.69c1.49-0.08,2.77-0.46,3.82-1.13c1.03-0.65,1.55-1.39,1.55-2.21
			c0-0.83-0.5-1.49-1.53-2.03C11.57,20.63,10.49,20.39,9.25,20.39z M8.07,26.76c-1.28,0-2.41-0.25-3.35-0.74
			c-1.11-0.58-1.68-1.34-1.68-2.26c0-0.92,0.56-1.74,1.67-2.44c1.08-0.69,2.41-1.08,3.94-1.17s2.86,0.15,3.95,0.72
			c1.12,0.58,1.68,1.34,1.68,2.27c0,0.92-0.56,1.74-1.67,2.44c-1.09,0.69-2.41,1.09-3.95,1.17C8.46,26.75,8.26,26.76,8.07,26.76z"/>
		<path class="st2" d="M5.17,24.28c0.97,0.5,2.13,0.71,3.49,0.63c1.36-0.08,2.53-0.42,3.49-1.03c0.96-0.61,1.45-1.31,1.45-2.1
			c0-0.79-0.48-1.43-1.45-1.93c-0.97-0.5-2.13-0.72-3.49-0.64c-1.36,0.08-2.52,0.42-3.49,1.03c-0.96,0.61-1.45,1.31-1.45,2.09
			C3.72,23.13,4.2,23.78,5.17,24.28"/>
		<path class="st1" d="M5.17,24.28c0.97,0.5,2.13,0.71,3.49,0.63c1.36-0.08,2.53-0.42,3.49-1.03c0.96-0.61,1.45-1.31,1.45-2.1
			c0-0.79-0.48-1.43-1.45-1.93c-0.97-0.5-2.13-0.72-3.49-0.64c-1.36,0.08-2.52,0.42-3.49,1.03c-0.96,0.61-1.45,1.31-1.45,2.09
			C3.72,23.13,4.2,23.78,5.17,24.28z"/>
		<path class="st2" d="M9.2,19.33c-0.18,0-0.36,0.01-0.54,0.02c-1.33,0.07-2.49,0.41-3.43,1.01c-0.92,0.58-1.38,1.25-1.38,1.98
			c0,0.74,0.45,1.33,1.37,1.81c0.94,0.48,2.09,0.69,3.42,0.62c1.33-0.08,2.48-0.42,3.43-1.01c0.92-0.58,1.38-1.25,1.38-1.99
			c0-0.74-0.45-1.33-1.37-1.81C11.28,19.55,10.31,19.33,9.2,19.33 M8.14,25.06c-1.16,0-2.18-0.22-3.04-0.66
			c-1.01-0.52-1.52-1.21-1.52-2.05c0-0.83,0.51-1.58,1.51-2.21c0.98-0.62,2.18-0.98,3.56-1.05c1.38-0.08,2.58,0.14,3.56,0.65
			c1.01,0.52,1.52,1.21,1.52,2.05c0,0.83-0.51,1.58-1.51,2.21c-0.98,0.62-2.18,0.97-3.56,1.05C8.49,25.06,8.31,25.06,8.14,25.06"/>
		<path class="st1" d="M9.2,19.33c-0.18,0-0.36,0.01-0.54,0.02c-1.33,0.07-2.49,0.41-3.43,1.01c-0.92,0.58-1.38,1.25-1.38,1.98
			c0,0.74,0.45,1.33,1.37,1.81c0.94,0.48,2.09,0.69,3.42,0.62c1.33-0.08,2.48-0.42,3.43-1.01c0.92-0.58,1.38-1.25,1.38-1.99
			c0-0.74-0.45-1.33-1.37-1.81C11.28,19.55,10.31,19.33,9.2,19.33z M8.14,25.06c-1.16,0-2.18-0.22-3.04-0.66
			c-1.01-0.52-1.52-1.21-1.52-2.05c0-0.83,0.51-1.58,1.51-2.21c0.98-0.62,2.18-0.98,3.56-1.05c1.38-0.08,2.58,0.14,3.56,0.65
			c1.01,0.52,1.52,1.21,1.52,2.05c0,0.83-0.51,1.58-1.51,2.21c-0.98,0.62-2.18,0.97-3.56,1.05C8.49,25.06,8.31,25.06,8.14,25.06z"/>
		<path class="st2" d="M8.66,17.53c-1.52,0.09-2.81,0.47-3.88,1.15C3.71,19.35,3.17,20.13,3.17,21c0,0.87,0.53,1.59,1.61,2.14
			c1.07,0.56,2.36,0.8,3.88,0.71c1.52-0.09,2.81-0.47,3.88-1.15c1.07-0.68,1.61-1.45,1.61-2.33c0-0.88-0.54-1.59-1.61-2.15
			C11.47,17.67,10.17,17.44,8.66,17.53"/>
		<path class="st1" d="M8.66,17.53c-1.52,0.09-2.81,0.47-3.88,1.15C3.71,19.35,3.17,20.13,3.17,21c0,0.87,0.53,1.59,1.61,2.14
			c1.07,0.56,2.36,0.8,3.88,0.71c1.52-0.09,2.81-0.47,3.88-1.15c1.07-0.68,1.61-1.45,1.61-2.33c0-0.88-0.54-1.59-1.61-2.15
			C11.47,17.67,10.17,17.44,8.66,17.53z"/>
		<path class="st2" d="M9.25,17.64c-0.19,0-0.39,0.01-0.59,0.02c-1.49,0.09-2.77,0.46-3.81,1.12c-1.03,0.65-1.54,1.4-1.54,2.22
			c0,0.83,0.5,1.49,1.53,2.02c1.04,0.55,2.32,0.78,3.81,0.7c1.49-0.08,2.77-0.47,3.82-1.13c1.03-0.65,1.55-1.39,1.55-2.21
			c0-0.83-0.5-1.49-1.53-2.03C11.57,17.88,10.49,17.64,9.25,17.64 M8.07,24.01c-1.28,0-2.41-0.25-3.35-0.74
			C3.6,22.69,3.04,21.93,3.04,21c0-0.92,0.56-1.74,1.67-2.44c1.08-0.69,2.41-1.08,3.94-1.17s2.86,0.15,3.95,0.72
			c1.12,0.58,1.68,1.34,1.68,2.27c0,0.92-0.56,1.74-1.67,2.44c-1.09,0.69-2.41,1.09-3.94,1.18C8.46,24,8.26,24.01,8.07,24.01"/>
		<path class="st1" d="M9.25,17.64c-0.19,0-0.39,0.01-0.59,0.02c-1.49,0.09-2.77,0.46-3.81,1.12c-1.03,0.65-1.54,1.4-1.54,2.22
			c0,0.83,0.5,1.49,1.53,2.02c1.04,0.55,2.32,0.78,3.81,0.7c1.49-0.08,2.77-0.47,3.82-1.13c1.03-0.65,1.55-1.39,1.55-2.21
			c0-0.83-0.5-1.49-1.53-2.03C11.57,17.88,10.49,17.64,9.25,17.64z M8.07,24.01c-1.28,0-2.41-0.25-3.35-0.74
			C3.6,22.69,3.04,21.93,3.04,21c0-0.92,0.56-1.74,1.67-2.44c1.08-0.69,2.41-1.08,3.94-1.17s2.86,0.15,3.95,0.72
			c1.12,0.58,1.68,1.34,1.68,2.27c0,0.92-0.56,1.74-1.67,2.44c-1.09,0.69-2.41,1.09-3.94,1.18C8.46,24,8.26,24.01,8.07,24.01z"/>
		<path class="st2" d="M13.6,19.03c0-0.79-0.48-1.43-1.45-1.93c-0.97-0.5-2.13-0.72-3.49-0.63c-1.36,0.07-2.53,0.42-3.49,1.03
			c-0.96,0.61-1.45,1.31-1.45,2.09c0,0.79,0.48,1.43,1.45,1.93c0.97,0.5,2.13,0.71,3.49,0.63c1.36-0.08,2.52-0.42,3.49-1.03
			C13.11,20.52,13.6,19.82,13.6,19.03"/>
		<path class="st1" d="M13.6,19.03c0-0.79-0.48-1.43-1.45-1.93c-0.97-0.5-2.13-0.72-3.49-0.63c-1.36,0.07-2.53,0.42-3.49,1.03
			c-0.96,0.61-1.45,1.31-1.45,2.09c0,0.79,0.48,1.43,1.45,1.93c0.97,0.5,2.13,0.71,3.49,0.63c1.36-0.08,2.52-0.42,3.49-1.03
			C13.11,20.52,13.6,19.82,13.6,19.03z"/>
		<path class="st2" d="M9.2,16.58c-0.18,0-0.36,0-0.54,0.02c-1.33,0.07-2.49,0.41-3.43,1.01c-0.92,0.58-1.38,1.25-1.38,1.98
			c0,0.74,0.45,1.33,1.37,1.81c0.94,0.48,2.09,0.69,3.42,0.62c1.33-0.08,2.48-0.42,3.43-1.01c0.92-0.58,1.38-1.25,1.38-1.99
			c0-0.74-0.45-1.33-1.37-1.81C11.28,16.8,10.31,16.58,9.2,16.58 M8.14,22.31c-1.16,0-2.18-0.22-3.04-0.66
			c-1.01-0.52-1.52-1.21-1.52-2.05c0-0.83,0.51-1.58,1.51-2.21c0.98-0.62,2.18-0.98,3.56-1.05c1.38-0.08,2.58,0.14,3.56,0.65
			c1.01,0.52,1.52,1.21,1.52,2.05c0,0.83-0.51,1.58-1.51,2.21c-0.98,0.62-2.18,0.97-3.56,1.05C8.49,22.3,8.31,22.31,8.14,22.31"/>
		<path class="st1" d="M9.2,16.58c-0.18,0-0.36,0-0.54,0.02c-1.33,0.07-2.49,0.41-3.43,1.01c-0.92,0.58-1.38,1.25-1.38,1.98
			c0,0.74,0.45,1.33,1.37,1.81c0.94,0.48,2.09,0.69,3.42,0.62c1.33-0.08,2.48-0.42,3.43-1.01c0.92-0.58,1.38-1.25,1.38-1.99
			c0-0.74-0.45-1.33-1.37-1.81C11.28,16.8,10.31,16.58,9.2,16.58z M8.14,22.31c-1.16,0-2.18-0.22-3.04-0.66
			c-1.01-0.52-1.52-1.21-1.52-2.05c0-0.83,0.51-1.58,1.51-2.21c0.98-0.62,2.18-0.98,3.56-1.05c1.38-0.08,2.58,0.14,3.56,0.65
			c1.01,0.52,1.52,1.21,1.52,2.05c0,0.83-0.51,1.58-1.51,2.21c-0.98,0.62-2.18,0.97-3.56,1.05C8.49,22.3,8.31,22.31,8.14,22.31z"/>
		<path class="st2" d="M12.54,19.95c1.07-0.68,1.61-1.45,1.61-2.33c0-0.87-0.54-1.59-1.61-2.15c-1.07-0.55-2.37-0.79-3.88-0.7
			c-1.52,0.09-2.81,0.47-3.88,1.15c-1.07,0.68-1.61,1.46-1.61,2.34c0,0.87,0.53,1.59,1.61,2.14c1.07,0.56,2.36,0.79,3.88,0.71
			C10.17,21.02,11.47,20.63,12.54,19.95"/>
		<path class="st1" d="M12.54,19.95c1.07-0.68,1.61-1.45,1.61-2.33c0-0.87-0.54-1.59-1.61-2.15c-1.07-0.55-2.37-0.79-3.88-0.7
			c-1.52,0.09-2.81,0.47-3.88,1.15c-1.07,0.68-1.61,1.46-1.61,2.34c0,0.87,0.53,1.59,1.61,2.14c1.07,0.56,2.36,0.79,3.88,0.71
			C10.17,21.02,11.47,20.63,12.54,19.95z"/>
		<path class="st2" d="M9.25,14.89c-0.19,0-0.39,0.01-0.59,0.02c-1.49,0.08-2.77,0.46-3.81,1.12c-1.03,0.65-1.54,1.4-1.54,2.22
			c0,0.82,0.5,1.49,1.53,2.02c1.04,0.54,2.32,0.78,3.81,0.69c1.49-0.08,2.77-0.47,3.82-1.13c1.03-0.65,1.55-1.39,1.55-2.21
			c0-0.83-0.5-1.49-1.53-2.03C11.57,15.13,10.49,14.89,9.25,14.89 M8.07,21.26c-1.28,0-2.41-0.25-3.35-0.74
			c-1.11-0.58-1.68-1.34-1.68-2.26c0-0.92,0.56-1.74,1.67-2.45c1.08-0.69,2.41-1.08,3.94-1.17s2.86,0.15,3.95,0.72
			c1.12,0.58,1.68,1.34,1.68,2.27c0,0.92-0.56,1.74-1.67,2.44c-1.09,0.69-2.41,1.09-3.94,1.18C8.46,21.25,8.26,21.26,8.07,21.26"/>
		<path class="st1" d="M9.25,14.89c-0.19,0-0.39,0.01-0.59,0.02c-1.49,0.08-2.77,0.46-3.81,1.12c-1.03,0.65-1.54,1.4-1.54,2.22
			c0,0.82,0.5,1.49,1.53,2.02c1.04,0.54,2.32,0.78,3.81,0.69c1.49-0.08,2.77-0.47,3.82-1.13c1.03-0.65,1.55-1.39,1.55-2.21
			c0-0.83-0.5-1.49-1.53-2.03C11.57,15.13,10.49,14.89,9.25,14.89z M8.07,21.26c-1.28,0-2.41-0.25-3.35-0.74
			c-1.11-0.58-1.68-1.34-1.68-2.26c0-0.92,0.56-1.74,1.67-2.45c1.08-0.69,2.41-1.08,3.94-1.17s2.86,0.15,3.95,0.72
			c1.12,0.58,1.68,1.34,1.68,2.27c0,0.92-0.56,1.74-1.67,2.44c-1.09,0.69-2.41,1.09-3.94,1.18C8.46,21.25,8.26,21.26,8.07,21.26z"/>
		<path class="st2" d="M12.15,18.38c0.96-0.61,1.45-1.31,1.45-2.1c0-0.79-0.48-1.43-1.45-1.93c-0.97-0.5-2.13-0.72-3.49-0.64
			c-1.36,0.08-2.53,0.42-3.49,1.03c-0.96,0.61-1.45,1.31-1.45,2.09s0.48,1.43,1.45,1.93c0.97,0.5,2.13,0.71,3.49,0.63
			C10.02,19.33,11.18,18.98,12.15,18.38"/>
		<path class="st1" d="M12.15,18.38c0.96-0.61,1.45-1.31,1.45-2.1c0-0.79-0.48-1.43-1.45-1.93c-0.97-0.5-2.13-0.72-3.49-0.64
			c-1.36,0.08-2.53,0.42-3.49,1.03c-0.96,0.61-1.45,1.31-1.45,2.09s0.48,1.43,1.45,1.93c0.97,0.5,2.13,0.71,3.49,0.63
			C10.02,19.33,11.18,18.98,12.15,18.38z"/>
		<path class="st2" d="M9.2,13.83c-0.18,0-0.36,0.01-0.54,0.02c-1.33,0.07-2.49,0.41-3.43,1.01c-0.92,0.58-1.38,1.25-1.38,1.98
			c0,0.74,0.45,1.33,1.37,1.81c0.94,0.49,2.09,0.7,3.42,0.62c1.33-0.08,2.48-0.42,3.43-1.01c0.92-0.58,1.38-1.25,1.38-1.99
			c0-0.74-0.45-1.33-1.37-1.81C11.28,14.04,10.31,13.83,9.2,13.83 M8.13,19.56c-1.15,0-2.17-0.22-3.02-0.66
			c-1.01-0.52-1.52-1.21-1.52-2.05c0-0.83,0.51-1.58,1.51-2.21c0.98-0.62,2.18-0.98,3.56-1.05c1.38-0.08,2.58,0.14,3.56,0.65
			c1.01,0.52,1.52,1.21,1.52,2.05c0,0.83-0.51,1.58-1.51,2.21c-0.98,0.62-2.18,0.97-3.56,1.05C8.48,19.55,8.3,19.56,8.13,19.56"/>
		<path class="st1" d="M9.2,13.83c-0.18,0-0.36,0.01-0.54,0.02c-1.33,0.07-2.49,0.41-3.43,1.01c-0.92,0.58-1.38,1.25-1.38,1.98
			c0,0.74,0.45,1.33,1.37,1.81c0.94,0.49,2.09,0.7,3.42,0.62c1.33-0.08,2.48-0.42,3.43-1.01c0.92-0.58,1.38-1.25,1.38-1.99
			c0-0.74-0.45-1.33-1.37-1.81C11.28,14.04,10.31,13.83,9.2,13.83z M8.13,19.56c-1.15,0-2.17-0.22-3.02-0.66
			c-1.01-0.52-1.52-1.21-1.52-2.05c0-0.83,0.51-1.58,1.51-2.21c0.98-0.62,2.18-0.98,3.56-1.05c1.38-0.08,2.58,0.14,3.56,0.65
			c1.01,0.52,1.52,1.21,1.52,2.05c0,0.83-0.51,1.58-1.51,2.21c-0.98,0.62-2.18,0.97-3.56,1.05C8.48,19.55,8.3,19.56,8.13,19.56z"/>
		<path class="st2" d="M14.15,14.87c0-0.88-0.54-1.59-1.61-2.15c-1.07-0.55-2.37-0.79-3.88-0.7c-1.52,0.09-2.81,0.47-3.88,1.15
			c-1.07,0.68-1.61,1.46-1.61,2.33c0,0.88,0.54,1.59,1.61,2.14c1.07,0.56,2.36,0.79,3.88,0.71c1.52-0.09,2.81-0.47,3.88-1.15
			C13.61,16.52,14.15,15.75,14.15,14.87"/>
		<path class="st1" d="M14.15,14.87c0-0.88-0.54-1.59-1.61-2.15c-1.07-0.55-2.37-0.79-3.88-0.7c-1.52,0.09-2.81,0.47-3.88,1.15
			c-1.07,0.68-1.61,1.46-1.61,2.33c0,0.88,0.54,1.59,1.61,2.14c1.07,0.56,2.36,0.79,3.88,0.71c1.52-0.09,2.81-0.47,3.88-1.15
			C13.61,16.52,14.15,15.75,14.15,14.87z"/>
		<path class="st2" d="M9.25,12.14c-0.19,0-0.39,0.01-0.59,0.02c-1.49,0.09-2.77,0.46-3.81,1.12c-1.03,0.65-1.54,1.4-1.54,2.22
			c0,0.83,0.5,1.49,1.53,2.02c1.04,0.54,2.32,0.78,3.81,0.69c1.49-0.09,2.77-0.47,3.82-1.13c1.03-0.65,1.55-1.39,1.55-2.21
			c0-0.83-0.5-1.49-1.53-2.03C11.57,12.37,10.49,12.14,9.25,12.14 M8.07,18.51c-1.28,0-2.41-0.25-3.35-0.74
			c-1.11-0.58-1.68-1.34-1.68-2.26c0-0.92,0.56-1.74,1.67-2.45c1.08-0.69,2.41-1.08,3.94-1.17s2.86,0.15,3.95,0.72
			c1.12,0.58,1.68,1.34,1.68,2.27c0,0.92-0.56,1.74-1.67,2.44C11.53,18,10.2,18.4,8.67,18.49C8.46,18.5,8.26,18.51,8.07,18.51"/>
		<path class="st1" d="M9.25,12.14c-0.19,0-0.39,0.01-0.59,0.02c-1.49,0.09-2.77,0.46-3.81,1.12c-1.03,0.65-1.54,1.4-1.54,2.22
			c0,0.83,0.5,1.49,1.53,2.02c1.04,0.54,2.32,0.78,3.81,0.69c1.49-0.09,2.77-0.47,3.82-1.13c1.03-0.65,1.55-1.39,1.55-2.21
			c0-0.83-0.5-1.49-1.53-2.03C11.57,12.37,10.49,12.14,9.25,12.14z M8.07,18.51c-1.28,0-2.41-0.25-3.35-0.74
			c-1.11-0.58-1.68-1.34-1.68-2.26c0-0.92,0.56-1.74,1.67-2.45c1.08-0.69,2.41-1.08,3.94-1.17s2.86,0.15,3.95,0.72
			c1.12,0.58,1.68,1.34,1.68,2.27c0,0.92-0.56,1.74-1.67,2.44C11.53,18,10.2,18.4,8.67,18.49C8.46,18.5,8.26,18.51,8.07,18.51z"/>
		<path class="st2" d="M13.6,13.53c0-0.79-0.48-1.43-1.45-1.93c-0.97-0.5-2.13-0.72-3.49-0.63C7.3,11.04,6.13,11.38,5.16,12
			c-0.96,0.6-1.45,1.3-1.45,2.09c0,0.79,0.48,1.43,1.45,1.94c0.97,0.5,2.13,0.71,3.49,0.63c1.36-0.08,2.52-0.42,3.49-1.03
			C13.11,15.01,13.6,14.31,13.6,13.53"/>
		<path class="st1" d="M13.6,13.53c0-0.79-0.48-1.43-1.45-1.93c-0.97-0.5-2.13-0.72-3.49-0.63C7.3,11.04,6.13,11.38,5.16,12
			c-0.96,0.6-1.45,1.3-1.45,2.09c0,0.79,0.48,1.43,1.45,1.94c0.97,0.5,2.13,0.71,3.49,0.63c1.36-0.08,2.52-0.42,3.49-1.03
			C13.11,15.01,13.6,14.31,13.6,13.53z"/>
		<path class="st2" d="M9.2,11.08c-0.18,0-0.36,0-0.54,0.02c-1.33,0.07-2.49,0.42-3.43,1.02c-0.92,0.58-1.38,1.24-1.38,1.98
			c0,0.74,0.45,1.33,1.37,1.82c0.94,0.48,2.09,0.69,3.42,0.62c1.33-0.08,2.48-0.42,3.43-1.01c0.92-0.58,1.38-1.25,1.38-1.99
			c0-0.74-0.45-1.33-1.37-1.81C11.28,11.29,10.31,11.08,9.2,11.08 M8.13,16.81c-1.15,0-2.17-0.22-3.02-0.66
			c-1.01-0.53-1.52-1.22-1.52-2.06c0-0.83,0.51-1.57,1.51-2.2c0.98-0.63,2.18-0.98,3.56-1.06c1.38-0.08,2.58,0.14,3.56,0.65
			c1.01,0.52,1.52,1.21,1.52,2.05c0,0.83-0.51,1.58-1.51,2.21c-0.98,0.62-2.18,0.97-3.56,1.05C8.48,16.8,8.3,16.81,8.13,16.81"/>
		<path class="st1" d="M9.2,11.08c-0.18,0-0.36,0-0.54,0.02c-1.33,0.07-2.49,0.42-3.43,1.02c-0.92,0.58-1.38,1.24-1.38,1.98
			c0,0.74,0.45,1.33,1.37,1.82c0.94,0.48,2.09,0.69,3.42,0.62c1.33-0.08,2.48-0.42,3.43-1.01c0.92-0.58,1.38-1.25,1.38-1.99
			c0-0.74-0.45-1.33-1.37-1.81C11.28,11.29,10.31,11.08,9.2,11.08z M8.13,16.81c-1.15,0-2.17-0.22-3.02-0.66
			c-1.01-0.53-1.52-1.22-1.52-2.06c0-0.83,0.51-1.57,1.51-2.2c0.98-0.63,2.18-0.98,3.56-1.06c1.38-0.08,2.58,0.14,3.56,0.65
			c1.01,0.52,1.52,1.21,1.52,2.05c0,0.83-0.51,1.58-1.51,2.21c-0.98,0.62-2.18,0.97-3.56,1.05C8.48,16.8,8.3,16.81,8.13,16.81z"/>
		<path class="st2" d="M17.55,5.73c-0.05-1.03-0.57-1.95-1.56-2.76l-1.56,0.9L3.59,10.12c1.47,0.6,3.16,0.9,5.07,0.9
			c2.46,0,4.56-0.5,6.3-1.5c0.86-0.5,1.51-1.04,1.94-1.64c0.41-0.56,0.63-1.17,0.66-1.82V5.73z M17.56,5.9c0-0.06,0-0.11,0-0.17
			v0.34C17.56,6.01,17.56,5.95,17.56,5.9L17.56,5.9z M13.73,1.67c-1.47-0.6-3.16-0.9-5.07-0.9c-2.46,0-4.55,0.5-6.29,1.5
			c-1.74,1-2.61,2.21-2.61,3.63c0,0.08,0,0.16,0.01,0.23c0,0.02,0,0.04,0,0.06c0.05,0.61,0.27,1.17,0.66,1.7
			c0.24,0.32,0.53,0.63,0.9,0.93L13.73,1.67L13.73,1.67z M-0.24,9.88c0,0.04,0,0.16,0.01,0.37V9.63C-0.24,9.72-0.24,9.8-0.24,9.88
			L-0.24,9.88z"/>
		<path class="st1" d="M17.55,5.73c-0.05-1.03-0.57-1.95-1.56-2.76l-1.56,0.9L3.59,10.12c1.47,0.6,3.16,0.9,5.07,0.9
			c2.46,0,4.56-0.5,6.3-1.5c0.86-0.5,1.51-1.04,1.94-1.64c0.41-0.56,0.63-1.17,0.66-1.82V5.73z M17.56,5.9c0-0.06,0-0.11,0-0.17
			v0.34C17.56,6.01,17.56,5.95,17.56,5.9L17.56,5.9z M13.73,1.67c-1.47-0.6-3.16-0.9-5.07-0.9c-2.46,0-4.55,0.5-6.29,1.5
			c-1.74,1-2.61,2.21-2.61,3.63c0,0.08,0,0.16,0.01,0.23c0,0.02,0,0.04,0,0.06c0.05,0.61,0.27,1.17,0.66,1.7
			c0.24,0.32,0.53,0.63,0.9,0.93L13.73,1.67L13.73,1.67z M-0.24,9.88c0,0.04,0,0.16,0.01,0.37V9.63C-0.24,9.72-0.24,9.8-0.24,9.88
			L-0.24,9.88z"/>
		<path class="st2" d="M13.81,1.7c0-0.02-0.01-0.05-0.01-0.07l-0.06,0.04L1.33,8.82L1.27,8.85c0.64,3.25,1.39,3.69,2.26,1.3
			l0.05-0.03l10.84-6.26C14.21,3.41,14.01,2.69,13.81,1.7 M17.56,10.9V9.97V9.9l0-3.83c-0.03,0.65-0.25,1.26-0.66,1.82
			c-0.43,0.6-1.08,1.14-1.94,1.64c-1.74,1-3.84,1.5-6.3,1.5c-1.91,0-3.6-0.3-5.07-0.9l-0.05,0.03c-0.87,2.39-1.63,1.95-2.26-1.3
			l0.06-0.03c-0.36-0.3-0.66-0.6-0.9-0.93c-0.38-0.53-0.6-1.1-0.66-1.71l0,3.45v0.62v0.85c0.09,1.32,0.96,2.46,2.6,3.41
			c1.74,1,3.83,1.5,6.28,1.5c2.46,0,4.56-0.5,6.3-1.5C16.68,13.51,17.55,12.31,17.56,10.9"/>
		<path class="st1" d="M13.81,1.7c0-0.02-0.01-0.05-0.01-0.07l-0.06,0.04L1.33,8.82L1.27,8.85c0.64,3.25,1.39,3.69,2.26,1.3
			l0.05-0.03l10.84-6.26C14.21,3.41,14.01,2.69,13.81,1.7z M17.56,10.9V9.97V9.9l0-3.83c-0.03,0.65-0.25,1.26-0.66,1.82
			c-0.43,0.6-1.08,1.14-1.94,1.64c-1.74,1-3.84,1.5-6.3,1.5c-1.91,0-3.6-0.3-5.07-0.9l-0.05,0.03c-0.87,2.39-1.63,1.95-2.26-1.3
			l0.06-0.03c-0.36-0.3-0.66-0.6-0.9-0.93c-0.38-0.53-0.6-1.1-0.66-1.71l0,3.45v0.62v0.85c0.09,1.32,0.96,2.46,2.6,3.41
			c1.74,1,3.83,1.5,6.28,1.5c2.46,0,4.56-0.5,6.3-1.5C16.68,13.51,17.55,12.31,17.56,10.9L17.56,10.9z"/>
		<path class="st2" d="M-0.09,6.17c0.05,0.58,0.27,1.13,0.63,1.64c0.21,0.29,0.48,0.57,0.8,0.84l12.08-6.97
			C12.03,1.16,10.43,0.9,8.66,0.9c-2.42,0-4.51,0.5-6.22,1.48C0.75,3.35-0.1,4.53-0.1,5.9c0,0.08,0,0.15,0.01,0.22
			c0,0,0,0.01,0,0.01c0,0.01,0,0.02,0,0.03C-0.09,6.17-0.09,6.17-0.09,6.17L-0.09,6.17z M3.9,10.1c1.39,0.53,2.99,0.79,4.76,0.79
			c2.42,0,4.52-0.5,6.23-1.48c0.84-0.48,1.48-1.02,1.9-1.6c0.39-0.54,0.6-1.13,0.63-1.75V5.73c-0.05-0.96-0.53-1.84-1.44-2.6
			L14.5,3.98c0,0,0,0,0,0L3.9,10.1z M1.42,8.92c0.46,2.32,0.89,2.6,1.06,2.61c0.12,0.01,0.45-0.11,0.93-1.43
			c0.01-0.03,0.03-0.06,0.07-0.07L3.53,10l0,0l10.73-6.19c-0.19-0.45-0.38-1.11-0.56-1.97L1.42,8.92z M-0.09,11.1
			c0.09,1.27,0.94,2.37,2.53,3.29c1.71,0.99,3.8,1.48,6.22,1.48c2.42,0,4.52-0.5,6.23-1.48c1.68-0.97,2.53-2.15,2.53-3.5l0-3.66
			c-0.11,0.25-0.25,0.5-0.42,0.73c-0.44,0.61-1.11,1.17-1.98,1.68c-1.75,1.01-3.89,1.52-6.37,1.52c-1.88,0-3.57-0.3-5.03-0.88
			c-0.4,1.06-0.77,1.54-1.17,1.51c-0.32-0.03-0.81-0.36-1.32-2.92c0-0.02,0-0.03,0-0.05C0.82,8.56,0.54,8.27,0.33,7.97
			C0.16,7.74,0.02,7.49-0.09,7.24l0,3.01v0V11.1z M8.66,16.15c-2.47,0-4.6-0.51-6.35-1.52c-1.68-0.97-2.57-2.15-2.67-3.51V11.1
			v-0.85c0-0.21-0.01-0.33-0.01-0.37c0-0.09,0-0.17,0.01-0.26l0-3.43c0-0.02,0-0.04,0-0.06c0-0.08-0.01-0.16-0.01-0.24
			c0-1.46,0.9-2.72,2.68-3.75c1.75-1.01,3.89-1.52,6.36-1.52c1.89,0,3.59,0.3,5.05,0.89l0,0c0.04-0.02,0.08-0.03,0.12-0.01
			c0.04,0.02,0.07,0.05,0.08,0.09c0.01,0.03,0.01,0.06,0.02,0.08c0.18,0.88,0.36,1.55,0.56,2l1.43-0.82l0,0l0.06-0.04
			c0.06-0.04,0.15-0.02,0.19,0.04c0.02,0.03,0.03,0.07,0.02,0.1c0.95,0.81,1.45,1.73,1.5,2.76v0c0,0.06,0,0.12,0,0.18s0,0.12,0,0.18
			l0,4.82c-0.01,1.46-0.9,2.71-2.67,3.73C13.27,15.64,11.13,16.15,8.66,16.15L8.66,16.15z"/>
		<path class="st1" d="M-0.09,6.17c0.05,0.58,0.27,1.13,0.63,1.64c0.21,0.29,0.48,0.57,0.8,0.84l12.08-6.97
			C12.03,1.16,10.43,0.9,8.66,0.9c-2.42,0-4.51,0.5-6.22,1.48C0.75,3.35-0.1,4.53-0.1,5.9c0,0.08,0,0.15,0.01,0.22
			c0,0,0,0.01,0,0.01c0,0.01,0,0.02,0,0.03C-0.09,6.17-0.09,6.17-0.09,6.17L-0.09,6.17z M3.9,10.1c1.39,0.53,2.99,0.79,4.76,0.79
			c2.42,0,4.52-0.5,6.23-1.48c0.84-0.48,1.48-1.02,1.9-1.6c0.39-0.54,0.6-1.13,0.63-1.75V5.73c-0.05-0.96-0.53-1.84-1.44-2.6
			L14.5,3.98c0,0,0,0,0,0L3.9,10.1z M1.42,8.92c0.46,2.32,0.89,2.6,1.06,2.61c0.12,0.01,0.45-0.11,0.93-1.43
			c0.01-0.03,0.03-0.06,0.07-0.07L3.53,10l0,0l10.73-6.19c-0.19-0.45-0.38-1.11-0.56-1.97L1.42,8.92z M-0.09,11.1
			c0.09,1.27,0.94,2.37,2.53,3.29c1.71,0.99,3.8,1.48,6.22,1.48c2.42,0,4.52-0.5,6.23-1.48c1.68-0.97,2.53-2.15,2.53-3.5l0-3.66
			c-0.11,0.25-0.25,0.5-0.42,0.73c-0.44,0.61-1.11,1.17-1.98,1.68c-1.75,1.01-3.89,1.52-6.37,1.52c-1.88,0-3.57-0.3-5.03-0.88
			c-0.4,1.06-0.77,1.54-1.17,1.51c-0.32-0.03-0.81-0.36-1.32-2.92c0-0.02,0-0.03,0-0.05C0.82,8.56,0.54,8.27,0.33,7.97
			C0.16,7.74,0.02,7.49-0.09,7.24l0,3.01v0V11.1z M8.66,16.15c-2.47,0-4.6-0.51-6.35-1.52c-1.68-0.97-2.57-2.15-2.67-3.51V11.1
			v-0.85c0-0.21-0.01-0.33-0.01-0.37c0-0.09,0-0.17,0.01-0.26l0-3.43c0-0.02,0-0.04,0-0.06c0-0.08-0.01-0.16-0.01-0.24
			c0-1.46,0.9-2.72,2.68-3.75c1.75-1.01,3.89-1.52,6.36-1.52c1.89,0,3.59,0.3,5.05,0.89l0,0c0.04-0.02,0.08-0.03,0.12-0.01
			c0.04,0.02,0.07,0.05,0.08,0.09c0.01,0.03,0.01,0.06,0.02,0.08c0.18,0.88,0.36,1.55,0.56,2l1.43-0.82l0,0l0.06-0.04
			c0.06-0.04,0.15-0.02,0.19,0.04c0.02,0.03,0.03,0.07,0.02,0.1c0.95,0.81,1.45,1.73,1.5,2.76v0c0,0.06,0,0.12,0,0.18s0,0.12,0,0.18
			l0,4.82c-0.01,1.46-0.9,2.71-2.67,3.73C13.27,15.64,11.13,16.15,8.66,16.15z"/>
	</g>
</g>
</svg>
