<?xml version="1.0" encoding="utf-8"?>
<!-- Generator: Adobe Illustrator 23.0.2, SVG Export Plug-In . SVG Version: 6.00 Build 0)  -->
<svg version="1.1" id="Layer_1" xmlns="http://www.w3.org/2000/svg" xmlns:xlink="http://www.w3.org/1999/xlink" x="0px" y="0px"
	 width="32.64px" height="20.18px" viewBox="0 0 32.64 20.18" style="enable-background:new 0 0 32.64 20.18;" xml:space="preserve"
	>
<style type="text/css">
	.st0{fill-rule:evenodd;clip-rule:evenodd;fill:#606060;}
	.st1{fill:none;stroke:#898989;stroke-width:0.72;stroke-linejoin:round;}
	.st2{fill-rule:evenodd;clip-rule:evenodd;fill:#131313;}
	.st3{fill:none;stroke:#898989;stroke-width:0.72;}
	.st4{fill:none;stroke:#F1E82B;}
	.st5{fill:none;stroke:#898989;}
	.st6{fill:none;stroke:#929292;}
</style>
<g transform="translate(1)">
</g>
<g>
	<path class="st2" d="M17.08,13.62c-0.21,0-0.39-0.16-0.4-0.38c-0.01-0.22,0.15-0.41,0.38-0.43c0.69-0.05,1.35-0.16,1.94-0.34
		c0.03-0.01,0.07-0.02,0.1-0.04c0.47-0.15,0.91-0.34,1.31-0.58c0.22-0.12,0.41-0.25,0.59-0.38c0.36-0.28,0.62-0.58,0.78-0.89
		c0.07-0.14,0.13-0.28,0.16-0.42c0,0,0-0.01,0-0.02c0.04-0.18,0.21-0.31,0.39-0.31c0.12,0,0.24,0.06,0.32,0.15
		c0.07,0.09,0.1,0.2,0.09,0.32c0,0.01,0,0.02,0,0.03c0,0,0,0,0,0c-0.05,0.22-0.13,0.43-0.23,0.63c-0.21,0.41-0.55,0.8-1,1.15
		c0,0,0,0-0.01,0.01c-0.2,0.15-0.43,0.3-0.67,0.44c-0.45,0.26-0.94,0.48-1.46,0.65c-0.03,0.01-0.06,0.02-0.09,0.03
		c-0.01,0-0.01,0-0.02,0.01c-0.66,0.2-1.37,0.32-2.13,0.37h0C17.1,13.62,17.09,13.62,17.08,13.62L17.08,13.62z M9.27,18.06
		c2.1,0.63,4.47,0.95,7.05,0.95c0.48,0,0.97-0.01,1.43-0.03c2.01-0.1,3.9-0.41,5.61-0.92c0.1-0.04,0.2-0.07,0.3-0.1
		c1.24-0.39,2.4-0.91,3.46-1.53c0.58-0.33,1.11-0.69,1.58-1.05c0.99-0.77,1.73-1.61,2.19-2.5c0.38-0.75,0.58-1.56,0.59-2.4
		c0-0.02,0-0.03,0-0.05c0-0.04,0-0.09-0.01-0.13c0-0.03,0-0.06,0-0.09l0-0.01c0.01-0.15,0.01-0.31,0.01-0.47
		c0-2.32-1.47-4.34-4.36-6.01c-2.96-1.7-6.59-2.57-10.8-2.57c-1.19,0-2.35,0.07-3.44,0.2c-2.77,0.34-5.25,1.14-7.38,2.36l0,0
		C2.63,5.4,1.17,7.42,1.17,9.74c0,0.13,0.01,0.27,0.02,0.41c0,0.01,0.01,0.03,0.01,0.05c0,0.06,0.01,0.13,0.02,0.2
		c0.01,0.07-0.01,0.15-0.04,0.21c0.03,0.8,0.22,1.57,0.59,2.28c0.46,0.88,1.19,1.72,2.19,2.5c0.46,0.36,0.99,0.71,1.56,1.04
		c1.06,0.62,2.23,1.14,3.46,1.53C9.07,17.98,9.17,18.02,9.27,18.06L9.27,18.06z M16.32,19.82c-2.66,0-5.12-0.33-7.3-0.99
		c-0.01,0-0.03-0.01-0.04-0.01c-0.08-0.03-0.15-0.06-0.22-0.08c-0.01,0-0.01,0-0.02-0.01c-1.29-0.41-2.52-0.95-3.63-1.6
		c-0.61-0.35-1.16-0.72-1.66-1.1c-1.09-0.85-1.89-1.78-2.41-2.76c-0.45-0.88-0.68-1.83-0.68-2.82c0-0.08,0.01-0.15,0.02-0.23
		c-0.01-0.16-0.02-0.32-0.02-0.47c0-2.63,1.6-4.89,4.75-6.7c2.21-1.28,4.8-2.11,7.68-2.47c1.12-0.14,2.31-0.21,3.54-0.21
		c4.35,0,8.12,0.9,11.2,2.68c3.16,1.82,4.76,4.07,4.76,6.7c0,0.17,0,0.34-0.01,0.51c0,0.04,0.01,0.09,0.01,0.12
		c0,0.02,0,0.04,0,0.06c0,0.99-0.23,1.94-0.68,2.82c-0.51,0.99-1.32,1.92-2.41,2.77c-0.5,0.38-1.06,0.76-1.67,1.1
		c-1.11,0.65-2.34,1.19-3.63,1.6c-0.01,0-0.01,0-0.02,0c-0.07,0.02-0.15,0.04-0.22,0.08c-0.01,0.01-0.03,0.01-0.04,0.01
		c-1.77,0.54-3.73,0.86-5.82,0.96C17.31,19.81,16.82,19.82,16.32,19.82L16.32,19.82z"/>
	<path class="st1" d="M17.08,13.62c-0.21,0-0.39-0.16-0.4-0.38c-0.01-0.22,0.15-0.41,0.38-0.43c0.69-0.05,1.35-0.16,1.94-0.34
		c0.03-0.01,0.07-0.02,0.1-0.04c0.47-0.15,0.91-0.34,1.31-0.58c0.22-0.12,0.41-0.25,0.59-0.38c0.36-0.28,0.62-0.58,0.78-0.89
		c0.07-0.14,0.13-0.28,0.16-0.42c0,0,0-0.01,0-0.02c0.04-0.18,0.21-0.31,0.39-0.31c0.12,0,0.24,0.06,0.32,0.15
		c0.07,0.09,0.1,0.2,0.09,0.32c0,0.01,0,0.02,0,0.03c0,0,0,0,0,0c-0.05,0.22-0.13,0.43-0.23,0.63c-0.21,0.41-0.55,0.8-1,1.15
		c0,0,0,0-0.01,0.01c-0.2,0.15-0.43,0.3-0.67,0.44c-0.45,0.26-0.94,0.48-1.46,0.65c-0.03,0.01-0.06,0.02-0.09,0.03
		c-0.01,0-0.01,0-0.02,0.01c-0.66,0.2-1.37,0.32-2.13,0.37h0C17.1,13.62,17.09,13.62,17.08,13.62z M9.27,18.06
		c2.1,0.63,4.47,0.95,7.05,0.95c0.48,0,0.97-0.01,1.43-0.03c2.01-0.1,3.9-0.41,5.61-0.92c0.1-0.04,0.2-0.07,0.3-0.1
		c1.24-0.39,2.4-0.91,3.46-1.53c0.58-0.33,1.11-0.69,1.58-1.05c0.99-0.77,1.73-1.61,2.19-2.5c0.38-0.75,0.58-1.56,0.59-2.4
		c0-0.02,0-0.03,0-0.05c0-0.04,0-0.09-0.01-0.13c0-0.03,0-0.06,0-0.09l0-0.01c0.01-0.15,0.01-0.31,0.01-0.47
		c0-2.32-1.47-4.34-4.36-6.01c-2.96-1.7-6.59-2.57-10.8-2.57c-1.19,0-2.35,0.07-3.44,0.2c-2.77,0.34-5.25,1.14-7.38,2.36l0,0
		C2.63,5.4,1.17,7.42,1.17,9.74c0,0.13,0.01,0.27,0.02,0.41c0,0.01,0.01,0.03,0.01,0.05c0,0.06,0.01,0.13,0.02,0.2
		c0.01,0.07-0.01,0.15-0.04,0.21c0.03,0.8,0.22,1.57,0.59,2.28c0.46,0.88,1.19,1.72,2.19,2.5c0.46,0.36,0.99,0.71,1.56,1.04
		c1.06,0.62,2.23,1.14,3.46,1.53C9.07,17.98,9.17,18.02,9.27,18.06z M16.32,19.82c-2.66,0-5.12-0.33-7.3-0.99
		c-0.01,0-0.03-0.01-0.04-0.01c-0.08-0.03-0.15-0.06-0.22-0.08c-0.01,0-0.01,0-0.02-0.01c-1.29-0.41-2.52-0.95-3.63-1.6
		c-0.61-0.35-1.16-0.72-1.66-1.1c-1.09-0.85-1.89-1.78-2.41-2.76c-0.45-0.88-0.68-1.83-0.68-2.82c0-0.08,0.01-0.15,0.02-0.23
		c-0.01-0.16-0.02-0.32-0.02-0.47c0-2.63,1.6-4.89,4.75-6.7c2.21-1.28,4.8-2.11,7.68-2.47c1.12-0.14,2.31-0.21,3.54-0.21
		c4.35,0,8.12,0.9,11.2,2.68c3.16,1.82,4.76,4.07,4.76,6.7c0,0.17,0,0.34-0.01,0.51c0,0.04,0.01,0.09,0.01,0.12
		c0,0.02,0,0.04,0,0.06c0,0.99-0.23,1.94-0.68,2.82c-0.51,0.99-1.32,1.92-2.41,2.77c-0.5,0.38-1.06,0.76-1.67,1.1
		c-1.11,0.65-2.34,1.19-3.63,1.6c-0.01,0-0.01,0-0.02,0c-0.07,0.02-0.15,0.04-0.22,0.08c-0.01,0.01-0.03,0.01-0.04,0.01
		c-1.77,0.54-3.73,0.86-5.82,0.96C17.31,19.81,16.82,19.82,16.32,19.82z"/>
	<path class="st2" d="M20.6,12.2c-0.43,0.25-0.89,0.45-1.39,0.61c-0.04,0.01-0.07,0.02-0.1,0.04c-0.84,0.25-1.77,0.38-2.79,0.38
		c-1.03,0-1.96-0.13-2.8-0.38c-0.03-0.01-0.07-0.02-0.11-0.04c-0.49-0.16-0.96-0.36-1.38-0.61c-0.23-0.13-0.44-0.27-0.63-0.41
		c-0.41-0.32-0.7-0.66-0.89-1.03c-0.09-0.17-0.15-0.34-0.2-0.53c-0.04-0.16-0.05-0.33-0.05-0.5c0-0.05,0-0.1,0-0.15
		c0.06-0.91,0.64-1.69,1.76-2.33c1.18-0.68,2.61-1.02,4.29-1.02c1.67,0,3.1,0.34,4.28,1.02c1.12,0.64,1.71,1.42,1.77,2.33
		c0,0.05,0,0.1,0,0.15c0,0.17-0.02,0.33-0.05,0.5c-0.04,0.19-0.11,0.36-0.2,0.53c-0.19,0.37-0.49,0.71-0.89,1.03
		C21.04,11.93,20.83,12.07,20.6,12.2 M23.48,17.73c0.09-0.03,0.18-0.07,0.27-0.09c1.27-0.4,2.46-0.92,3.55-1.57
		c0.59-0.34,1.13-0.7,1.62-1.07c1.05-0.82,1.82-1.69,2.3-2.63c0.27-0.53,0.46-1.08,0.55-1.66c0.02-0.09,0.03-0.18,0.05-0.28
		c0,0,0-0.01,0-0.01c0.01-0.07,0.01-0.13,0.02-0.2c0.01-0.16,0.01-0.33,0.01-0.5c0-2.49-1.52-4.61-4.56-6.35
		c-3.03-1.75-6.7-2.62-11-2.62C12,0.75,8.33,1.63,5.3,3.37C2.27,5.12,0.75,7.24,0.75,9.73c0,0.16,0.01,0.33,0.02,0.49
		c0.01,0.06,0.01,0.13,0.02,0.2v0.01c0.01,0.09,0.02,0.18,0.04,0.28c0.1,0.57,0.28,1.12,0.56,1.66c0.49,0.94,1.25,1.82,2.3,2.63
		c0.48,0.37,1.02,0.73,1.61,1.07c1.1,0.64,2.28,1.16,3.55,1.57c0.09,0.03,0.18,0.06,0.28,0.09c2.15,0.65,4.55,0.98,7.19,0.98
		C18.94,18.71,21.33,18.38,23.48,17.73"/>
	<path class="st1" d="M20.6,12.2c-0.43,0.25-0.89,0.45-1.39,0.61c-0.04,0.01-0.07,0.02-0.1,0.04c-0.84,0.25-1.77,0.38-2.79,0.38
		c-1.03,0-1.96-0.13-2.8-0.38c-0.03-0.01-0.07-0.02-0.11-0.04c-0.49-0.16-0.96-0.36-1.38-0.61c-0.23-0.13-0.44-0.27-0.63-0.41
		c-0.41-0.32-0.7-0.66-0.89-1.03c-0.09-0.17-0.15-0.34-0.2-0.53c-0.04-0.16-0.05-0.33-0.05-0.5c0-0.05,0-0.1,0-0.15
		c0.06-0.91,0.64-1.69,1.76-2.33c1.18-0.68,2.61-1.02,4.29-1.02c1.67,0,3.1,0.34,4.28,1.02c1.12,0.64,1.71,1.42,1.77,2.33
		c0,0.05,0,0.1,0,0.15c0,0.17-0.02,0.33-0.05,0.5c-0.04,0.19-0.11,0.36-0.2,0.53c-0.19,0.37-0.49,0.71-0.89,1.03
		C21.04,11.93,20.83,12.07,20.6,12.2z M23.48,17.73c0.09-0.03,0.18-0.07,0.27-0.09c1.27-0.4,2.46-0.92,3.55-1.57
		c0.59-0.34,1.13-0.7,1.62-1.07c1.05-0.82,1.82-1.69,2.3-2.63c0.27-0.53,0.46-1.08,0.55-1.66c0.02-0.09,0.03-0.18,0.05-0.28
		c0,0,0-0.01,0-0.01c0.01-0.07,0.01-0.13,0.02-0.2c0.01-0.16,0.01-0.33,0.01-0.5c0-2.49-1.52-4.61-4.56-6.35
		c-3.03-1.75-6.7-2.62-11-2.62C12,0.75,8.33,1.63,5.3,3.37C2.27,5.12,0.75,7.24,0.75,9.73c0,0.16,0.01,0.33,0.02,0.49
		c0.01,0.06,0.01,0.13,0.02,0.2v0.01c0.01,0.09,0.02,0.18,0.04,0.28c0.1,0.57,0.28,1.12,0.56,1.66c0.49,0.94,1.25,1.82,2.3,2.63
		c0.48,0.37,1.02,0.73,1.61,1.07c1.1,0.64,2.28,1.16,3.55,1.57c0.09,0.03,0.18,0.06,0.28,0.09c2.15,0.65,4.55,0.98,7.19,0.98
		C18.94,18.71,21.33,18.38,23.48,17.73L23.48,17.73z"/>
	<path class="st2" d="M23.76,17.64c-0.09,0.03-0.18,0.06-0.27,0.09c-2.15,0.65-4.54,0.98-7.17,0.98c-2.64,0-5.03-0.33-7.19-0.98
		c-0.09-0.04-0.18-0.07-0.28-0.09c-1.27-0.4-2.45-0.93-3.55-1.57c-0.6-0.34-1.13-0.7-1.61-1.07c-1.04-0.81-1.81-1.69-2.3-2.63
		c-0.27-0.53-0.46-1.08-0.56-1.66c-0.02-0.09-0.03-0.18-0.04-0.28v-0.01l-0.04,0.01c0,0.93,0.21,1.81,0.64,2.64
		c0.49,0.94,1.25,1.82,2.3,2.63c0.48,0.37,1.02,0.73,1.61,1.07c1.1,0.64,2.28,1.16,3.55,1.57c0.09,0.02,0.18,0.05,0.28,0.09
		c2.15,0.65,4.55,0.98,7.19,0.98c2.62,0,5.02-0.33,7.17-0.98c0.09-0.04,0.18-0.07,0.27-0.09c1.28-0.4,2.46-0.93,3.55-1.57
		c0.59-0.34,1.13-0.7,1.62-1.07c1.05-0.81,1.81-1.69,2.3-2.63c0.42-0.83,0.64-1.7,0.64-2.64l-0.03,0c0,0,0,0.01,0,0.01
		c-0.01,0.09-0.03,0.18-0.05,0.28c-0.1,0.57-0.28,1.12-0.55,1.66c-0.49,0.94-1.25,1.82-2.3,2.63c-0.49,0.37-1.03,0.73-1.62,1.07
		C26.21,16.71,25.03,17.23,23.76,17.64 M22.32,9.93c0.03-0.11,0.04-0.23,0.05-0.35c-0.06-0.91-0.65-1.69-1.77-2.33
		c-1.18-0.68-2.61-1.02-4.28-1.02c-1.68,0-3.11,0.34-4.29,1.02c-1.12,0.64-1.71,1.42-1.76,2.33c0.01,0.12,0.03,0.24,0.05,0.35
		c0.17-0.76,0.74-1.42,1.71-1.98c1.18-0.68,2.61-1.02,4.29-1.02c1.67,0,3.1,0.34,4.28,1.02C21.58,8.52,22.15,9.18,22.32,9.93"/>
	<path class="st1" d="M23.76,17.64c-0.09,0.03-0.18,0.06-0.27,0.09c-2.15,0.65-4.54,0.98-7.17,0.98c-2.64,0-5.03-0.33-7.19-0.98
		c-0.09-0.04-0.18-0.07-0.28-0.09c-1.27-0.4-2.45-0.93-3.55-1.57c-0.6-0.34-1.13-0.7-1.61-1.07c-1.04-0.81-1.81-1.69-2.3-2.63
		c-0.27-0.53-0.46-1.08-0.56-1.66c-0.02-0.09-0.03-0.18-0.04-0.28v-0.01l-0.04,0.01c0,0.93,0.21,1.81,0.64,2.64
		c0.49,0.94,1.25,1.82,2.3,2.63c0.48,0.37,1.02,0.73,1.61,1.07c1.1,0.64,2.28,1.16,3.55,1.57c0.09,0.02,0.18,0.05,0.28,0.09
		c2.15,0.65,4.55,0.98,7.19,0.98c2.62,0,5.02-0.33,7.17-0.98c0.09-0.04,0.18-0.07,0.27-0.09c1.28-0.4,2.46-0.93,3.55-1.57
		c0.59-0.34,1.13-0.7,1.62-1.07c1.05-0.81,1.81-1.69,2.3-2.63c0.42-0.83,0.64-1.7,0.64-2.64l-0.03,0c0,0,0,0.01,0,0.01
		c-0.01,0.09-0.03,0.18-0.05,0.28c-0.1,0.57-0.28,1.12-0.55,1.66c-0.49,0.94-1.25,1.82-2.3,2.63c-0.49,0.37-1.03,0.73-1.62,1.07
		C26.21,16.71,25.03,17.23,23.76,17.64z M22.32,9.93c0.03-0.11,0.04-0.23,0.05-0.35c-0.06-0.91-0.65-1.69-1.77-2.33
		c-1.18-0.68-2.61-1.02-4.28-1.02c-1.68,0-3.11,0.34-4.29,1.02c-1.12,0.64-1.71,1.42-1.76,2.33c0.01,0.12,0.03,0.24,0.05,0.35
		c0.17-0.76,0.74-1.42,1.71-1.98c1.18-0.68,2.61-1.02,4.29-1.02c1.67,0,3.1,0.34,4.28,1.02C21.58,8.52,22.15,9.18,22.32,9.93
		L22.32,9.93z"/>
	<path class="st2" d="M16.32,6.8c1.69,0,3.15,0.35,4.35,1.04c0.7,0.41,1.21,0.87,1.51,1.38C22,8.52,21.45,7.9,20.53,7.37
		c-1.16-0.67-2.58-1-4.22-1c-1.65,0-3.07,0.34-4.23,1c-0.91,0.53-1.46,1.15-1.64,1.85c0.3-0.51,0.8-0.97,1.5-1.38
		C13.15,7.15,14.62,6.8,16.32,6.8 M10.41,10.02c0.01,0.06,0.02,0.12,0.03,0.18c0.04,0.17,0.1,0.34,0.18,0.49
		c0.18,0.35,0.47,0.68,0.86,0.99c0.18,0.14,0.39,0.27,0.61,0.4c0.42,0.24,0.88,0.45,1.36,0.6c0.04,0.01,0.08,0.03,0.11,0.04
		c0.82,0.25,1.74,0.37,2.76,0.37c1,0,1.93-0.13,2.75-0.38c0.03-0.01,0.06-0.02,0.1-0.03c0.49-0.15,0.94-0.36,1.36-0.6
		c0.22-0.13,0.43-0.26,0.62-0.4c0.39-0.3,0.67-0.63,0.85-0.98c0.09-0.16,0.15-0.32,0.19-0.5c0.01-0.06,0.02-0.12,0.03-0.18
		c-0.02-0.02-0.03-0.04-0.03-0.06c-0.16-0.72-0.72-1.35-1.65-1.9c-1.16-0.66-2.58-1-4.22-1c-1.65,0-3.07,0.34-4.23,1
		c-0.93,0.54-1.49,1.18-1.65,1.9C10.43,9.99,10.42,10.01,10.41,10.02 M16.32,13.36c-1.04,0-1.99-0.13-2.84-0.39
		c-0.04-0.01-0.07-0.02-0.11-0.04c-0.5-0.16-0.98-0.37-1.41-0.63c-0.23-0.13-0.45-0.27-0.64-0.42c-0.42-0.33-0.73-0.69-0.93-1.08
		c-0.09-0.17-0.17-0.36-0.21-0.56c-0.04-0.17-0.06-0.35-0.06-0.53c0-0.05,0-0.11,0-0.16c0.06-0.95,0.67-1.77,1.83-2.44
		c1.2-0.69,2.66-1.04,4.36-1.04c1.69,0,3.15,0.35,4.35,1.04c1.16,0.66,1.78,1.49,1.83,2.44v0c0,0.05,0,0.1,0,0.16
		c0,0.18-0.02,0.36-0.06,0.53c-0.04,0.2-0.11,0.39-0.21,0.56c-0.2,0.38-0.51,0.74-0.93,1.07c-0.2,0.15-0.41,0.29-0.65,0.42
		c-0.43,0.25-0.91,0.46-1.41,0.62c-0.03,0.01-0.06,0.02-0.1,0.03C18.3,13.23,17.34,13.36,16.32,13.36 M9.17,17.6
		c2.13,0.64,4.53,0.97,7.14,0.97c2.6,0,5-0.33,7.13-0.97c0.09-0.04,0.19-0.07,0.28-0.1c1.26-0.4,2.44-0.92,3.53-1.55
		c0.59-0.34,1.13-0.7,1.61-1.06c1.03-0.8,1.79-1.67,2.26-2.59c0.26-0.51,0.45-1.06,0.54-1.62c0.02-0.09,0.03-0.18,0.04-0.27
		c0-0.01,0-0.02,0-0.03c0.01-0.06,0.01-0.12,0.02-0.17v0c0.01-0.16,0.01-0.32,0.01-0.48c0-2.42-1.51-4.52-4.49-6.24
		c-3-1.73-6.68-2.6-10.93-2.6c-4.27,0-7.95,0.88-10.95,2.6C2.39,5.21,0.89,7.3,0.89,9.73c0,0.16,0.01,0.32,0.02,0.48v0.01
		c0.01,0.06,0.01,0.13,0.02,0.19c0,0,0,0,0,0.01v0.01v0c0.01,0.09,0.02,0.17,0.04,0.26c0.1,0.56,0.28,1.1,0.55,1.62
		c0.47,0.92,1.23,1.79,2.26,2.59c0.47,0.37,1.01,0.72,1.6,1.06c1.08,0.63,2.27,1.16,3.52,1.56C8.98,17.53,9.08,17.57,9.17,17.6
		 M9.17,18.3c2.13,0.64,4.53,0.97,7.14,0.97c2.6,0,5-0.33,7.13-0.97c0.09-0.04,0.19-0.07,0.28-0.1c1.25-0.4,2.44-0.92,3.52-1.55
		c0.59-0.34,1.13-0.7,1.61-1.06c1.03-0.8,1.79-1.67,2.26-2.59c0.12-0.23,0.22-0.47,0.3-0.71c-0.02,0.04-0.04,0.09-0.07,0.13
		c-0.49,0.95-1.28,1.85-2.34,2.68c-0.49,0.38-1.04,0.74-1.64,1.08c-1.1,0.64-2.3,1.17-3.58,1.58c-0.09,0.03-0.18,0.06-0.26,0.09
		l-0.01,0c-2.16,0.65-4.58,0.98-7.21,0.98c-2.64,0-5.07-0.33-7.22-0.98l-0.01,0c-0.09-0.03-0.18-0.06-0.27-0.09
		c-1.28-0.41-2.48-0.94-3.58-1.58c-0.6-0.34-1.15-0.71-1.63-1.08c-1.06-0.82-1.84-1.72-2.33-2.68c-0.03-0.05-0.05-0.1-0.07-0.15
		c0.09,0.24,0.19,0.48,0.31,0.72c0.47,0.92,1.23,1.79,2.26,2.59c0.47,0.37,1.01,0.73,1.6,1.06c1.08,0.63,2.27,1.16,3.52,1.55
		C8.98,18.23,9.08,18.26,9.17,18.3 M16.31,19.54c-2.64,0-5.07-0.33-7.22-0.98c0,0-0.01,0-0.01,0c-0.09-0.04-0.17-0.06-0.26-0.09
		c-1.28-0.41-2.48-0.94-3.58-1.58c-0.6-0.34-1.15-0.71-1.63-1.08c-1.06-0.82-1.84-1.72-2.33-2.68c-0.43-0.84-0.65-1.75-0.65-2.7
		c0-0.07,0.01-0.15,0.02-0.21c-0.01-0.16-0.02-0.33-0.02-0.48c0-2.53,1.55-4.71,4.61-6.47c3.04-1.75,6.76-2.64,11.08-2.64
		c4.3,0,8.03,0.89,11.07,2.64C30.45,5.02,32,7.2,32,9.73c0,0.16,0,0.33-0.01,0.49C32,10.29,32,10.36,32,10.43
		c0,0.95-0.22,1.86-0.65,2.7c-0.49,0.95-1.28,1.85-2.34,2.68c-0.49,0.37-1.04,0.74-1.64,1.08c-1.1,0.64-2.3,1.17-3.58,1.58
		c-0.09,0.02-0.18,0.05-0.26,0.09c0,0-0.01,0-0.01,0C21.36,19.21,18.94,19.54,16.31,19.54"/>
	<path class="st1" d="M16.32,6.8c1.69,0,3.15,0.35,4.35,1.04c0.7,0.41,1.21,0.87,1.51,1.38C22,8.52,21.45,7.9,20.53,7.37
		c-1.16-0.67-2.58-1-4.22-1c-1.65,0-3.07,0.34-4.23,1c-0.91,0.53-1.46,1.15-1.64,1.85c0.3-0.51,0.8-0.97,1.5-1.38
		C13.15,7.15,14.62,6.8,16.32,6.8z M10.41,10.02c0.01,0.06,0.02,0.12,0.03,0.18c0.04,0.17,0.1,0.34,0.18,0.49
		c0.18,0.35,0.47,0.68,0.86,0.99c0.18,0.14,0.39,0.27,0.61,0.4c0.42,0.24,0.88,0.45,1.36,0.6c0.04,0.01,0.08,0.03,0.11,0.04
		c0.82,0.25,1.74,0.37,2.76,0.37c1,0,1.93-0.13,2.75-0.38c0.03-0.01,0.06-0.02,0.1-0.03c0.49-0.15,0.94-0.36,1.36-0.6
		c0.22-0.13,0.43-0.26,0.62-0.4c0.39-0.3,0.67-0.63,0.85-0.98c0.09-0.16,0.15-0.32,0.19-0.5c0.01-0.06,0.02-0.12,0.03-0.18
		c-0.02-0.02-0.03-0.04-0.03-0.06c-0.16-0.72-0.72-1.35-1.65-1.9c-1.16-0.66-2.58-1-4.22-1c-1.65,0-3.07,0.34-4.23,1
		c-0.93,0.54-1.49,1.18-1.65,1.9C10.43,9.99,10.42,10.01,10.41,10.02z M16.32,13.36c-1.04,0-1.99-0.13-2.84-0.39
		c-0.04-0.01-0.07-0.02-0.11-0.04c-0.5-0.16-0.98-0.37-1.41-0.63c-0.23-0.13-0.45-0.27-0.64-0.42c-0.42-0.33-0.73-0.69-0.93-1.08
		c-0.09-0.17-0.17-0.36-0.21-0.56c-0.04-0.17-0.06-0.35-0.06-0.53c0-0.05,0-0.11,0-0.16c0.06-0.95,0.67-1.77,1.83-2.44
		c1.2-0.69,2.66-1.04,4.36-1.04c1.69,0,3.15,0.35,4.35,1.04c1.16,0.66,1.78,1.49,1.83,2.44v0c0,0.05,0,0.1,0,0.16
		c0,0.18-0.02,0.36-0.06,0.53c-0.04,0.2-0.11,0.39-0.21,0.56c-0.2,0.38-0.51,0.74-0.93,1.07c-0.2,0.15-0.41,0.29-0.65,0.42
		c-0.43,0.25-0.91,0.46-1.41,0.62c-0.03,0.01-0.06,0.02-0.1,0.03C18.3,13.23,17.34,13.36,16.32,13.36z M9.17,17.6
		c2.13,0.64,4.53,0.97,7.14,0.97c2.6,0,5-0.33,7.13-0.97c0.09-0.04,0.19-0.07,0.28-0.1c1.26-0.4,2.44-0.92,3.53-1.55
		c0.59-0.34,1.13-0.7,1.61-1.06c1.03-0.8,1.79-1.67,2.26-2.59c0.26-0.51,0.45-1.06,0.54-1.62c0.02-0.09,0.03-0.18,0.04-0.27
		c0-0.01,0-0.02,0-0.03c0.01-0.06,0.01-0.12,0.02-0.17v0c0.01-0.16,0.01-0.32,0.01-0.48c0-2.42-1.51-4.52-4.49-6.24
		c-3-1.73-6.68-2.6-10.93-2.6c-4.27,0-7.95,0.88-10.95,2.6C2.39,5.21,0.89,7.3,0.89,9.73c0,0.16,0.01,0.32,0.02,0.48v0.01
		c0.01,0.06,0.01,0.13,0.02,0.19c0,0,0,0,0,0.01v0.01v0c0.01,0.09,0.02,0.17,0.04,0.26c0.1,0.56,0.28,1.1,0.55,1.62
		c0.47,0.92,1.23,1.79,2.26,2.59c0.47,0.37,1.01,0.72,1.6,1.06c1.08,0.63,2.27,1.16,3.52,1.56C8.98,17.53,9.08,17.57,9.17,17.6z
		 M9.17,18.3c2.13,0.64,4.53,0.97,7.14,0.97c2.6,0,5-0.33,7.13-0.97c0.09-0.04,0.19-0.07,0.28-0.1c1.25-0.4,2.44-0.92,3.52-1.55
		c0.59-0.34,1.13-0.7,1.61-1.06c1.03-0.8,1.79-1.67,2.26-2.59c0.12-0.23,0.22-0.47,0.3-0.71c-0.02,0.04-0.04,0.09-0.07,0.13
		c-0.49,0.95-1.28,1.85-2.34,2.68c-0.49,0.38-1.04,0.74-1.64,1.08c-1.1,0.64-2.3,1.17-3.58,1.58c-0.09,0.03-0.18,0.06-0.26,0.09
		l-0.01,0c-2.16,0.65-4.58,0.98-7.21,0.98c-2.64,0-5.07-0.33-7.22-0.98l-0.01,0c-0.09-0.03-0.18-0.06-0.27-0.09
		c-1.28-0.41-2.48-0.94-3.58-1.58c-0.6-0.34-1.15-0.71-1.63-1.08c-1.06-0.82-1.84-1.72-2.33-2.68c-0.03-0.05-0.05-0.1-0.07-0.15
		c0.09,0.24,0.19,0.48,0.31,0.72c0.47,0.92,1.23,1.79,2.26,2.59c0.47,0.37,1.01,0.73,1.6,1.06c1.08,0.63,2.27,1.16,3.52,1.55
		C8.98,18.23,9.08,18.26,9.17,18.3z M16.31,19.54c-2.64,0-5.07-0.33-7.22-0.98c0,0-0.01,0-0.01,0c-0.09-0.04-0.17-0.06-0.26-0.09
		c-1.28-0.41-2.48-0.94-3.58-1.58c-0.6-0.34-1.15-0.71-1.63-1.08c-1.06-0.82-1.84-1.72-2.33-2.68c-0.43-0.84-0.65-1.75-0.65-2.7
		c0-0.07,0.01-0.15,0.02-0.21c-0.01-0.16-0.02-0.33-0.02-0.48c0-2.53,1.55-4.71,4.61-6.47c3.04-1.75,6.76-2.64,11.08-2.64
		c4.3,0,8.03,0.89,11.07,2.64C30.45,5.02,32,7.2,32,9.73c0,0.16,0,0.33-0.01,0.49C32,10.29,32,10.36,32,10.43
		c0,0.95-0.22,1.86-0.65,2.7c-0.49,0.95-1.28,1.85-2.34,2.68c-0.49,0.37-1.04,0.74-1.64,1.08c-1.1,0.64-2.3,1.17-3.58,1.58
		c-0.09,0.02-0.18,0.05-0.26,0.09c0,0-0.01,0-0.01,0C21.36,19.21,18.94,19.54,16.31,19.54z"/>
</g>
</svg>
