<?xml version="1.0" encoding="utf-8"?>
<!-- Generator: Adobe Illustrator 23.0.2, SVG Export Plug-In . SVG Version: 6.00 Build 0)  -->
<svg version="1.1" id="Layer_1" xmlns="http://www.w3.org/2000/svg" xmlns:xlink="http://www.w3.org/1999/xlink" x="0px" y="0px"
	 width="850.1px" height="540px" viewBox="0 0 850.1 540" style="enable-background:new 0 0 850.1 540;" xml:space="preserve">
<style type="text/css">
	.st0{fill:#121212;stroke:#898989;stroke-miterlimit:10;}
	.st1{fill:#121212;}
	.st2{fill:none;stroke:#898989;stroke-miterlimit:10;}
	.st3{fill:#121212;stroke:#898989;stroke-width:0.9469;stroke-miterlimit:10;}
	.st4{fill:#121212;stroke:#888888;stroke-width:0.2;stroke-linejoin:round;stroke-miterlimit:10;}
	.st5{fill:none;}
</style>
<path class="st0" d="M378.4,0.6L80.6,174.1L2.9,218l467.4,274.7h3.4L848.2,272L378.4,0.6z"/>
<polygon id="SVGID_3_" class="st1" points="470.6,539.2 470.6,507 473.7,507 474.2,539.2 "/>
<polygon class="st2" points="470.6,539.2 470.6,507 473.7,507 474.2,539.2 "/>
<path id="SVGID_2_" class="st1" d="M514.4,516L514.4,516L514.4,516L514.4,516"/>
<path class="st2" d="M514.4,516L514.4,516L514.4,516L514.4,516"/>
<polyline id="SVGID_1_" class="st1" points="514.4,516 514.5,516 514.5,516 514.5,516 514.4,516 "/>
<polyline class="st2" points="514.4,516 514.5,516 514.5,516 514.5,516 514.4,516 "/>
<path class="st0" d="M470.6,539.5c-0.2-0.1-0.4-0.2-0.6-0.4l-0.2-0.1c-0.5-0.3-1-0.6-1.6-0.9c-0.2-0.1-0.4-0.2-0.6-0.4
	c-0.6-0.4-1.4-0.8-2.1-1.2c-0.1-0.1-0.2-0.1-0.3-0.2l-0.1-0.1l-0.2-0.1c-0.2-0.1-0.4-0.2-0.6-0.3c-0.1-0.1-0.3-0.2-0.4-0.2
	s-0.3-0.2-0.4-0.2c-0.3-0.2-0.6-0.3-0.8-0.5c-0.9-0.5-1.9-1.1-3-1.7c-0.3-0.2-0.7-0.4-1-0.6c-0.7-0.4-1.5-0.8-2.2-1.3
	c-0.3-0.2-0.6-0.4-1-0.6c-1.9-1.1-3.9-2.3-6.1-3.5c-0.6-0.4-1.3-0.7-1.9-1.1c-0.3-0.2-0.6-0.3-0.9-0.5s-0.5-0.3-0.8-0.5
	s-0.6-0.4-1-0.6c-0.4-0.2-0.8-0.5-1.2-0.7c-0.4-0.2-0.8-0.5-1.2-0.7c-0.3-0.2-0.6-0.4-1-0.6c-1.1-0.7-2.3-1.3-3.5-2
	c-0.7-0.4-1.4-0.8-2.1-1.2l-0.2-0.1c-43.7-25.3-119.5-69.1-189.1-109.3C166.3,363.6,94.3,322,89,318.9l-0.2-0.1L71.9,309l-6.5-3.8
	l-0.7-0.4l-2.5-1.5l-34.9-20.1l-1.3-0.7c0,0-0.1-0.1-0.4-0.2c-0.1-0.1-0.4-0.2-0.6-0.3c-3.5-2-15.5-8.9-17.2-9.9
	c-1.6-0.9-4.1-2.4-5.9-4.7c-0.8-1-1.2-2.3-1.2-3.7v-28.1L118,303.4L268,390l202.6,117V539.5"/>
<path class="st0" d="M473.7,539.5V507l314.4-181.6l61.5-35.5v29.7c-0.9,4.1-9.8,8.4-9.8,8.4l-12.1,7l0,0l-1.9,1.1l-13.4,7.7
	l-25.5,14.7l-2.3,1.3l-22.4,13.4L530.8,507l-16.6,9.1l-1.5,0.9L473.7,539.5"/>
<polygon class="st0" points="849.6,282.8 849.6,290 473.7,507 473.7,494.6 473.7,494.6 848.2,273.8 "/>
<path class="st0" d="M473.7,507c0,0-0.6,0.4-1.5,0.4s-1.6-0.5-1.6-0.5l0.2-12.3l2.9-0.1V507L473.7,507z"/>
<path class="st0" d="M627.4,215.3c0,62.2-68,121.9-165.7,135c-0.7,0.1-18.4,3.7-37.7,5.8c-17.4,1.9-36.5,2.1-36.3,2.5
	c-3.4,0.1-6.8,0.1-10.2,0.1c-31.5,0-61.6-3.3-89.3-9.4l-14.8-3.6c-86.1-22.6-145.8-72.5-145.8-130.3C127.5,136.6,238,72.8,374.9,72
	h-0.5c-0.2,0-0.4,0-0.6,0s-0.4,0-0.5,0h-0.1c-0.1,0-0.2,0-0.3,0h-0.1c-0.7,0-1.4,0-2.1,0l0,0c-0.5,0-1.1,0-1.7,0c-0.2,0-0.4,0-0.5,0
	c-0.4,0-0.8,0-1.1,0l0,0c-0.3,0-0.6,0-0.9,0c-0.1,0-0.3,0-0.4,0c-0.4,0-0.7,0-1.1,0c-0.3,0-0.5,0-0.8,0c-0.7,0-1.5,0.1-2.2,0.1l0,0
	c-0.9,0-1.9,0.1-2.8,0.1h-0.1c-0.5,0-1,0.1-1.5,0.1c-0.8,0-1.5,0.1-2.3,0.1c-0.6,0-1.3,0.1-1.9,0.1h-0.1c-0.5,0-1,0.1-1.4,0.1
	c-0.9,0.1-1.8,0.1-2.7,0.2c-0.5,0-1.1,0.1-1.6,0.1c-112.5,8.8-199.1,64.1-199.1,131c0,72.9,102.8,131.9,229.5,131.9
	s229.5-59.1,229.5-131.9c0-70.7-96.8-128.4-218.4-131.8C521.7,75.6,627.4,138.4,627.4,215.3L627.4,215.3z"/>
<path class="st0" d="M273.7,345.8l14.5,3.4c0,0,48.4,10.8,103.9,8.9c46.2-1.6,69.7-7.8,69.7-7.8c96.6-19.8,165.7-72.8,165.7-135
	c0-76.9-105.7-139.7-238.4-143.2c-0.4,0-0.7,0-1,0s-0.7,0-1,0s-0.5,0-0.8,0c-0.2,0-0.5,0-0.7,0h-0.1c-0.5,0-1,0-1.5,0h-0.3
	c-0.2,0-0.4,0-0.5,0c-0.3,0-0.6,0-0.9,0c-0.9,0-1.8,0-2.7,0H379c-0.5,0-1,0-1.5,0c-0.4,0-0.9,0-1.3,0H376c-0.4,0-0.8,0-1.2,0h-0.1
	C238,72.7,127.5,136.6,127.5,215.2c0,57.8,59.8,107.7,145.8,130.3v1.5v2.2c-87.6-22.9-148.5-73.8-148.5-133
	c0-80.6,113.1-145.9,252.6-145.9S630,135.6,630,216.2l0,0c0,5.9-0.6,11.7-1.8,17.4c-0.1,0.7-0.3,1.4-0.5,2.1
	c-4,17.5-13.4,34-27.2,49c-0.4,0.4-0.8,0.9-1.2,1.3c-28.5,30.2-75.1,54-131.3,66.5c-0.2,0-48.7,9.3-88.7,9.4
	c-49.1,0-91.6-9.1-91.8-9.1l-13.8-3.5"/>
<polyline class="st0" points="470.3,494.3 470.6,507 0.5,235.6 2.1,218.3 "/>
<polygon class="st0" points="0.5,235.6 94.6,290 470.5,507 470.5,494.6 470.5,494.6 2,219.4 "/>
<path class="st0" d="M761.1,245.7c-0.5,23.3-25.2,34.2-45.9,35.1c-23.3,1-62.6-6.7-66.3-29.7c-5.4-34,34-40.2,42.8-41.3
	C723.7,205.8,761.6,221.8,761.1,245.7z"/>
<path class="st3" d="M761.4,269.1c0,16-20.8,29.6-56.1,29.6c-0.2,0-0.5,0-0.7,0c-31-0.3-55.5-12.6-55.3-31.4l-0.9-19.9
	c0-0.1,1,3,2.9,7.3c6.6,14.5,27,24,52.9,24.4c27.5,0.4,56.6-13,56.8-31.8C761,247.2,761.4,265.5,761.4,269.1z"/>
<g>
	<path class="st4" d="M186.8,255.8h-6.6c-0.1,0-0.1,0-0.2-0.1l-3.3-3.3c0,0-0.1-0.1-0.1-0.2v-3.3c0-0.1,0-0.1,0.1-0.2l3.3-3.3
		c0,0,0.1-0.1,0.2-0.1h6.6c0.1,0,0.1,0,0.2,0.1l3.3,3.3c0,0,0.1,0.1,0.1,0.2v3.3c0,0.1,0,0.1-0.1,0.2l-3.3,3.3
		C186.9,255.7,186.9,255.8,186.8,255.8z M180.3,255.3h6.4l3.2-3.2V249l-3.2-3.2h-6.4l-3.2,3.2v3.1L180.3,255.3z"/>
	<g>
		<g transform="matrix( 1, 0, 0, 1, -2528.3,1952.25) ">
			<g>
				<g id="Layer1_16_FILL_12_">
					<path class="st4" d="M2715.1-1696.7v-3.3h-6.6v3.3H2715.1 M2705.2-1703.3v3.3l3.3,3.3v-3.3L2705.2-1703.3z"/>
					<path class="st4" d="M2715.1-1700v3.3l3.3-3.3v-3.3L2715.1-1700z"/>
					<path class="st4" d="M2715.1-1706.6h-6.6l-3.3,3.3l3.3,3.3h6.6l3.3-3.3L2715.1-1706.6 M2710.3-1701.6c0.5-0.1,1-0.2,1.5-0.2
						c0.6,0,1.1,0.1,1.5,0.2c-0.5,0.1-1,0.2-1.5,0.2C2711.3-1701.4,2710.8-1701.5,2710.3-1701.6z"/>
				</g>
			</g>
			<g>
				<path class="st4" d="M2715.1-1696.6C2715.1-1696.6,2715.1-1696.6,2715.1-1696.6h-6.6c0,0,0,0,0,0c0,0,0,0-0.1,0l-3.3-3.3
					c0,0,0,0,0-0.1v-3.3c0,0,0,0,0,0c0,0,0,0,0,0l0,0c0,0,0,0,0,0l0,0c0,0,0,0,0,0s0,0,0,0c0,0,0,0,0,0l0,0l0,0l3.3-3.3
					c0,0,0,0,0.1,0h6.6c0,0,0,0,0.1,0l3.3,3.3c0,0,0,0,0,0c0,0,0,0,0,0.1v3.3c0,0,0,0,0,0.1L2715.1-1696.6
					C2715.2-1696.7,2715.2-1696.7,2715.1-1696.6C2715.2-1696.7,2715.2-1696.7,2715.1-1696.6
					C2715.2-1696.7,2715.2-1696.7,2715.1-1696.6C2715.1-1696.6,2715.1-1696.6,2715.1-1696.6
					C2715.1-1696.6,2715.1-1696.6,2715.1-1696.6z M2708.6-1696.8h6.4v-3.2h-6.4V-1696.8z M2705.3-1700l3.1,3.1v-3.1l-3.1-3.1V-1700z
					 M2715.2-1700v3.1l3.1-3.1v-3.1L2715.2-1700z M2708.6-1700.1h6.5l3.2-3.2l-3.2-3.2h-6.5l-3.2,3.2L2708.6-1700.1z M2711.8-1701.4
					c-0.6,0-1.1-0.1-1.5-0.2c0,0-0.1,0-0.1-0.1s0-0.1,0.1-0.1c0.5-0.1,1-0.2,1.5-0.2c0.6,0,1.1,0.1,1.5,0.2c0,0,0.1,0,0.1,0.1
					c0,0,0,0.1-0.1,0.1C2712.9-1701.4,2712.4-1701.4,2711.8-1701.4z M2710.6-1701.6c0.4,0.1,0.8,0.1,1.2,0.1c0.4,0,0.8,0,1.2-0.1
					c-0.4-0.1-0.8-0.1-1.2-0.1C2711.4-1701.8,2711-1701.7,2710.6-1701.6z"/>
			</g>
		</g>
		<g transform="matrix( 1, 0, 0, 1, -2528.3,1952.25) ">
			<g>
				<g id="Layer1_16_MEMBER_0_FILL_12_">
					<path class="st4" d="M2710.2-1701.7C2710.3-1701.7,2710.3-1701.7,2710.2-1701.7c0.5-0.1,1-0.2,1.6-0.2c0.6,0,1.1,0.1,1.5,0.2
						c0,0,0,0,0.1,0c0.2-0.1,0.3-0.1,0.5-0.2c-0.2-0.1-0.3-0.1-0.5-0.2c-0.5-0.1-1-0.2-1.6-0.1c-0.6,0-1.1,0.2-1.6,0.3
						c-0.1,0-0.1,0-0.2,0.1C2710.1-1701.7,2710.2-1701.7,2710.2-1701.7 M2708.7-1702.8c0.1,0.2,0.2,0.4,0.5,0.5c0,0,0,0,0,0
						c0.1-0.1,0.2-0.2,0.3-0.3c0.6-0.4,1.4-0.7,2.3-0.7c0.9-0.1,1.7,0.1,2.3,0.4c0.1,0.1,0.2,0.1,0.3,0.2c0.1,0.1,0.2,0.1,0.2,0.2
						c0.1-0.1,0.2-0.2,0.2-0.3c0-0.1,0.1-0.2,0.1-0.2c0-0.1-0.1-0.2-0.1-0.2c-0.2-0.3-0.4-0.5-0.8-0.7c-0.6-0.3-1.4-0.5-2.3-0.4
						c-0.9,0.1-1.7,0.3-2.3,0.7C2709.1-1703.4,2708.8-1703.1,2708.7-1702.8C2708.7-1702.8,2708.7-1702.8,2708.7-1702.8
						C2708.7-1702.8,2708.7-1702.8,2708.7-1702.8 M2709.1-1702.2C2709.1-1702.2,2709.2-1702.2,2709.1-1702.2
						c0.1,0.1,0.2,0.2,0.4,0.2c0.2,0.1,0.4,0.2,0.6,0.3c0.1,0,0.1,0,0.2-0.1c0.5-0.2,1-0.3,1.6-0.3c0.6,0,1.1,0,1.6,0.1
						c0.2,0,0.3,0.1,0.5,0.2c0.1,0,0.2-0.1,0.3-0.1c0.1-0.1,0.2-0.1,0.3-0.2c0.1-0.1,0.2-0.1,0.2-0.2c-0.1-0.1-0.2-0.1-0.2-0.2
						c-0.1-0.1-0.2-0.1-0.3-0.2c-0.6-0.3-1.4-0.5-2.3-0.4c-0.9,0.1-1.7,0.3-2.3,0.7C2709.4-1702.4,2709.3-1702.4,2709.1-1702.2
						C2709.2-1702.3,2709.1-1702.3,2709.1-1702.2 M2709.5-1704.7c-0.3,0.2-0.5,0.3-0.7,0.5c-0.2,0.2-0.3,0.5-0.3,0.8
						c0,0.2,0,0.4,0.1,0.5c0,0,0,0,0,0c0.1-0.3,0.4-0.6,0.8-0.8c0.6-0.4,1.4-0.7,2.3-0.7c0.9-0.1,1.7,0.1,2.3,0.4
						c0.4,0.2,0.7,0.4,0.8,0.7c0,0.1,0.1,0.1,0.1,0.2c0-0.1,0-0.2,0-0.3c0-0.3-0.1-0.6-0.3-0.8c-0.2-0.2-0.4-0.4-0.7-0.5
						c-0.6-0.4-1.4-0.6-2.3-0.6C2710.9-1705.2,2710.1-1705,2709.5-1704.7z"/>
				</g>
			</g>
			<g>
				<path class="st4" d="M2710.3-1701.6C2710.3-1701.6,2710.2-1701.6,2710.3-1701.6c-0.1-0.1-0.1-0.1,0-0.1c0.5-0.1,1-0.2,1.5-0.2
					c0.6,0,1.1,0.1,1.5,0.2c0,0,0.1,0.1,0,0.1s-0.1,0.1-0.1,0c-0.4-0.1-0.9-0.2-1.5-0.2C2711.3-1701.8,2710.8-1701.7,2710.3-1701.6
					C2710.3-1701.6,2710.3-1701.6,2710.3-1701.6z M2710.1-1701.7C2710.1-1701.7,2710-1701.7,2710.1-1701.7c-0.1-0.1-0.1-0.1,0-0.1
					c0.1,0,0.1,0,0.2-0.1c0.5-0.2,1-0.3,1.6-0.3c0.6,0,1.1,0,1.6,0.1c0.2,0,0.3,0.1,0.5,0.2c0,0,0.1,0.1,0,0.1c0,0-0.1,0.1-0.1,0
					c-0.2-0.1-0.3-0.1-0.5-0.2c-0.5-0.1-1-0.2-1.5-0.1c-0.6,0-1.1,0.2-1.5,0.3C2710.2-1701.7,2710.2-1701.7,2710.1-1701.7
					C2710.1-1701.7,2710.1-1701.7,2710.1-1701.7z M2709.1-1702.2C2709.1-1702.2,2709.1-1702.2,2709.1-1702.2
					c-0.1-0.1-0.1-0.1-0.1-0.1l0,0c0,0,0,0,0,0c0.1-0.1,0.2-0.2,0.3-0.3c0.6-0.4,1.4-0.7,2.4-0.7c0.9-0.1,1.7,0.1,2.3,0.4
					c0.1,0.1,0.2,0.1,0.4,0.2c0.1,0.1,0.2,0.1,0.3,0.2c0,0,0,0.1,0,0.1c0,0-0.1,0-0.1,0c-0.1-0.1-0.1-0.1-0.2-0.2
					c-0.1-0.1-0.2-0.1-0.3-0.2c-0.6-0.3-1.4-0.4-2.3-0.4c-0.9,0.1-1.7,0.3-2.3,0.7C2709.4-1702.4,2709.3-1702.3,2709.1-1702.2
					L2709.1-1702.2C2709.2-1702.2,2709.2-1702.2,2709.1-1702.2z M2708.7-1702.7C2708.6-1702.7,2708.6-1702.7,2708.7-1702.7
					c-0.1-0.1-0.1-0.1-0.1-0.1c0.2-0.3,0.4-0.6,0.8-0.9c0.6-0.4,1.4-0.7,2.4-0.7c0.9-0.1,1.7,0.1,2.3,0.4c0.4,0.2,0.7,0.5,0.9,0.8
					c0,0.1,0.1,0.2,0.1,0.2c0,0,0,0.1-0.1,0.1c0,0-0.1,0-0.1-0.1c0-0.1,0-0.1-0.1-0.2c-0.1-0.3-0.4-0.5-0.8-0.7
					c-0.6-0.3-1.4-0.4-2.3-0.4c-0.9,0.1-1.7,0.3-2.3,0.7C2709.2-1703.3,2708.9-1703.1,2708.7-1702.7
					C2708.7-1702.7,2708.7-1702.7,2708.7-1702.7z M2708.7-1702.7L2708.7-1702.7L2708.7-1702.7z"/>
			</g>
		</g>
		<g transform="matrix( 1, 0, 0, 1, -2528.3,1952.25) ">
			<g>
				<path class="st4" d="M2711.8-1701.4c-0.6,0-1.1-0.1-1.5-0.2l-0.1,0c-0.3-0.1-0.5-0.2-0.8-0.3c-0.1-0.1-0.2-0.2-0.3-0.2
					c-0.2-0.2-0.4-0.4-0.5-0.6c-0.1-0.2-0.1-0.4-0.1-0.6c0-0.5,0.3-1,1-1.4c0.6-0.4,1.4-0.6,2.4-0.6c0.9,0,1.7,0.2,2.3,0.6
					c0.7,0.4,1,0.9,1,1.4c0,0.2,0,0.4-0.1,0.6c-0.1,0.2-0.3,0.4-0.5,0.6c-0.1,0.1-0.2,0.2-0.3,0.2c-0.2,0.1-0.5,0.2-0.8,0.3
					c0,0,0,0-0.1,0C2712.9-1701.4,2712.4-1701.4,2711.8-1701.4z M2711.8-1705.1c-0.9,0-1.7,0.2-2.3,0.5c-0.6,0.4-0.9,0.8-0.9,1.3
					c0,0.2,0,0.4,0.1,0.5c0.1,0.2,0.3,0.4,0.5,0.5c0.1,0.1,0.2,0.1,0.3,0.2c0.2,0.1,0.5,0.2,0.7,0.3l0.1,0c0.4,0.1,0.9,0.2,1.5,0.2
					c0.5,0,1-0.1,1.5-0.2c0,0,0,0,0.1,0c0.3-0.1,0.5-0.2,0.7-0.3c0.1-0.1,0.2-0.1,0.3-0.2c0.2-0.2,0.4-0.3,0.5-0.5
					c0.1-0.2,0.1-0.3,0.1-0.5c0-0.5-0.3-0.9-0.9-1.3C2713.5-1705,2712.7-1705.1,2711.8-1705.1z"/>
			</g>
		</g>
	</g>
</g>
<g>
	<path class="st4" d="M594.7,227h-6.6c-0.1,0-0.1,0-0.2-0.1l-3.3-3.3c0,0-0.1-0.1-0.1-0.2v-3.3c0-0.1,0-0.1,0.1-0.2l3.3-3.3
		c0,0,0.1-0.1,0.2-0.1h6.6c0.1,0,0.1,0,0.2,0.1l3.3,3.3c0,0,0.1,0.1,0.1,0.2v3.3c0,0.1,0,0.1-0.1,0.2l-3.3,3.3
		C594.8,227,594.7,227,594.7,227z M588.2,226.6h6.4l3.2-3.2v-3.1l-3.2-3.2h-6.4l-3.2,3.2v3.1L588.2,226.6z"/>
	<g>
		<g transform="matrix( 1, 0, 0, 1, -2528.3,1952.25) ">
			<g>
				<g id="Layer1_16_FILL_14_">
					<path class="st4" d="M3123-1725.4v-3.3h-6.6v3.3H3123 M3113.1-1732v3.3l3.3,3.3v-3.3L3113.1-1732z"/>
					<path class="st4" d="M3123-1728.8v3.3l3.3-3.3v-3.3L3123-1728.8z"/>
					<path class="st4" d="M3123-1735.3h-6.6l-3.3,3.3l3.3,3.3h6.6l3.3-3.3L3123-1735.3 M3118.2-1730.4c0.5-0.1,1-0.2,1.5-0.2
						c0.6,0,1.1,0.1,1.5,0.2c-0.5,0.1-1,0.2-1.5,0.2C3119.1-1730.2,3118.6-1730.2,3118.2-1730.4z"/>
				</g>
			</g>
			<g>
				<path class="st4" d="M3123-1725.4C3123-1725.4,3123-1725.4,3123-1725.4h-6.6c0,0,0,0,0,0c0,0,0,0-0.1,0l-3.3-3.3c0,0,0,0,0-0.1
					v-3.3c0,0,0,0,0,0v0l0,0c0,0,0,0,0,0l0,0c0,0,0,0,0,0s0,0,0,0c0,0,0,0,0,0l0,0l0,0l3.3-3.3c0,0,0,0,0.1,0h6.6c0,0,0,0,0.1,0
					l3.3,3.3c0,0,0,0,0,0c0,0,0,0,0,0.1v3.3c0,0,0,0,0,0.1L3123-1725.4C3123-1725.4,3123-1725.4,3123-1725.4
					C3123-1725.4,3123-1725.4,3123-1725.4C3123-1725.4,3123-1725.4,3123-1725.4C3123-1725.4,3123-1725.4,3123-1725.4
					C3123-1725.4,3123-1725.4,3123-1725.4z M3116.5-1725.5h6.4v-3.2h-6.4V-1725.5z M3113.2-1728.7l3.1,3.1v-3.1l-3.1-3.1V-1728.7z
					 M3123.1-1728.7v3.1l3.1-3.1v-3.1L3123.1-1728.7z M3116.4-1728.8h6.5l3.2-3.2l-3.2-3.2h-6.5l-3.2,3.2L3116.4-1728.8z
					 M3119.7-1730.1c-0.6,0-1.1-0.1-1.5-0.2c0,0-0.1,0-0.1-0.1s0-0.1,0.1-0.1c0.5-0.1,1-0.2,1.5-0.2c0.6,0,1.1,0.1,1.5,0.2
					c0,0,0.1,0,0.1,0.1s0,0.1-0.1,0.1C3120.8-1730.2,3120.2-1730.1,3119.7-1730.1z M3118.5-1730.4c0.4,0.1,0.8,0.1,1.2,0.1
					c0.4,0,0.8,0,1.2-0.1c-0.4-0.1-0.8-0.1-1.2-0.1C3119.3-1730.5,3118.8-1730.5,3118.5-1730.4z"/>
			</g>
		</g>
		<g transform="matrix( 1, 0, 0, 1, -2528.3,1952.25) ">
			<g>
				<g id="Layer1_16_MEMBER_0_FILL_14_">
					<path class="st4" d="M3118.1-1730.4C3118.1-1730.4,3118.2-1730.4,3118.1-1730.4c0.5-0.1,1-0.2,1.6-0.2c0.6,0,1.1,0.1,1.5,0.2
						c0,0,0,0,0.1,0c0.2-0.1,0.3-0.1,0.5-0.2c-0.2-0.1-0.3-0.1-0.5-0.2c-0.5-0.1-1-0.2-1.6-0.1c-0.6,0-1.1,0.2-1.6,0.3
						c-0.1,0-0.1,0-0.2,0.1C3118-1730.4,3118.1-1730.4,3118.1-1730.4 M3116.6-1731.5c0.1,0.2,0.2,0.4,0.5,0.5c0,0,0,0,0,0
						c0.1-0.1,0.2-0.2,0.3-0.3c0.6-0.4,1.4-0.7,2.3-0.7c0.9-0.1,1.7,0.1,2.3,0.4c0.1,0.1,0.2,0.1,0.3,0.2c0.1,0.1,0.2,0.1,0.2,0.2
						c0.1-0.1,0.2-0.2,0.2-0.3c0-0.1,0.1-0.2,0.1-0.2c0-0.1-0.1-0.2-0.1-0.2c-0.2-0.3-0.4-0.5-0.8-0.7c-0.6-0.3-1.4-0.5-2.3-0.4
						c-0.9,0.1-1.7,0.3-2.3,0.7C3117-1732.1,3116.7-1731.8,3116.6-1731.5C3116.6-1731.5,3116.6-1731.5,3116.6-1731.5
						C3116.6-1731.5,3116.6-1731.5,3116.6-1731.5 M3117-1731C3117-1731,3117-1730.9,3117-1731c0.1,0.1,0.2,0.2,0.4,0.2
						c0.2,0.1,0.4,0.2,0.6,0.3c0.1,0,0.1,0,0.2-0.1c0.5-0.2,1-0.3,1.6-0.3c0.6,0,1.1,0,1.6,0.1c0.2,0,0.3,0.1,0.5,0.2
						c0.1,0,0.2-0.1,0.3-0.1c0.1-0.1,0.2-0.1,0.3-0.2c0.1-0.1,0.2-0.1,0.2-0.2c-0.1-0.1-0.2-0.1-0.2-0.2c-0.1-0.1-0.2-0.1-0.3-0.2
						c-0.6-0.3-1.4-0.5-2.3-0.4c-0.9,0.1-1.7,0.3-2.3,0.7C3117.3-1731.2,3117.1-1731.1,3117-1731C3117-1731,3117-1731,3117-1731
						 M3117.4-1733.4c-0.3,0.2-0.5,0.3-0.7,0.5c-0.2,0.2-0.3,0.5-0.3,0.8c0,0.2,0,0.4,0.1,0.5c0,0,0,0,0,0c0.1-0.3,0.4-0.6,0.8-0.8
						c0.6-0.4,1.4-0.7,2.3-0.7c0.9-0.1,1.7,0.1,2.3,0.4c0.4,0.2,0.7,0.4,0.8,0.7c0,0.1,0.1,0.1,0.1,0.2c0-0.1,0-0.2,0-0.3
						c0-0.3-0.1-0.6-0.3-0.8c-0.2-0.2-0.4-0.4-0.7-0.5c-0.6-0.4-1.4-0.6-2.3-0.6C3118.8-1733.9,3118-1733.7,3117.4-1733.4z"/>
				</g>
			</g>
			<g>
				<path class="st4" d="M3118.2-1730.3C3118.1-1730.3,3118.1-1730.3,3118.2-1730.3c-0.1-0.1-0.1-0.1,0-0.1c0.5-0.1,1-0.2,1.5-0.2
					c0.6,0,1.1,0.1,1.5,0.2c0,0,0.1,0.1,0,0.1c0,0-0.1,0.1-0.1,0c-0.4-0.1-0.9-0.2-1.5-0.2
					C3119.1-1730.5,3118.6-1730.4,3118.2-1730.3C3118.2-1730.3,3118.2-1730.3,3118.2-1730.3z M3118-1730.4
					C3117.9-1730.4,3117.9-1730.4,3118-1730.4c-0.1-0.1-0.1-0.1,0-0.1c0.1,0,0.1,0,0.2-0.1c0.5-0.2,1-0.3,1.6-0.3
					c0.6,0,1.1,0,1.6,0.1c0.2,0,0.3,0.1,0.5,0.2c0,0,0.1,0.1,0,0.1c0,0-0.1,0.1-0.1,0c-0.2-0.1-0.3-0.1-0.5-0.2
					c-0.5-0.1-1-0.2-1.5-0.1c-0.6,0-1.1,0.2-1.5,0.3C3118.1-1730.4,3118-1730.4,3118-1730.4C3118-1730.4,3118-1730.4,3118-1730.4z
					 M3117-1730.9C3117-1730.9,3117-1730.9,3117-1730.9c-0.1-0.1-0.1-0.1-0.1-0.1l0,0c0,0,0,0,0,0c0.1-0.1,0.2-0.2,0.3-0.3
					c0.6-0.4,1.4-0.7,2.4-0.7c0.9-0.1,1.7,0.1,2.3,0.4c0.1,0.1,0.2,0.1,0.3,0.2c0.1,0.1,0.2,0.1,0.3,0.2c0,0,0,0.1,0,0.1
					c0,0-0.1,0-0.1,0c-0.1-0.1-0.1-0.1-0.2-0.2c-0.1-0.1-0.2-0.1-0.3-0.2c-0.6-0.3-1.4-0.4-2.3-0.4c-0.9,0.1-1.7,0.3-2.3,0.7
					C3117.3-1731.1,3117.2-1731,3117-1730.9L3117-1730.9C3117-1730.9,3117-1730.9,3117-1730.9z M3116.6-1731.4
					C3116.5-1731.4,3116.5-1731.5,3116.6-1731.4c-0.1-0.1-0.1-0.1-0.1-0.1c0.2-0.3,0.4-0.6,0.8-0.9c0.6-0.4,1.4-0.7,2.3-0.7
					c0.9-0.1,1.7,0.1,2.3,0.4c0.4,0.2,0.7,0.5,0.9,0.8c0,0.1,0.1,0.2,0.1,0.2c0,0,0,0.1-0.1,0.1c0,0-0.1,0-0.1-0.1
					c0-0.1,0-0.1-0.1-0.2c-0.1-0.3-0.4-0.5-0.8-0.7c-0.6-0.3-1.4-0.4-2.3-0.4c-0.9,0.1-1.7,0.3-2.3,0.7
					C3117-1732,3116.8-1731.8,3116.6-1731.4C3116.6-1731.4,3116.6-1731.4,3116.6-1731.4z M3116.6-1731.5L3116.6-1731.5
					L3116.6-1731.5z"/>
			</g>
		</g>
		<g transform="matrix( 1, 0, 0, 1, -2528.3,1952.25) ">
			<g>
				<path class="st4" d="M3119.7-1730.1c-0.6,0-1.1-0.1-1.5-0.2l-0.1,0c-0.3-0.1-0.5-0.2-0.8-0.3c-0.1-0.1-0.2-0.2-0.3-0.2
					c-0.2-0.2-0.4-0.4-0.5-0.6c-0.1-0.2-0.1-0.4-0.1-0.6c0-0.5,0.3-1,1-1.4c0.6-0.4,1.4-0.6,2.4-0.6c0.9,0,1.7,0.2,2.3,0.6
					c0.7,0.4,1,0.9,1,1.4c0,0.2,0,0.4-0.1,0.6c-0.1,0.2-0.3,0.4-0.5,0.6c-0.1,0.1-0.2,0.2-0.3,0.2c-0.2,0.1-0.5,0.2-0.8,0.3
					c0,0,0,0-0.1,0C3120.8-1730.2,3120.2-1730.1,3119.7-1730.1z M3119.7-1733.9c-0.9,0-1.7,0.2-2.3,0.5c-0.6,0.4-0.9,0.8-0.9,1.3
					c0,0.2,0,0.4,0.1,0.5c0.1,0.2,0.3,0.4,0.5,0.5c0.1,0.1,0.2,0.1,0.3,0.2c0.2,0.1,0.5,0.2,0.7,0.3l0.1,0c0.4,0.1,0.9,0.2,1.5,0.2
					c0.5,0,1-0.1,1.5-0.2c0,0,0,0,0.1,0c0.3-0.1,0.5-0.2,0.7-0.3c0.1-0.1,0.2-0.1,0.3-0.2c0.2-0.2,0.4-0.3,0.5-0.5
					c0.1-0.2,0.1-0.3,0.1-0.5c0-0.5-0.3-0.9-0.9-1.3C3121.3-1733.7,3120.6-1733.9,3119.7-1733.9z"/>
			</g>
		</g>
	</g>
</g>
<g>
	<g>
		<path class="st4" d="M404.1,323.7h-6.6c-0.1,0-0.1,0-0.2-0.1l-3.3-3.3c0,0-0.1-0.1-0.1-0.2v-3.3c0-0.1,0-0.1,0.1-0.2l3.3-3.3
			c0,0,0.1-0.1,0.2-0.1h6.6c0.1,0,0.1,0,0.2,0.1l3.3,3.3c0,0,0.1,0.1,0.1,0.2v3.3c0,0.1,0,0.1-0.1,0.2l-3.3,3.3
			C404.3,323.6,404.2,323.7,404.1,323.7z M397.7,323.2h6.4l3.2-3.2v-3.1l-3.2-3.2h-6.4l-3.2,3.2v3.1L397.7,323.2z"/>
		<g>
			<g transform="matrix( 1, 0, 0, 1, -2528.3,1952.25) ">
				<g>
					<g id="Layer1_16_FILL_13_">
						<path class="st4" d="M2932.4-1628.8v-3.3h-6.6v3.3H2932.4 M2922.6-1635.4v3.3l3.3,3.3v-3.3L2922.6-1635.4z"/>
						<path class="st4" d="M2932.4-1632.1v3.3l3.3-3.3v-3.3L2932.4-1632.1z"/>
						<path class="st4" d="M2932.4-1638.7h-6.6l-3.3,3.3l3.3,3.3h6.6l3.3-3.3L2932.4-1638.7 M2927.6-1633.7c0.5-0.1,1-0.2,1.5-0.2
							c0.6,0,1.1,0.1,1.5,0.2c-0.5,0.1-1,0.2-1.5,0.2C2928.6-1633.5,2928.1-1633.6,2927.6-1633.7z"/>
					</g>
				</g>
				<g>
					<path class="st4" d="M2932.4-1628.7C2932.4-1628.7,2932.4-1628.7,2932.4-1628.7h-6.6c0,0,0,0,0,0c0,0,0,0-0.1,0l-3.3-3.3
						c0,0,0,0,0-0.1v-3.3c0,0,0,0,0,0c0,0,0,0,0,0l0,0c0,0,0,0,0,0l0,0c0,0,0,0,0,0s0,0,0,0v0l0,0l0,0l3.3-3.3c0,0,0,0,0.1,0h6.6
						c0,0,0,0,0.1,0l3.3,3.3c0,0,0,0,0,0c0,0,0,0,0,0.1v3.3c0,0,0,0,0,0.1L2932.4-1628.7C2932.5-1628.8,2932.5-1628.8,2932.4-1628.7
						C2932.5-1628.8,2932.5-1628.8,2932.4-1628.7C2932.5-1628.8,2932.5-1628.8,2932.4-1628.7
						C2932.5-1628.7,2932.5-1628.7,2932.4-1628.7C2932.4-1628.7,2932.4-1628.7,2932.4-1628.7z M2925.9-1628.9h6.4v-3.2h-6.4V-1628.9
						z M2922.6-1632.1l3.1,3.1v-3.1l-3.1-3.1V-1632.1z M2932.5-1632.1v3.1l3.1-3.1v-3.1L2932.5-1632.1z M2925.9-1632.2h6.5l3.2-3.2
						l-3.2-3.2h-6.5l-3.2,3.2L2925.9-1632.2z M2929.1-1633.5c-0.6,0-1.1-0.1-1.5-0.2c0,0-0.1,0-0.1-0.1s0-0.1,0.1-0.1
						c0.5-0.1,1-0.2,1.5-0.2c0.6,0,1.1,0.1,1.5,0.2c0,0,0.1,0,0.1,0.1s0,0.1-0.1,0.1C2930.2-1633.5,2929.7-1633.5,2929.1-1633.5z
						 M2927.9-1633.7c0.4,0.1,0.8,0.1,1.2,0.1c0.4,0,0.8,0,1.2-0.1c-0.4-0.1-0.8-0.1-1.2-0.1
						C2928.7-1633.9,2928.3-1633.8,2927.9-1633.7z"/>
				</g>
			</g>
			<g transform="matrix( 1, 0, 0, 1, -2528.3,1952.25) ">
				<g>
					<g id="Layer1_16_MEMBER_0_FILL_13_">
						<path class="st4" d="M2927.6-1633.8C2927.6-1633.8,2927.6-1633.8,2927.6-1633.8c0.5-0.1,1-0.2,1.6-0.2c0.6,0,1.1,0.1,1.5,0.2
							c0,0,0,0,0.1,0c0.2-0.1,0.3-0.1,0.5-0.2c-0.2-0.1-0.3-0.1-0.5-0.2c-0.5-0.1-1-0.2-1.6-0.1c-0.6,0-1.1,0.2-1.6,0.3
							c-0.1,0-0.1,0-0.2,0.1C2927.5-1633.8,2927.5-1633.8,2927.6-1633.8 M2926-1634.9c0.1,0.2,0.2,0.4,0.5,0.5c0,0,0,0,0,0
							c0.1-0.1,0.2-0.2,0.3-0.3c0.6-0.4,1.4-0.7,2.3-0.7c0.9-0.1,1.7,0.1,2.3,0.4c0.1,0.1,0.2,0.1,0.3,0.2c0.1,0.1,0.2,0.1,0.2,0.2
							c0.1-0.1,0.2-0.2,0.2-0.3c0-0.1,0.1-0.2,0.1-0.2c0-0.1-0.1-0.2-0.1-0.2c-0.2-0.3-0.4-0.5-0.8-0.7c-0.6-0.3-1.4-0.5-2.3-0.4
							c-0.9,0.1-1.7,0.3-2.3,0.7C2926.4-1635.5,2926.2-1635.2,2926-1634.9C2926-1634.9,2926-1634.9,2926-1634.9
							C2926-1634.9,2926-1634.9,2926-1634.9 M2926.5-1634.3C2926.5-1634.3,2926.5-1634.3,2926.5-1634.3c0.1,0.1,0.2,0.2,0.4,0.2
							c0.2,0.1,0.4,0.2,0.6,0.3c0.1,0,0.1,0,0.2-0.1c0.5-0.2,1-0.3,1.6-0.3c0.6,0,1.1,0,1.6,0.1c0.2,0,0.3,0.1,0.5,0.2
							c0.1,0,0.2-0.1,0.3-0.1c0.1-0.1,0.2-0.1,0.3-0.2c0.1-0.1,0.2-0.1,0.2-0.2c-0.1-0.1-0.2-0.1-0.2-0.2c-0.1-0.1-0.2-0.1-0.3-0.2
							c-0.6-0.3-1.4-0.5-2.3-0.4c-0.9,0.1-1.7,0.3-2.3,0.7C2926.7-1634.5,2926.6-1634.5,2926.5-1634.3
							C2926.5-1634.4,2926.5-1634.3,2926.5-1634.3 M2926.8-1636.8c-0.3,0.2-0.5,0.3-0.7,0.5c-0.2,0.2-0.3,0.5-0.3,0.8
							c0,0.2,0,0.4,0.1,0.5c0,0,0,0,0,0c0.1-0.3,0.4-0.6,0.8-0.8c0.6-0.4,1.4-0.7,2.3-0.7c0.9-0.1,1.7,0.1,2.3,0.4
							c0.4,0.2,0.7,0.4,0.8,0.7c0,0.1,0.1,0.1,0.1,0.2c0-0.1,0-0.2,0-0.3c0-0.3-0.1-0.6-0.3-0.8c-0.2-0.2-0.4-0.4-0.7-0.5
							c-0.6-0.4-1.4-0.6-2.3-0.6C2928.2-1637.3,2927.5-1637.1,2926.8-1636.8z"/>
					</g>
				</g>
				<g>
					<path class="st4" d="M2927.6-1633.7C2927.6-1633.7,2927.6-1633.7,2927.6-1633.7c-0.1-0.1-0.1-0.1,0-0.1c0.5-0.1,1-0.2,1.5-0.2
						c0.6,0,1.1,0.1,1.5,0.2c0,0,0.1,0.1,0,0.1c0,0-0.1,0.1-0.1,0c-0.4-0.1-0.9-0.2-1.5-0.2
						C2928.6-1633.9,2928.1-1633.8,2927.6-1633.7C2927.7-1633.7,2927.6-1633.7,2927.6-1633.7z M2927.4-1633.7
						C2927.4-1633.7,2927.4-1633.8,2927.4-1633.7c-0.1-0.1-0.1-0.1,0-0.1c0.1,0,0.1,0,0.2-0.1c0.5-0.2,1-0.3,1.6-0.3
						c0.6,0,1.1,0,1.6,0.1c0.2,0,0.3,0.1,0.5,0.2c0,0,0.1,0.1,0,0.1c0,0-0.1,0.1-0.1,0c-0.2-0.1-0.3-0.1-0.5-0.2
						c-0.5-0.1-1-0.2-1.5-0.1c-0.6,0-1.1,0.2-1.5,0.3C2927.5-1633.8,2927.5-1633.8,2927.4-1633.7
						C2927.4-1633.7,2927.4-1633.7,2927.4-1633.7z M2926.5-1634.3C2926.4-1634.3,2926.4-1634.3,2926.5-1634.3
						c-0.1-0.1-0.1-0.1-0.1-0.1l0,0c0,0,0,0,0,0c0.1-0.1,0.2-0.2,0.3-0.3c0.6-0.4,1.4-0.7,2.4-0.7c0.9-0.1,1.7,0.1,2.3,0.4
						c0.1,0.1,0.2,0.1,0.4,0.2c0.1,0.1,0.2,0.1,0.3,0.2c0,0,0,0.1,0,0.1s-0.1,0-0.1,0c-0.1-0.1-0.1-0.1-0.2-0.2
						c-0.1-0.1-0.2-0.1-0.3-0.2c-0.6-0.3-1.4-0.4-2.3-0.4c-0.9,0.1-1.7,0.3-2.3,0.7C2926.8-1634.5,2926.6-1634.4,2926.5-1634.3
						L2926.5-1634.3C2926.5-1634.3,2926.5-1634.3,2926.5-1634.3z M2926-1634.8C2926-1634.8,2925.9-1634.8,2926-1634.8
						c-0.1-0.1-0.1-0.1-0.1-0.1c0.2-0.3,0.4-0.6,0.8-0.9c0.6-0.4,1.4-0.7,2.3-0.7c0.9-0.1,1.7,0.1,2.3,0.4c0.4,0.2,0.7,0.5,0.9,0.8
						c0,0.1,0.1,0.2,0.1,0.2c0,0,0,0.1-0.1,0.1s-0.1,0-0.1-0.1c0-0.1,0-0.1-0.1-0.2c-0.1-0.3-0.4-0.5-0.8-0.7
						c-0.6-0.3-1.4-0.4-2.3-0.4c-0.9,0.1-1.7,0.3-2.3,0.7C2926.5-1635.4,2926.2-1635.1,2926-1634.8
						C2926.1-1634.8,2926-1634.8,2926-1634.8z M2926.1-1634.8L2926.1-1634.8L2926.1-1634.8z"/>
				</g>
			</g>
			<g transform="matrix( 1, 0, 0, 1, -2528.3,1952.25) ">
				<g>
					<path class="st4" d="M2929.1-1633.5c-0.6,0-1.1-0.1-1.5-0.2l-0.1,0c-0.3-0.1-0.5-0.2-0.8-0.3c-0.1-0.1-0.2-0.2-0.3-0.2
						c-0.2-0.2-0.4-0.4-0.5-0.6c-0.1-0.2-0.1-0.4-0.1-0.6c0-0.5,0.3-1,1-1.4c0.6-0.4,1.4-0.6,2.4-0.6c0.9,0,1.7,0.2,2.3,0.6
						c0.7,0.4,1,0.9,1,1.4c0,0.2,0,0.4-0.1,0.6c-0.1,0.2-0.3,0.4-0.5,0.6c-0.1,0.1-0.2,0.2-0.3,0.2c-0.2,0.1-0.5,0.2-0.8,0.3
						c0,0,0,0-0.1,0C2930.2-1633.5,2929.7-1633.5,2929.1-1633.5z M2929.1-1637.2c-0.9,0-1.7,0.2-2.3,0.5c-0.6,0.4-0.9,0.8-0.9,1.3
						c0,0.2,0,0.4,0.1,0.5c0.1,0.2,0.3,0.4,0.5,0.5c0.1,0.1,0.2,0.1,0.3,0.2c0.2,0.1,0.5,0.2,0.7,0.3l0.1,0c0.4,0.1,0.9,0.2,1.5,0.2
						c0.5,0,1-0.1,1.5-0.2c0,0,0,0,0.1,0c0.3-0.1,0.5-0.2,0.7-0.3c0.1-0.1,0.2-0.1,0.3-0.2c0.2-0.2,0.4-0.3,0.5-0.5
						c0.1-0.2,0.1-0.3,0.1-0.5c0-0.5-0.3-0.9-0.9-1.3C2930.8-1637.1,2930-1637.2,2929.1-1637.2z"/>
				</g>
			</g>
		</g>
	</g>
	<g>
		<path class="st5" d="M400.7,309.5"/>
	</g>
</g>
</svg>
