<?xml version="1.0" encoding="utf-8"?>
<!-- Generator: Adobe Illustrator 23.0.2, SVG Export Plug-In . SVG Version: 6.00 Build 0)  -->
<svg version="1.1" id="Layer_1" xmlns="http://www.w3.org/2000/svg" xmlns:xlink="http://www.w3.org/1999/xlink" x="0px" y="0px"
	 width="73.1px" height="59px" viewBox="0 0 73.1 59" style="enable-background:new 0 0 73.1 59;" xml:space="preserve">
<style type="text/css">
	.st0{fill:#121212;stroke:#898989;stroke-width:1;stroke-miterlimit:10;}
</style>
<path class="st0" d="M72.5,23.7c-0.3,14.9-16.1,21.8-29.3,22.4c-14.9,0.6-40-4.3-42.3-19C-2.6,5.4,22.6,1.4,28.2,0.7
	C48.6-1.9,72.9,8.4,72.5,23.7z"/>
<path class="st0" d="M72.8,38.9c0,10.6-13.3,19.7-35.9,19.7c-0.2,0-0.3,0-0.5,0C16.6,58.5,0.2,49.8,0.3,37.3l0.4-15
	c0-0.1,0.4,4.3,1.6,7.1c4.2,9.7,17.3,16,33.8,16.2c17.6,0.3,36.5-8.7,36.6-21.3C72.8,24.3,72.8,36.5,72.8,38.9z"/>
</svg>
