<?xml version="1.0" encoding="utf-8"?>
<!-- Generator: Adobe Illustrator 23.0.2, SVG Export Plug-In . SVG Version: 6.00 Build 0)  -->
<svg version="1.1" id="Layer_1" xmlns="http://www.w3.org/2000/svg" xmlns:xlink="http://www.w3.org/1999/xlink" x="0px" y="0px"
	 width="393.85px" height="205.83px" viewBox="0 0 393.85 205.83" style="enable-background:new 0 0 393.85 205.83;"
	 xml:space="preserve">
<style type="text/css">
	.st0{fill:#121212;stroke:#898989;stroke-miterlimit:10;}
	.st1{fill:#121212;stroke:#F1E827;stroke-miterlimit:10;}
	.st2{fill:none;stroke:#F1E827;stroke-miterlimit:10;}
	.st3{fill:#121212;stroke:#898989;stroke-width:1.0532;stroke-miterlimit:10;}
	.st4{fill:#121212;stroke:#898989;stroke-width:0.6389;stroke-miterlimit:10;}
	.st5{fill:#121212;stroke:#898989;stroke-width:0.6175;stroke-miterlimit:10;}
	.st6{clip-path:url(#SVGID_2_);}
	.st7{fill:#EEE926;}
	.st8{clip-path:url(#SVGID_8_);}
	.st9{fill:#121212;stroke:#898989;stroke-width:0.9469;stroke-miterlimit:10;}
</style>
<g>
	<g>
		<path class="st0" d="M364.1,45.57c-0.01,0.26-0.02,0.52-0.04,0.78c-0.02,0.26-0.04,0.51-0.07,0.76c-0.03,0.25-0.06,0.5-0.1,0.74
			c-0.04,0.27-0.09,0.53-0.15,0.78c-0.04,0.19-0.09,0.39-0.13,0.57c-0.12,0.48-0.27,0.95-0.44,1.39c-0.06,0.17-0.13,0.33-0.2,0.5
			c-0.51,1.17-1.18,2.19-2.03,3.02c-0.15,0.14-0.3,0.28-0.45,0.41c-0.16,0.13-0.32,0.26-0.49,0.38l-0.06,0.04l-1.23,0.71
			c-4.34,2-10.23-0.05-15.33-4.87l-0.01-0.01l4.99-2.82c2.35-1.36,2.09-6.2-0.58-10.8c-2.67-4.61-6.73-7.24-9.08-5.88l-4.86,2.75
			l0,0c-1.16-5.24-0.66-10.04,1.5-13.14c0.7-1.02,1.59-1.86,2.64-2.47c6.15-3.56,15.92,1.81,21.82,12
			C362.81,35.6,364.23,41.02,364.1,45.57L364.1,45.57z"/>
		<g>
			<path class="st0" d="M283.98,62.27l-7.2,8.41c0,0,4.27-0.29,5.52,4.84c1.25,5.13,0.2,5.31,0.2,5.31l12.3-4.3
				C294.81,76.53,299.48,58.04,283.98,62.27z"/>
			<path class="st0" d="M388.6,38.48c-0.11,0.06-0.21,0.12-0.32,0.18l0,0l-11.52,6.63l-16.74,9.63l-0.01,0
				c5.52-3.94,5.5-14.66-0.19-24.49c-5.9-10.19-15.67-15.57-21.82-12L366.8,1.87c0.14-0.1,0.29-0.19,0.43-0.27
				c6.15-3.56,15.92,1.81,21.82,11.99C394.95,23.78,394.75,34.92,388.6,38.48L388.6,38.48z"/>
			<path class="st0" d="M348.37,47.96l-4.99,2.82l-9.97,5.64l-14.86,8.4l-1.68,0.95l-23.08,11.22l0,0c2.34-1.71,2.43-4.83-0.21-9.25
				c-2.72-4.55-7.01-7-9.6-5.47c0.11-0.07,0.2-0.13,0.27-0.16l17.02-9.64l13.09-7.41l19.49-11.03l4.86-2.75
				c2.35-1.36,6.42,1.27,9.08,5.88C350.46,41.76,350.72,46.6,348.37,47.96L348.37,47.96z"/>
			<path class="st0" d="M281.98,81.3l-0.13,0.07c-0.28,0.16-1.01,0.56-2.06,1.14c-5.5,3.05-19.81,11.05-24.84,14.49
				c-0.71,0.48-1.6,1.15-2.64,1.96c-0.77,0.6-1.63,1.29-2.55,2.04c-1.26,1.03-2.64,2.18-4.14,3.44c-0.66,0.55-1.33,1.12-2.02,1.71
				c-5.67,4.83-12.53,10.84-19.26,16.76c-0.52,0.46-1.05,0.92-1.57,1.38c-3.31,2.92-6.57,5.79-9.61,8.46
				c-15.11,13.29-31.08,28.22-44,35.23c-27.2,15.98-72.8,17.91-72.8,17.91l-0.11-0.02c0.36-1.75,0.23-4.08,0.01-6.4
				c-0.2-2.12-0.73-4.34-1.27-5.64l0.09-0.03c0,0,15.08-0.78,36.31-4.81c24.09-4.82,40.13-16.29,48.02-23.21
				c4.82-4.22,21.65-18.81,36.23-31.51c0.47-0.41,0.94-0.82,1.41-1.23c8.74-7.61,16.49-14.38,20.06-17.58
				c2.27-2.03,4.89-4.06,7.74-6.07c1.03-0.72,2.09-1.45,3.18-2.17l0.04-0.03c8.08-5.35,17.49-10.5,25.83-15.18
				c0.64-0.36,1.27-0.71,1.89-1.06c1.57-0.94,4.22,0.62,5.92,3.48C283.43,77.29,283.55,80.36,281.98,81.3"/>
			<path class="st0" d="M96.25,185.88c-0.08,0.39-0.18,0.74-0.31,1.07c0,0-9.82,1.12-14.38,1.45c0.94-5.52-0.5-11.67-1.53-13.94l0,0
				c0.47-0.1,0.93-0.19,1.4-0.29l0,0c0,0,6.63-0.7,13.03-1.28c0.07,0.08,0.15,0.19,0.22,0.32c0.1,0.17,0.2,0.39,0.31,0.63
				c0.54,1.3,1.07,3.52,1.27,5.64C96.48,181.79,96.61,184.13,96.25,185.88L96.25,185.88z"/>
			<path class="st0" d="M64.85,187.37c0,0-0.72,0.25-3.06,1.28c-2.34,1.03-3,3.83-4.85,4.39c-1.85,0.56-3.37,0.38-4.13,0.32
				c-0.76-0.06-4.53,0.4-6.75,0.77l0.03-3.89c4.19-0.32,7.01-0.99,9.29-1.5c2.25-0.51,3.95-1.96,4-2
				C61.55,186.93,63.44,187.15,64.85,187.37L64.85,187.37z"/>
			<path class="st0" d="M46.11,187.67l-0.09,10.36l-15.18,1.63l-2.91-9.66c0.25-0.04,0.44-0.08,0.56-0.11
				c1.38-0.32,1.87-1.71,2.36-2.6c0.5-0.89,3-1.02,4.5-1.19c0.55-0.08,1.18-0.13,1.88-0.18c2.8,3.86,4.02,8.02,4.02,8.02l1.75,0.02
				c0,0,0.05-1.13,0.01-1.93c-0.01-0.18-0.02-0.35-0.04-0.48c-0.55-1.71-1.98-4.07-3.06-5.73c1.7-0.03,3.61-0.02,5.61,0.04
				L46.11,187.67L46.11,187.67z"/>
			<polygon class="st0" points="30.83,199.67 13.6,205.25 12.77,204.21 7.1,196.32 27.93,190.01 30.83,199.67 			"/>
			<path class="st0" d="M67.87,179.54l-0.26,0.01c-0.09,0-0.18,0-0.27,0c-0.09,0-0.18,0-0.27-0.01l-0.26-0.01
				c-3.32-0.18-5.92-1.81-5.9-3.77c0.02-2.06,2.92-3.71,6.49-3.67c3.57,0.03,6.45,1.73,6.43,3.79
				C73.82,177.83,71.19,179.41,67.87,179.54L67.87,179.54z M51.38,181.05c-0.09,0-0.18,0.01-0.27,0.01c-0.09,0-0.18,0-0.27,0
				c-0.09,0-0.18,0-0.27-0.01c-0.09,0-0.18-0.01-0.27-0.01c-3.32-0.17-5.92-1.68-5.91-3.49c0.02-1.9,2.93-3.42,6.5-3.39
				c3.58,0.03,6.46,1.6,6.45,3.51C57.33,179.47,54.71,180.93,51.38,181.05L51.38,181.05z M39.9,180.52c-0.08,0.1-0.18,0.2-0.28,0.29
				l-0.19,0.16l-0.1,0.08l-0.11,0.08l-0.11,0.08L39,181.28l-0.12,0.07l-0.23,0.13l-0.14,0.07l0,0l-0.22,0.1l-0.08,0.03L38,181.78
				l-0.18,0.07l-0.12,0.04l-0.01,0l-0.1,0.03l-0.17,0.05l-0.11,0.03l-0.01,0l-0.06,0.02l-0.2,0.05c-0.1,0.02-0.19,0.04-0.29,0.06
				l-0.02,0l-0.03,0.01c-0.11,0.02-0.21,0.04-0.32,0.06l-0.24,0.03l-0.13,0.01l-0.16,0.02l-0.16,0.02l-0.02,0l-0.16,0.01l-0.16,0.01
				l-0.08,0l-0.16,0l-0.06,0l-0.1,0l-0.12,0c-3.08-0.03-5.57-1.51-5.55-3.31c0.02-1.8,2.53-3.24,5.61-3.22
				c3.08,0.03,5.57,1.51,5.55,3.31C40.47,179.61,40.27,180.1,39.9,180.52L39.9,180.52z M24.17,185.08
				c-0.39,0.16-0.87,0.29-1.42,0.39c-0.59,0.11-2.1,0.37-3.84,0.66c-1.41,0.24-2.98,0.5-4.34,0.72c-1.67,0.28-3.02,0.51-3.37,0.57
				c-0.54,0.1-1.32,0.04-1.95-0.21c-0.52-0.2-0.94-0.53-1.08-0.99c-0.3-1.03,0.24-1.85,2.29-2.3c1.24-0.27,2.9-0.57,4.57-0.85
				c0.15-0.06,0.31-0.1,0.48-0.14c0.27-0.06,0.56-0.09,0.87-0.09l0.07,0l0.04,0l0.01,0c2.34-0.37,4.46-0.66,5.24-0.74
				c1.49-0.16,3.2,0.02,3.47,1.28C25.38,184.25,24.96,184.75,24.17,185.08L24.17,185.08z M6.78,179.42L6.78,179.42
				c-0.6-0.15-1.12-0.42-1.28-0.82c-0.31-0.8,0.24-1.43,2.29-1.77c1.24-0.21,2.89-0.44,4.56-0.65c0.41-0.12,0.89-0.18,1.42-0.18
				l0.05,0c2.33-0.28,4.46-0.5,5.24-0.56c1.49-0.12,3.2,0.02,3.47,1c0.16,0.59-0.15,0.96-0.79,1.22c-0.42,0.17-0.99,0.29-1.65,0.38
				c-0.59,0.09-2.1,0.28-3.84,0.51c-1.41,0.18-2.98,0.38-4.33,0.55c-1.67,0.21-3.02,0.39-3.37,0.44
				C8.05,179.6,7.37,179.57,6.78,179.42L6.78,179.42z M76.13,175.24c0,0-0.68-2.34-1.05-3.36l-0.03-0.08
				c-0.36-0.96-0.69-1.42-1.89-1.41c-1.22,0.01-15.15,1.65-20,2.24c-4.85,0.59-19.87,2.05-23.14,1.91c-3.27-0.13-4.22-0.82-5.53-1.6
				c-1.3-0.78-5.51,0.26-10.27,0.88c-4.76,0.62-10.75,1.75-12.68,2.58c-1.1,0.47-1.15,1.13-0.98,1.69c0.03,0.1,0.18,0.57,0.41,1.27
				c0.3,0.9,0.72,2.19,1.19,3.6c0.21,0.63,0.43,1.28,0.64,1.93c0.42,1.27,0.85,2.54,1.2,3.61c0.26,0.78,0.49,1.45,0.65,1.95
				c0.25,0.76,1.57,0.87,3.15,0.67c1.57-0.2,16.4-2.34,18.9-2.77c2.5-0.43,2.38-1,2.84-1.84c0.44-0.81,1.94-2,7.43-2.98l0.13-0.02
				l0.13-0.02c0.09-0.02,0.18-0.03,0.27-0.05c5.93-1,39.65-3.98,39.65-3.98C76.84,177.93,76.13,175.24,76.13,175.24L76.13,175.24z"
				/>
			<path class="st0" d="M81.56,188.39l-3.49,0.44c0.07-0.36-0.32-6.55-0.79-8.89c-0.03-0.13-0.06-0.29-0.1-0.45
				c-0.35-1.56-1.06-4.24-1.06-4.24c1.31-0.26,2.61-0.52,3.91-0.8l0,0C81.06,176.72,82.5,182.87,81.56,188.39L81.56,188.39z"/>
			<path class="st0" d="M78.07,188.83l-0.02,0c0,1.84-0.14,3.33-0.28,3.92c-0.14,0.59-0.57,1.04-1.11,1.04s-1.68-0.93-2.61-1.87
				c-0.92-0.94-3.36-3.09-7.28-4.17l-0.15-0.04c-0.44-0.11-1.04-0.22-1.77-0.34c-1.41-0.22-3.3-0.44-5.47-0.65
				c-0.44-0.04-0.88-0.08-1.34-0.12l0,0c-3.86-0.34-8.37-0.61-12.51-0.73c-2-0.06-3.91-0.07-5.61-0.04l0,0
				c-0.76-1.16-1.35-1.97-1.35-1.97l38.61-4.37c0.04,0.16,0.07,0.31,0.1,0.45C77.75,182.28,78.14,188.46,78.07,188.83L78.07,188.83z
				"/>
		</g>
	</g>
</g>
</svg>
