<?xml version="1.0" encoding="utf-8"?>
<!-- Generator: Adobe Illustrator 23.0.2, SVG Export Plug-In . SVG Version: 6.00 Build 0)  -->
<svg version="1.1" id="Layer_1" xmlns="http://www.w3.org/2000/svg" xmlns:xlink="http://www.w3.org/1999/xlink" x="0px" y="0px"
	 width="460.42px" height="273.36px" viewBox="0 0 460.42 273.36" style="enable-background:new 0 0 460.42 273.36;"
	 xml:space="preserve">
<style type="text/css">
	.st0{fill:#121212;stroke:#898989;stroke-miterlimit:10;}
	.st1{fill:#121212;stroke:#F1E827;stroke-miterlimit:10;}
	.st2{fill:none;stroke:#F1E827;stroke-miterlimit:10;}
	.st3{fill:#121212;stroke:#898989;stroke-width:1.0532;stroke-miterlimit:10;}
	.st4{fill:#121212;stroke:#898989;stroke-width:0.6389;stroke-miterlimit:10;}
	.st5{fill:#121212;stroke:#898989;stroke-width:0.6175;stroke-miterlimit:10;}
	.st6{clip-path:url(#SVGID_2_);}
	.st7{fill:#EEE926;}
	.st8{clip-path:url(#SVGID_8_);}
	.st9{fill:#121212;stroke:#898989;stroke-width:0.9469;stroke-miterlimit:10;}
</style>
<g>
	<path class="st3" d="M230.02,252.04c-113.57,0-205.65-53.23-205.65-118.88c0-65.66,92.07-118.88,205.65-118.88
		c113.58,0,205.65,53.22,205.65,118.88C435.66,198.82,343.59,252.04,230.02,252.04L230.02,252.04z M230.21,0.53
		C103.36,0.53,0.53,59.89,0.53,133.11s102.83,139.72,229.68,139.72c126.85,0,229.68-66.49,229.68-139.72S357.06,0.53,230.21,0.53
		L230.21,0.53z"/>
	<path class="st3" d="M230.02,14.28c-113.57,0-205.65,53.22-205.65,118.88c0,65.66,92.07,118.88,205.65,118.88
		c113.58,0,205.65-53.23,205.65-118.88C435.66,67.5,343.59,14.28,230.02,14.28L230.02,14.28z"/>
</g>
</svg>
