<svg id="Layer_1" xmlns="http://www.w3.org/2000/svg" width="333.42" height="484.73"><style>.st0,.st2,.st3,.st4{fill:#121212;stroke:#898989;stroke-miterlimit:10}.st2{stroke-width:1.1604}.st3,.st4{stroke-linejoin:round}.st4{stroke-width:1.16}</style><path class="st0" d="M257.26 25.73l-69.27 39.99v101.45l69.27-39.99s38.2-2.22 38.21 52.29c0 54.52-24.22 104-38.21 112.08L188 331.54v131.78l69.27-39.99c14.86-8.58 75.65-86.8 75.65-257.65 0-170.84-75.66-139.95-75.66-139.95"/><path class="st0" d="M207.26 466.63V403.8s0-24.97 23.56-38.57 51.14 58.27 51.14 58.27l-74.7 43.13zM254.28 8.55c-18.9-13.58-37.78-5.88-37.78-5.88l-69.27 39.99 40.76 23.05 69.27-39.99s15.2-6.2 31.98 2.34L254.28 8.55z"/><path d="M147.55 309.6v133.75c0 .4-.06.41.29.61 1.26.71 2.53 1.42 3.79 2.13 10.74 6.03 21.49 12.06 32.24 18.1 1.93 1.08 3.85 2.16 5.78 3.24v-14.61-34.6-40.8-33.16c0-3.13-.36-11.69.26-12.04l-42.35-23.48c-.08.04-.01.77-.01.86" fill="#121212" stroke="#898989" stroke-width="1.0039" stroke-miterlimit="10"/><path class="st0" d="M238.14 302.59L197.8 279.3c5.92-3.42 11.85-6.84 17.77-10.26 2.69-1.55 4.94-3.53 6.98-5.87 4.59-5.26 8.18-11.41 11.34-17.61 9.33-18.26 15.24-38.42 18.4-58.64 1.86-11.9 2.91-24.15 2.27-36.2-.28-5.38-1-10.76-2.38-15.97-.31-1.16-.65-2.31-1.02-3.45-.12-.37-.15-.49-.04-.58.07-.06.19-.11.38-.22.02-.01.04-.02.05-.03.58-.33 1.15-.67 1.73-1 .73-.42 1.46-.85 2.19-1.27.48-.28.89-.56 1.32-.76.36-.17.75-.28 1.21-.28h.02c.22 0 .44.01.67.01 1.48.05 2.96.22 4.41.48.33.06.65.12.97.19 5.31 1.09 10.37 3.38 14.64 6.73 8.78 6.88 13.36 17.52 15.34 28.25.15.81.29 1.63.41 2.45 1.68 10.99 1.13 22.37.02 33.38-.02.24-.05.48-.07.72-.18 1.77-.39 3.54-.62 5.3-.97 7.45-2.34 14.85-4.1 22.15-.65 2.69-1.35 5.36-2.1 8.02-.41 1.47-.84 2.94-1.29 4.4-2.43 7.97-5.32 15.8-8.79 23.37-.63 1.38-1.28 2.74-1.95 4.1-.54 1.09-1.08 2.17-1.65 3.25-1.67 3.19-3.46 6.31-5.44 9.31-.43.65-.86 1.29-1.31 1.93-.13.19-.27.38-.4.57-2.54 3.59-5.51 7.37-9.32 9.65l-.21.12c-4.77 2.75-9.54 5.51-14.31 8.26-1.57.94-3.17 1.86-4.78 2.79M188 65.72l-24.79 14.31v101.45L188 167.17zM122.45 56.98l40.76 23.05v101.45l-40.76-23.05z"/><path class="st0" d="M147.24 42.67l-24.79 14.31 40.76 23.06L188 65.73z"/><path class="st2" d="M230.82 365.22c4.29-2.48 8.71-2.11 13.07.13l-10.92-6.28c-.39-.24-.78-.47-1.18-.68l-.04-.02c-4.47-2.39-9.01-2.83-13.4-.29-23.56 13.6-23.56 38.57-23.56 38.57v62.83l12.47 7.14v-62.83s0-24.97 23.56-38.57z"/><path class="st2" d="M238.03 380.72c0 4.74-3.33 10.5-7.43 12.87-4.1 2.37-7.43.45-7.43-4.29s3.33-10.5 7.43-12.87c4.11-2.37 7.43-.45 7.43 4.29z"/><path class="st0" d="M230.6 393.84c-4.22 2.44-7.65.45-7.65-4.42s3.43-10.82 7.65-13.25c4.22-2.44 7.65-.46 7.65 4.42 0 4.87-3.43 10.81-7.65 13.25z"/><path class="st0" d="M233.52 383.32c0 1.86-1.3 4.12-2.91 5.05s-2.91.18-2.91-1.68 1.3-4.12 2.91-5.05c1.6-.93 2.91-.17 2.91 1.68z"/><path class="st2" d="M153.91 326.01c0 2.02 1.42 4.48 3.17 5.49 1.75 1.01 3.17.19 3.17-1.83s-1.42-4.48-3.17-5.49c-1.75-1.01-3.17-.19-3.17 1.83m-.19-.11c0-2.14 1.51-3.01 3.36-1.94s3.36 3.68 3.36 5.82-1.51 3.01-3.36 1.94-3.36-3.68-3.36-5.82M70.12 411.62l.09-.04.08-.02c-.06.02-.11.04-.17.06zm100.61 27.37c4.36-12.33-1.72-25.64-18.24-35.18-26.15-15.1-68.71-15.1-94.86 0v15.57c26.15-15.1 68.71-15.1 94.86 0 9.65 5.56 15.71 12.42 18.24 19.61z"/><path class="st3" d="M55.43 402.53v15.57l2.2 1.28v-15.57z"/><path class="st0" d="M151.16 457.8c-25.38 14.65-66.54 14.65-91.92 0s-25.38-38.41 0-53.07c25.38-14.65 66.54-14.65 91.92 0 25.38 14.66 25.38 38.42 0 53.07z"/><path class="st0" d="M151.16 457.8c-25.38 14.65-66.54 14.65-91.92 0-12.69-7.33-19.04-16.93-19.04-26.53v15.99h.02c.24 9.42 6.57 18.8 19.01 25.98 25.38 14.65 66.54 14.65 91.92 0 12.45-7.19 18.78-16.56 19.01-25.98h.01v-.28-.53l.01-15.17c.01 9.59-6.33 19.19-19.02 26.52z"/><path class="st3" d="M154.7 459.85l-2.21-1.27c26.15-15.1 26.15-39.67 0-54.77s-68.71-15.1-94.86 0l-2.21-1.27c27.37-15.8 71.9-15.8 99.27 0 27.38 15.8 27.38 41.5.01 57.31z"/><path class="st3" d="M175.18 432.43c-.52 9.96-7.33 19.84-20.47 27.42v15.57c12.54-7.24 19.32-16.57 20.37-26.07l.16-.27V432.3l-.06.13zM152.5 458.58v15.56l2.2 1.28v-15.57z"/><path class="st0" d="M161.17 463.71c0 1.12-.79 2.49-1.76 3.05s-1.76.11-1.76-1.01.79-2.49 1.76-3.05c.97-.57 1.76-.12 1.76 1.01z"/><path class="st4" d="M.58 335.31v4.97l134.75 77.8v-4.98L.58 335.31M135.33 413.1v4.98l146.95-85.03v-4.98z"/><path class="st3" d="M168.42 353.67c-17.76 10.25-46.55 10.25-64.31 0s-17.76-26.88 0-37.13 46.55-10.25 64.31 0c17.76 10.26 17.76 26.88 0 37.13m-20.9-103.4L.58 335.31l134.75 77.8 146.94-85.03-134.75-77.81"/><path class="st0" d="M104.12 321.71c17.76-10.25 46.55-10.25 64.31 0 7.71 4.45 12.07 10.11 13.08 15.92 1.32-7.57-3.04-15.41-13.08-21.21-17.76-10.25-46.55-10.25-64.31 0-10.05 5.8-14.4 13.64-13.08 21.21 1.01-5.82 5.37-11.47 13.08-15.92"/><path class="st2" d="M147.24 317.89c-1.95-1.33-4.02-2.57-6.17-3.73 2.07.13 4.14.34 6.17.63v3.1M179.19 343.54c-.43 0-.91-.14-1.41-.43-1.75-1.01-3.17-3.47-3.17-5.48 0-1.43.71-2.26 1.76-2.26.42 0 .9.14 1.41.43 1.48.85 2.72 2.74 3.07 4.52-.38 1.08-.88 2.16-1.49 3.21-.06 0-.12.01-.17.01M144.7 273.89c-2.31 1.33-6.06 1.33-8.37 0-2.31-1.34-2.31-3.5 0-4.83s6.06-1.33 8.37 0c2.32 1.33 2.32 3.49 0 4.83z"/><path class="st0" d="M144.7 273.89c-2.31 1.33-6.06 1.33-8.37 0-1.16-.67-1.73-1.54-1.73-2.42v5.59c0 .87.58 1.75 1.73 2.41 2.31 1.33 6.06 1.33 8.37 0 1.16-.67 1.73-1.54 1.73-2.42v-5.59c.01.89-.57 1.76-1.73 2.43M144.7 268.29c-2.31 1.33-6.06 1.33-8.37 0s-2.31-3.5 0-4.83 6.06-1.33 8.37 0c2.32 1.33 2.32 3.5 0 4.83z"/><path class="st2" d="M144.7 268.29c-2.31 1.33-6.06 1.33-8.37 0-1.16-.67-1.73-1.54-1.73-2.41v5.59c0 .87.58 1.75 1.73 2.41 2.31 1.33 6.06 1.33 8.37 0 1.16-.67 1.73-1.54 1.73-2.42v-5.59c.01.88-.57 1.75-1.73 2.42zM223.85 330.3c-2.31 1.33-6.06 1.33-8.37 0s-2.31-3.5 0-4.83 6.06-1.33 8.37 0 2.31 3.49 0 4.83z"/><path class="st0" d="M223.85 330.3s-65.82 46.78-70.78 49.64c-4.95 2.86-7.87 2.36-7.87 2.36l-8.11-4.72s2.91.5 7.87-2.36c4.95-2.86 70.78-49.64 70.78-49.64l8.11 4.72zM223.85 319.11c-2.31 1.33-6.06 1.33-8.37 0s-2.31-3.5 0-4.83 6.06-1.33 8.37 0 2.31 3.5 0 4.83z"/><path class="st0" d="M223.85 324.7c-2.31 1.33-6.06 1.33-8.37 0-1.16-.67-1.73-1.54-1.73-2.41v5.59c0 .87.58 1.75 1.73 2.41 2.31 1.33 6.06 1.33 8.37 0 1.16-.67 1.73-1.54 1.73-2.42v-5.59c.01.88-.57 1.76-1.73 2.42"/><path class="st0" d="M223.85 319.11c-2.31 1.33-6.06 1.33-8.37 0-1.16-.67-1.73-1.54-1.73-2.42v5.59c0 .87.58 1.75 1.73 2.41 2.31 1.33 6.06 1.33 8.37 0 1.16-.67 1.73-1.54 1.73-2.42v-5.59c.01.89-.57 1.76-1.73 2.43zM134.6 276.14v.92c0 .87.58 1.75 1.73 2.41 1.16.67 2.67 1 4.18 1 1.47 0 2.93-.31 4.07-.94l-77.23 48.55-8.35-4.99s69.39-43.02 75.6-46.95z"/></svg>