<svg id="Layer_1" xmlns="http://www.w3.org/2000/svg" width="22.96" height="21.69"><style>.st0{fill:#121212;stroke:#898989;stroke-miterlimit:10}</style><path class="st0" d="M22.46 10.65c0 3.6-2.52 7.97-5.64 9.76-3.12 1.8-5.64.34-5.64-3.26 0-3.59 2.52-7.97 5.64-9.76 3.11-1.79 5.64-.33 5.64 3.26z"/><path d="M18.12 13.16c0 .83-.58 1.83-1.3 2.25-.72.41-1.3.08-1.3-.75s.58-1.83 1.3-2.25c.71-.41 1.3-.08 1.3.75z" fill="#121212" stroke="#898989" stroke-width=".5" stroke-miterlimit="10"/><path class="st0" d="M20.57 6.89c-.36-.17-.76-.25-1.2-.26-.08-.01-.16 0-.24.01-.48.02-1.01.15-1.55.38-.05.02-.09.04-.15.06-.2.09-.4.19-.61.31-.17.1-.34.2-.5.32l-.12.08c-.32.22-.63.47-.93.74l-.1.1c-.27.25-.54.53-.79.81l-.08.1c-.24.28-.47.57-.69.88l-.07.1c-.21.3-.41.61-.61.93l-.07.11c-.18.32-.35.64-.51.98l-.06.12c-.16.34-.3.68-.43 1.03l-.04.12c-.13.36-.24.72-.33 1.08l-.03.11c-.1.39-.17.78-.21 1.16l-.01.14c-.04.29-.05.58-.05.86 0 .13 0 .26.01.38 0 .06 0 .11.01.16.05.55.15 1.04.31 1.46.02.06.05.13.07.18.25.57.61 1.02 1.05 1.33v.01L2.3 14.75l-.27-.15-.09-.05v-.01c-.44-.32-.81-.78-1.06-1.36-.02-.06-.05-.13-.08-.19-.16-.43-.26-.91-.29-1.45-.01-.05-.01-.1-.01-.16 0-.12-.01-.23-.01-.35 0-.29.02-.59.05-.9L.57 10c.05-.39.12-.77.22-1.16l.03-.12c.09-.36.2-.72.33-1.08l.05-.12c.12-.35.27-.69.42-1.03l.06-.12c.16-.33.33-.65.52-.97l.07-.11c.19-.32.39-.63.61-.93l.07-.1c.22-.3.46-.6.7-.87l.09-.1c.23-.29.5-.57.78-.82l.1-.09c.3-.27.61-.52.93-.74l.11-.08c.16-.11.31-.21.48-.3.22-.13.44-.24.65-.33l.15-.06C7.49.64 8.01.52 8.5.5c.09-.01.17-.01.25 0 .58.01 1.1.18 1.53.48V.97l10.29 5.92z"/><path class="st0" d="M17.58 7.02c-.05.02-.09.04-.15.06L6.78.93l.15-.06 10.65 6.15zM15.28 8.53l-.1.1L4.52 2.47l.1-.09zM13.61 10.41l-.08.1L2.87 4.36l.07-.1zM12.35 12.53l-.06.11L1.62 6.48l.06-.11zM11.49 14.88l-.03.12L.78 8.84l.03-.12zM11.2 17.7L.52 11.53c-.01-.05-.01-.1-.01-.16l10.68 6.17c.01.06.01.11.01.16z"/></svg>