<svg id="Layer_1" xmlns="http://www.w3.org/2000/svg" width="61.41" height="68.63"><style>.st0{fill:#121212;stroke:#898989;stroke-miterlimit:10}</style><path class="st0" d="M60.91 25.98c0 14.38-10.1 31.88-22.56 39.07s-22.56 1.36-22.56-13.02c0-14.39 10.1-31.88 22.56-39.07 12.46-7.2 22.56-1.37 22.56 13.02z"/><path class="st0" d="M35.11 48.82c-2.71 0-4.46-2.21-4.46-5.63 0-4.76 3.36-10.58 7.49-12.96 1.21-.7 2.37-1.05 3.46-1.05 2.71 0 4.46 2.21 4.46 5.63 0 4.76-3.36 10.58-7.48 12.96-1.22.7-2.38 1.05-3.47 1.05z"/><path d="M39.49 35.88c-.32 0-.69.11-1.06.33-1.36.78-2.46 2.7-2.46 4.27 0 1.02.48 1.66 1.25 1.66.32 0 .69-.11 1.06-.33 1.36-.78 2.46-2.7 2.46-4.27 0-1.03-.48-1.66-1.25-1.66zm-2.27 6.56c-.95 0-1.56-.77-1.56-1.97 0-1.67 1.17-3.7 2.62-4.54.42-.24.83-.37 1.21-.37.95 0 1.56.77 1.56 1.97 0 1.67-1.18 3.7-2.62 4.54-.42.24-.83.37-1.21.37z" fill="#121212" stroke="#898989" stroke-width=".5" stroke-miterlimit="10"/><path class="st0" d="M53.48 10.94c-1.31-.6-2.76-.97-4.3-1.05-.18-.01-.36-.02-.53-.01-1.47-.03-3.04.18-4.68.65-.11.03-.21.06-.32.09-1.12.33-2.27.79-3.44 1.35-.09.04-.18.09-.27.14-.53.25-1.05.54-1.58.84-.44.26-.89.53-1.33.83-.08.04-.16.09-.24.15-.87.56-1.73 1.18-2.56 1.86-.08.05-.15.11-.22.17-.79.62-1.55 1.29-2.31 2-.06.06-.12.12-.19.18-.72.68-1.41 1.39-2.1 2.13-.06.06-.12.13-.17.19-.67.72-1.31 1.46-1.93 2.23-.06.06-.11.12-.16.19-.61.76-1.2 1.53-1.77 2.33-.05.06-.1.13-.14.2-.58.79-1.11 1.58-1.62 2.41-.06.06-.1.13-.13.2-.52.82-1.01 1.66-1.48 2.49-.04.07-.09.15-.12.22-.47.85-.92 1.71-1.32 2.58-.05.08-.09.15-.11.23-.43.88-.83 1.76-1.19 2.64-.03.08-.07.16-.1.24-.37.91-.72 1.83-1.03 2.75-.03.08-.05.16-.08.24-.32.95-.61 1.9-.86 2.84-.03.08-.05.17-.07.25-.26.99-.48 1.98-.67 2.96-.02.09-.03.17-.05.26-.18 1.04-.33 2.08-.42 3.1-.01.09-.02.18-.02.27-.1.98-.14 1.95-.14 2.9 0 .13 0 .25.01.37-.01.1 0 .2.01.29.01 1.24.12 2.42.3 3.52.01.11.03.22.06.32.24 1.46.63 2.79 1.12 3.99.04.1.08.19.12.29l.04.09c1.05 2.35 2.55 4.18 4.41 5.39L7.34 57.37c-.35-.19-.7-.39-1.02-.63H6.3v-.01c-1.53-1.08-2.81-2.57-3.77-4.44-.07-.13-.14-.27-.2-.41-.59-1.22-1.04-2.59-1.34-4.11-.02-.11-.05-.22-.07-.33-.2-1.11-.33-2.3-.38-3.57-.01-.1-.01-.19-.01-.29-.02-.3-.02-.62-.02-.93 0-.78.03-1.57.1-2.36-.01-.1 0-.2.02-.29.07-1.03.2-2.06.38-3.11.01-.09.03-.18.04-.27.17-.98.38-1.98.64-2.97.02-.08.04-.17.07-.26.23-.95.51-1.91.83-2.86.02-.09.05-.17.08-.25.3-.93.64-1.85 1-2.76.03-.08.07-.16.1-.24.36-.9.75-1.79 1.16-2.67.03-.07.07-.15.11-.22.4-.87.84-1.74 1.3-2.6.04-.07.08-.14.12-.22.46-.84.95-1.68 1.45-2.5.05-.07.09-.14.14-.21.5-.83 1.04-1.62 1.59-2.41l.15-.21c.56-.8 1.14-1.58 1.75-2.33.05-.07.1-.13.16-.2.61-.77 1.24-1.51 1.9-2.24.05-.07.11-.13.17-.19.67-.75 1.36-1.46 2.08-2.14.06-.07.12-.13.19-.19.74-.72 1.49-1.38 2.27-2.02l.21-.18c.82-.68 1.67-1.3 2.52-1.88.07-.06.15-.11.23-.15.59-.4 1.18-.78 1.78-1.12.35-.2.72-.4 1.07-.59.08-.04.17-.09.26-.13 1.14-.59 2.26-1.05 3.35-1.41.1-.04.21-.07.32-.1 1.52-.48 2.99-.76 4.37-.82.16-.01.32-.02.48-.02 2.37-.04 4.5.52 6.32 1.63l14.26 8.78z"/><path class="st0" d="M49.17 9.89c-.17-.01-.35-.02-.52-.01L32.43.52c.16-.01.32-.02.48-.02l16.26 9.39zM43.96 10.53c-.11.03-.21.06-.32.09l-15.9-9.18c.1-.04.21-.07.32-.1l15.9 9.19zM40.2 11.97c-.09.04-.18.09-.27.14l-15.8-9.13c.08-.04.17-.09.26-.13l15.81 9.12zM37.02 13.78c-.08.04-.16.09-.24.15L21.05 4.84c.07-.06.15-.11.23-.15l15.74 9.09zM34.21 15.79c-.08.05-.15.11-.22.17L18.31 6.9l.21-.18 15.69 9.07zM31.68 17.96c-.06.06-.12.12-.19.18L15.85 9.11c.06-.07.12-.13.19-.19l15.64 9.04zM29.39 20.27c-.06.06-.12.13-.17.19L13.6 11.44c.05-.07.11-.13.17-.19l15.62 9.02zM27.28 22.69c-.06.06-.11.12-.16.19l-15.59-9c.05-.07.1-.13.16-.2l15.59 9.01zM25.36 25.22c-.05.06-.1.13-.14.2L9.64 16.43l.15-.21 15.57 9zM23.6 27.83c-.06.06-.1.13-.13.2L7.91 19.06c.05-.07.09-.14.14-.21l15.55 8.98zM21.98 30.53c-.04.07-.09.15-.12.22L6.34 21.78c.04-.07.08-.14.12-.22l15.52 8.97zM20.54 33.32c-.05.08-.09.15-.11.23L4.92 24.6c.03-.07.07-.15.11-.22l15.51 8.94zM19.24 36.2c-.03.08-.07.16-.1.24L3.66 27.51c.03-.08.07-.16.1-.24l15.48 8.93zM18.11 39.19c-.03.08-.05.16-.08.24L2.58 30.52c.02-.09.05-.17.08-.25l15.45 8.92zM17.17 42.28c-.03.08-.05.17-.07.25L1.68 33.64c.02-.08.04-.17.07-.26l15.42 8.9zM16.43 45.49c-.02.09-.03.17-.05.26L1 36.88c.01-.09.03-.18.04-.27l15.39 8.88zM15.96 48.85c-.01.09-.02.18-.02.27L.6 40.28c-.01-.1 0-.2.02-.29l15.34 8.86zM15.82 52.69L.53 43.86c-.01-.1-.01-.19-.01-.29l15.28 8.82c0 .11.01.21.02.3zM16.18 56.53L.98 47.76c-.02-.11-.05-.22-.07-.33l15.21 8.78c.01.11.03.22.06.32zM17.46 60.91L2.53 52.28c-.07-.13-.14-.27-.2-.41l14.97 8.65c.04.1.08.19.12.29l.04.1z"/></svg>