<?xml version="1.0" encoding="UTF-8"?> <svg xmlns="http://www.w3.org/2000/svg" xmlns:xlink="http://www.w3.org/1999/xlink" width="50px" height="48px" viewBox="0 0 50 48"><!-- Generator: Sketch 57.1 (83088) - https://sketch.com/ --><title>streamline-icon-hierarchy-5@50x50</title><desc>Created with Sketch.</desc><g id="Icons" stroke="none" stroke-width="1" fill="none" fill-rule="evenodd" stroke-linecap="round" stroke-linejoin="round"><g id="Bonfire-–-Consulting----Digital-Advertising-(Desktop)" transform="translate(-1127.000000, -975.000000)" stroke-width="2.08333333"><g id="streamline-icon-hierarchy-5@50x50" transform="translate(1128.000000, 976.000000)"><path d="M24,8.45625 L24,35.5395833" id="Path" stroke="#FFFFFF"></path><path d="M10.4583333,0.122916667 L37.5416667,0.122916667 C38.6916667,0.122916667 39.625,1.05625 39.625,2.20625 L39.625,6.37291667 C39.625,7.52291667 38.6916667,8.45625 37.5416667,8.45625 L10.4583333,8.45625 C9.30833333,8.45625 8.375,7.52291667 8.375,6.37291667 L8.375,2.20625 C8.375,1.05625 9.30833333,0.122916667 10.4583333,0.122916667 Z" id="Path" stroke="#FFFFFF"></path><path d="M20.875,35.5395833 L27.125,35.5395833 C28.275,35.5395833 29.2083333,36.4729167 29.2083333,37.6229167 L29.2083333,43.8729167 C29.2083333,45.0229167 28.275,45.95625 27.125,45.95625 L20.875,45.95625 C19.725,45.95625 18.7916667,45.0229167 18.7916667,43.8729167 L18.7916667,37.6229167 C18.7916667,36.4729167 19.725,35.5395833 20.875,35.5395833 Z" id="Path" stroke="#F1E82B"></path><path d="M2.125,35.5395833 L8.375,35.5395833 C9.525,35.5395833 10.4583333,36.4729167 10.4583333,37.6229167 L10.4583333,43.8729167 C10.4583333,45.0229167 9.525,45.95625 8.375,45.95625 L2.125,45.95625 C0.975,45.95625 0.0416666667,45.0229167 0.0416666667,43.8729167 L0.0416666667,37.6229167 C0.0416666667,36.4729167 0.975,35.5395833 2.125,35.5395833 Z" id="Path" stroke="#F1E82B"></path><path d="M39.625,35.5395833 L45.875,35.5395833 C47.025,35.5395833 47.9583333,36.4729167 47.9583333,37.6229167 L47.9583333,43.8729167 C47.9583333,45.0229167 47.025,45.95625 45.875,45.95625 L39.625,45.95625 C38.475,45.95625 37.5416667,45.0229167 37.5416667,43.8729167 L37.5416667,37.6229167 C37.5416667,36.4729167 38.475,35.5395833 39.625,35.5395833 Z" id="Path" stroke="#F1E82B"></path><path d="M41.7083333,35.5416667 L41.7083333,25.125 C41.7083333,23.975 40.775,23.0416667 39.625,23.0416667 L8.375,23.0416667 C7.225,23.0416667 6.29166667,23.975 6.29166667,25.125 L6.29166667,35.5416667" id="Path" stroke="#FFFFFF"></path></g></g></g></svg> 