<?xml version="1.0" encoding="UTF-8"?> <svg xmlns="http://www.w3.org/2000/svg" xmlns:xlink="http://www.w3.org/1999/xlink" width="50px" height="46px" viewBox="0 0 50 46"><!-- Generator: Sketch 57.1 (83088) - https://sketch.com/ --><title>streamline-icon-pie-line-graph-desktop@50x50 (2)</title><desc>Created with Sketch.</desc><g id="Icons" stroke="none" stroke-width="1" fill="none" fill-rule="evenodd" stroke-linecap="round" stroke-linejoin="round"><g id="Bonfire-–-Consulting----Digital-Advertising-(Desktop)" transform="translate(-549.000000, -450.000000)" stroke-width="2.08333333"><g id="streamline-icon-pie-line-graph-desktop@50x50-(2)" transform="translate(550.000000, 451.000000)"><path d="M13.5833333,7.41666667 C17.6104167,7.41666667 20.875,10.68125 20.875,14.7083333 C20.875,18.7354167 17.6104167,22 13.5833333,22 C9.55625,22 6.29166667,18.7354167 6.29166667,14.7083333 C6.29166667,10.68125 9.55625,7.41666667 13.5833333,7.41666667 Z" id="Path" stroke="#F1E82B"></path><polyline id="Path" stroke="#F1E82B" points="13.5833333 7.41666667 13.5833333 14.7083333 20.875 14.7083333"></polyline><path d="M17.75,43.875 C19.6375,41.4916667 20.7291667,38.5770833 20.875,35.5416667" id="Path" stroke="#FFFFFF"></path><path d="M30.25,43.875 C28.3625,41.4916667 27.2708333,38.5770833 27.125,35.5416667" id="Path" stroke="#FFFFFF"></path><path d="M14.6229167,43.875 L33.3729167,43.875" id="Path" stroke="#FFFFFF"></path><path d="M0.0416666667,29.2916667 L47.9583333,29.2916667" id="Path" stroke="#FFFFFF"></path><path d="M2.125,0.125 L45.875,0.125 C47.025,0.125 47.9583333,1.05833333 47.9583333,2.20833333 L47.9583333,33.4583333 C47.9583333,34.6083333 47.025,35.5416667 45.875,35.5416667 L2.125,35.5416667 C0.975,35.5416667 0.0416666667,34.6083333 0.0416666667,33.4583333 L0.0416666667,2.20833333 C0.0416666667,1.05833333 0.975,0.125 2.125,0.125 Z" id="Path" stroke="#FFFFFF"></path><polyline id="Path" stroke="#F1E82B" points="27.125 11.5833333 30.25 7.41666667 36.5 12.625 41.7083333 6.375"></polyline><path d="M39.625,23.0416667 L39.625,19.9166667" id="Path" stroke="#F1E82B"></path><path d="M35.4583333,23.0416667 L35.4583333,18.875" id="Path" stroke="#F1E82B"></path><path d="M31.2916667,23.0416667 L31.2916667,16.7916667" id="Path" stroke="#F1E82B"></path><path d="M27.125,23.0416667 L27.125,19.9166667" id="Path" stroke="#F1E82B"></path></g></g></g></svg> 