<?xml version="1.0" encoding="utf-8"?>
<!-- Generator: Adobe Illustrator 23.0.2, SVG Export Plug-In . SVG Version: 6.00 Build 0)  -->
<svg version="1.1" id="Layer_1" xmlns="http://www.w3.org/2000/svg" xmlns:xlink="http://www.w3.org/1999/xlink" x="0px" y="0px"
	 width="630.63px" height="386.4px" viewBox="0 0 630.63 386.4" style="enable-background:new 0 0 630.63 386.4;"
	 xml:space="preserve">
<style type="text/css">
	.st0{fill:#121212;stroke:#898989;stroke-miterlimit:10;}
</style>
<g>
	<path class="st0" d="M408.39,61.07c-0.18-0.49-0.34-1-0.48-1.52c1.62-0.56,3.3-1.33,5.02-2.32c8.27-4.78,15.62-13.59,20.25-23.34
		c0.17,0.04,0.34,0.08,0.51,0.12c-0.51,1.1-1.06,2.19-1.64,3.28C425.72,49.16,416.75,57.78,408.39,61.07"/>
	<polygon class="st0" points="583.25,11.65 536.61,4.65 277.69,76.47 469.06,186.96 629.88,58.5 	"/>
	<polyline class="st0" points="629.88,58.51 629.88,103.34 469.06,251.71 469.06,186.96 629.88,58.51 	"/>
	<polyline class="st0" points="206.83,124.85 249.08,160.54 249.08,202.89 206.83,192.1 206.83,124.85 	"/>
	<polygon class="st0" points="1,359.84 15.42,363.18 29.84,376.48 29.84,385.67 15.42,382.33 1,369.02 	"/>
	<polygon class="st0" points="135.01,228.89 222.77,279.56 29.84,376.48 15.42,363.18 1,359.84 	"/>
	<polyline class="st0" points="336.84,211.21 398.2,235.34 398.2,292.62 350.09,273.71 336.84,253.55 336.84,211.21 	"/>
	<polyline class="st0" points="249.08,160.54 135.01,228.89 222.77,279.56 336.84,211.21 249.08,160.54 	"/>
	<polygon class="st0" points="248.62,160.28 336.84,211.21 398.2,235.34 469.06,186.96 277.69,76.47 206.83,124.85 	"/>
	<polygon class="st0" points="469.06,186.96 469.06,251.72 398.2,292.62 398.2,235.34 	"/>
	<polygon class="st0" points="222.77,279.56 222.77,311.94 336.84,253.55 336.84,211.21 	"/>
	<polygon class="st0" points="29.84,385.67 29.84,376.48 222.77,279.56 222.77,311.94 	"/>
	<polygon class="st0" points="262.99,291.35 325.29,276.66 350.09,273.71 336.84,253.55 	"/>
	<polygon class="st0" points="73.42,317.56 109.24,303.04 94.6,294.58 102.17,290.21 126.57,304.3 121.18,307.42 82.88,323.02 	"/>
</g>
</svg>
