<?xml version="1.0" encoding="utf-8"?>
<!-- Generator: Adobe Illustrator 23.0.2, SVG Export Plug-In . SVG Version: 6.00 Build 0)  -->
<svg version="1.1" id="Layer_1" xmlns="http://www.w3.org/2000/svg" xmlns:xlink="http://www.w3.org/1999/xlink" x="0px" y="0px"
	 width="287.92px" height="193.33px" viewBox="0 0 287.92 193.33" style="enable-background:new 0 0 287.92 193.33;"
	 xml:space="preserve">
<style type="text/css">
	.st0{fill:#121212;stroke:#898989;stroke-miterlimit:10;}
	.st1{clip-path:url(#SVGID_2_);fill:#121212;stroke:#898989;stroke-miterlimit:10;}
	.st2{clip-path:url(#SVGID_4_);fill:#121212;stroke:#898989;stroke-miterlimit:10;}
	.st3{fill:none;}
	.st4{fill:#121212;stroke:#898989;stroke-linejoin:round;stroke-miterlimit:10;}
	.st5{fill:#121212;stroke:#F1E827;stroke-miterlimit:10;}
</style>
<g>
	<g>
		<polygon class="st0" points="33.03,1.97 33.03,24.73 2.84,42.17 2.84,24.94 33.03,1.97 		"/>
		<polygon class="st0" points="2.84,24.94 33.03,1.97 30.69,0.6 0.5,23.57 0.5,40.79 2.84,42.17 2.84,24.94 		"/>
		<path class="st0" d="M73.31,93.87l-0.05,4.02c-0.06,4.9,2.53,9.44,6.77,11.89l58.08,33.53c6.11,3.53,13.04,5.37,20.09,5.34
			l9.55-0.04c7.53-0.03,14.97,1.59,21.81,4.74l72.32,33.39l21.26-12.44l-60-34.64c-9.43-5.44-19.79-9.08-30.55-10.74l0,0
			c-5.69-0.87-11.17-2.8-16.15-5.68l-61.4-35.45c-3.47-2-6.23-5.03-7.91-8.67l0,0c-2.63-5.71-6.97-10.47-12.42-13.62l-65.9-38.04
			L7.55,39.91l60.66,43.84C71.46,86.09,73.36,89.87,73.31,93.87L73.31,93.87z"/>
		<polygon class="st0" points="287.03,152.26 287.03,175.02 256.83,192.46 256.83,175.23 287.03,152.26 		"/>
		<polygon class="st0" points="256.83,175.23 287.03,152.26 284.69,150.89 254.5,173.86 254.5,191.08 256.83,192.46 256.83,175.23 
					"/>
	</g>
</g>
</svg>
