<?xml version="1.0" encoding="utf-8"?>
<!-- Generator: Adobe Illustrator 23.0.2, SVG Export Plug-In . SVG Version: 6.00 Build 0)  -->
<svg version="1.1" id="Layer_1" xmlns="http://www.w3.org/2000/svg" xmlns:xlink="http://www.w3.org/1999/xlink" x="0px" y="0px"
	 width="204.88px" height="245.88px" viewBox="0 0 204.88 245.88" style="enable-background:new 0 0 204.88 245.88;"
	 xml:space="preserve">
<style type="text/css">
	.st0{fill:#121212;stroke:#898989;stroke-miterlimit:10;}
	.st1{clip-path:url(#SVGID_2_);fill:#121212;stroke:#898989;stroke-miterlimit:10;}
	.st2{clip-path:url(#SVGID_4_);fill:#121212;stroke:#898989;stroke-miterlimit:10;}
	.st3{fill:none;}
	.st4{fill:#121212;stroke:#898989;stroke-linejoin:round;stroke-miterlimit:10;}
	.st5{fill:#121212;stroke:#F1E827;stroke-miterlimit:10;}
</style>
<g>
</g>
<g>
	<polygon class="st0" points="203.4,76.24 139.88,112.91 132.94,174.23 132.94,213.75 195.02,164.14 195.02,147.4 203.4,127.23 
		203.4,76.24 	"/>
	<polygon class="st0" points="133.42,205.49 140.36,144.18 203.88,107.51 198.52,104.45 134.52,109.86 127.58,171.17 128.06,241.96 
		133.42,245.02 133.42,205.49 	"/>
	<polygon class="st0" points="181.36,82.82 142.42,105.3 27.57,39 65.48,0.61 200.89,71.54 	"/>
	<polygon class="st0" points="0.94,57.13 131.93,132.76 134.52,109.86 142.42,105.3 27.57,39 0.94,57.13 	"/>
</g>
</svg>
