<?xml version="1.0" encoding="utf-8"?>
<!-- Generator: Adobe Illustrator 23.0.2, SVG Export Plug-In . SVG Version: 6.00 Build 0)  -->
<svg version="1.1" id="Layer_1" xmlns="http://www.w3.org/2000/svg" xmlns:xlink="http://www.w3.org/1999/xlink" x="0px" y="0px"
	 width="127.84px" height="135.07px" viewBox="0 0 127.84 135.07" style="enable-background:new 0 0 127.84 135.07;"
	 xml:space="preserve">
<style type="text/css">
	.st0{fill:#121212;stroke:#898989;stroke-miterlimit:10;}
	.st1{clip-path:url(#SVGID_2_);fill:#121212;stroke:#898989;stroke-miterlimit:10;}
	.st2{clip-path:url(#SVGID_4_);fill:#121212;stroke:#898989;stroke-miterlimit:10;}
	.st3{fill:none;}
	.st4{fill:#121212;stroke:#898989;stroke-linejoin:round;stroke-miterlimit:10;}
	.st5{fill:#121212;stroke:#F1E827;stroke-miterlimit:10;}
</style>
<g>
	<g>
		<path class="st0" d="M18.73,107.19l44.64,24.93c15.85,8.61,40.13-6.26,54.24-33.2c14.11-26.94,12.7-55.75-3.15-64.35L69.83,9.63
			C53.98,1.03,29.7,15.9,15.59,42.84C1.48,69.78,2.89,98.59,18.73,107.19"/>
		<path class="st0" d="M69.86,116.35c-10.37-5.53-10.7-25.14-0.75-43.81c9.95-18.67,26.43-29.32,36.8-23.79
			c10.37,5.53,10.7,25.14,0.75,43.81C96.71,111.23,80.23,121.88,69.86,116.35 M112.7,32.21c-16.37-8.73-41.46,6.35-56.04,33.69
			c-14.58,27.34-13.12,56.57,3.25,65.31c16.37,8.73,41.46-6.36,56.04-33.69C130.53,70.18,129.07,40.94,112.7,32.21"/>
		<path class="st0" d="M56.66,65.9c14.58-27.34,39.66-42.42,56.04-33.69L66.58,6.91C50.21-1.82,25.13,13.26,10.55,40.6
			C-4.03,67.94-2.57,97.17,13.8,105.91l46.11,25.3C43.54,122.48,42.09,93.24,56.66,65.9"/>
		<path class="st0" d="M105.91,48.75c-3.9-2.08-8.67-1.87-13.63,0.2c1.73,8.73-0.47,20.74-6.68,32.38
			c-6.21,11.64-14.95,20.16-23.17,23.59c1.05,5.27,3.53,9.35,7.43,11.43c10.37,5.53,26.84-5.12,36.8-23.79
			C116.61,73.89,116.28,54.28,105.91,48.75"/>
		<path class="st0" d="M33.49,53.38C48.09,26.01,73.2,10.91,89.6,19.65l-3.08-1.64l-0.39-0.21l-3.08-1.64
			c-16.39-8.74-41.51,6.36-56.1,33.73c-14.59,27.37-13.14,56.64,3.25,65.38l3.08,1.64l0.4,0.21l3.08,1.64
			C20.35,110.03,18.9,80.75,33.49,53.38"/>
		<path class="st0" d="M125.33,0.26c-0.02-0.01-0.04-0.02-0.06-0.03l0,0l-0.01,0c0,0,0.01,0,0.01,0
			C125.3,0.24,125.32,0.25,125.33,0.26 M125.14,0.16c-0.1-0.05-0.21-0.11-0.31-0.16c0,0,0,0,0,0C124.93,0.05,125.04,0.1,125.14,0.16
			"/>
		<path class="st0" d="M59.48,130.97L59.48,130.97L59.48,130.97L59.48,130.97 M59.48,130.97c-0.02-0.01-0.04-0.02-0.06-0.03
			C59.44,130.94,59.46,130.96,59.48,130.97 M59.4,130.93c-0.02-0.01-0.04-0.03-0.06-0.03C59.36,130.9,59.38,130.91,59.4,130.93
			 M59.33,130.88c-0.02-0.01-0.04-0.02-0.06-0.03C59.29,130.86,59.31,130.87,59.33,130.88 M59.26,130.84
			c-0.02-0.01-0.04-0.02-0.06-0.03C59.22,130.82,59.24,130.83,59.26,130.84 M59.19,130.81c-0.02-0.01-0.04-0.03-0.06-0.03
			C59.15,130.78,59.17,130.79,59.19,130.81 M59.12,130.76c-0.02-0.01-0.04-0.03-0.06-0.04C59.08,130.74,59.1,130.75,59.12,130.76
			 M59.05,130.72c-0.02-0.01-0.04-0.02-0.06-0.03C59.01,130.7,59.03,130.71,59.05,130.72 M58.98,130.68
			c-0.02-0.01-0.04-0.03-0.06-0.04C58.94,130.65,58.96,130.67,58.98,130.68 M58.91,130.64c-0.02-0.01-0.04-0.03-0.06-0.04
			C58.87,130.61,58.89,130.62,58.91,130.64 M58.84,130.59c-0.02-0.01-0.04-0.03-0.06-0.04C58.8,130.57,58.82,130.58,58.84,130.59
			 M58.77,130.55c-0.02-0.01-0.04-0.03-0.06-0.04C58.73,130.53,58.75,130.54,58.77,130.55 M58.7,130.51
			c-0.02-0.02-0.04-0.03-0.07-0.04C58.66,130.48,58.68,130.49,58.7,130.51 M58.64,130.47c-0.02-0.02-0.04-0.03-0.07-0.04
			C58.59,130.44,58.61,130.45,58.64,130.47 M58.57,130.42c-0.02-0.01-0.05-0.03-0.07-0.04C58.52,130.39,58.54,130.41,58.57,130.42
			 M58.5,130.38c-7.88-5.05-11.89-15.22-11.88-27.59c0-5.32,0.74-11.03,2.24-16.92c0,0,0,0,0,0c-3.28,12.9-2.94,24.98,0.89,33.79
			c0,0,0,0.01,0,0.01c0.01,0.02,0.02,0.04,0.03,0.06c0.01,0.01,0.01,0.03,0.02,0.04c0.01,0.01,0.01,0.03,0.02,0.04
			c0.01,0.02,0.01,0.03,0.02,0.05c0,0,0,0,0,0C51.81,124.33,54.71,127.95,58.5,130.38"/>
		<path class="st0" d="M19.84,109.25l-6.05-3.31C5.01,101.25,0.52,90.67,0.5,77.64c0.03,13.01,4.52,23.59,13.3,28.27l5.94,3.26
			C19.77,109.19,19.81,109.22,19.84,109.25"/>
		<path class="st0" d="M34,117.01l-6.98-3.83c-0.03-0.03-0.06-0.05-0.1-0.08c-8.89-7.19-11.95-21.71-8.92-38.17
			c2.12,1.2,4.33,2.39,6.56,3.51c-3.07,16.71,0.14,31.44,9.35,38.5C33.94,116.96,33.97,116.99,34,117.01"/>
		<path class="st0" d="M49.83,119.85C49.83,119.85,49.83,119.85,49.83,119.85C49.83,119.85,49.83,119.85,49.83,119.85 M49.81,119.8
			c-0.01-0.01-0.01-0.03-0.02-0.04C49.8,119.78,49.8,119.79,49.81,119.8 M49.78,119.73c-0.01-0.02-0.02-0.04-0.03-0.06
			C49.76,119.69,49.77,119.71,49.78,119.73 M49.75,119.66c-3.83-8.81-4.16-20.89-0.89-33.79c0,0,0,0,0,0
			C45.59,98.77,45.92,110.85,49.75,119.66"/>
		<path class="st0" d="M78.71,66.47c-0.42-0.34-1.04-0.35-1.74,0.05c-1.26,0.73-2.28,2.49-2.28,3.94c0,0.74,0.27,1.25,0.69,1.48
			l0,0.01l46.9,27.08l4.64-4.54L78.71,66.47L78.71,66.47z"/>
		<path class="st0" d="M75.39,90.23l35.15,20.29l4.67-4.56l-36.5-21.21c-0.42-0.34-1.04-0.35-1.74,0.05
			c-1.26,0.73-2.28,2.49-2.28,3.94C74.7,89.48,74.97,89.99,75.39,90.23L75.39,90.23L75.39,90.23z"/>
	</g>
</g>
</svg>
