<?xml version="1.0" encoding="utf-8"?>
<!-- Generator: Adobe Illustrator 23.0.2, SVG Export Plug-In . SVG Version: 6.00 Build 0)  -->
<svg version="1.1" id="Layer_1" xmlns="http://www.w3.org/2000/svg" xmlns:xlink="http://www.w3.org/1999/xlink" x="0px" y="0px"
	 width="153.86px" height="139px" viewBox="0 0 153.86 139" style="enable-background:new 0 0 153.86 139;" xml:space="preserve">
<style type="text/css">
	.st0{fill:#121212;stroke:#898989;stroke-miterlimit:10;}
	.st1{clip-path:url(#SVGID_2_);fill:#121212;stroke:#898989;stroke-miterlimit:10;}
	.st2{clip-path:url(#SVGID_4_);fill:#121212;stroke:#898989;stroke-miterlimit:10;}
	.st3{fill:none;}
	.st4{fill:#121212;stroke:#898989;stroke-linejoin:round;stroke-miterlimit:10;}
	.st5{fill:#121212;stroke:#F1E827;stroke-miterlimit:10;}
</style>
<g>
	<g>
		<path class="st0" d="M46.33,50.65c0.77-1.94,1.63-3.87,2.56-5.81L4.51,19.02c-0.42-0.34-1.04-0.35-1.74,0.05
			C1.52,19.8,0.5,21.57,0.5,23.02c0,0.74,0.27,1.25,0.69,1.48l0,0.01L46.33,50.65L46.33,50.65z"/>
		<path class="st0" d="M53.39,36.48c1.11-1.82,2.26-3.57,3.45-5.25L4.51,0.75C4.1,0.42,3.48,0.4,2.78,0.81
			C1.52,1.53,0.5,3.3,0.5,4.75C0.5,5.49,0.77,6,1.19,6.23l0,0.01L53.39,36.48L53.39,36.48z"/>
		<g>
			<path class="st0" d="M97.23,121.16c-10.37-5.53-10.7-25.14-0.75-43.81c9.95-18.67,26.43-29.32,36.8-23.79
				c10.37,5.53,10.71,25.14,0.75,43.81C124.07,116.04,107.59,126.69,97.23,121.16 M140.06,37.02c-16.37-8.73-41.46,6.35-56.03,33.69
				s-13.12,56.58,3.25,65.31c16.37,8.73,41.46-6.35,56.03-33.69C157.89,74.99,156.43,45.75,140.06,37.02"/>
			<path class="st0" d="M84.03,70.71c14.58-27.34,39.66-42.42,56.03-33.69l-46.11-25.3c-16.37-8.73-41.46,6.36-56.04,33.69
				c-14.58,27.34-13.12,56.58,3.25,65.31l46.12,25.3C70.91,127.29,69.45,98.05,84.03,70.71"/>
			<path class="st0" d="M133.27,53.56c-3.9-2.08-8.67-1.87-13.63,0.2c1.73,8.73-0.47,20.74-6.68,32.38
				c-6.21,11.64-14.95,20.16-23.17,23.59c1.05,5.27,3.53,9.35,7.43,11.43c10.37,5.53,26.84-5.12,36.8-23.79
				C143.98,78.71,143.64,59.1,133.27,53.56"/>
			<path class="st0" d="M127.8,52.14c-2.58-0.1-5.33,0.45-8.16,1.62c1.73,8.73-0.47,20.74-6.68,32.38
				c-6.21,11.64-14.95,20.16-23.17,23.59c0.6,3,1.67,5.6,3.2,7.68C103.06,117.8,135.58,83.62,127.8,52.14"/>
			<path class="st0" d="M104.55,17.85c-0.01-0.01-0.03-0.01-0.04-0.02l-0.93-0.49L104.55,17.85"/>
			<path class="st0" d="M54.22,118.31L54.22,118.31l-0.97-0.52c-1.21-0.65-2.35-1.41-3.4-2.28l1.02,0.56
				C51.9,116.92,53.02,117.67,54.22,118.31"/>
			<path class="st0" d="M107.07,19.19l-1.01-0.54c0.01,0.01,0.03,0.02,0.04,0.02L107.07,19.19"/>
			<path class="st0" d="M60.86,58.2c14.6-27.37,39.71-42.47,56.1-33.73l-3.08-1.64l-0.39-0.21l-3.08-1.65
				c-16.39-8.74-41.51,6.36-56.1,33.73c-14.59,27.37-13.14,56.64,3.26,65.38l3.08,1.65l0.4,0.21l3.08,1.64
				C47.72,114.84,46.26,85.57,60.86,58.2"/>
			<path class="st0" d="M69.1,126.24l-0.97-0.51c-0.85-0.46-1.67-0.97-2.44-1.53l1.05,0.57C67.49,125.31,68.27,125.8,69.1,126.24"/>
			<path class="st0" d="M121.95,27.12c-0.01-0.01-0.03-0.01-0.04-0.02l-0.93-0.49L121.95,27.12"/>
			<path class="st0" d="M71.61,127.58L71.61,127.58l-0.97-0.52c-0.78-0.41-1.52-0.87-2.23-1.38l1.06,0.58
				C70.16,126.75,70.87,127.18,71.61,127.58"/>
			<path class="st0" d="M124.46,28.46l-1.01-0.54c0.02,0.01,0.03,0.02,0.04,0.02L124.46,28.46"/>
			<path class="st0" d="M87.34,136.05c-0.02-0.01-0.04-0.02-0.06-0.03c-0.14-0.07-0.28-0.15-0.42-0.23l0,0
				c0.01,0.01,0.03,0.02,0.04,0.02c0,0,0.01,0.01,0.02,0.01c0.02,0.01,0.04,0.02,0.06,0.03c0,0,0,0,0.01,0
				c0.02,0.01,0.04,0.02,0.06,0.03c0.01,0,0.01,0.01,0.02,0.01c0.02,0.01,0.04,0.02,0.06,0.03c0,0,0,0,0,0
				c0.02,0.01,0.04,0.02,0.06,0.03c0.01,0,0.01,0.01,0.02,0.01c0.02,0.01,0.04,0.02,0.06,0.03l0,0l0,0l0,0l0,0l0,0
				C87.3,136.03,87.32,136.04,87.34,136.05"/>
			<path class="st0" d="M140.12,37.05c-0.02-0.01-0.04-0.02-0.06-0.03l0,0l0,0c0,0,0,0,0.01,0.01
				C140.09,37.04,140.1,37.04,140.12,37.05 M139.93,36.95c-0.1-0.05-0.21-0.11-0.31-0.16c0,0,0,0,0,0
				C139.72,36.85,139.83,36.9,139.93,36.95"/>
			<path class="st0" d="M87.28,136.02L87.28,136.02L87.28,136.02l-0.41-0.22c-0.01,0-0.02-0.01-0.02-0.01L87.28,136.02
				 M87.28,136.02c-0.02-0.01-0.04-0.02-0.06-0.03C87.23,136,87.26,136.01,87.28,136.02L87.28,136.02 M87.19,135.98
				c-0.02-0.01-0.04-0.03-0.06-0.03C87.15,135.95,87.17,135.97,87.19,135.98 M87.13,135.94c-0.02-0.01-0.04-0.02-0.06-0.03
				C87.09,135.92,87.11,135.93,87.13,135.94 M87.05,135.9c-0.02-0.01-0.04-0.02-0.06-0.03C87.01,135.88,87.03,135.89,87.05,135.9
				 M86.98,135.86c-0.02-0.01-0.04-0.02-0.06-0.03C86.94,135.84,86.96,135.85,86.98,135.86 M86.91,135.82
				c-0.02-0.01-0.03-0.02-0.04-0.02l0,0C86.88,135.8,86.9,135.81,86.91,135.82 M86.85,135.79
				C86.84,135.78,86.84,135.78,86.85,135.79C86.84,135.78,86.84,135.78,86.85,135.79 M86.78,135.75
				C86.78,135.75,86.78,135.75,86.78,135.75c-0.01,0-0.01,0-0.02-0.01l0,0C86.77,135.74,86.78,135.75,86.78,135.75 M140.06,37.02
				c-0.04-0.02-0.09-0.05-0.13-0.07c-0.1-0.05-0.21-0.11-0.31-0.16C139.77,36.87,139.91,36.94,140.06,37.02L140.06,37.02"/>
			<path class="st0" d="M86.87,135.79l-17.39-9.53c-0.03-0.02-0.06-0.04-0.09-0.06l17.46,9.58
				C86.85,135.79,86.86,135.79,86.87,135.79"/>
			<path class="st0" d="M86.75,135.73c-0.02-0.01-0.03-0.02-0.05-0.03c0,0,0,0,0,0C86.72,135.72,86.74,135.73,86.75,135.73
				 M86.7,135.7c-0.02-0.01-0.04-0.02-0.06-0.03c0,0,0.01,0.01,0.01,0.01c0.01,0.01,0.02,0.02,0.03,0.02
				C86.69,135.7,86.69,135.7,86.7,135.7 M86.62,135.66c-0.02-0.01-0.04-0.03-0.06-0.04c0.02,0.01,0.03,0.02,0.04,0.03
				C86.61,135.65,86.62,135.65,86.62,135.66C86.62,135.66,86.62,135.66,86.62,135.66 M86.55,135.62c-0.02-0.01-0.04-0.02-0.06-0.03
				c0.01,0.01,0.02,0.01,0.03,0.02l0,0C86.54,135.6,86.55,135.61,86.55,135.62 M86.49,135.58c-0.02-0.01-0.04-0.03-0.06-0.04
				C86.44,135.55,86.46,135.56,86.49,135.58 M86.42,135.54c-0.02-0.01-0.04-0.03-0.06-0.03C86.37,135.51,86.39,135.52,86.42,135.54
				 M86.35,135.49c-0.02-0.01-0.04-0.03-0.06-0.04C86.3,135.47,86.33,135.48,86.35,135.49 M86.28,135.45
				c-0.02-0.01-0.04-0.03-0.06-0.03C86.23,135.43,86.25,135.44,86.28,135.45 M86.21,135.41c-0.02-0.01-0.04-0.03-0.06-0.04
				C86.16,135.38,86.18,135.4,86.21,135.41 M86.14,135.37c-0.02-0.01-0.04-0.03-0.06-0.04C86.1,135.34,86.11,135.35,86.14,135.37
				 M86.07,135.32c-0.02-0.01-0.04-0.03-0.07-0.04C86.03,135.3,86.05,135.31,86.07,135.32 M86,135.28
				c-0.02-0.02-0.04-0.03-0.07-0.04C85.96,135.25,85.98,135.27,86,135.28 M85.93,135.24c-0.03-0.01-0.05-0.03-0.07-0.04
				C85.89,135.21,85.91,135.22,85.93,135.24 M85.86,135.19c-7.88-5.05-11.89-15.22-11.89-27.58c0-5.32,0.74-11.04,2.24-16.92h0
				c-3.48,13.69-2.88,26.47,1.64,35.38v0c0.01,0.02,0.03,0.05,0.03,0.07c0,0.01,0.01,0.01,0.01,0.02c0.01,0.02,0.02,0.03,0.03,0.04
				c0,0.01,0.01,0.02,0.02,0.03c0,0.01,0.01,0.02,0.01,0.02c0.01,0.03,0.03,0.05,0.04,0.08l0,0
				C79.93,130.05,82.56,133.08,85.86,135.19"/>
			<path class="st0" d="M65.69,124.19l-4.32-2.37c-0.03-0.02-0.06-0.05-0.09-0.07l4.33,2.37C65.63,124.15,65.66,124.17,65.69,124.19
				"/>
			<path class="st0" d="M54.39,118l-3.52-1.93c-0.03-0.03-0.07-0.05-0.1-0.08l3.52,1.93C54.32,117.95,54.35,117.97,54.39,118"/>
			<path class="st0" d="M61.37,121.82L54.39,118c-0.03-0.03-0.07-0.05-0.1-0.08c-8.89-7.19-11.95-21.71-8.92-38.17
				c2.12,1.2,4.33,2.38,6.56,3.51c-3.07,16.71,0.14,31.44,9.35,38.5C61.3,121.78,61.33,121.8,61.37,121.82"/>
			<path class="st0" d="M87.21,135.99c-0.01,0-0.01-0.01-0.02-0.01C87.2,135.98,87.21,135.99,87.21,135.99 M87.13,135.94
				C87.13,135.94,87.13,135.94,87.13,135.94S87.13,135.94,87.13,135.94 M87.07,135.91c-0.01,0-0.01-0.01-0.02-0.01
				C87.06,135.9,87.06,135.91,87.07,135.91 M86.99,135.86C86.99,135.86,86.99,135.86,86.99,135.86
				C86.99,135.86,86.99,135.86,86.99,135.86 M86.93,135.83c-0.01,0-0.01-0.01-0.02-0.01C86.91,135.82,86.92,135.83,86.93,135.83"/>
			<path class="st0" d="M87.28,136.02c-0.02-0.01-0.04-0.02-0.06-0.03c-0.01,0-0.01-0.01-0.02-0.01c-0.02-0.01-0.04-0.03-0.06-0.03
				c0,0,0,0,0,0c-0.02-0.01-0.04-0.02-0.06-0.03c-0.01,0-0.01-0.01-0.02-0.01c-0.02-0.01-0.04-0.02-0.06-0.03c0,0,0,0-0.01,0
				c-0.02-0.01-0.04-0.02-0.06-0.03c-0.01,0-0.01-0.01-0.02-0.01c-0.01-0.01-0.03-0.02-0.04-0.02L87.28,136.02"/>
			<path class="st0" d="M86.87,135.8L86.87,135.8c-0.01-0.01-0.02-0.01-0.02-0.01l0,0C86.85,135.79,86.86,135.79,86.87,135.8"/>
			<path class="st0" d="M86.85,135.79L86.85,135.79L86.85,135.79L86.85,135.79 M86.84,135.78c-0.02-0.01-0.04-0.02-0.06-0.03
				C86.8,135.76,86.82,135.77,86.84,135.78"/>
			<path class="st0" d="M86.87,135.8L86.87,135.8c-0.01-0.01-0.02-0.01-0.02-0.01l0,0l0,0C86.85,135.79,86.86,135.79,86.87,135.8
				 M86.85,135.79L86.85,135.79c-0.02-0.01-0.04-0.03-0.07-0.04c0,0,0,0,0,0C86.8,135.76,86.82,135.77,86.85,135.79
				C86.84,135.78,86.84,135.78,86.85,135.79L86.85,135.79"/>
			<path class="st0" d="M86.77,135.74c0,0-0.01-0.01-0.01-0.01c-0.02-0.01-0.03-0.02-0.05-0.03
				C86.73,135.72,86.75,135.73,86.77,135.74"/>
			<path class="st0" d="M86.77,135.74c0,0-0.01-0.01-0.01-0.01C86.76,135.73,86.76,135.74,86.77,135.74L86.77,135.74"/>
			<path class="st0" d="M86.68,135.69c-0.01-0.01-0.02-0.01-0.03-0.02C86.66,135.68,86.67,135.69,86.68,135.69 M86.62,135.66
				c0,0-0.01-0.01-0.01-0.01C86.61,135.65,86.62,135.65,86.62,135.66 M86.52,135.6L86.52,135.6L86.52,135.6 M78,126.34L78,126.34
				L78,126.34 M77.96,126.26c-0.01-0.01-0.01-0.01-0.01-0.02C77.95,126.24,77.95,126.25,77.96,126.26 M77.93,126.2
				c-0.01-0.01-0.02-0.03-0.03-0.04C77.91,126.18,77.92,126.19,77.93,126.2 M77.9,126.14c-0.01-0.02-0.02-0.05-0.03-0.07
				C77.87,126.09,77.89,126.12,77.9,126.14 M77.86,126.07c-4.52-8.91-5.12-21.69-1.64-35.38h0
				C72.75,104.38,73.34,117.15,77.86,126.07"/>
			<path class="st0" d="M135.13,57.89v-0.01c-0.33-0.29-0.67-0.55-1.02-0.79l0,0c-4.08-2.88-9.76-3.14-16.16-0.23L92.16,88.74
				c-1.46,4.54-2.28,9.12-2.28,13.45c0,6.42,1.8,11.32,4.83,14.4l0.07,0c4.61,4.63,12.04,5.11,20.47,0.24
				c14.01-8.09,25.37-27.76,25.37-43.94C140.62,66.02,138.56,60.9,135.13,57.89"/>
			<g>
				<defs>
					<path id="SVGID_1_" d="M140.62,72.89c0,16.18-11.36,35.85-25.37,43.94c-14.01,8.09-25.37,1.53-25.37-14.65
						c0-16.18,11.36-35.85,25.37-43.94C129.26,50.16,140.62,56.71,140.62,72.89"/>
				</defs>
				<use xlink:href="#SVGID_1_"  style="overflow:visible;fill:#121212;"/>
				<clipPath id="SVGID_2_">
					<use xlink:href="#SVGID_1_"  style="overflow:visible;"/>
				</clipPath>
				<path class="st1" d="M122.31,61.88c0,16.18-11.36,35.85-25.37,43.94c-14.01,8.09-25.37,1.53-25.37-14.65
					s11.36-35.85,25.37-43.94C110.95,39.14,122.31,45.7,122.31,61.88"/>
				<path class="st1" d="M100.69,67.18c0.21,0.66,0.32,1.42,0.32,2.28c0,4.62-3.25,10.24-7.25,12.55c-1.33,0.77-2.58,1.07-3.65,0.96
					c0.91,2.89,3.67,3.79,6.93,1.91c4-2.31,7.25-7.93,7.25-12.55C104.29,69.24,102.84,67.39,100.69,67.18"/>
				<path class="st1" d="M108.93,49.56l-2.66,6.85c1.32,0.35,2.47,1.01,3.43,1.98l4.6-5.72C112.85,51.06,111.04,50.02,108.93,49.56
					L108.93,49.56z"/>
				<path class="st1" d="M103.33,56.13l2.66-6.84c-2.32,0.06-4.78,0.73-7.34,1.97v6.13C100.27,56.66,101.84,56.23,103.33,56.13
					L103.33,56.13z"/>
				<path class="st1" d="M95.24,59.36v-6.14c-2.56,1.71-5.02,3.9-7.33,6.5l2.65,3.78C92.04,61.89,93.61,60.5,95.24,59.36
					L95.24,59.36z"/>
				<use xlink:href="#SVGID_1_"  style="overflow:visible;fill:none;stroke:#898989;stroke-miterlimit:10;"/>
			</g>
			<path class="st0" d="M136.76,91.61c-0.1-0.06-0.21-0.12-0.32-0.18c2.64-6.15,4.18-12.57,4.18-18.53c0-6.87-2.05-11.99-5.48-15
				v-0.01c-0.33-0.29-0.67-0.55-1.02-0.79l0,0c-2.13-1.5-4.68-2.29-7.56-2.29c-1.56,0-3.2,0.23-4.93,0.71v0
				c-1.5,0.42-3.06,1.02-4.65,1.82c-0.57,0.29-1.15,0.6-1.73,0.93c-1.3,0.75-2.58,1.6-3.83,2.55c-2.91,2.19-5.65,4.86-8.15,7.84
				c-0.87,1.05-1.71,2.13-2.53,3.25c-2.04,2.83-3.87,5.88-5.42,9.03c-0.07,0.14-0.14,0.29-0.21,0.43c-0.2-0.01-0.4-0.01-0.59-0.02
				c0.6-1.32,1.25-2.65,1.95-3.97c8.17-15.33,20.74-25.25,30.72-25.25c2.17,0,4.23,0.47,6.08,1.46
				C142.57,58.52,143.8,74.83,136.76,91.61"/>
			<path class="st0" d="M136.44,91.42c-5.35-3.03-11.91-5.69-19.94-7.52c3.63-7.16,5.81-14.93,5.81-22.02
				c0-2.33-0.23-4.46-0.68-6.38c1.72-0.48,3.37-0.71,4.93-0.71c2.87,0,5.43,0.79,7.56,2.29l0,0c0.35,0.25,0.69,0.51,1.02,0.79v0.01
				c3.43,3.01,5.48,8.13,5.48,15C140.62,78.85,139.08,85.27,136.44,91.42"/>
		</g>
	</g>
</g>
</svg>
