<?xml version="1.0" encoding="utf-8"?>
<!-- Generator: Adobe Illustrator 23.0.2, SVG Export Plug-In . SVG Version: 6.00 Build 0)  -->
<svg version="1.1" id="Layer_1" xmlns="http://www.w3.org/2000/svg" xmlns:xlink="http://www.w3.org/1999/xlink" x="0px" y="0px"
	 width="136.6px" height="130.25px" viewBox="0 0 136.6 130.25" style="enable-background:new 0 0 136.6 130.25;"
	 xml:space="preserve">
<style type="text/css">
	.st0{fill:#121212;stroke:#898989;stroke-miterlimit:10;}
	.st1{clip-path:url(#SVGID_2_);fill:#121212;stroke:#898989;stroke-miterlimit:10;}
	.st2{clip-path:url(#SVGID_4_);fill:#121212;stroke:#898989;stroke-miterlimit:10;}
	.st3{fill:none;}
	.st4{fill:#121212;stroke:#898989;stroke-linejoin:round;stroke-miterlimit:10;}
	.st5{fill:#121212;stroke:#F1E827;stroke-miterlimit:10;}
</style>
<g>
	<g>
		<path class="st0" d="M14.57,101.32l44.64,24.93c15.85,8.61,40.13-6.26,54.24-33.2c14.11-26.94,12.7-55.75-3.15-64.35L65.66,3.76
			c-15.85-8.6-40.13,6.27-54.24,33.21C-2.69,63.9-1.28,92.71,14.57,101.32"/>
		<path class="st0" d="M69.86,112.42c-10.37-5.53-10.7-25.14-0.75-43.81c9.95-18.67,26.43-29.32,36.8-23.79
			c10.37,5.53,10.7,25.14,0.75,43.81C96.71,107.3,80.23,117.95,69.86,112.42 M112.7,28.28c-16.37-8.73-41.46,6.35-56.04,33.69
			c-14.58,27.34-13.12,56.57,3.25,65.31c16.37,8.73,41.46-6.36,56.04-33.69C130.53,66.24,129.07,37.01,112.7,28.28"/>
		<path class="st0" d="M56.66,61.97c14.58-27.34,39.66-42.42,56.04-33.69L66.58,2.98C50.21-5.75,25.13,9.33,10.55,36.67
			C-4.03,64.01-2.57,93.24,13.8,101.97l46.11,25.3C43.54,118.55,42.09,89.31,56.66,61.97"/>
		<path class="st0" d="M105.91,44.82c-3.9-2.08-8.67-1.87-13.63,0.2c1.73,8.73-0.47,20.74-6.68,32.38
			c-6.21,11.64-14.95,20.16-23.17,23.59c1.05,5.27,3.53,9.35,7.43,11.43c10.37,5.53,26.84-5.12,36.8-23.79
			C116.61,69.96,116.28,50.35,105.91,44.82"/>
		<path class="st0" d="M33.49,49.45C48.09,22.08,73.2,6.98,89.6,15.72l-3.08-1.64l-0.39-0.21l-3.08-1.64
			c-16.39-8.74-41.51,6.36-56.1,33.73c-14.59,27.37-13.14,56.64,3.25,65.38l3.08,1.64l0.4,0.21l3.08,1.64
			C20.35,106.1,18.9,76.82,33.49,49.45"/>
		<path class="st0" d="M34,113.08l-6.98-3.83c-0.03-0.03-0.06-0.05-0.1-0.08c-8.89-7.19-11.95-21.71-8.92-38.17
			c2.12,1.2,4.33,2.39,6.56,3.51c-3.07,16.71,0.14,31.44,9.35,38.5C33.94,113.03,33.97,113.06,34,113.08"/>
		<path class="st0" d="M87.57,68.07c-0.42-0.34-1.04-0.35-1.74,0.05c-1.26,0.73-2.28,2.49-2.28,3.94c0,0.74,0.27,1.25,0.69,1.48
			l0,0.01l46.9,27.08l4.64-4.54L87.57,68.07L87.57,68.07z"/>
		<path class="st0" d="M59.48,127.04L59.48,127.04L59.48,127.04L59.48,127.04 M59.48,127.04c-0.02-0.01-0.04-0.02-0.06-0.03
			C59.44,127.01,59.46,127.03,59.48,127.04 M59.4,126.99c-0.02-0.01-0.04-0.03-0.06-0.03C59.36,126.97,59.38,126.98,59.4,126.99
			 M59.33,126.95c-0.02-0.01-0.04-0.02-0.06-0.03C59.29,126.93,59.31,126.94,59.33,126.95 M59.26,126.91
			c-0.02-0.01-0.04-0.02-0.06-0.03C59.22,126.89,59.24,126.9,59.26,126.91 M59.19,126.87c-0.02-0.01-0.04-0.03-0.06-0.03
			C59.15,126.85,59.17,126.86,59.19,126.87 M59.12,126.83c-0.02-0.01-0.04-0.03-0.06-0.04C59.08,126.8,59.1,126.82,59.12,126.83
			 M59.05,126.79c-0.02-0.01-0.04-0.02-0.06-0.03C59.01,126.77,59.03,126.78,59.05,126.79 M58.98,126.75
			c-0.02-0.01-0.04-0.03-0.06-0.04C58.94,126.72,58.96,126.74,58.98,126.75 M58.91,126.71c-0.02-0.01-0.04-0.03-0.06-0.04
			C58.87,126.68,58.89,126.69,58.91,126.71 M58.84,126.66c-0.02-0.01-0.04-0.03-0.06-0.04C58.8,126.64,58.82,126.65,58.84,126.66
			 M58.77,126.62c-0.02-0.01-0.04-0.03-0.06-0.04C58.73,126.6,58.75,126.61,58.77,126.62 M58.7,126.58
			c-0.02-0.02-0.04-0.03-0.07-0.04C58.66,126.55,58.68,126.56,58.7,126.58 M58.64,126.54c-0.02-0.02-0.04-0.03-0.07-0.04
			C58.59,126.51,58.61,126.52,58.64,126.54 M58.57,126.49c-0.02-0.01-0.05-0.03-0.07-0.04C58.52,126.46,58.54,126.48,58.57,126.49
			 M58.5,126.45c-7.88-5.05-11.89-15.22-11.88-27.59c0-5.32,0.74-11.03,2.24-16.92c0,0,0,0,0,0c-3.28,12.9-2.94,24.98,0.89,33.79
			c0,0,0,0.01,0,0.01c0.01,0.02,0.02,0.04,0.03,0.06c0.01,0.01,0.01,0.03,0.02,0.04c0.01,0.01,0.01,0.03,0.02,0.04
			c0.01,0.02,0.01,0.03,0.02,0.05c0,0,0,0,0,0C51.81,120.4,54.71,124.02,58.5,126.45"/>
		<path class="st0" d="M49.83,115.92C49.83,115.92,49.83,115.92,49.83,115.92C49.83,115.92,49.83,115.92,49.83,115.92 M49.81,115.87
			c-0.01-0.01-0.01-0.03-0.02-0.04C49.8,115.85,49.8,115.86,49.81,115.87 M49.78,115.8c-0.01-0.02-0.02-0.04-0.03-0.06
			C49.76,115.76,49.77,115.78,49.78,115.8 M49.75,115.73c-3.83-8.81-4.16-20.89-0.89-33.79c0,0,0,0,0,0
			C45.59,94.84,45.92,106.92,49.75,115.73"/>
		<path class="st0" d="M84.24,91.82l35.15,20.29l4.67-4.56l-36.5-21.21c-0.42-0.34-1.04-0.35-1.74,0.05
			c-1.26,0.73-2.28,2.49-2.28,3.94C83.55,91.07,83.82,91.58,84.24,91.82L84.24,91.82L84.24,91.82z"/>
	</g>
</g>
</svg>
