<?xml version="1.0" encoding="utf-8"?>
<!-- Generator: Adobe Illustrator 23.0.2, SVG Export Plug-In . SVG Version: 6.00 Build 0)  -->
<svg version="1.1" id="Layer_1" xmlns="http://www.w3.org/2000/svg" xmlns:xlink="http://www.w3.org/1999/xlink" x="0px" y="0px"
	 width="126.49px" height="130.25px" viewBox="0 0 126.49 130.25" style="enable-background:new 0 0 126.49 130.25;"
	 xml:space="preserve">
<style type="text/css">
	.st0{fill:#121212;stroke:#898989;stroke-miterlimit:10;}
	.st1{clip-path:url(#SVGID_2_);fill:#121212;stroke:#898989;stroke-miterlimit:10;}
	.st2{clip-path:url(#SVGID_4_);fill:#121212;stroke:#898989;stroke-miterlimit:10;}
	.st3{fill:none;}
	.st4{fill:#121212;stroke:#898989;stroke-linejoin:round;stroke-miterlimit:10;}
	.st5{fill:#121212;stroke:#F1E827;stroke-miterlimit:10;}
</style>
<g>
	<g>
		<g>
			<path class="st0" d="M69.86,112.42c-10.37-5.53-10.7-25.14-0.75-43.81c9.95-18.67,26.43-29.32,36.8-23.79
				c10.37,5.53,10.71,25.14,0.75,43.81C96.7,107.3,80.23,117.95,69.86,112.42 M112.7,28.28c-16.37-8.73-41.46,6.35-56.03,33.69
				s-13.12,56.58,3.25,65.31c16.37,8.73,41.46-6.35,56.03-33.69C130.52,66.25,129.07,37.01,112.7,28.28"/>
			<path class="st0" d="M56.66,61.97c14.58-27.34,39.66-42.42,56.03-33.69L66.58,2.98C50.21-5.75,25.12,9.33,10.55,36.67
				C-4.03,64.01-2.57,93.24,13.8,101.97l46.12,25.3C43.54,118.55,42.09,89.31,56.66,61.97"/>
			<path class="st0" d="M105.91,44.82c-3.9-2.08-8.67-1.87-13.63,0.2c1.73,8.73-0.47,20.74-6.68,32.38
				c-6.21,11.64-14.95,20.16-23.17,23.59c1.05,5.27,3.53,9.35,7.43,11.43c10.37,5.53,26.84-5.12,36.8-23.79
				C116.61,69.96,116.28,50.35,105.91,44.82"/>
			<path class="st0" d="M100.44,43.4c-2.58-0.1-5.33,0.45-8.16,1.62c1.73,8.73-0.47,20.74-6.68,32.38
				c-6.21,11.64-14.95,20.16-23.17,23.59c0.6,3,1.67,5.6,3.2,7.68C75.69,109.06,108.22,74.88,100.44,43.4"/>
			<path class="st0" d="M77.19,9.11c-0.01-0.01-0.03-0.01-0.04-0.02l-0.93-0.49L77.19,9.11"/>
			<path class="st0" d="M26.85,109.56L26.85,109.56l-0.97-0.52c-1.21-0.65-2.35-1.41-3.4-2.28l1.02,0.56
				C24.54,108.18,25.66,108.92,26.85,109.56"/>
			<path class="st0" d="M79.7,10.45l-1.01-0.54c0.01,0.01,0.03,0.02,0.04,0.02L79.7,10.45"/>
			<path class="st0" d="M33.49,49.45c14.6-27.37,39.71-42.47,56.1-33.73l-3.08-1.64l-0.39-0.21l-3.08-1.65
				c-16.39-8.74-41.51,6.36-56.1,33.73c-14.59,27.37-13.14,56.64,3.26,65.38l3.08,1.65l0.4,0.21l3.08,1.64
				C20.35,106.1,18.9,76.82,33.49,49.45"/>
			<path class="st0" d="M41.73,117.49l-0.97-0.51c-0.85-0.46-1.67-0.97-2.44-1.53l1.05,0.57C40.12,116.56,40.91,117.05,41.73,117.49
				"/>
			<path class="st0" d="M94.58,18.38c-0.01-0.01-0.03-0.01-0.04-0.02l-0.93-0.49L94.58,18.38"/>
			<path class="st0" d="M44.25,118.84L44.25,118.84l-0.97-0.52c-0.78-0.41-1.52-0.87-2.23-1.38l1.06,0.58
				C42.79,118,43.5,118.44,44.25,118.84"/>
			<path class="st0" d="M97.09,19.72l-1.01-0.54c0.02,0.01,0.03,0.02,0.04,0.02L97.09,19.72"/>
			<path class="st0" d="M59.97,127.31c-0.02-0.01-0.04-0.02-0.06-0.03c-0.14-0.07-0.28-0.15-0.42-0.23l0,0
				c0.01,0.01,0.03,0.02,0.04,0.02c0,0,0.01,0.01,0.02,0.01c0.02,0.01,0.04,0.02,0.06,0.03c0,0,0,0,0.01,0
				c0.02,0.01,0.04,0.02,0.06,0.03c0.01,0,0.01,0.01,0.02,0.01c0.02,0.01,0.04,0.02,0.06,0.03c0,0,0,0,0,0
				c0.02,0.01,0.04,0.02,0.06,0.03c0.01,0,0.01,0.01,0.02,0.01c0.02,0.01,0.04,0.02,0.06,0.03l0,0l0,0l0,0l0,0l0,0
				C59.93,127.29,59.95,127.3,59.97,127.31"/>
			<path class="st0" d="M112.76,28.31c-0.02-0.01-0.04-0.02-0.06-0.03l0,0l0,0c0,0,0,0,0.01,0.01
				C112.72,28.29,112.74,28.3,112.76,28.31 M112.57,28.21c-0.1-0.05-0.21-0.11-0.31-0.16c0,0,0,0,0,0
				C112.36,28.1,112.46,28.16,112.57,28.21"/>
			<path class="st0" d="M59.91,127.28L59.91,127.28L59.91,127.28l-0.41-0.22c-0.01,0-0.02-0.01-0.02-0.01L59.91,127.28
				 M59.91,127.28c-0.02-0.01-0.04-0.02-0.06-0.03C59.87,127.25,59.89,127.27,59.91,127.28L59.91,127.28 M59.83,127.23
				c-0.02-0.01-0.04-0.03-0.06-0.03C59.79,127.21,59.81,127.22,59.83,127.23 M59.76,127.2c-0.02-0.01-0.04-0.02-0.06-0.03
				C59.72,127.17,59.74,127.19,59.76,127.2 M59.69,127.16c-0.02-0.01-0.04-0.02-0.06-0.03C59.65,127.13,59.67,127.14,59.69,127.16
				 M59.62,127.12c-0.02-0.01-0.04-0.02-0.06-0.03C59.58,127.1,59.6,127.11,59.62,127.12 M59.55,127.08
				c-0.02-0.01-0.03-0.02-0.04-0.02l0,0C59.52,127.06,59.53,127.07,59.55,127.08 M59.48,127.04
				C59.48,127.04,59.48,127.04,59.48,127.04C59.48,127.04,59.48,127.04,59.48,127.04 M59.42,127C59.42,127,59.42,127,59.42,127
				c-0.01,0-0.01,0-0.02-0.01l0,0C59.41,127,59.41,127,59.42,127 M112.7,28.28c-0.04-0.02-0.09-0.05-0.13-0.07
				c-0.1-0.05-0.21-0.11-0.31-0.16C112.4,28.12,112.55,28.2,112.7,28.28L112.7,28.28"/>
			<path class="st0" d="M59.5,127.05l-17.39-9.53c-0.03-0.02-0.06-0.04-0.09-0.06l17.46,9.58C59.49,127.04,59.49,127.05,59.5,127.05
				"/>
			<path class="st0" d="M59.39,126.99c-0.02-0.01-0.03-0.02-0.05-0.03c0,0,0,0,0,0C59.36,126.97,59.37,126.98,59.39,126.99
				 M59.33,126.96c-0.02-0.01-0.04-0.02-0.06-0.03c0,0,0.01,0.01,0.01,0.01c0.01,0.01,0.02,0.02,0.03,0.02
				C59.32,126.95,59.33,126.95,59.33,126.96 M59.26,126.91c-0.02-0.01-0.04-0.03-0.06-0.04c0.02,0.01,0.03,0.02,0.04,0.03
				C59.24,126.91,59.25,126.91,59.26,126.91C59.26,126.91,59.26,126.91,59.26,126.91 M59.19,126.87c-0.02-0.01-0.04-0.02-0.06-0.03
				c0.01,0.01,0.02,0.01,0.03,0.02l0,0C59.17,126.86,59.18,126.87,59.19,126.87 M59.12,126.83c-0.02-0.01-0.04-0.03-0.06-0.04
				C59.08,126.81,59.1,126.82,59.12,126.83 M59.05,126.79c-0.02-0.01-0.04-0.03-0.06-0.03C59.01,126.77,59.03,126.78,59.05,126.79
				 M58.98,126.75c-0.02-0.01-0.04-0.03-0.06-0.04C58.94,126.72,58.96,126.74,58.98,126.75 M58.91,126.71
				c-0.02-0.01-0.04-0.03-0.06-0.03C58.87,126.68,58.89,126.69,58.91,126.71 M58.84,126.66c-0.02-0.01-0.04-0.03-0.06-0.04
				C58.8,126.64,58.82,126.65,58.84,126.66 M58.77,126.62c-0.02-0.01-0.04-0.03-0.06-0.04C58.73,126.6,58.75,126.61,58.77,126.62
				 M58.71,126.58c-0.02-0.01-0.04-0.03-0.07-0.04C58.66,126.55,58.68,126.57,58.71,126.58 M58.64,126.54
				c-0.02-0.02-0.04-0.03-0.07-0.04C58.59,126.51,58.61,126.52,58.64,126.54 M58.57,126.49c-0.03-0.01-0.05-0.03-0.07-0.04
				C58.52,126.46,58.54,126.48,58.57,126.49 M58.5,126.45c-7.88-5.05-11.89-15.22-11.89-27.58c0-5.32,0.74-11.04,2.24-16.92h0
				c-3.48,13.69-2.88,26.47,1.64,35.38v0c0.01,0.02,0.03,0.05,0.03,0.07c0,0.01,0.01,0.01,0.01,0.02c0.01,0.02,0.02,0.03,0.03,0.04
				c0,0.01,0.01,0.02,0.02,0.03c0,0.01,0.01,0.02,0.01,0.02c0.01,0.03,0.03,0.05,0.04,0.08l0,0
				C52.57,121.31,55.19,124.33,58.5,126.45"/>
			<path class="st0" d="M38.33,115.45L34,113.08c-0.03-0.02-0.06-0.05-0.09-0.07l4.33,2.37C38.27,115.41,38.29,115.43,38.33,115.45"
				/>
			<path class="st0" d="M27.02,109.25l-3.52-1.93c-0.03-0.03-0.07-0.05-0.1-0.08l3.52,1.93C26.96,109.2,26.99,109.23,27.02,109.25"
				/>
			<path class="st0" d="M34,113.08l-6.98-3.83c-0.03-0.03-0.07-0.05-0.1-0.08c-8.89-7.19-11.95-21.71-8.92-38.17
				c2.12,1.2,4.33,2.38,6.56,3.51c-3.07,16.71,0.14,31.44,9.35,38.5C33.94,113.03,33.97,113.06,34,113.08"/>
			<path class="st0" d="M59.85,127.24c-0.01,0-0.01-0.01-0.02-0.01C59.84,127.24,59.84,127.24,59.85,127.24 M59.77,127.2
				C59.77,127.2,59.77,127.2,59.77,127.2S59.77,127.2,59.77,127.2 M59.7,127.17c-0.01,0-0.01-0.01-0.02-0.01
				C59.69,127.16,59.7,127.16,59.7,127.17 M59.62,127.12C59.62,127.12,59.62,127.12,59.62,127.12
				C59.62,127.12,59.62,127.12,59.62,127.12 M59.56,127.09c-0.01,0-0.01-0.01-0.02-0.01C59.55,127.08,59.55,127.08,59.56,127.09"/>
			<path class="st0" d="M59.91,127.28c-0.02-0.01-0.04-0.02-0.06-0.03c-0.01,0-0.01-0.01-0.02-0.01c-0.02-0.01-0.04-0.03-0.06-0.03
				c0,0,0,0,0,0c-0.02-0.01-0.04-0.02-0.06-0.03c-0.01,0-0.01-0.01-0.02-0.01c-0.02-0.01-0.04-0.02-0.06-0.03c0,0,0,0-0.01,0
				c-0.02-0.01-0.04-0.02-0.06-0.03c-0.01,0-0.01-0.01-0.02-0.01c-0.01-0.01-0.03-0.02-0.04-0.02L59.91,127.28"/>
			<path class="st0" d="M59.5,127.05L59.5,127.05c-0.01-0.01-0.02-0.01-0.02-0.01l0,0C59.49,127.04,59.49,127.05,59.5,127.05"/>
			<path class="st0" d="M59.48,127.04L59.48,127.04L59.48,127.04L59.48,127.04 M59.48,127.04c-0.02-0.01-0.04-0.02-0.06-0.03
				C59.44,127.02,59.46,127.03,59.48,127.04"/>
			<path class="st0" d="M59.5,127.05L59.5,127.05c-0.01-0.01-0.02-0.01-0.02-0.01l0,0l0,0C59.49,127.04,59.5,127.05,59.5,127.05
				 M59.48,127.04L59.48,127.04c-0.02-0.01-0.04-0.03-0.07-0.04c0,0,0,0,0,0C59.44,127.02,59.46,127.03,59.48,127.04
				C59.48,127.04,59.48,127.04,59.48,127.04L59.48,127.04"/>
			<path class="st0" d="M59.4,127c0,0-0.01-0.01-0.01-0.01c-0.02-0.01-0.03-0.02-0.05-0.03C59.36,126.97,59.38,126.98,59.4,127"/>
			<path class="st0" d="M59.4,127c0,0-0.01-0.01-0.01-0.01C59.4,126.99,59.4,126.99,59.4,127L59.4,127"/>
			<path class="st0" d="M59.32,126.95c-0.01-0.01-0.02-0.01-0.03-0.02C59.3,126.94,59.31,126.94,59.32,126.95 M59.25,126.91
				c0,0-0.01-0.01-0.01-0.01C59.25,126.91,59.25,126.91,59.25,126.91 M59.16,126.85L59.16,126.85L59.16,126.85 M50.64,117.6
				L50.64,117.6L50.64,117.6 M50.59,117.51c-0.01-0.01-0.01-0.01-0.01-0.02C50.58,117.5,50.59,117.51,50.59,117.51 M50.57,117.46
				c-0.01-0.01-0.02-0.03-0.03-0.04C50.55,117.43,50.56,117.45,50.57,117.46 M50.53,117.4c-0.01-0.02-0.02-0.05-0.03-0.07
				C50.51,117.35,50.52,117.37,50.53,117.4 M50.5,117.32c-4.52-8.91-5.12-21.69-1.64-35.38h0C45.38,95.63,45.98,108.41,50.5,117.32"
				/>
			<path class="st0" d="M107.77,49.15v-0.01c-0.33-0.29-0.67-0.55-1.02-0.79l0,0c-4.08-2.88-9.76-3.14-16.16-0.23L64.79,80
				c-1.46,4.54-2.28,9.12-2.28,13.45c0,6.42,1.8,11.32,4.83,14.4l0.07,0c4.61,4.63,12.04,5.11,20.47,0.24
				c14.01-8.09,25.37-27.76,25.37-43.94C113.25,57.28,111.2,52.15,107.77,49.15"/>
			<g>
				<defs>
					<path id="SVGID_3_" d="M113.25,64.15c0,16.18-11.36,35.85-25.37,43.94c-14.01,8.09-25.37,1.53-25.37-14.65
						c0-16.18,11.36-35.85,25.37-43.94C101.9,41.41,113.25,47.97,113.25,64.15"/>
				</defs>
				<use xlink:href="#SVGID_3_"  style="overflow:visible;fill:#121212;"/>
				<clipPath id="SVGID_2_">
					<use xlink:href="#SVGID_3_"  style="overflow:visible;"/>
				</clipPath>
				<path class="st1" d="M94.95,53.13c0,16.18-11.36,35.85-25.37,43.94c-14.01,8.09-25.37,1.53-25.37-14.65s11.36-35.85,25.37-43.94
					C83.59,30.4,94.95,36.95,94.95,53.13"/>
				<path class="st1" d="M73.33,58.44c0.21,0.66,0.32,1.42,0.32,2.28c0,4.62-3.25,10.24-7.25,12.55c-1.33,0.77-2.58,1.07-3.65,0.96
					c0.91,2.89,3.67,3.79,6.93,1.91c4-2.31,7.25-7.93,7.25-12.55C76.92,60.5,75.48,58.65,73.33,58.44"/>
				<path class="st1" d="M81.57,40.81l-2.66,6.85c1.32,0.35,2.47,1.01,3.43,1.98l4.6-5.72C85.48,42.32,83.68,41.28,81.57,40.81
					L81.57,40.81z"/>
				<path class="st1" d="M75.96,47.39l2.66-6.84c-2.32,0.06-4.78,0.73-7.34,1.97v6.13C72.91,47.91,74.48,47.49,75.96,47.39
					L75.96,47.39z"/>
				<path class="st1" d="M67.87,50.62v-6.14c-2.56,1.71-5.02,3.9-7.33,6.5l2.65,3.78C64.68,53.15,66.25,51.76,67.87,50.62
					L67.87,50.62z"/>
				<use xlink:href="#SVGID_3_"  style="overflow:visible;fill:none;stroke:#898989;stroke-miterlimit:10;"/>
			</g>
			<path class="st0" d="M109.4,82.86c-0.1-0.06-0.21-0.12-0.32-0.18c2.64-6.15,4.18-12.57,4.18-18.53c0-6.87-2.05-11.99-5.48-15
				v-0.01c-0.33-0.29-0.67-0.55-1.02-0.79l0,0c-2.13-1.5-4.68-2.29-7.56-2.29c-1.56,0-3.2,0.23-4.93,0.71v0
				c-1.5,0.42-3.06,1.02-4.65,1.82c-0.57,0.29-1.15,0.6-1.73,0.93c-1.3,0.75-2.58,1.6-3.83,2.55c-2.91,2.19-5.65,4.86-8.15,7.84
				c-0.87,1.05-1.71,2.13-2.53,3.25c-2.04,2.83-3.87,5.88-5.42,9.03c-0.07,0.14-0.14,0.29-0.21,0.43c-0.2-0.01-0.4-0.01-0.59-0.02
				c0.6-1.32,1.25-2.65,1.95-3.97c8.17-15.33,20.74-25.25,30.72-25.25c2.17,0,4.23,0.47,6.08,1.46
				C115.21,49.78,116.43,66.08,109.4,82.86"/>
			<path class="st0" d="M109.08,82.68c-5.35-3.03-11.91-5.69-19.94-7.52c3.63-7.16,5.81-14.93,5.81-22.02
				c0-2.33-0.23-4.46-0.68-6.38c1.72-0.48,3.37-0.71,4.93-0.71c2.87,0,5.43,0.79,7.56,2.29l0,0c0.35,0.25,0.69,0.51,1.02,0.79v0.01
				c3.43,3.01,5.48,8.13,5.48,15C113.25,70.1,111.72,76.53,109.08,82.68"/>
		</g>
		<path class="st0" d="M13.21,10.9l11.21,6.49c1.46-1.68,2.95-3.3,4.48-4.78l-12.36-7.2c-0.42-0.34-1.04-0.35-1.74,0.05
			c-1.26,0.73-2.28,2.49-2.28,3.94C12.52,10.15,12.79,10.66,13.21,10.9L13.21,10.9L13.21,10.9z"/>
		<path class="st0" d="M3.58,34.17l6,3.47c0.65-1.39,1.32-2.78,2.06-4.16c0.28-0.52,0.59-1.01,0.87-1.53l-5.61-3.27
			c-0.42-0.33-1.04-0.35-1.74,0.05c-1.26,0.73-2.28,2.49-2.28,3.94C2.89,33.42,3.16,33.94,3.58,34.17L3.58,34.17L3.58,34.17z"/>
	</g>
</g>
</svg>
