<?xml version="1.0" encoding="utf-8"?>
<!-- Generator: Adobe Illustrator 23.0.2, SVG Export Plug-In . SVG Version: 6.00 Build 0)  -->
<svg version="1.1" id="Layer_1" xmlns="http://www.w3.org/2000/svg" xmlns:xlink="http://www.w3.org/1999/xlink" x="0px" y="0px"
	 width="194.82px" height="124.05px" viewBox="0 0 194.82 124.05" style="enable-background:new 0 0 194.82 124.05;"
	 xml:space="preserve">
<style type="text/css">
	.st0{fill:#121212;stroke:#898989;stroke-linejoin:round;stroke-miterlimit:10;}
	.st1{fill:#121212;stroke:#898989;stroke-miterlimit:10;}
</style>
<polygon class="st0" points="0.5,52.51 0.5,100.95 38.89,123.2 38.89,74.76 "/>
<path class="st0" d="M194.32,34.98C162.35,33.64,39.25,74.87,39.25,74.87L0.51,52.14c0,0,123.1-41.23,155.07-39.89L194.32,34.98
	L194.32,34.98z"/>
<path class="st1" d="M192.52,35.64C160.85,34.32,38.89,74.86,38.89,74.86v48.33L192.52,35.64L192.52,35.64z"/>
<path class="st0" d="M121.19,3.48L20.05,63.38c0,0,58.2-19.48,101.37-29.69l0.26-1.21l0.56-28.59L121.19,3.48z"/>
<polygon class="st1" points="121.68,3.19 117.25,0.58 14.77,60.79 19.18,63.38 "/>
</svg>
