<?xml version="1.0" encoding="UTF-8"?> <!-- Generator: Adobe Illustrator 24.0.1, SVG Export Plug-In . SVG Version: 6.00 Build 0) --> <svg xmlns="http://www.w3.org/2000/svg" xmlns:xlink="http://www.w3.org/1999/xlink" version="1.1" id="Layer_1" x="0px" y="0px" viewBox="0 0 595.28 595.28" style="enable-background:new 0 0 595.28 595.28;" xml:space="preserve"> <style type="text/css"> .st0{fill:#BBBBBB;} .st1{fill:#EDDB00;} .st2{fill:#FFFFFF;} </style> <g> <path d="M510.29,111.81c0-26.91-26.91-26.91-26.91-26.91H112c-26.91,0-26.91,26.91-26.91,26.91h0.08 c-0.01,0.03-0.08,0.06-0.08,0.09v371.29c0,26.91,26.91,26.91,26.91,26.91h371.38c26.91,0,26.91-26.91,26.91-26.91V111.89 c0-0.03-0.07-0.06-0.08-0.09H510.29z"></path> <g> <path class="st0" d="M176.58,381.55c0-67.46,54.71-122.17,122.17-122.17c67.48,0,122.19,54.71,122.19,122.17h30.55 c0-84.34-68.38-152.71-152.74-152.71c-84.33,0-152.71,68.38-152.71,152.71H176.58z"></path> <path class="st1" d="M237.67,381.56c0-33.74,27.35-61.09,61.08-61.09c33.75,0,61.1,27.35,61.1,61.09h30.55 c0-50.61-41.03-91.63-91.64-91.63c-50.6,0-91.63,41.03-91.63,91.63H237.67z"></path> <path class="st2" d="M268.22,381.56c0-16.87,13.68-30.55,30.55-30.55s30.55,13.68,30.55,30.55H268.22z"></path> <path class="st2" d="M168.92,442.03c3.94,0,6.21-1.53,6.21-4.27v-0.13c0-2.54-2.01-4.21-6.35-4.21h-9.88v8.62H168.92z M167.05,424.32c3.94,0,6.14-1.33,6.14-4.07v-0.13c0-2.54-2-4.01-5.88-4.01h-8.42v8.22H167.05z M146.27,405.69h23.98 c5.88,0,10.02,1.47,12.76,4.21c1.87,1.87,3,4.34,3,7.55v0.13c0,5.41-3.07,8.62-7.22,10.42c5.68,1.87,9.29,5.07,9.29,11.42v0.13 c0,8.02-6.55,12.89-17.71,12.89h-24.11V405.69z"></path> <path class="st2" d="M229.58,429.2v-0.13c0-6.75-4.88-12.63-12.03-12.63c-7.08,0-11.82,5.75-11.82,12.49v0.13 c0,6.75,4.88,12.63,11.96,12.63C224.83,441.7,229.58,435.95,229.58,429.2 M192.44,429.2v-0.13c0-13.42,10.82-24.31,25.25-24.31 c14.43,0,25.12,10.75,25.12,24.18v0.13c0,13.43-10.82,24.31-25.25,24.31C203.13,453.38,192.44,442.63,192.44,429.2"></path> </g> <polygon class="st2" points="249.56,405.69 261.65,405.69 280.89,430.4 280.89,405.69 293.71,405.69 293.71,452.45 282.35,452.45 262.38,426.8 262.38,452.45 249.56,452.45 "></polygon> <polygon class="st2" points="301.33,405.69 338.74,405.69 338.74,417.05 314.29,417.05 314.29,424.99 336.4,424.99 336.4,435.75 314.29,435.75 314.29,452.45 301.33,452.45 "></polygon> <rect x="344.89" y="405.69" class="st2" width="13.03" height="46.76"></rect> <g> <path class="st2" d="M386.31,428.13c4.41,0,6.95-2.14,6.95-5.54v-0.14c0-3.67-2.67-5.54-7.02-5.54h-8.48v11.22H386.31z M364.8,405.69h22.11c7.15,0,12.09,1.87,15.23,5.08c2.74,2.67,4.14,6.28,4.14,10.88v0.13c0,7.15-3.81,11.9-9.62,14.36l11.16,16.3 h-14.96l-9.42-14.16h-5.68v14.16H364.8V405.69z"></path> </g> <polygon class="st2" points="412.84,405.69 450.45,405.69 450.45,416.71 425.66,416.71 425.66,423.79 448.11,423.79 448.11,434.01 425.66,434.01 425.66,441.43 450.78,441.43 450.78,452.45 412.84,452.45 "></polygon> </g> </svg> 