<?xml version="1.0" encoding="utf-8"?>
<!-- Generator: Adobe Illustrator 23.0.2, SVG Export Plug-In . SVG Version: 6.00 Build 0)  -->
<svg version="1.1" id="Layer_1" xmlns="http://www.w3.org/2000/svg" xmlns:xlink="http://www.w3.org/1999/xlink" x="0px" y="0px"
	 width="519.47px" height="381.93px" viewBox="0 0 519.47 381.93" style="enable-background:new 0 0 519.47 381.93;"
	 xml:space="preserve">
<style type="text/css">
	.st0{fill:#121212;stroke:#F1E827;stroke-miterlimit:10;}
	.st1{fill:#121212;stroke:#898989;stroke-miterlimit:10;}
	.st2{fill:#121212;stroke:#898989;stroke-linejoin:round;stroke-miterlimit:10;}
	.st3{fill:none;}
</style>
<path class="st1" d="M497.37,125.52c-10.1-5.86-24.08-5.03-39.51,3.87c-30.67,17.71-55.45,60.63-55.35,95.87
	c0.05,17.51,6.24,29.82,16.2,35.61L241.95,158.17c-9.97-5.79-16.14-18.11-16.19-35.61c-0.1-35.24,24.68-78.16,55.35-95.87
	c15.43-8.9,29.41-9.74,39.51-3.86L497.37,125.52z"/>
<path class="st1" d="M241.96,158.17L418.7,260.88c-9.06-5.26-14.98-15.91-16.03-30.95L225.93,127.22
	C226.97,142.25,232.9,152.9,241.96,158.17"/>
<polyline class="st1" points="286.67,23.79 272.24,15.41 286.67,23.79 286.67,23.79 "/>
<path class="st1" d="M269.34,34.92c-9.21,7.61-17.56,17.36-24.43,28.17c-12.25,3.29-25.92,9.06-40.33,17.39l25.46,14.79l0,0"/>
<path class="st1" d="M230.03,95.27l-25.46-14.79c-1.83,1.05-3.65,2.14-5.45,3.25"/>
<path class="st1" d="M288.3,30.86l-7.19-4.18c1.88-1.08,3.73-2.05,5.56-2.9l0,0l6.68,3.89C291.65,28.67,289.96,29.73,288.3,30.86"/>
<path class="st1" d="M244.9,63.09c6.87-10.81,15.22-20.56,24.43-28.17l0,0c3.79-3.13,7.73-5.91,11.78-8.24l7.19,4.18
	c-10.96,7.43-21.09,17.7-29.61,29.5C254.34,60.88,249.73,61.79,244.9,63.09"/>
<path class="st1" d="M304.93,4.62l37.57,21.83c-11.11-6.46-26.5-5.54-43.48,4.26L261.44,8.88C278.43-0.92,293.81-1.83,304.93,4.62
	L304.93,4.62z"/>
<path class="st1" d="M255.93,175.4l-37.57-21.83c-10.97-6.38-17.77-19.93-17.82-39.2C200.43,75.6,227.7,28.37,261.44,8.88
	l37.57,21.83C265.27,50.2,238,97.43,238.11,136.21C238.16,155.48,244.96,169.03,255.93,175.4L255.93,175.4z"/>
<path class="st1" d="M320.55,22.78c-6.7,0.97-13.96,3.57-21.53,7.94C265.27,50.2,238,97.43,238.11,136.21
	c0.02,8.43,1.34,15.76,3.73,21.88c6.15,15.73,19.41,23.42,36.1,20.98l-16.82-9.77c-0.82-0.42-1.62-0.89-2.4-1.39
	c-9.29-6.06-15.01-18.09-15.06-34.92c-0.1-35.25,24.69-78.18,55.36-95.89c15.32-8.85,29.22-9.73,39.3-4l0.11,0.07l18.12,10.53
	C350.42,28.03,337.2,20.37,320.55,22.78"/>
<path class="st1" d="M218.36,153.57l37.57,21.83c-10.16-5.91-16.74-17.98-17.7-35.04l-37.57-21.84
	C201.62,135.59,208.2,147.66,218.36,153.57L218.36,153.57z"/>
<path class="st1" d="M120.59,138.3l176.74,102.71c-10.1-5.87-24.08-5.04-39.51,3.87L81.08,142.17
	C96.51,133.26,110.49,132.43,120.59,138.3"/>
<path class="st1" d="M218.67,376.36L41.92,273.65c-9.97-5.79-16.15-18.11-16.2-35.62c-0.1-35.24,24.68-78.16,55.35-95.87
	l176.74,102.71c-30.67,17.71-55.45,60.63-55.35,95.87C202.52,358.25,208.7,370.57,218.67,376.36"/>
<path class="st1" d="M41.92,273.65l176.74,102.71c-9.06-5.26-14.98-15.92-16.03-30.95L25.89,242.7
	C26.94,257.73,32.87,268.39,41.92,273.65"/>
<path class="st1" d="M104.89,120.11l37.57,21.84c-11.11-6.46-26.5-5.55-43.48,4.26l-37.57-21.83
	C78.39,114.56,93.78,113.65,104.89,120.11"/>
<path class="st1" d="M88.26,146.34l-7.19-4.18c1.88-1.08,3.73-2.05,5.56-2.89h0l6.68,3.88C91.62,144.15,89.93,145.21,88.26,146.34"
	/>
<path class="st1" d="M26.39,247.37L26.39,247.37c-0.43-2.92-0.66-6.04-0.67-9.34c-0.09-30.6,18.58-66.98,43.57-87.63l0,0
	c3.79-3.13,7.73-5.91,11.77-8.24l7.19,4.18c-30.72,20.81-54.86,63.99-55.54,100.33l-6.83-3.97
	C26.01,244.31,26.17,245.87,26.39,247.37"/>
<path class="st1" d="M32.76,251.07l-6.37-3.7c-0.22-1.51-0.39-3.06-0.5-4.67l6.83,3.97c-0.01,0.6-0.02,1.21-0.01,1.81
	C32.71,249.36,32.73,250.22,32.76,251.07"/>
<path class="st1" d="M120.51,138.26c-6.7,0.97-13.96,3.57-21.53,7.94c-33.75,19.48-61.02,66.71-60.91,105.49
	c0.02,8.43,1.34,15.77,3.73,21.88c6.15,15.73,19.41,23.42,36.1,20.98l-16.82-9.78c-0.82-0.42-1.62-0.89-2.4-1.39
	c-9.29-6.06-15.01-18.09-15.05-34.92c-0.1-35.25,24.68-78.18,55.36-95.89c15.32-8.85,29.22-9.73,39.3-4l0.11,0.06l18.13,10.53
	C150.38,143.51,137.16,135.85,120.51,138.26L120.51,138.26z"/>
<path class="st2" d="M299.26,135.5l-94.69-55.02c31.55-18.22,59.55-24.24,76.85-18.63l94.68,55.02
	C358.81,111.26,330.82,117.28,299.26,135.5"/>
<path class="st1" d="M299.26,135.5c-29.24,16.88-55.35,40.66-72.72,64.37c-1.38,1.89-2.72,3.77-3.98,5.65
	c6.31-1.06,12.37-0.66,17.37,2.13c0.2,0.11,0.4,0.23,0.6,0.35l25.69,14.93c1.1-4.35,17.44-26.16,33.17-39.68
	c16.37-14.07,35.96-20.96,49.85-21.1c4.91-18.93,15.47-34,26.88-45.28C358.81,111.26,330.82,117.28,299.26,135.5"/>
<path class="st1" d="M222.55,205.52l-94.69-55.02c17.21-25.54,45.15-51.8,76.71-70.02l94.69,55.02
	C267.7,153.72,239.77,179.99,222.55,205.52"/>
<path class="st1" d="M298.92,135.69C298.92,135.69,298.92,135.69,298.92,135.69C298.92,135.69,298.92,135.69,298.92,135.69
	 M299.09,135.6C299.09,135.6,299.09,135.59,299.09,135.6C299.09,135.6,299.09,135.6,299.09,135.6"/>
<path class="st1" d="M18.33,269.05l37.57,21.83c-10.16-5.9-16.74-17.98-17.7-35.04L0.63,234.01
	C1.58,251.07,8.16,263.15,18.33,269.05L18.33,269.05z"/>
<path class="st1" d="M55.9,290.89l-37.57-21.83C7.36,262.68,0.56,249.12,0.5,229.86c-0.11-38.78,27.16-86.01,60.91-105.49
	l37.57,21.83c-33.75,19.48-61.02,66.71-60.91,105.49C38.13,270.96,44.93,284.51,55.9,290.89L55.9,290.89z"/>
<path class="st1" d="M255.79,376.39c21.78-11.79,34.61-25.25,41.54-36.09c10.09-15.79,17.46-23.91,20.25-55.62
	c2.47-27.96-12.73-39.3-20.26-43.67c-8.85-5.14-28.7-3.5-41.4,5c-32.03,21.45-53.42,56.13-53.31,98.81
	c0.03,12.39,6.37,25.18,16.05,31.54C226.93,381.8,241.66,384.31,255.79,376.39C256.27,376.12,254.99,376.85,255.79,376.39z"/>
<path class="st1" d="M456.92,261.65c21.78-11.79,34.61-25.25,41.54-36.09c10.09-15.79,19.48-28,20.48-59.81
	c0.78-24.47-14.35-35.23-21.58-40.23c-9.62-6.64-28.7-3.5-41.4,5.01c-32.03,21.45-53.4,56.72-53.29,99.4
	c0.03,12.39,7.45,25.33,17.12,31.69C428.06,267.06,442.79,269.57,456.92,261.65C457.4,261.38,456.12,262.11,456.92,261.65z"/>
</svg>
