<?xml version="1.0" encoding="utf-8"?>
<!-- Generator: Adobe Illustrator 23.0.2, SVG Export Plug-In . SVG Version: 6.00 Build 0)  -->
<svg version="1.1" id="Layer_1" xmlns="http://www.w3.org/2000/svg" xmlns:xlink="http://www.w3.org/1999/xlink" x="0px" y="0px"
	 width="181.42px" height="197.75px" viewBox="0 0 181.42 197.75" style="enable-background:new 0 0 181.42 197.75;"
	 xml:space="preserve">
<style type="text/css">
	.st0{fill:#121212;stroke:#F1E827;stroke-miterlimit:10;}
	.st1{fill:#121212;stroke:#898989;stroke-miterlimit:10;}
	.st2{fill:#121212;stroke:#898989;stroke-linejoin:round;stroke-miterlimit:10;}
	.st3{fill:none;}
</style>
<path class="st1" d="M101.07,35.63c32.44-18.73,58.83-3.7,58.94,33.59c0.11,37.28-26.11,82.69-58.55,101.42
	c-32.45,18.73-58.83,3.69-58.94-33.58C42.4,99.76,68.62,54.36,101.07,35.63"/>
<path class="st1" d="M107.62,12.13l50.09,29.11c10.63,6.18,17.23,19.32,17.28,37.99c0.11,37.59-26.33,83.38-59.04,102.26
	l-50.09-29.11c32.71-18.89,59.15-64.67,59.04-102.26C124.85,31.44,118.25,18.31,107.62,12.13"/>
<path class="st1" d="M73.8,185.62l-50.09-29.11c10.77,6.26,25.69,5.38,42.15-4.13l50.09,29.11C99.48,191,84.57,191.88,73.8,185.62"
	/>
<path class="st1" d="M115.94,181.49c32.72-18.89,59.15-64.67,59.04-102.26c-0.11-37.59-26.72-52.75-59.43-33.87
	c-32.72,18.89-59.15,64.68-59.04,102.27C56.62,185.21,83.23,200.38,115.94,181.49 M115.54,38.54c35.99-20.78,65.26-4.1,65.38,37.26
	c0.12,41.35-28.96,91.73-64.95,112.51c-35.99,20.78-65.26,4.1-65.38-37.26C50.47,109.69,79.55,59.32,115.54,38.54"/>
<path class="st1" d="M69.59,192.85l-50.08-29.11c-11.7-6.8-18.95-21.25-19.01-41.8C0.38,80.59,29.47,30.21,65.45,9.44l50.09,29.11
	c-35.99,20.78-65.07,71.15-64.95,112.51C50.64,171.59,57.9,186.05,69.59,192.85L69.59,192.85z"/>
<path class="st1" d="M19.51,163.74l50.08,29.11c-10.84-6.3-17.86-19.17-18.88-37.37L0.63,126.37
	C1.65,144.57,8.67,157.44,19.51,163.74L19.51,163.74z"/>
<path class="st1" d="M97.58,167.28c32.72-18.89,59.15-64.67,59.04-102.26c-0.03-10.92-2.3-19.94-6.3-26.79
	c-9.78-2.49-21.79-0.36-34.76,7.12c-32.72,18.89-59.15,64.68-59.04,102.27c0.03,10.92,2.3,19.94,6.3,26.79
	C72.6,176.9,84.61,174.77,97.58,167.28"/>
<path class="st1" d="M111.82,4.9L161.91,34c-11.85-6.89-28.26-5.92-46.37,4.54L65.45,9.44C83.56-1.02,99.97-1.99,111.82,4.9
	L111.82,4.9z"/>
<path class="st1" d="M94.45,169L94.45,169c1.04-0.53,2.08-1.11,3.13-1.71c32.65-18.85,59.04-64.49,59.04-102.04
	c0,37.55-26.39,83.19-59.04,102.04C96.53,167.89,95.48,168.46,94.45,169 M150.32,38.23c-0.36-0.09-0.73-0.18-1.1-0.26
	C149.59,38.06,149.95,38.14,150.32,38.23"/>
<path class="st1" d="M62.79,174.36c0,0-0.01-0.01-0.01-0.02C62.78,174.35,62.79,174.36,62.79,174.36 M62.76,174.31
	c0-0.01-0.01-0.01-0.01-0.02C62.75,174.3,62.76,174.31,62.76,174.31 M62.73,174.25c0-0.01-0.01-0.01-0.01-0.02
	C62.72,174.24,62.72,174.24,62.73,174.25 M62.7,174.2c0-0.01-0.01-0.02-0.01-0.02C62.69,174.19,62.69,174.19,62.7,174.2
	 M62.67,174.15c0-0.01-0.01-0.01-0.01-0.02C62.66,174.14,62.66,174.14,62.67,174.15 M62.63,174.08c0,0-0.01-0.01-0.01-0.02
	C62.62,174.07,62.63,174.08,62.63,174.08 M62.6,174.03c0-0.01-0.01-0.01-0.01-0.02C62.6,174.02,62.6,174.03,62.6,174.03
	 M62.57,173.98C62.57,173.97,62.57,173.97,62.57,173.98C62.57,173.97,62.57,173.97,62.57,173.98 M62.54,173.92
	C62.53,173.91,62.53,173.91,62.54,173.92C62.53,173.91,62.54,173.91,62.54,173.92 M62.5,173.86C62.5,173.86,62.5,173.86,62.5,173.86
	C62.5,173.86,62.5,173.86,62.5,173.86"/>
</svg>
