<?xml version="1.0" encoding="utf-8"?>
<!-- Generator: Adobe Illustrator 23.0.2, SVG Export Plug-In . SVG Version: 6.00 Build 0)  -->
<svg version="1.1" id="Layer_1" xmlns="http://www.w3.org/2000/svg" xmlns:xlink="http://www.w3.org/1999/xlink" x="0px" y="0px"
	 width="66.39px" height="70.87px" viewBox="0 0 66.39 70.87" style="enable-background:new 0 0 66.39 70.87;" xml:space="preserve"
	>
<style type="text/css">
	.st0{fill:#121212;stroke:#F1E827;stroke-miterlimit:10;}
	.st1{fill:#121212;stroke:#898989;stroke-miterlimit:10;}
	.st2{fill:#121212;stroke:#898989;stroke-linejoin:round;stroke-miterlimit:10;}
	.st3{fill:none;}
</style>
<path class="st1" d="M45.59,2.82l14.77,10.72c-4.07-2.95-10.09-3.21-17.08-0.06L28.51,2.75C35.51-0.39,41.53-0.13,45.59,2.82
	L45.59,2.82z"/>
<path class="st1" d="M20.8,68.05L6.03,57.33c-4.01-2.91-6.12-8.46-5.38-15.95C2.14,26.29,14.61,9,28.51,2.75l14.77,10.72
	c-13.9,6.24-26.37,23.53-27.87,38.62C14.68,59.59,16.79,65.14,20.8,68.05L20.8,68.05z"/>
<path class="st1" d="M6.03,57.33L20.8,68.05c-3.67-2.67-5.74-7.54-5.5-14.08L0.53,43.24C0.28,49.79,2.35,54.66,6.03,57.33
	L6.03,57.33z"/>
<path class="st1" d="M43.28,13.48c13.9-6.24,23.95,0.93,22.46,16.01c-1.49,15.09-13.97,32.38-27.87,38.62
	c-13.9,6.24-23.95-0.93-22.46-16.01C16.91,37.01,29.39,19.72,43.28,13.48L43.28,13.48z"/>
</svg>
