<?xml version="1.0" encoding="UTF-8"?> <svg xmlns="http://www.w3.org/2000/svg" id="Layer_1" data-name="Layer 1" viewBox="0 0 69.47 48.85"><defs><style>.cls-1{fill:#fff;}.cls-2{fill:#f1e82b;}</style></defs><path class="cls-1" d="M35,43.88a1,1,0,0,1-.38-.08L1.09,29a1.62,1.62,0,0,1-.82-1.51A1.6,1.6,0,0,1,1.1,26L34.64,11.81a.93.93,0,0,1,.73,0L68.91,26a1.6,1.6,0,0,1,.83,1.5A1.62,1.62,0,0,1,68.92,29L35.38,43.8A1,1,0,0,1,35,43.88ZM5.33,27.52,35,40.62l29.67-13.1L35,15Z" transform="translate(-0.27 -11.74)"></path><path class="cls-1" d="M35,57.84c-16.5,0-17.91-11-18-11.51V34.89c0-.88.53-1.59,1.2-1.59s1.19.71,1.19,1.59V46.1h0S20.88,54.67,35,54.67c14.44,0,15.57-8.71,15.58-8.8v-11c0-.88.53-1.59,1.19-1.59S53,34,53,34.89V46.1C52.91,46.8,51.5,57.84,35,57.84Z" transform="translate(-0.27 -11.74)"></path><path class="cls-2" d="M8.27,60.59A1.44,1.44,0,0,1,7.07,59V30.49a1.52,1.52,0,0,1,1-1.56l25.77-5.54c.64-.15,1.27.44,1.38,1.31a1.59,1.59,0,0,1-1,1.82L9.47,31.84V59A1.44,1.44,0,0,1,8.27,60.59Z" transform="translate(-0.27 -11.74)"></path></svg> 