<?xml version="1.0" encoding="utf-8"?>
<!-- Generator: Adobe Illustrator 23.0.2, SVG Export Plug-In . SVG Version: 6.00 Build 0)  -->
<svg version="1.1" id="Layer_1" xmlns="http://www.w3.org/2000/svg" xmlns:xlink="http://www.w3.org/1999/xlink" x="0px" y="0px"
	 width="528.14px" height="473.71px" viewBox="0 0 528.14 473.71" style="enable-background:new 0 0 528.14 473.71;"
	 xml:space="preserve">
<style type="text/css">
	.st0{fill:#121212;stroke:#898989;stroke-miterlimit:10;}
	.st1{fill:#121212;stroke:#898989;stroke-linejoin:round;stroke-miterlimit:10;}
	.st2{fill:#121212;stroke:#F1E827;stroke-miterlimit:10;}
</style>
<path class="st0" d="M242.79,13.33L191.74,42.8c-10.28,5.93-19.49,13.54-27.26,22.51L22.36,229.43
	C8.26,245.7,0.51,266.5,0.51,288.03v32.93l263.57,152.17l175.71-101.45l87.86-50.72V177.42c0-14.98-7.99-28.83-20.97-36.32
	L285.37,13.33C272.19,5.72,255.96,5.72,242.79,13.33L242.79,13.33z"/>
<path class="st0" d="M527.64,177.43v143.54l-87.85,50.73L264.07,473.13L0.5,320.96v-32.92c0-10.41,1.83-20.69,5.3-30.33
	c3.7-10.28,9.29-19.88,16.55-28.28L164.48,65.31c7.77-8.97,16.97-16.58,27.26-22.51l51.04-29.47c13.17-7.6,29.41-7.6,42.58,0
	L506.67,141.1c6.5,3.75,11.73,9.09,15.35,15.36C525.64,162.73,527.64,169.94,527.64,177.43L527.64,177.43z"/>
<path class="st0" d="M527.64,152.75L264.07,0.58L187.29,44.9c-4.93,2.84-4.93,9.95,0,12.8l226.95,131.03
	c13.12,7.57,16.34,25.28,6.46,36.76l-0.19,0.22L293.39,372.51c-17.02,19.65-45.59,24.46-68.1,11.46L14.7,262.38
	c-4.71-2.72-10.71-0.11-11.93,5.19c-1.5,6.52-2.27,13.24-2.27,20.01v32.92l263.57,152.17l175.72-101.44l87.85-50.73V176.96
	L527.64,152.75L527.64,152.75z"/>
<path class="st0" d="M320.09,197.72c-0.03-1.12-0.08-2.22-0.12-3.33c-0.05-0.71-0.06-1.41-0.11-2.12c-0.08-1.23-0.2-2.44-0.31-3.65
	c-0.06-0.58-0.11-1.18-0.17-1.78c-0.2-1.79-0.44-3.59-0.74-5.38c-0.28-1.72-0.58-3.39-0.94-5.06c-0.11-0.54-0.23-1.06-0.35-1.58
	c-0.18-0.8-0.34-1.61-0.54-2.39c-0.06-0.25-0.14-0.49-0.2-0.74c-0.37-1.44-0.78-2.87-1.2-4.28c-0.15-0.49-0.28-0.98-0.43-1.47
	c-0.6-1.87-1.24-3.71-1.92-5.51l-0.08-0.2c-0.48-1.23-0.98-2.44-1.5-3.65c-0.09-0.23-0.18-0.48-0.29-0.71
	c-0.64-1.46-1.32-2.9-2.03-4.3l-0.06-0.14c-0.12-0.25-0.26-0.48-0.38-0.72c-0.58-1.14-1.18-2.24-1.79-3.33
	c-0.26-0.44-0.52-0.87-0.78-1.32c-0.31-0.52-0.6-1.04-0.91-1.55c-0.24-0.38-0.49-0.77-0.74-1.15c-0.24-0.37-0.49-0.75-0.74-1.14
	c-0.69-1.04-1.4-2.06-2.12-3.07c-0.14-0.17-0.26-0.37-0.38-0.54l-0.11-0.15c-0.09-0.14-0.21-0.26-0.32-0.4
	c-1.09-1.47-2.24-2.88-3.41-4.26c-0.18-0.21-0.34-0.43-0.52-0.64c-0.18-0.21-0.41-0.43-0.61-0.64c-1.04-1.18-2.12-2.33-3.22-3.45
	c-0.21-0.21-0.4-0.44-0.61-0.66l-0.21-0.2c-1.37-1.33-2.78-2.61-4.2-3.85l-0.29-0.26c-0.26-0.21-0.52-0.4-0.78-0.61
	c-1.15-0.94-2.3-1.86-3.5-2.73c-0.25-0.18-0.48-0.38-0.74-0.57c-0.38-0.28-0.77-0.54-1.17-0.81c-0.29-0.2-0.58-0.4-0.87-0.61
	c-1.09-0.74-2.19-1.46-3.33-2.15l-0.23-0.14l-4.92-2.96c-0.64-0.4-1.29-0.78-1.95-1.17c-22.03-12.72-50.06-15.22-78.84-4.48
	c-57.56,21.46-96.4,87.75-86.75,148.01c4.73,29.53,20.19,52.13,41.51,64.98l1.38,0.83l4.1,2.49c0.46,0.28,0.94,0.55,1.4,0.83
	c4.11,2.38,8.44,4.37,12.93,6.01l0.02,0.02l0.06,0.02c8.33,3.04,17.26,4.8,26.57,5.12c12.56,0.44,25.82-1.69,39.26-6.69
	c1.9-0.72,3.77-1.49,5.65-2.29c0.61-0.28,1.21-0.57,1.83-0.84c1.24-0.55,2.47-1.12,3.7-1.72c0.17-0.09,0.35-0.17,0.52-0.26
	c0.55-0.26,1.07-0.57,1.61-0.86c1.09-0.55,2.18-1.12,3.24-1.72c0.74-0.41,1.47-0.84,2.21-1.27c1.01-0.6,2.02-1.2,3.04-1.83
	c0.31-0.2,0.64-0.37,0.95-0.57c0.55-0.35,1.07-0.71,1.6-1.06c0.61-0.4,1.23-0.8,1.84-1.21c0.94-0.64,1.87-1.3,2.79-1.98
	c0.55-0.4,1.1-0.78,1.66-1.18c0.17-0.12,0.32-0.25,0.49-0.35c1.21-0.92,2.42-1.86,3.61-2.81l0.38-0.32
	c1.01-0.83,2.01-1.64,2.99-2.49c0.15-0.12,0.28-0.26,0.43-0.38c1.84-1.61,3.65-3.25,5.4-4.96l0.32-0.28
	c0.28-0.28,0.54-0.57,0.81-0.84c1.35-1.32,2.67-2.67,3.96-4.05c0.26-0.28,0.54-0.54,0.8-0.81c0.21-0.25,0.41-0.49,0.64-0.74
	c1.3-1.44,2.59-2.91,3.85-4.42c0.2-0.25,0.41-0.46,0.63-0.71l0.14-0.2c1.47-1.78,2.9-3.61,4.28-5.45c0.11-0.15,0.23-0.29,0.34-0.44
	c0.26-0.34,0.49-0.71,0.75-1.06c1.03-1.43,2.04-2.85,3.02-4.31c0.23-0.32,0.46-0.64,0.69-0.97l0.51-0.83
	c1.12-1.7,2.19-3.42,3.25-5.17c0.14-0.25,0.29-0.46,0.43-0.71l0.09-0.17c1.24-2.1,2.41-4.23,3.54-6.38
	c0.11-0.23,0.24-0.43,0.35-0.66c0.47-0.91,0.92-1.83,1.38-2.75c0.14-0.29,0.29-0.6,0.44-0.89c0.67-1.4,1.33-2.81,1.96-4.22
	c0.08-0.17,0.14-0.34,0.2-0.49c0.23-0.51,0.43-1,0.64-1.5c0.49-1.15,0.97-2.3,1.44-3.47c0.23-0.6,0.46-1.2,0.69-1.79
	c0.2-0.51,0.41-1.03,0.6-1.55c0.18-0.51,0.35-1.03,0.54-1.53c0.29-0.8,0.57-1.6,0.83-2.39c0.34-0.98,0.64-1.96,0.95-2.96
	c0.26-0.8,0.51-1.58,0.74-2.39c0.11-0.32,0.21-0.66,0.31-1c0.12-0.44,0.23-0.89,0.35-1.35c0.38-1.43,0.77-2.88,1.12-4.33
	c0.17-0.75,0.35-1.49,0.52-2.24c0.34-1.56,0.64-3.13,0.95-4.69c0.08-0.46,0.18-0.91,0.28-1.37c0.01-0.17,0.05-0.34,0.08-0.51
	c0.11-0.68,0.2-1.35,0.31-2.02c0.18-1.12,0.35-2.26,0.49-3.39c0.09-0.74,0.17-1.46,0.26-2.19c0.12-1.09,0.23-2.16,0.32-3.24
	c0.06-0.77,0.12-1.52,0.17-2.29c0.08-1.06,0.14-2.13,0.18-3.19c0.03-0.77,0.06-1.52,0.08-2.29c0.03-1.07,0.03-2.15,0.03-3.22
	C320.11,199.21,320.11,198.46,320.09,197.72z"/>
</svg>
