<?xml version="1.0" encoding="utf-8"?>
<!-- Generator: Adobe Illustrator 23.0.2, SVG Export Plug-In . SVG Version: 6.00 Build 0)  -->
<svg version="1.1" id="Layer_1" xmlns="http://www.w3.org/2000/svg" xmlns:xlink="http://www.w3.org/1999/xlink" x="0px" y="0px"
	 width="217.88px" height="236.11px" viewBox="0 0 217.88 236.11" style="enable-background:new 0 0 217.88 236.11;"
	 xml:space="preserve">
<style type="text/css">
	.st0{fill:#121212;stroke:#898989;stroke-miterlimit:10;}
	.st1{fill:#121212;stroke:#898989;stroke-linejoin:round;stroke-miterlimit:10;}
	.st2{fill:#121212;stroke:#F1E827;stroke-miterlimit:10;}
</style>
<path class="st0" d="M43.46,165.51l-0.15-0.09c-2.45-1.41-5.57-1.7-8.77-0.51c-0.44,0.16-0.87,0.35-1.28,0.56l-0.08,0.04
	c-0.15,0.08-0.29,0.17-0.44,0.25c-0.24,0.13-0.48,0.25-0.71,0.4l-0.16,0.11l-0.11,0.06l-0.12,0.1c-0.18,0.12-0.36,0.24-0.54,0.37
	c-0.27,0.2-0.53,0.41-0.78,0.63l-0.21,0.19l-0.14,0.13l-0.34,0.31c-0.21,0.21-0.42,0.42-0.62,0.64c-0.15,0.16-0.3,0.33-0.44,0.5
	l-0.06,0.08l-0.07,0.07c-0.18,0.22-0.36,0.45-0.53,0.68c-0.17,0.23-0.34,0.47-0.5,0.71l-0.14,0.22l-0.09,0.14l-0.24,0.39
	c-0.16,0.26-0.3,0.53-0.44,0.8c-0.1,0.18-0.18,0.37-0.27,0.56l-0.08,0.16l-0.08,0.16c-0.14,0.32-0.28,0.65-0.4,0.98
	c-0.08,0.22-0.15,0.44-0.22,0.66l-0.09,0.27l-0.07,0.21c-0.15,0.51-0.27,1.03-0.36,1.56l-0.01,0.12c-0.08,0.49-0.11,0.98-0.14,1.47
	c-0.02,0.25-0.06,0.49-0.06,0.74c-0.01,0.74,0.04,1.48,0.16,2.21c0.05,0.34,0.12,0.68,0.2,1.01l0.03,0.08
	c0.11,0.43,0.24,0.85,0.39,1.25l0.01,0.02c0.13,0.33,0.27,0.66,0.42,0.96l0.01,0.01l0.05,0.09c0.12,0.23,0.24,0.46,0.38,0.68
	l0.08,0.12l0.15,0.23l0.22,0.33l0.21,0.27l0.16,0.2l0.1,0.12c0.16,0.18,0.33,0.36,0.5,0.53l0.04,0.03l0.1,0.09l0.39,0.36l0.22,0.17
	l0.19,0.15l0.15,0.12c0.19,0.14,0.39,0.27,0.6,0.4l0.03,0.02l5.49,3.31l-0.03-0.02l0.02,0.01c-0.27-0.16-0.52-0.34-0.77-0.53
	l-0.18-0.14c-0.21-0.17-0.42-0.35-0.62-0.54l-0.1-0.09c-0.22-0.22-0.43-0.45-0.63-0.69l-0.16-0.2c-0.15-0.19-0.3-0.39-0.44-0.6
	l-0.15-0.23c-0.16-0.26-0.32-0.52-0.46-0.8l-0.05-0.09c-0.16-0.32-0.31-0.66-0.44-1c-0.15-0.4-0.28-0.82-0.39-1.25
	c-0.09-0.35-0.17-0.71-0.23-1.09c-0.12-0.73-0.16-1.47-0.16-2.21c0-0.25,0.05-0.49,0.06-0.74c0.03-0.49,0.06-0.98,0.14-1.47
	c0.1-0.64,0.25-1.26,0.44-1.88l0.09-0.27c0.2-0.61,0.42-1.22,0.69-1.81l0.07-0.15c0.28-0.6,0.6-1.18,0.96-1.75l0.09-0.14
	c0.37-0.58,0.78-1.15,1.23-1.68l0.06-0.07c0.44-0.51,0.91-1,1.4-1.45l0.14-0.13c0.48-0.43,0.99-0.82,1.52-1.19l0.23-0.16
	c0.28-0.19,0.58-0.35,0.88-0.52c0.15-0.08,0.29-0.17,0.44-0.25c0.44-0.23,0.9-0.43,1.36-0.61c3.2-1.19,6.32-0.91,8.77,0.51
	l0.15,0.09L43.46,165.51L43.46,165.51z"/>
<path class="st0" d="M95.04,23.19l0.41-0.18c0.38-0.17,0.76-0.32,1.15-0.45c0.17-0.06,0.34-0.11,0.51-0.16
	c0.39-0.11,0.77-0.19,1.16-0.26l0.41-0.08c0.51-0.07,1.02-0.11,1.53-0.11l0.29,0.02c0.41,0.01,0.81,0.05,1.21,0.11
	c0.16,0.02,0.31,0.06,0.47,0.09c0.35,0.07,0.69,0.16,1.02,0.27c0.14,0.04,0.29,0.09,0.42,0.14c0.46,0.17,0.91,0.37,1.33,0.62
	l0.15,0.09l-5.48-3.31l-0.15-0.09c-0.43-0.25-0.87-0.44-1.33-0.62c-0.14-0.05-0.28-0.09-0.42-0.14c-0.34-0.11-0.68-0.2-1.02-0.27
	c-0.15-0.03-0.31-0.06-0.47-0.09c-0.4-0.06-0.8-0.1-1.21-0.11l-0.29-0.02c-0.5,0-1.01,0.04-1.52,0.11l-0.41,0.08
	c-0.39,0.07-0.77,0.15-1.16,0.26c-0.17,0.05-0.34,0.1-0.51,0.16c-0.38,0.13-0.76,0.28-1.14,0.45c-0.14,0.06-0.28,0.11-0.42,0.18
	l-0.16,0.07c-0.41,0.21-0.82,0.43-1.22,0.69l-0.12,0.08l-0.19,0.13c-0.21,0.14-0.42,0.28-0.62,0.43c-0.27,0.2-0.54,0.42-0.8,0.64
	l-0.05,0.05c-0.22,0.19-0.44,0.39-0.64,0.59l-0.23,0.24L85.32,23l-0.19,0.19c-0.2,0.21-0.39,0.43-0.57,0.65l-0.03,0.04l-0.07,0.09
	c-0.14,0.18-0.29,0.36-0.43,0.54l-0.23,0.33l-0.15,0.21l-0.11,0.16c-0.16,0.24-0.32,0.49-0.46,0.74l-0.04,0.08l-0.11,0.19
	c-0.1,0.17-0.2,0.35-0.29,0.52l-0.16,0.32l-0.15,0.31l-0.11,0.23c-0.08,0.19-0.16,0.39-0.23,0.58l-0.13,0.31l-0.04,0.09
	c-0.08,0.22-0.14,0.44-0.21,0.66c-0.05,0.15-0.1,0.29-0.14,0.44l-0.02,0.05l-0.05,0.21c-0.1,0.39-0.19,0.78-0.27,1.17l-0.04,0.18
	l-0.04,0.34c-0.04,0.27-0.08,0.54-0.1,0.81c-0.02,0.18-0.03,0.36-0.04,0.54c-0.01,0.27-0.02,0.53-0.02,0.8c0,0.18,0,0.35,0.01,0.53
	c0.01,0.27,0.03,0.54,0.06,0.81c0.02,0.16,0.03,0.33,0.05,0.49c0.04,0.3,0.1,0.6,0.17,0.9l0.06,0.31l0.02,0.05
	c0.11,0.42,0.23,0.84,0.39,1.24l0.01,0.05c0.13,0.33,0.27,0.66,0.43,0.98h0l0.01,0.02c0.14,0.27,0.29,0.54,0.44,0.8l0.13,0.21
	c0.11,0.17,0.22,0.33,0.34,0.49c0.15,0.21,0.31,0.41,0.48,0.6c0.16,0.19,0.33,0.36,0.49,0.53l0.04,0.04l0.04,0.03
	c0.14,0.14,0.29,0.27,0.44,0.4c0.18,0.15,0.36,0.29,0.55,0.43c0.19,0.14,0.39,0.27,0.59,0.39l0.03,0.02l5.48,3.31v0v0
	c-0.57-0.35-1.11-0.76-1.6-1.24l-0.04-0.03c-0.5-0.48-0.95-1.03-1.35-1.65c-0.21-0.33-0.41-0.67-0.58-1.02l-0.01-0.01
	c-0.17-0.33-0.31-0.68-0.44-1.03c-0.15-0.41-0.28-0.82-0.39-1.24l-0.07-0.37c-0.06-0.3-0.12-0.59-0.17-0.9
	c-0.02-0.16-0.04-0.32-0.05-0.49c-0.03-0.27-0.05-0.54-0.06-0.81c-0.01-0.18-0.01-0.35-0.01-0.53c0-0.26,0.01-0.53,0.02-0.79
	c0.01-0.18,0.02-0.36,0.04-0.54c0.03-0.27,0.06-0.54,0.1-0.8c0.03-0.17,0.05-0.34,0.08-0.51c0.07-0.39,0.16-0.78,0.27-1.17
	l0.06-0.26c0.04-0.15,0.1-0.3,0.15-0.44c0.08-0.25,0.16-0.5,0.25-0.75l0.13-0.31c0.11-0.27,0.22-0.54,0.35-0.81l0.15-0.32
	c0.14-0.29,0.29-0.57,0.44-0.85l0.11-0.19c0.19-0.33,0.4-0.66,0.62-0.98l0.15-0.21c0.21-0.3,0.43-0.59,0.66-0.87l0.07-0.09
	c0.25-0.3,0.51-0.59,0.79-0.88l0.2-0.21c0.28-0.28,0.57-0.56,0.87-0.83c0.48-0.42,0.97-0.78,1.48-1.12l0.19-0.13
	C94.04,23.71,94.54,23.44,95.04,23.19L95.04,23.19z"/>
<path class="st0" d="M64.97,41.1l0.41-0.18c0.38-0.17,0.76-0.32,1.15-0.45c0.17-0.06,0.34-0.11,0.51-0.16
	c0.39-0.11,0.77-0.19,1.16-0.26l0.41-0.08c0.51-0.07,1.02-0.11,1.53-0.11l0.29,0.02c0.41,0.01,0.81,0.05,1.21,0.11
	c0.16,0.02,0.31,0.06,0.47,0.09c0.35,0.07,0.69,0.16,1.02,0.27c0.14,0.04,0.29,0.09,0.42,0.14c0.46,0.17,0.91,0.37,1.33,0.62
	l0.15,0.09l-5.48-3.31l-0.15-0.09c-0.43-0.25-0.87-0.44-1.33-0.62c-0.14-0.05-0.28-0.09-0.42-0.14c-0.34-0.11-0.68-0.2-1.02-0.27
	c-0.15-0.03-0.31-0.06-0.47-0.09c-0.4-0.06-0.8-0.1-1.21-0.11l-0.29-0.02c-0.5,0-1.01,0.04-1.52,0.11l-0.41,0.08
	c-0.39,0.07-0.77,0.15-1.16,0.26c-0.17,0.05-0.34,0.1-0.51,0.16c-0.38,0.13-0.76,0.28-1.14,0.45c-0.14,0.06-0.28,0.11-0.42,0.18
	l-0.16,0.07c-0.41,0.21-0.82,0.43-1.22,0.69l-0.12,0.08l-0.19,0.13c-0.21,0.14-0.42,0.28-0.62,0.43c-0.27,0.2-0.54,0.42-0.8,0.64
	l-0.05,0.05c-0.22,0.19-0.44,0.39-0.64,0.59l-0.23,0.24l-0.21,0.21l-0.19,0.19c-0.2,0.21-0.39,0.43-0.57,0.65l-0.03,0.04l-0.07,0.09
	c-0.14,0.18-0.29,0.36-0.43,0.54l-0.23,0.33l-0.15,0.21l-0.11,0.16c-0.16,0.24-0.32,0.49-0.46,0.74l-0.04,0.08l-0.11,0.19
	c-0.1,0.17-0.2,0.35-0.29,0.52l-0.16,0.32l-0.15,0.31l-0.11,0.23c-0.08,0.19-0.16,0.39-0.23,0.58l-0.13,0.31l-0.04,0.09
	c-0.08,0.22-0.14,0.44-0.21,0.66c-0.05,0.15-0.1,0.29-0.14,0.44l-0.02,0.05l-0.05,0.21c-0.1,0.39-0.19,0.78-0.27,1.17l-0.04,0.18
	l-0.04,0.34c-0.04,0.27-0.08,0.54-0.1,0.81c-0.02,0.18-0.03,0.36-0.04,0.54c-0.01,0.27-0.02,0.53-0.02,0.8c0,0.18,0,0.35,0.01,0.53
	c0.01,0.27,0.03,0.54,0.06,0.81c0.02,0.16,0.03,0.33,0.05,0.49c0.04,0.3,0.1,0.6,0.17,0.9l0.06,0.31l0.02,0.05
	c0.11,0.42,0.23,0.84,0.39,1.24l0.01,0.05c0.13,0.33,0.27,0.66,0.43,0.98h0l0.01,0.02c0.14,0.27,0.29,0.54,0.44,0.8l0.13,0.21
	c0.11,0.17,0.22,0.33,0.34,0.49c0.15,0.21,0.31,0.41,0.48,0.6c0.16,0.19,0.33,0.36,0.49,0.53l0.04,0.04l0.04,0.03
	c0.14,0.14,0.29,0.27,0.44,0.4c0.18,0.15,0.36,0.29,0.55,0.43c0.19,0.14,0.39,0.27,0.59,0.39l0.03,0.02l5.48,3.31v0v0
	c-0.57-0.35-1.11-0.76-1.6-1.24l-0.04-0.03c-0.5-0.48-0.95-1.03-1.35-1.65c-0.21-0.33-0.41-0.67-0.58-1.02l-0.01-0.01
	c-0.17-0.33-0.31-0.68-0.44-1.03c-0.15-0.41-0.28-0.82-0.39-1.24l-0.07-0.37c-0.06-0.3-0.12-0.59-0.17-0.9
	c-0.02-0.16-0.04-0.32-0.05-0.49c-0.03-0.27-0.05-0.54-0.06-0.81c-0.01-0.18-0.01-0.35-0.01-0.53c0-0.26,0.01-0.53,0.02-0.79
	c0.01-0.18,0.02-0.36,0.04-0.54c0.03-0.27,0.06-0.54,0.1-0.8c0.03-0.17,0.05-0.34,0.08-0.51c0.07-0.39,0.16-0.78,0.27-1.17
	l0.06-0.26c0.04-0.15,0.1-0.3,0.15-0.44c0.08-0.25,0.16-0.5,0.25-0.75l0.13-0.31c0.11-0.27,0.22-0.54,0.35-0.81l0.15-0.32
	c0.14-0.29,0.29-0.57,0.44-0.85l0.11-0.19c0.19-0.33,0.4-0.66,0.62-0.98l0.15-0.21c0.21-0.3,0.43-0.59,0.66-0.87l0.07-0.09
	c0.25-0.3,0.51-0.59,0.79-0.88l0.2-0.21c0.28-0.28,0.57-0.56,0.87-0.83c0.48-0.42,0.97-0.78,1.48-1.12l0.19-0.13
	C63.97,41.62,64.47,41.35,64.97,41.1L64.97,41.1z"/>
<path class="st0" d="M41.57,69.35l0.41-0.18c0.38-0.17,0.76-0.32,1.15-0.45c0.17-0.06,0.34-0.11,0.51-0.16
	c0.39-0.11,0.77-0.19,1.16-0.26l0.41-0.08c0.51-0.07,1.02-0.11,1.53-0.11l0.29,0.02c0.41,0.01,0.81,0.05,1.21,0.11
	c0.16,0.02,0.31,0.06,0.47,0.09c0.35,0.07,0.69,0.16,1.02,0.27c0.14,0.04,0.29,0.09,0.42,0.14c0.46,0.17,0.91,0.37,1.33,0.62
	l0.15,0.09l-5.48-3.31l-0.15-0.09c-0.43-0.25-0.87-0.44-1.33-0.62c-0.14-0.05-0.28-0.09-0.42-0.14c-0.34-0.11-0.68-0.2-1.02-0.27
	c-0.15-0.03-0.31-0.06-0.47-0.09c-0.4-0.06-0.8-0.1-1.21-0.11l-0.29-0.02c-0.5,0-1.01,0.04-1.52,0.11l-0.41,0.08
	c-0.39,0.07-0.77,0.15-1.16,0.26c-0.17,0.05-0.34,0.1-0.51,0.16c-0.38,0.13-0.76,0.28-1.14,0.45c-0.14,0.06-0.28,0.11-0.42,0.18
	l-0.16,0.07c-0.41,0.21-0.82,0.43-1.22,0.69l-0.12,0.08l-0.19,0.13c-0.21,0.14-0.42,0.28-0.62,0.43c-0.27,0.2-0.54,0.42-0.8,0.64
	l-0.05,0.05c-0.22,0.19-0.44,0.39-0.64,0.59l-0.23,0.24l-0.21,0.21l-0.19,0.19c-0.2,0.21-0.39,0.43-0.57,0.65l-0.03,0.04l-0.07,0.09
	c-0.14,0.18-0.29,0.36-0.43,0.54L30.34,71l-0.15,0.21l-0.11,0.16c-0.16,0.24-0.32,0.49-0.46,0.74l-0.04,0.08l-0.11,0.19
	c-0.1,0.17-0.2,0.35-0.29,0.52l-0.16,0.32l-0.15,0.31l-0.11,0.23c-0.08,0.19-0.16,0.39-0.23,0.58l-0.13,0.31l-0.04,0.09
	c-0.08,0.22-0.14,0.44-0.21,0.66c-0.05,0.15-0.1,0.29-0.14,0.44l-0.02,0.05l-0.05,0.21c-0.1,0.39-0.19,0.78-0.27,1.17l-0.04,0.18
	l-0.04,0.34c-0.04,0.27-0.08,0.54-0.1,0.81c-0.02,0.18-0.03,0.36-0.04,0.54c-0.01,0.27-0.02,0.53-0.02,0.8c0,0.18,0,0.35,0.01,0.53
	c0.01,0.27,0.03,0.54,0.06,0.81c0.02,0.16,0.03,0.33,0.05,0.49c0.04,0.3,0.1,0.6,0.17,0.9l0.06,0.31l0.02,0.05
	c0.11,0.42,0.23,0.84,0.39,1.24l0.01,0.05c0.13,0.33,0.27,0.66,0.43,0.98h0l0.01,0.02c0.14,0.27,0.29,0.54,0.44,0.8l0.13,0.21
	c0.11,0.17,0.22,0.33,0.34,0.49c0.15,0.21,0.31,0.41,0.48,0.6c0.16,0.19,0.33,0.36,0.49,0.53l0.04,0.04l0.04,0.03
	c0.14,0.14,0.29,0.27,0.44,0.4c0.18,0.15,0.36,0.29,0.55,0.43c0.19,0.14,0.39,0.27,0.59,0.39l0.03,0.02l5.48,3.31v0v0
	c-0.57-0.35-1.11-0.76-1.6-1.24l-0.04-0.03c-0.5-0.48-0.95-1.03-1.35-1.65c-0.21-0.33-0.41-0.67-0.58-1.02l-0.01-0.01
	c-0.17-0.33-0.31-0.68-0.44-1.03c-0.15-0.41-0.28-0.82-0.39-1.24l-0.07-0.37c-0.06-0.3-0.12-0.59-0.17-0.9
	c-0.02-0.16-0.04-0.32-0.05-0.49c-0.03-0.27-0.05-0.54-0.06-0.81c-0.01-0.18-0.01-0.35-0.01-0.53c0-0.26,0.01-0.53,0.02-0.79
	c0.01-0.18,0.02-0.36,0.04-0.54c0.03-0.27,0.06-0.54,0.1-0.8c0.03-0.17,0.05-0.34,0.08-0.51c0.07-0.39,0.16-0.78,0.27-1.17
	l0.06-0.26c0.04-0.15,0.1-0.3,0.15-0.44c0.08-0.25,0.16-0.5,0.25-0.75l0.13-0.31c0.11-0.27,0.22-0.54,0.35-0.81l0.15-0.32
	c0.14-0.29,0.29-0.57,0.44-0.85l0.11-0.19c0.19-0.33,0.4-0.66,0.62-0.98l0.15-0.21c0.21-0.3,0.43-0.59,0.66-0.87l0.07-0.09
	c0.25-0.3,0.51-0.59,0.79-0.88l0.2-0.21c0.28-0.28,0.57-0.56,0.87-0.83c0.48-0.42,0.97-0.78,1.48-1.12l0.19-0.13
	C40.56,69.87,41.06,69.6,41.57,69.35L41.57,69.35z"/>
<path class="st0" d="M32.97,100.28l-0.15-0.09c-1.22-0.7-2.63-1.14-4.18-1.23c-0.45-0.02-0.9-0.01-1.35,0.02l-0.38,0.04
	c-0.35,0.04-0.7,0.09-1.04,0.16l-0.32,0.06c-0.44,0.1-0.87,0.23-1.29,0.38l-0.27,0.1c-0.35,0.13-0.69,0.28-1.02,0.44l-0.19,0.08
	l-0.18,0.1c-0.28,0.14-0.55,0.3-0.82,0.46l-0.23,0.13l-0.09,0.06c-0.16,0.11-0.32,0.22-0.48,0.33l-0.37,0.26l-0.09,0.07l-0.08,0.06
	l-0.16,0.14c-0.15,0.12-0.31,0.24-0.46,0.37l-0.29,0.27l-0.22,0.2l-0.17,0.16c-0.21,0.21-0.42,0.42-0.62,0.64l-0.06,0.06l-0.11,0.13
	c-0.14,0.15-0.27,0.31-0.41,0.46c-0.11,0.14-0.22,0.28-0.33,0.42l-0.12,0.16l-0.08,0.1c-0.17,0.23-0.33,0.46-0.49,0.7l-0.13,0.21
	l-0.14,0.22l-0.19,0.31c-0.15,0.26-0.3,0.52-0.44,0.79L16,107.08l-0.02,0.05c-0.14,0.26-0.27,0.53-0.39,0.81l-0.12,0.3l-0.14,0.35
	l-0.13,0.33c-0.07,0.18-0.12,0.37-0.18,0.56c-0.05,0.14-0.1,0.29-0.14,0.43l-0.05,0.16c-0.11,0.37-0.2,0.75-0.28,1.14
	c-0.03,0.14-0.06,0.29-0.08,0.43c-0.09,0.5-0.15,1-0.18,1.49l0,0.18c-0.03,0.52-0.03,1.02,0,1.52c0.01,0.17,0.02,0.33,0.04,0.5
	c0.04,0.41,0.09,0.81,0.17,1.2c0.03,0.14,0.05,0.29,0.08,0.43l0.04,0.21c0.1,0.39,0.22,0.76,0.35,1.13l0.06,0.2l0.01,0.03
	c0.13,0.33,0.27,0.66,0.43,0.97l0.2,0.36l0.12,0.21l0.12,0.22c0.14,0.23,0.3,0.46,0.46,0.68l0.22,0.27l0.11,0.14l0.15,0.18
	c0.16,0.18,0.33,0.36,0.5,0.53l0.36,0.33l0.08,0.08l0.08,0.08c0.18,0.15,0.36,0.3,0.55,0.43c0.19,0.14,0.39,0.27,0.59,0.39
	l0.02,0.02l1.03,0.62l4.45,2.69l0,0v0v0c-0.44-0.27-0.86-0.58-1.25-0.92l-0.08-0.08c-0.36-0.32-0.69-0.67-1-1.04l-0.11-0.14
	c-0.29-0.37-0.56-0.76-0.8-1.17l-0.12-0.22c-0.24-0.43-0.46-0.89-0.64-1.36l-0.06-0.2c-0.15-0.43-0.29-0.88-0.39-1.34
	c-0.03-0.14-0.05-0.29-0.08-0.43c-0.07-0.39-0.13-0.79-0.17-1.2c-0.02-0.16-0.03-0.33-0.04-0.5c-0.03-0.5-0.03-1,0-1.52l0-0.18
	c0.04-0.63,0.13-1.27,0.27-1.92c0.09-0.44,0.2-0.87,0.33-1.3c0.04-0.14,0.09-0.29,0.14-0.43c0.1-0.3,0.2-0.6,0.31-0.89l0.14-0.35
	c0.16-0.37,0.32-0.74,0.51-1.1l0.02-0.05c0.2-0.38,0.41-0.75,0.64-1.11l0.14-0.22c0.22-0.35,0.46-0.69,0.7-1.01l0.12-0.16
	c0.24-0.31,0.48-0.6,0.74-0.89l0.11-0.13c0.27-0.3,0.56-0.58,0.85-0.86l0.23-0.21c0.24-0.22,0.49-0.43,0.75-0.63l0.25-0.19
	c0.15-0.12,0.31-0.22,0.46-0.33c0.16-0.11,0.32-0.23,0.48-0.33l0.32-0.19c0.27-0.16,0.54-0.32,0.82-0.46l0.37-0.19
	c0.34-0.16,0.68-0.31,1.02-0.44l0.27-0.1c0.43-0.15,0.86-0.28,1.29-0.38l0.32-0.06c0.35-0.07,0.69-0.13,1.04-0.16l0.38-0.04
	c0.45-0.03,0.9-0.05,1.35-0.02c1.55,0.09,2.96,0.52,4.18,1.22l0.15,0.09L32.97,100.28L32.97,100.28z"/>
<path class="st0" d="M32.01,135.13l-0.15-0.09c-2.45-1.41-5.57-1.7-8.77-0.51c-0.44,0.16-0.87,0.35-1.28,0.56l-0.08,0.04
	c-0.15,0.08-0.29,0.17-0.44,0.25c-0.24,0.13-0.48,0.25-0.71,0.4l-0.16,0.11l-0.11,0.06l-0.12,0.1c-0.18,0.12-0.36,0.24-0.54,0.37
	c-0.27,0.2-0.53,0.41-0.78,0.63l-0.21,0.19l-0.14,0.13l-0.34,0.31c-0.21,0.21-0.42,0.42-0.62,0.64c-0.15,0.16-0.3,0.33-0.44,0.5
	l-0.06,0.08l-0.07,0.07c-0.18,0.22-0.36,0.45-0.53,0.68c-0.17,0.23-0.34,0.47-0.5,0.71l-0.14,0.22l-0.09,0.14l-0.24,0.39
	c-0.16,0.26-0.3,0.53-0.44,0.8c-0.1,0.18-0.18,0.37-0.27,0.56l-0.08,0.16l-0.08,0.16c-0.14,0.32-0.28,0.65-0.4,0.98
	c-0.08,0.22-0.15,0.44-0.22,0.66l-0.09,0.27l-0.07,0.21c-0.15,0.51-0.27,1.03-0.36,1.56l-0.01,0.12c-0.08,0.49-0.11,0.98-0.14,1.47
	c-0.02,0.25-0.06,0.49-0.06,0.74c-0.01,0.74,0.04,1.48,0.16,2.21c0.05,0.34,0.12,0.68,0.2,1.01l0.03,0.08
	c0.11,0.43,0.24,0.85,0.39,1.25l0.01,0.02c0.13,0.33,0.27,0.66,0.42,0.96l0.01,0.01l0.05,0.09c0.12,0.23,0.24,0.46,0.38,0.68
	l0.08,0.12l0.15,0.23l0.22,0.33l0.21,0.27l0.16,0.2l0.1,0.12c0.16,0.18,0.33,0.36,0.5,0.53l0.04,0.03l0.1,0.09l0.39,0.36l0.22,0.17
	l0.19,0.15l0.15,0.12c0.19,0.14,0.39,0.27,0.6,0.4l0.03,0.02l5.49,3.31l-0.03-0.02l0.02,0.01c-0.27-0.16-0.52-0.34-0.77-0.53
	l-0.18-0.14c-0.21-0.17-0.42-0.35-0.62-0.54l-0.1-0.09c-0.22-0.22-0.43-0.45-0.63-0.69l-0.16-0.2c-0.15-0.19-0.3-0.39-0.44-0.6
	l-0.15-0.23c-0.16-0.26-0.32-0.52-0.46-0.8l-0.05-0.09c-0.16-0.32-0.31-0.66-0.44-1c-0.15-0.4-0.28-0.82-0.39-1.25
	c-0.09-0.35-0.17-0.71-0.23-1.09c-0.12-0.73-0.16-1.47-0.16-2.21c0-0.25,0.05-0.49,0.06-0.74c0.03-0.49,0.06-0.98,0.14-1.47
	c0.1-0.64,0.25-1.26,0.44-1.88l0.09-0.27c0.2-0.61,0.42-1.22,0.69-1.81l0.07-0.15c0.28-0.6,0.6-1.18,0.96-1.75l0.09-0.14
	c0.37-0.58,0.78-1.15,1.23-1.68l0.06-0.07c0.44-0.51,0.91-1,1.4-1.45l0.14-0.13c0.48-0.43,0.99-0.82,1.52-1.19l0.23-0.16
	c0.28-0.19,0.58-0.35,0.88-0.52c0.15-0.08,0.29-0.17,0.44-0.25c0.44-0.23,0.9-0.43,1.36-0.61c3.2-1.19,6.32-0.91,8.77,0.51
	l0.15,0.09L32.01,135.13L32.01,135.13z"/>
<path class="st0" d="M131.68,14.71l-0.15-0.09c-1.22-0.7-2.63-1.14-4.18-1.22c-0.45-0.02-0.9-0.01-1.35,0.02l-0.38,0.04
	c-0.35,0.04-0.7,0.09-1.05,0.16l-0.32,0.06c-0.44,0.1-0.87,0.23-1.29,0.38l-0.27,0.1c-0.35,0.13-0.69,0.28-1.02,0.44l-0.19,0.08
	l-0.18,0.1c-0.28,0.14-0.55,0.3-0.82,0.46l-0.23,0.13l-0.09,0.06c-0.16,0.11-0.32,0.22-0.48,0.33l-0.37,0.26l-0.09,0.07l-0.08,0.06
	l-0.17,0.14c-0.15,0.12-0.31,0.24-0.45,0.37l-0.29,0.27l-0.23,0.21l-0.17,0.16c-0.21,0.21-0.42,0.42-0.62,0.64L117.14,18l-0.11,0.13
	c-0.14,0.15-0.27,0.31-0.4,0.46c-0.12,0.14-0.22,0.28-0.33,0.42l-0.12,0.16l-0.08,0.1c-0.17,0.23-0.33,0.46-0.49,0.7l-0.13,0.21
	l-0.14,0.22l-0.19,0.3c-0.15,0.26-0.3,0.52-0.44,0.79l-0.01,0.01l-0.02,0.05c-0.14,0.26-0.27,0.53-0.39,0.81l-0.12,0.3l-0.14,0.35
	l-0.13,0.32c-0.07,0.18-0.12,0.37-0.18,0.56c-0.05,0.14-0.1,0.29-0.14,0.43l-0.05,0.16c-0.11,0.37-0.2,0.75-0.28,1.14
	c-0.03,0.14-0.06,0.29-0.08,0.43c-0.09,0.51-0.15,1-0.18,1.49l0,0.18c-0.03,0.51-0.03,1.02,0,1.51c0.01,0.17,0.03,0.33,0.04,0.5
	c0.04,0.41,0.09,0.81,0.17,1.2c0.03,0.14,0.05,0.29,0.08,0.43l0.04,0.21c0.1,0.39,0.22,0.76,0.35,1.13l0.06,0.2l0.01,0.03
	c0.13,0.33,0.27,0.66,0.43,0.97l0.2,0.36l0.12,0.22l0.12,0.22c0.14,0.23,0.3,0.46,0.46,0.68l0.22,0.27l0.11,0.14l0.15,0.18
	c0.16,0.18,0.33,0.36,0.5,0.53l0.36,0.33l0.08,0.08l0.08,0.07c0.18,0.15,0.36,0.3,0.55,0.44c0.19,0.14,0.39,0.27,0.59,0.39
	l0.02,0.02h0l5.48,3.31l0,0h0h0c-0.44-0.27-0.86-0.58-1.25-0.92l-0.08-0.08c-0.36-0.32-0.69-0.67-1-1.04l-0.11-0.14
	c-0.29-0.37-0.56-0.76-0.8-1.17l-0.12-0.21c-0.24-0.44-0.46-0.89-0.64-1.36l-0.06-0.2c-0.15-0.43-0.29-0.88-0.39-1.34
	c-0.03-0.14-0.06-0.29-0.08-0.43c-0.07-0.39-0.13-0.79-0.17-1.2c-0.02-0.17-0.03-0.33-0.04-0.5c-0.02-0.49-0.03-1,0-1.51l0-0.18
	c0.04-0.63,0.13-1.27,0.27-1.92c0.09-0.44,0.21-0.87,0.33-1.3c0.04-0.15,0.09-0.29,0.14-0.43c0.1-0.3,0.2-0.59,0.31-0.88l0.14-0.35
	c0.16-0.37,0.32-0.74,0.51-1.1l0.02-0.04c0.2-0.38,0.41-0.75,0.64-1.11l0.14-0.22c0.22-0.35,0.46-0.68,0.7-1.01l0.12-0.16
	c0.23-0.3,0.48-0.6,0.73-0.88l0.11-0.13c0.27-0.3,0.56-0.58,0.85-0.86l0.23-0.21c0.24-0.22,0.49-0.43,0.75-0.63l0.25-0.2
	c0.15-0.12,0.31-0.22,0.46-0.33c0.16-0.11,0.32-0.23,0.48-0.33l0.32-0.19c0.27-0.16,0.54-0.32,0.82-0.46l0.37-0.18
	c0.34-0.16,0.68-0.31,1.02-0.44l0.26-0.1c0.43-0.15,0.86-0.28,1.29-0.38l0.31-0.06c0.35-0.07,0.7-0.13,1.05-0.16l0.38-0.04
	c0.45-0.03,0.9-0.05,1.35-0.02c1.55,0.09,2.96,0.52,4.18,1.22l0.15,0.09L131.68,14.71L131.68,14.71z"/>
<path class="st0" d="M151.61,49.13c-0.23-0.18-0.46-0.38-0.68-0.58l-0.1-0.09c-0.23-0.23-0.45-0.46-0.65-0.71l-0.16-0.19
	c-0.16-0.21-0.32-0.42-0.46-0.65l-0.13-0.19c-0.18-0.29-0.35-0.58-0.5-0.89l-0.15-0.33c-0.1-0.22-0.2-0.44-0.29-0.67
	c-0.15-0.4-0.28-0.81-0.39-1.24l-0.08-0.39c-0.06-0.28-0.12-0.57-0.16-0.86c-0.02-0.16-0.04-0.32-0.06-0.48
	c-0.03-0.27-0.05-0.54-0.06-0.81c-0.01-0.17-0.01-0.35-0.01-0.52c0-0.27,0-0.54,0.02-0.81c0.01-0.18,0.02-0.36,0.04-0.54
	c0.03-0.28,0.06-0.56,0.11-0.84c0.02-0.17,0.05-0.34,0.08-0.51c0.08-0.41,0.17-0.82,0.28-1.23l0.05-0.2l0.1-0.3
	c0.09-0.3,0.19-0.6,0.3-0.91l0.12-0.29c0.12-0.29,0.24-0.58,0.37-0.86l0.15-0.31c0.17-0.36,0.36-0.71,0.56-1.06
	c0.21-0.36,0.44-0.71,0.67-1.05l0.16-0.22c0.23-0.32,0.47-0.64,0.72-0.94l0.08-0.09c0.23-0.28,0.47-0.54,0.72-0.79l0.2-0.2
	c0.28-0.28,0.56-0.54,0.85-0.79l0.09-0.07c0.26-0.22,0.54-0.44,0.81-0.64l0.4-0.28c0.18-0.13,0.37-0.25,0.56-0.37
	c0.26-0.16,0.52-0.3,0.78-0.44l0.39-0.21c0.34-0.17,0.68-0.32,1.03-0.45l0.15-0.07c0.4-0.15,0.8-0.27,1.21-0.38l0.37-0.08
	c0.28-0.06,0.57-0.12,0.85-0.17c0.15-0.02,0.31-0.04,0.46-0.05c0.25-0.03,0.51-0.05,0.76-0.06c0.16,0,0.32,0,0.48,0
	c0.25,0,0.49,0.01,0.73,0.04c0.16,0.01,0.32,0.03,0.48,0.05c0.25,0.03,0.49,0.08,0.73,0.13c0.15,0.03,0.3,0.06,0.45,0.1
	c0.26,0.07,0.52,0.16,0.77,0.25l0.37,0.13c0.37,0.15,0.74,0.33,1.1,0.54l-5.49-3.31c-0.36-0.21-0.72-0.38-1.1-0.54l-0.37-0.13
	c-0.25-0.09-0.51-0.18-0.77-0.25c-0.15-0.04-0.3-0.07-0.45-0.1c-0.24-0.05-0.49-0.1-0.73-0.13c-0.16-0.02-0.32-0.04-0.48-0.05
	c-0.25-0.02-0.49-0.03-0.74-0.04c-0.16,0-0.32,0-0.48,0c-0.25,0.01-0.51,0.03-0.76,0.06c-0.15,0.02-0.31,0.03-0.46,0.05
	c-0.29,0.04-0.57,0.1-0.85,0.17l-0.37,0.08c-0.41,0.11-0.81,0.23-1.21,0.38l-0.15,0.07c-0.35,0.14-0.69,0.28-1.03,0.45l-0.09,0.04
	l-0.3,0.17c-0.26,0.14-0.52,0.28-0.78,0.44L149.51,24l-0.4,0.27l-0.4,0.28l-0.13,0.09c-0.23,0.17-0.46,0.36-0.68,0.54l-0.09,0.07
	l-0.01,0.01c-0.23,0.2-0.46,0.41-0.68,0.62l-0.16,0.16l-0.2,0.2l-0.26,0.27c-0.15,0.17-0.31,0.35-0.46,0.52l-0.08,0.09l-0.03,0.03
	c-0.18,0.22-0.36,0.44-0.53,0.67l-0.17,0.24l-0.16,0.22l-0.17,0.25c-0.16,0.25-0.32,0.5-0.47,0.75l-0.02,0.04
	c-0.15,0.25-0.29,0.51-0.42,0.77l-0.14,0.3l-0.15,0.31l-0.13,0.27c-0.09,0.19-0.16,0.39-0.24,0.59l-0.12,0.3l-0.04,0.09
	c-0.1,0.27-0.18,0.54-0.26,0.81l-0.1,0.31l-0.01,0.03l-0.04,0.17c-0.11,0.41-0.21,0.82-0.28,1.23l-0.03,0.15l-0.05,0.36
	c-0.04,0.28-0.08,0.56-0.11,0.84c-0.02,0.18-0.03,0.36-0.04,0.54c-0.01,0.27-0.02,0.54-0.02,0.81c0,0.18,0,0.35,0.01,0.52
	c0.01,0.27,0.04,0.54,0.06,0.81c0.02,0.16,0.03,0.33,0.05,0.48c0.04,0.29,0.1,0.58,0.16,0.86l0.06,0.32l0.02,0.06
	c0.11,0.42,0.23,0.84,0.39,1.24l0.02,0.05c0.08,0.21,0.18,0.42,0.27,0.62l0.14,0.33l0.01,0.03c0.14,0.27,0.28,0.53,0.44,0.79
	l0.05,0.08l0.13,0.19l0.27,0.4l0.2,0.25l0.16,0.19l0.11,0.14c0.16,0.18,0.32,0.36,0.49,0.53l0.04,0.04l0.1,0.09l0.38,0.34l0.3,0.23
	l0.16,0.12l0.1,0.08c0.19,0.14,0.4,0.27,0.6,0.4l5.48,3.31l0.18,0.11c-0.31-0.18-0.6-0.38-0.89-0.59L151.61,49.13L151.61,49.13z"/>
<path class="st0" d="M178.41,47.55l0.42-0.18c0.38-0.17,0.76-0.32,1.15-0.45c0.17-0.06,0.34-0.11,0.51-0.16
	c0.39-0.11,0.77-0.2,1.16-0.26l0.41-0.08c0.51-0.07,1.02-0.11,1.53-0.11l0.29,0.02c0.41,0.01,0.81,0.05,1.21,0.11
	c0.16,0.02,0.31,0.06,0.47,0.09c0.35,0.07,0.69,0.16,1.03,0.27c0.14,0.05,0.28,0.09,0.42,0.14c0.46,0.17,0.91,0.37,1.33,0.62
	l0.15,0.09l-5.48-3.31l-0.16-0.09c-0.42-0.25-0.87-0.44-1.33-0.62c-0.14-0.05-0.28-0.1-0.42-0.14c-0.33-0.11-0.68-0.2-1.02-0.27
	c-0.16-0.03-0.31-0.06-0.47-0.09c-0.4-0.06-0.8-0.1-1.21-0.11L178.09,43c-0.5,0-1.02,0.04-1.53,0.11l-0.41,0.08
	c-0.39,0.07-0.77,0.16-1.16,0.27c-0.17,0.05-0.34,0.1-0.51,0.16c-0.38,0.13-0.77,0.28-1.15,0.45l-0.41,0.18l-0.16,0.07
	c-0.41,0.21-0.82,0.44-1.22,0.69l-0.12,0.08l-0.19,0.13c-0.21,0.14-0.42,0.28-0.63,0.43c-0.27,0.2-0.54,0.42-0.8,0.64l-0.05,0.05
	c-0.22,0.19-0.43,0.39-0.64,0.59l-0.23,0.24l-0.2,0.21l-0.19,0.19c-0.2,0.21-0.39,0.43-0.57,0.65l-0.03,0.04l-0.07,0.09
	c-0.14,0.18-0.29,0.36-0.42,0.54l-0.23,0.33l-0.15,0.21l-0.11,0.16c-0.16,0.24-0.31,0.49-0.46,0.74l-0.04,0.08l-0.11,0.19
	c-0.1,0.17-0.2,0.35-0.29,0.52l-0.15,0.32l-0.15,0.32l-0.11,0.23c-0.09,0.19-0.16,0.38-0.23,0.58l-0.13,0.31l-0.04,0.09
	c-0.08,0.22-0.14,0.44-0.21,0.66c-0.05,0.15-0.1,0.29-0.15,0.44l-0.02,0.05l-0.05,0.22c-0.1,0.39-0.19,0.78-0.27,1.17l-0.04,0.18
	l-0.04,0.33c-0.04,0.27-0.08,0.54-0.1,0.81c-0.02,0.18-0.03,0.36-0.04,0.54c-0.02,0.27-0.02,0.54-0.02,0.8c0,0.17,0,0.35,0.01,0.52
	c0.01,0.27,0.04,0.55,0.06,0.82c0.02,0.16,0.03,0.32,0.05,0.48c0.04,0.31,0.1,0.61,0.17,0.91l0.06,0.31l0.01,0.04
	c0.11,0.42,0.24,0.84,0.39,1.25l0.02,0.05c0.11,0.29,0.24,0.57,0.37,0.85l0.06,0.13l0,0.01c0.14,0.27,0.29,0.54,0.45,0.8l0.13,0.21
	c0.11,0.16,0.21,0.32,0.33,0.47c0.15,0.21,0.31,0.41,0.48,0.6c0.16,0.18,0.33,0.36,0.49,0.53l0.05,0.05l0.04,0.04
	c0.14,0.13,0.28,0.27,0.43,0.39c0.18,0.15,0.36,0.29,0.55,0.43c0.19,0.14,0.39,0.27,0.59,0.39l0.03,0.02l0,0l3.31,2l2.17,1.31
	l-0.02-0.01l0.02,0.01c-0.57-0.34-1.1-0.76-1.59-1.23l-0.04-0.04c-0.49-0.48-0.95-1.03-1.35-1.64c-0.21-0.33-0.41-0.67-0.58-1.02
	l-0.06-0.13c-0.14-0.29-0.27-0.59-0.39-0.9c-0.15-0.41-0.28-0.82-0.39-1.25l-0.07-0.35c-0.07-0.3-0.13-0.6-0.17-0.91
	c-0.02-0.16-0.03-0.32-0.05-0.48c-0.03-0.27-0.05-0.54-0.06-0.82c-0.01-0.17-0.01-0.35-0.01-0.53c0-0.27,0.01-0.53,0.02-0.8
	c0.01-0.18,0.02-0.36,0.04-0.54c0.03-0.27,0.06-0.54,0.1-0.81c0.03-0.17,0.05-0.34,0.08-0.51c0.07-0.39,0.16-0.78,0.27-1.17
	l0.07-0.27c0.04-0.15,0.1-0.29,0.14-0.44c0.08-0.25,0.16-0.5,0.25-0.75l0.13-0.31c0.11-0.27,0.22-0.54,0.35-0.81l0.15-0.32
	c0.14-0.29,0.29-0.57,0.44-0.84l0.11-0.19c0.19-0.33,0.4-0.66,0.62-0.98l0.15-0.21c0.21-0.29,0.42-0.58,0.66-0.87l0.07-0.1
	c0.25-0.3,0.51-0.59,0.78-0.88l0.2-0.21c0.28-0.28,0.57-0.56,0.87-0.83c0.48-0.42,0.98-0.78,1.48-1.12l0.19-0.13
	C177.41,48.07,177.91,47.79,178.41,47.55L178.41,47.55z"/>
<path class="st0" d="M194.38,74.57l-0.15-0.09c-1.53-0.88-3.32-1.33-5.23-1.24c-1.15,0.05-2.34,0.29-3.54,0.74
	c-0.44,0.17-0.88,0.36-1.3,0.57l-0.07,0.04c-0.14,0.07-0.28,0.16-0.42,0.24c-0.25,0.14-0.5,0.27-0.73,0.42l-0.15,0.11l-0.1,0.06
	l-0.12,0.1c-0.19,0.13-0.37,0.25-0.55,0.38c-0.27,0.2-0.53,0.41-0.78,0.63l-0.2,0.18l-0.13,0.12l-0.35,0.32
	c-0.21,0.21-0.42,0.42-0.62,0.64c-0.15,0.16-0.29,0.33-0.43,0.5l-0.07,0.08l-0.07,0.08c-0.18,0.22-0.36,0.44-0.53,0.68
	c-0.17,0.23-0.34,0.47-0.5,0.71l-0.14,0.21l-0.09,0.14l-0.24,0.39c-0.16,0.26-0.3,0.53-0.44,0.8c-0.1,0.18-0.18,0.37-0.27,0.56
	l-0.07,0.15l-0.08,0.16c-0.14,0.32-0.28,0.65-0.4,0.98c-0.08,0.22-0.15,0.45-0.22,0.67l-0.08,0.26l-0.07,0.21
	c-0.15,0.51-0.27,1.03-0.36,1.55l-0.01,0.12c-0.08,0.49-0.11,0.98-0.14,1.48c-0.02,0.25-0.06,0.49-0.06,0.74
	c0,0.74,0.04,1.48,0.16,2.21c0.06,0.34,0.12,0.68,0.21,1.01l0.02,0.08c0.11,0.43,0.24,0.85,0.39,1.25l0.01,0.02
	c0.13,0.33,0.27,0.66,0.42,0.96l0.01,0.01l0.06,0.1c0.12,0.23,0.24,0.46,0.38,0.67l0.08,0.11l0.15,0.23l0.22,0.33l0.22,0.27
	l0.16,0.19l0.1,0.12c0.16,0.18,0.33,0.36,0.5,0.53l0.04,0.03l0.1,0.09l0.39,0.36l0.22,0.17l0.19,0.15l0.15,0.12
	c0.19,0.14,0.39,0.27,0.6,0.4l0.02,0.02l5.49,3.31l0,0l0,0c-0.27-0.16-0.52-0.34-0.77-0.53l-0.19-0.15
	c-0.21-0.17-0.42-0.34-0.61-0.53l-0.1-0.09c-0.22-0.21-0.43-0.44-0.63-0.68l-0.16-0.2c-0.15-0.19-0.3-0.39-0.44-0.6l-0.15-0.23
	c-0.16-0.25-0.32-0.52-0.46-0.79l-0.05-0.09c-0.16-0.32-0.31-0.66-0.44-1c-0.15-0.4-0.28-0.82-0.39-1.25
	c-0.09-0.35-0.17-0.71-0.23-1.09c-0.12-0.73-0.17-1.47-0.16-2.21c0-0.25,0.04-0.49,0.06-0.74c0.03-0.49,0.06-0.99,0.14-1.48
	c0.1-0.63,0.25-1.26,0.44-1.88l0.08-0.26c0.2-0.62,0.43-1.22,0.7-1.81l0.07-0.15c0.28-0.6,0.6-1.19,0.96-1.75l0.09-0.14
	c0.37-0.58,0.78-1.14,1.23-1.67l0.07-0.08c0.44-0.51,0.91-1,1.4-1.45L186.5,80c0.48-0.43,0.99-0.82,1.52-1.19l0.23-0.16
	c0.29-0.19,0.59-0.36,0.89-0.52c0.14-0.08,0.28-0.17,0.42-0.24c0.45-0.23,0.9-0.43,1.37-0.61c3.2-1.19,6.32-0.91,8.77,0.51
	l0.15,0.09L194.38,74.57L194.38,74.57z"/>
<path class="st0" d="M29.6,72.16c-3.77,6.43-2.54,14.13,2.75,17.18c5.29,3.05,12.63,0.31,16.4-6.13c3.76-6.42,2.54-14.11-2.75-17.16
	C40.71,63,33.36,65.74,29.6,72.16 M147.16,46.52c5.29,3.05,12.64,0.31,16.41-6.12c3.77-6.43,2.53-14.12-2.76-17.17
	c-5.29-3.05-12.62-0.32-16.39,6.11C140.65,35.78,141.87,43.47,147.16,46.52 M26.97,158.81c6.41-2.38,10.73-9.75,9.65-16.47
	c-0.54-3.35-2.32-5.9-4.77-7.31s-5.57-1.7-8.77-0.51c-6.4,2.4-10.72,9.77-9.65,16.47c0.54,3.36,2.32,5.91,4.77,7.33
	C20.66,159.74,23.77,160.01,26.97,158.81 M94.54,43.52c6.4-2.38,10.72-9.75,9.65-16.47c-0.54-3.35-2.32-5.9-4.77-7.31
	c-2.45-1.42-5.57-1.7-8.77-0.51c-6.4,2.4-10.72,9.77-9.65,16.47c0.54,3.36,2.32,5.91,4.77,7.33C88.23,44.45,91.34,44.72,94.54,43.52
	 M189.34,98.26c6.4-2.38,10.72-9.75,9.65-16.47c-0.54-3.35-2.32-5.9-4.77-7.31c-2.45-1.41-5.57-1.7-8.77-0.51
	c-6.41,2.39-10.73,9.76-9.65,16.47c0.54,3.36,2.32,5.91,4.77,7.33C183.03,99.18,186.14,99.46,189.34,98.26 M42.65,186.47
	c5.5-4.77,7.18-12.94,3.74-18.21c-0.85-1.29-1.92-2.3-3.14-3c-3.76-2.17-8.91-1.52-13.06,2.08c-5.5,4.78-7.18,12.92-3.73,18.2
	c0.84,1.3,1.92,2.3,3.14,3.01C33.35,190.72,38.5,190.06,42.65,186.47 M182.23,65.46c5.5-4.77,7.17-12.92,3.74-18.21
	c-0.85-1.29-1.92-2.3-3.14-3c-3.76-2.17-8.91-1.52-13.06,2.08c-5.5,4.78-7.17,12.92-3.74,18.22c0.85,1.29,1.92,2.3,3.14,3
	C172.93,69.71,178.08,69.06,182.23,65.46 M122.05,39.15c6.33,0.35,12.64-5.12,14.1-12.23c1.1-5.37-0.87-10.13-4.63-12.3
	c-1.22-0.7-2.63-1.14-4.18-1.22c-6.33-0.35-12.64,5.12-14.1,12.23c-1.1,5.36,0.87,10.13,4.63,12.3
	C119.09,38.63,120.5,39.06,122.05,39.15 M56.33,39.88c-5.5,4.77-7.18,12.92-3.73,18.2c0.85,1.3,1.92,2.31,3.15,3.02
	c3.75,2.17,8.9,1.52,13.05-2.08c5.51-4.77,7.18-12.94,3.74-18.21c-0.85-1.29-1.92-2.3-3.14-3C65.63,35.63,60.48,36.28,56.33,39.88
	 M19.17,123.49c1.22,0.7,2.63,1.14,4.18,1.22c6.33,0.35,12.65-5.12,14.1-12.23c1.1-5.37-0.87-10.13-4.63-12.3
	c-1.22-0.7-2.63-1.14-4.18-1.23c-6.33-0.35-12.64,5.12-14.1,12.23C13.43,116.56,15.41,121.32,19.17,123.49 M210.45,77.53
	c9.67,60.28-29.18,126.56-86.75,148.02c-28.79,10.74-56.81,8.24-78.83-4.48c-22.03-12.72-38.07-35.66-42.89-65.8
	C-7.68,95,31.16,28.72,88.72,7.25c28.79-10.74,56.81-8.24,78.83,4.48C189.58,24.44,205.62,47.38,210.45,77.53L210.45,77.53z"/>
<path class="st0" d="M214.23,127.75c0.35-1.56,0.66-3.13,0.95-4.7c0.08-0.46,0.2-0.91,0.28-1.36c0.03-0.17,0.05-0.34,0.08-0.51
	c0.12-0.67,0.21-1.35,0.31-2.02c0.18-1.13,0.35-2.26,0.49-3.39c0.09-0.73,0.17-1.47,0.25-2.2c0.12-1.08,0.23-2.16,0.33-3.24
	c0.07-0.76,0.12-1.52,0.17-2.28c0.07-1.06,0.13-2.13,0.18-3.19c0.03-0.76,0.06-1.52,0.08-2.29c0.03-1.07,0.03-2.14,0.03-3.22
	c0-0.75,0-1.5-0.02-2.25c-0.02-1.11-0.07-2.21-0.12-3.32c-0.04-0.71-0.06-1.42-0.11-2.12c-0.08-1.22-0.19-2.43-0.31-3.64
	c-0.06-0.59-0.1-1.18-0.17-1.78c-0.2-1.8-0.44-3.6-0.73-5.39c-0.27-1.71-0.59-3.39-0.94-5.06c-0.11-0.53-0.24-1.05-0.36-1.58
	c-0.18-0.8-0.34-1.6-0.54-2.39c-0.06-0.25-0.14-0.49-0.21-0.73c-0.37-1.45-0.77-2.87-1.2-4.28c-0.15-0.49-0.28-0.99-0.43-1.47
	c-0.59-1.87-1.23-3.71-1.92-5.51l-0.07-0.2c-0.47-1.24-0.98-2.45-1.5-3.66c-0.1-0.23-0.19-0.48-0.29-0.71
	c-0.64-1.46-1.32-2.89-2.02-4.3l-0.07-0.14c-0.12-0.24-0.26-0.48-0.38-0.72c-0.58-1.13-1.18-2.24-1.79-3.33
	c-0.25-0.44-0.52-0.88-0.77-1.32c-0.3-0.52-0.6-1.04-0.91-1.55c-0.24-0.39-0.5-0.76-0.74-1.15c-0.24-0.38-0.48-0.76-0.73-1.14
	c-0.69-1.04-1.39-2.06-2.12-3.07c-0.13-0.18-0.26-0.37-0.39-0.55l-0.1-0.14c-0.1-0.14-0.22-0.26-0.32-0.4
	c-1.1-1.47-2.24-2.89-3.41-4.27c-0.17-0.21-0.33-0.43-0.51-0.64c-0.2-0.23-0.42-0.43-0.61-0.66c-1.05-1.18-2.12-2.33-3.23-3.44
	c-0.21-0.21-0.41-0.45-0.62-0.66l-0.22-0.2c-1.36-1.33-2.76-2.61-4.2-3.85l-0.29-0.26c-0.25-0.21-0.52-0.4-0.78-0.61
	c-1.14-0.94-2.3-1.85-3.49-2.73c-0.25-0.18-0.48-0.39-0.73-0.58c-0.38-0.28-0.78-0.54-1.17-0.81c-0.29-0.2-0.58-0.41-0.88-0.61
	c-1.1-0.74-2.2-1.46-3.33-2.15l-0.23-0.14l-5.48-3.31c1.21,0.73,2.39,1.5,3.56,2.29c0.3,0.2,0.59,0.4,0.88,0.61
	c0.64,0.45,1.27,0.92,1.9,1.38c1.18,0.88,2.35,1.79,3.49,2.73c0.36,0.29,0.72,0.58,1.07,0.88c1.44,1.23,2.84,2.51,4.2,3.85
	c0.28,0.28,0.56,0.58,0.84,0.86c1.1,1.11,2.18,2.26,3.22,3.44c0.38,0.43,0.76,0.86,1.13,1.3c1.17,1.38,2.31,2.8,3.41,4.26
	c0.14,0.19,0.29,0.36,0.43,0.55c0.13,0.18,0.25,0.36,0.38,0.54c0.73,1.01,1.43,2.03,2.12,3.08c0.25,0.37,0.49,0.75,0.73,1.13
	c0.56,0.89,1.11,1.79,1.65,2.7c0.26,0.44,0.52,0.87,0.77,1.32c0.62,1.09,1.21,2.2,1.79,3.33c0.13,0.24,0.26,0.48,0.38,0.72
	c0.73,1.45,1.43,2.93,2.09,4.43c0.1,0.23,0.19,0.48,0.29,0.71c0.54,1.27,1.08,2.55,1.57,3.85c0.69,1.8,1.32,3.64,1.92,5.51
	c0.15,0.48,0.28,0.98,0.43,1.47c0.42,1.41,0.83,2.83,1.2,4.28c0.26,1.03,0.51,2.07,0.74,3.13c0.12,0.53,0.25,1.05,0.36,1.58
	c0.35,1.66,0.66,3.35,0.94,5.06c0.29,1.79,0.53,3.59,0.73,5.4c0.07,0.59,0.11,1.18,0.16,1.78c0.12,1.21,0.23,2.43,0.31,3.64
	c0.05,0.71,0.07,1.42,0.1,2.12c0.06,1.11,0.1,2.21,0.12,3.32c0.02,0.75,0.02,1.5,0.02,2.25c0,1.07-0.01,2.14-0.03,3.21
	c-0.02,0.77-0.05,1.53-0.08,2.3c-0.04,1.06-0.1,2.13-0.18,3.19c-0.05,0.76-0.11,1.52-0.17,2.28c-0.09,1.08-0.21,2.16-0.33,3.24
	c-0.08,0.73-0.16,1.47-0.25,2.2c-0.15,1.13-0.32,2.26-0.49,3.39c-0.1,0.67-0.2,1.35-0.31,2.02c-0.11,0.62-0.24,1.24-0.35,1.87
	c-0.29,1.57-0.61,3.14-0.95,4.71c-0.17,0.75-0.34,1.49-0.52,2.23c-0.35,1.45-0.72,2.9-1.12,4.34c-0.21,0.78-0.43,1.57-0.65,2.35
	c-0.23,0.8-0.48,1.6-0.73,2.39c-0.31,0.99-0.62,1.98-0.96,2.96c-0.27,0.8-0.55,1.59-0.83,2.38c-0.37,1.04-0.75,2.07-1.14,3.09
	c-0.23,0.6-0.46,1.2-0.7,1.79c-0.46,1.16-0.94,2.31-1.43,3.46c-0.22,0.5-0.42,1.01-0.64,1.51c-0.69,1.58-1.42,3.15-2.17,4.7
	c-0.15,0.3-0.3,0.6-0.45,0.91c-0.56,1.14-1.14,2.27-1.73,3.39c-1.13,2.16-2.3,4.29-3.54,6.39c-0.17,0.29-0.35,0.57-0.52,0.85
	c-1.05,1.75-2.13,3.48-3.25,5.19c-0.39,0.6-0.79,1.2-1.2,1.79c-0.98,1.46-1.99,2.89-3.03,4.31c-0.36,0.5-0.71,1-1.08,1.5
	c-1.38,1.85-2.81,3.67-4.28,5.46c-0.25,0.31-0.52,0.6-0.77,0.9c-1.25,1.5-2.54,2.97-3.85,4.41c-0.47,0.52-0.95,1.04-1.44,1.55
	c-1.29,1.38-2.61,2.73-3.95,4.05c-0.38,0.37-0.75,0.76-1.13,1.12c-1.76,1.7-3.57,3.35-5.42,4.95c-1.12,0.97-2.25,1.93-3.39,2.86
	l-0.4,0.33c-1.35,1.08-2.72,2.13-4.1,3.16c-0.55,0.41-1.11,0.8-1.66,1.2c-0.93,0.67-1.85,1.33-2.8,1.97
	c-0.61,0.41-1.22,0.81-1.83,1.21c-0.85,0.55-1.7,1.1-2.55,1.63c-1,0.63-2.02,1.23-3.04,1.83c-0.73,0.43-1.46,0.86-2.2,1.27
	c-1.07,0.6-2.15,1.16-3.23,1.72c-0.71,0.37-1.42,0.75-2.14,1.11c-1.22,0.6-2.46,1.17-3.7,1.73c-0.61,0.28-1.21,0.57-1.83,0.84
	c-1.86,0.81-3.74,1.57-5.65,2.28c-28.79,10.74-56.81,8.24-78.83-4.48c-0.47-0.27-0.93-0.54-1.39-0.82l0.01,0l-0.01,0l5.48,3.31
	c0.46,0.28,0.93,0.55,1.39,0.82c22.03,12.72,50.05,15.22,78.83,4.48c1.91-0.71,3.79-1.48,5.65-2.28c0.61-0.27,1.21-0.56,1.83-0.84
	c1.24-0.56,2.48-1.13,3.69-1.73c0.18-0.09,0.36-0.16,0.53-0.25c0.54-0.27,1.07-0.58,1.61-0.86c1.08-0.56,2.17-1.13,3.24-1.73
	c0.74-0.41,1.47-0.84,2.2-1.27c1.02-0.6,2.03-1.2,3.04-1.82c0.32-0.2,0.65-0.38,0.96-0.58c0.54-0.34,1.06-0.71,1.6-1.06
	c0.61-0.4,1.22-0.8,1.83-1.21c0.94-0.64,1.87-1.3,2.8-1.97c0.55-0.4,1.11-0.79,1.66-1.19c0.16-0.12,0.33-0.23,0.49-0.35
	c1.22-0.91,2.42-1.85,3.61-2.81l0.39-0.32c1-0.81,2.01-1.64,2.99-2.48c0.14-0.12,0.28-0.26,0.42-0.38c1.85-1.6,3.65-3.24,5.41-4.94
	l0.31-0.28c0.28-0.27,0.54-0.57,0.82-0.85c1.34-1.32,2.66-2.67,3.95-4.05c0.26-0.27,0.54-0.53,0.79-0.81
	c0.22-0.24,0.42-0.5,0.65-0.74c1.31-1.44,2.59-2.91,3.85-4.41c0.2-0.25,0.42-0.47,0.63-0.72l0.15-0.19c1.47-1.78,2.89-3.6,4.27-5.45
	c0.11-0.15,0.23-0.29,0.34-0.43c0.26-0.35,0.5-0.72,0.75-1.07c1.03-1.42,2.04-2.85,3.02-4.3c0.22-0.33,0.46-0.64,0.68-0.97
	c0.18-0.27,0.34-0.55,0.51-0.82c1.12-1.7,2.2-3.43,3.24-5.18c0.14-0.24,0.3-0.46,0.44-0.7l0.09-0.16c1.24-2.1,2.41-4.23,3.54-6.39
	c0.12-0.22,0.25-0.43,0.36-0.65c0.47-0.91,0.92-1.83,1.37-2.75c0.15-0.3,0.3-0.59,0.45-0.89c0.67-1.4,1.33-2.8,1.96-4.22
	c0.07-0.16,0.14-0.33,0.21-0.49c0.22-0.5,0.42-1,0.64-1.49c0.49-1.15,0.97-2.31,1.44-3.47c0.24-0.6,0.46-1.19,0.69-1.79
	c0.2-0.52,0.41-1.03,0.6-1.55c0.19-0.51,0.35-1.03,0.54-1.54c0.28-0.79,0.56-1.59,0.83-2.38c0.33-0.98,0.65-1.97,0.95-2.96
	c0.25-0.8,0.5-1.59,0.73-2.39c0.1-0.33,0.21-0.66,0.31-1c0.13-0.45,0.22-0.9,0.35-1.35c0.4-1.44,0.77-2.89,1.12-4.34
	C213.89,129.24,214.07,128.49,214.23,127.75L214.23,127.75z"/>
<path class="st0" d="M145.62,122.98c0.11-0.49,0.21-0.98,0.31-1.47c0.03-0.16,0.07-0.32,0.1-0.48l0.04-0.28
	c0.21-1.18,0.38-2.37,0.5-3.56c0.02-0.19,0.04-0.38,0.05-0.56c0.12-1.21,0.19-2.41,0.21-3.62c0-0.16,0-0.32,0-0.48
	c0.01-1.24-0.02-2.48-0.1-3.72l-0.03-0.31c-0.1-1.3-0.24-2.59-0.46-3.88c-0.22-1.35-0.51-2.65-0.85-3.92
	c-0.04-0.14-0.07-0.29-0.11-0.43l-0.07-0.28c-0.31-1.1-0.67-2.16-1.06-3.2c-0.07-0.19-0.14-0.38-0.21-0.56
	c-0.07-0.18-0.14-0.37-0.21-0.56c-0.28-0.69-0.61-1.33-0.93-1.98c-0.16-0.34-0.31-0.69-0.48-1.02l-0.08-0.18
	c-0.48-0.9-0.98-1.77-1.52-2.6l-0.17-0.25c-0.14-0.21-0.29-0.41-0.43-0.61c-0.32-0.46-0.63-0.94-0.97-1.38
	c-0.22-0.29-0.46-0.55-0.69-0.83c-0.18-0.22-0.36-0.44-0.54-0.66c-0.14-0.16-0.27-0.34-0.41-0.5c-0.55-0.62-1.13-1.21-1.72-1.78
	l-0.11-0.1l-0.3-0.27c-0.46-0.42-0.92-0.85-1.4-1.24c-0.27-0.23-0.57-0.43-0.85-0.65c-0.2-0.15-0.4-0.31-0.61-0.46
	c-0.16-0.11-0.31-0.24-0.47-0.35c-0.67-0.47-1.36-0.91-2.06-1.33l-0.27-0.15l-5.55-3.2c0.96,0.56,1.89,1.18,2.79,1.84
	c0.21,0.15,0.41,0.31,0.61,0.46c0.77,0.59,1.52,1.21,2.24,1.88l0.31,0.27c0.78,0.74,1.53,1.54,2.24,2.37
	c0.19,0.22,0.37,0.44,0.55,0.66c0.58,0.71,1.13,1.45,1.66,2.21c0.14,0.2,0.29,0.4,0.43,0.61c0.64,0.97,1.23,1.98,1.78,3.03
	c0.17,0.33,0.31,0.69,0.48,1.02c0.4,0.83,0.79,1.67,1.14,2.54c0.07,0.19,0.14,0.37,0.21,0.56c0.42,1.12,0.81,2.28,1.14,3.48
	c0.04,0.14,0.07,0.29,0.11,0.43c0.33,1.27,0.63,2.57,0.85,3.92c0.21,1.29,0.36,2.58,0.46,3.88l0.03,0.31
	c0.09,1.24,0.12,2.48,0.1,3.72c0,0.16,0,0.32,0,0.48c-0.02,1.21-0.1,2.42-0.21,3.62c-0.02,0.19-0.03,0.38-0.05,0.56
	c-0.13,1.19-0.29,2.37-0.5,3.56c-0.04,0.26-0.09,0.51-0.14,0.77c-0.09,0.49-0.2,0.97-0.3,1.46c-0.07,0.31-0.14,0.61-0.21,0.92
	c-0.12,0.51-0.26,1.02-0.4,1.52c-0.07,0.25-0.13,0.51-0.2,0.76c-0.33,1.13-0.7,2.26-1.1,3.37c-0.07,0.19-0.14,0.39-0.21,0.58
	c-0.36,0.97-0.74,1.93-1.16,2.88c-0.08,0.18-0.16,0.36-0.24,0.54c-0.33,0.74-0.68,1.47-1.04,2.2c-0.1,0.21-0.21,0.42-0.32,0.63
	c-0.42,0.82-0.86,1.63-1.32,2.43l-0.21,0.35c-0.39,0.66-0.79,1.31-1.21,1.95c-0.15,0.23-0.31,0.47-0.46,0.7
	c-0.36,0.54-0.73,1.08-1.11,1.61c-0.15,0.2-0.29,0.41-0.44,0.61c-0.52,0.71-1.06,1.41-1.61,2.09l-0.2,0.23
	c-0.5,0.61-1.02,1.21-1.54,1.79c-0.18,0.2-0.36,0.39-0.54,0.59c-0.47,0.51-0.95,1.01-1.44,1.5c-0.17,0.17-0.33,0.34-0.5,0.5
	c-0.67,0.65-1.35,1.29-2.04,1.9l-0.39,0.33c-0.67,0.58-1.35,1.13-2.04,1.67c-0.16,0.13-0.32,0.25-0.49,0.38
	c-0.89,0.68-1.81,1.32-2.74,1.93c-0.23,0.15-0.46,0.3-0.7,0.45c-0.38,0.24-0.75,0.47-1.14,0.7c-0.29,0.17-0.57,0.34-0.86,0.5
	c-0.39,0.22-0.79,0.44-1.19,0.65c-0.28,0.15-0.57,0.3-0.85,0.45c-0.48,0.24-0.97,0.47-1.46,0.7c-0.23,0.11-0.47,0.22-0.71,0.33
	c-0.73,0.32-1.47,0.63-2.22,0.91c-6.18,2.33-12.27,3.05-17.93,2.37c-4.4-0.53-8.53-1.91-12.23-4.05l0,0l0,0l5.55,3.2
	c8.45,4.88,19.17,5.82,30.15,1.68c0.75-0.28,1.49-0.59,2.22-0.91c0.24-0.1,0.47-0.22,0.7-0.33c0.49-0.23,0.98-0.46,1.47-0.7
	l0.28-0.14c0.19-0.1,0.38-0.21,0.57-0.31c0.4-0.21,0.8-0.42,1.19-0.65c0.29-0.16,0.57-0.33,0.85-0.5c0.38-0.23,0.76-0.46,1.14-0.7
	c0.15-0.09,0.3-0.18,0.45-0.27l0.25-0.18c0.93-0.62,1.85-1.26,2.74-1.94l0.17-0.12l0.31-0.26c0.69-0.54,1.38-1.1,2.04-1.68
	l0.28-0.23l0.11-0.11c0.7-0.61,1.38-1.25,2.04-1.9l0.16-0.15l0.34-0.35c0.49-0.49,0.97-0.99,1.44-1.5l0.32-0.33l0.22-0.26
	c0.53-0.59,1.04-1.19,1.54-1.8l0.17-0.19l0.03-0.04c0.55-0.68,1.09-1.38,1.61-2.09l0.15-0.19c0.1-0.14,0.19-0.28,0.29-0.42
	c0.38-0.53,0.75-1.07,1.11-1.61l0.27-0.39l0.19-0.31c0.42-0.65,0.83-1.3,1.21-1.97l0.17-0.27l0.03-0.06c0.46-0.8,0.9-1.61,1.33-2.43
	l0.13-0.24l0.19-0.39c0.36-0.73,0.71-1.46,1.05-2.21l0.18-0.37l0.06-0.16c0.41-0.95,0.8-1.91,1.16-2.88l0.11-0.27l0.1-0.31
	c0.4-1.11,0.77-2.24,1.1-3.37l0.04-0.14c0.06-0.2,0.1-0.41,0.16-0.62c0.14-0.51,0.27-1.02,0.4-1.53
	C145.48,123.59,145.55,123.29,145.62,122.98L145.62,122.98z"/>
<path class="st0" d="M124.18,76.14c8.45,4.88,14.63,13.69,16.52,25.28c3.81,23.19-10.93,48.72-32.92,57.02
	c-10.98,4.15-21.7,3.2-30.15-1.68c-8.45-4.88-14.63-13.69-16.54-25.28c-3.81-23.19,10.93-48.72,32.92-57.02
	C105,70.32,115.73,71.26,124.18,76.14L124.18,76.14z"/>
<path class="st0" d="M86.08,232.28c-8.93-0.15-17.53-1.6-25.59-4.24l20.55-55.27L86.08,232.28L86.08,232.28z"/>
<path class="st0" d="M63.3,230.42l-2.81-2.38h0.04c8.05,2.65,16.63,4.11,25.55,4.24l3.86,3.28l0,0"/>
</svg>
