<?xml version="1.0" encoding="utf-8"?>
<!-- Generator: Adobe Illustrator 23.0.2, SVG Export Plug-In . SVG Version: 6.00 Build 0)  -->
<svg version="1.1" id="Layer_1" xmlns="http://www.w3.org/2000/svg" xmlns:xlink="http://www.w3.org/1999/xlink" x="0px" y="0px"
	 width="47.93px" height="41.85px" viewBox="0 0 47.93 41.85" style="enable-background:new 0 0 47.93 41.85;" xml:space="preserve"
	>
<style type="text/css">
	.st0{fill:#121212;stroke:#898989;stroke-miterlimit:10;}
	.st1{fill:#121212;stroke:#898989;stroke-linejoin:round;stroke-miterlimit:10;}
	.st2{fill:#121212;stroke:#F1E827;stroke-miterlimit:10;}
</style>
<path class="st0" d="M47.37,14.82c-0.02,0.25-0.04,0.49-0.08,0.73c-0.04,0.2-0.1,0.4-0.15,0.6c-0.06,0.23-0.12,0.47-0.2,0.7
	c-0.07,0.19-0.16,0.38-0.24,0.57c-0.11,0.25-0.21,0.49-0.34,0.73c-0.09,0.17-0.21,0.34-0.31,0.52c-0.17,0.28-0.35,0.55-0.55,0.82
	c-0.12,0.16-0.25,0.32-0.38,0.47c-0.3,0.36-0.63,0.72-0.99,1.07c-0.13,0.13-0.25,0.26-0.39,0.39c-0.23,0.2-0.48,0.4-0.72,0.6
	c-0.21,0.17-0.42,0.35-0.66,0.52c-0.27,0.19-0.56,0.38-0.85,0.57c-0.29,0.19-0.57,0.39-0.89,0.57c-1.02,0.59-2.13,1.09-3.27,1.55
	c-0.3,0.12-0.61,0.23-0.91,0.35c-0.71,0.26-1.46,0.46-2.2,0.67c-0.77,0.22-1.55,0.42-2.35,0.59c-0.93,0.19-1.87,0.37-2.83,0.49
	c-0.24,0.03-0.47,0.07-0.71,0.1c-1.3,0.14-2.62,0.21-3.94,0.22c-0.21,0-0.42,0-0.63,0c-1.3-0.01-2.6-0.08-3.89-0.21
	c-0.2-0.02-0.39-0.04-0.58-0.07c-1.28-0.15-2.54-0.37-3.76-0.64c-0.22-0.05-0.44-0.11-0.67-0.16c-1.12-0.27-2.2-0.61-3.25-0.99
	c-0.19-0.07-0.39-0.12-0.57-0.19c-1.26-0.49-2.46-1.04-3.57-1.69c-4.62-2.67-6.93-6.17-6.92-9.67L0.5,27.72
	c-0.01,3.5,2.3,7,6.92,9.67c1.06,0.61,2.19,1.15,3.38,1.62L11,39.08c0.19,0.07,0.39,0.13,0.57,0.19c0.68,0.25,1.36,0.5,2.08,0.7
	c0.38,0.11,0.79,0.19,1.18,0.29c0.22,0.05,0.44,0.11,0.67,0.16c0.2,0.05,0.39,0.1,0.6,0.15c0.76,0.16,1.54,0.29,2.32,0.41
	c0.28,0.04,0.57,0.06,0.85,0.09c0.19,0.02,0.39,0.05,0.58,0.07c0.28,0.03,0.56,0.07,0.84,0.09c0.76,0.06,1.53,0.1,2.3,0.12
	c0.25,0.01,0.5-0.01,0.74,0c0.21,0,0.42,0,0.62,0c0.34,0,0.69,0.01,1.03,0c0.87-0.03,1.74-0.09,2.6-0.17l0.31-0.04
	c0.24-0.02,0.47-0.07,0.71-0.1c0.66-0.08,1.33-0.16,1.98-0.28c0.29-0.05,0.56-0.15,0.85-0.21c0.8-0.17,1.58-0.37,2.35-0.59
	c0.41-0.11,0.84-0.18,1.24-0.31c0.33-0.11,0.64-0.25,0.96-0.37c0.31-0.11,0.61-0.22,0.91-0.34c1.15-0.46,2.26-0.96,3.27-1.56
	l0.29-0.17c0.21-0.13,0.4-0.27,0.6-0.4c0.29-0.19,0.58-0.37,0.85-0.57c0.23-0.17,0.44-0.34,0.65-0.52c0.25-0.2,0.5-0.4,0.72-0.6
	L43.83,35l0.24-0.26c0.36-0.35,0.69-0.71,0.99-1.07l0.22-0.23l0.16-0.24c0.2-0.27,0.38-0.54,0.55-0.82l0.23-0.34l0.08-0.18
	c0.13-0.24,0.24-0.48,0.34-0.73c0.06-0.14,0.15-0.28,0.2-0.43l0.04-0.15c0.08-0.23,0.14-0.46,0.2-0.7c0.04-0.16,0.1-0.32,0.14-0.48
	l0.02-0.13c0.04-0.24,0.06-0.49,0.08-0.73c0.02-0.16,0.05-0.32,0.06-0.48l0-0.21l0.04-13.7C47.43,14.36,47.39,14.59,47.37,14.82
	L47.37,14.82z"/>
<path class="st0" d="M40.52,4.48c9.19,5.3,9.22,13.89,0.09,19.2c-9.13,5.3-23.95,5.32-33.14,0.01c-9.19-5.3-9.24-13.9-0.11-19.21
	C16.48-0.83,31.33-0.83,40.52,4.48L40.52,4.48z"/>
</svg>
