<?xml version="1.0" encoding="UTF-8"?> <svg xmlns="http://www.w3.org/2000/svg" width="64" height="70" viewBox="0 0 64 70"><g fill="none" fill-rule="evenodd" stroke-linecap="round" stroke-linejoin="round" stroke-width="2" transform="translate(1 1)"><path stroke="#F1E82B" d="M19.972332.85C15.5612648 5.27 24.3833992 7.48 19.972332 11.9M31 .85C26.5889328 5.27 35.4110672 7.48 31 11.9M42.027668.85C37.6166008 5.27 46.4387352 7.48 42.027668 11.9"></path><path stroke="#FFF" d="M49.6382292,47.2894667 C57.0752885,49.3079333 61.8774704,52.50212 61.8774704,56.1 C61.8774704,62.2025467 48.0561265,67.15 31,67.15 C13.9438735,67.15 0.122529644,62.2025467 0.122529644,56.1 C0.122529644,52.50212 4.92471146,49.3226667 12.35883,47.2894667"></path><path stroke="#FFF" d="M11.1501976,29.58 C8.94466403,45.05 14.6408221,51.68 14.6408221,51.68 C15.5612648,53.89 21.9661344,58.31 31,58.31 C40.0338656,58.31 46.4387352,53.89 47.3591779,51.68 C47.3591779,51.68 53.055336,45.05 50.8498024,29.58"></path><path stroke="#F1E82B" d="M16.2670356,35.5028 L17.7667984,34 C21.4746516,30.9268229 26.1935377,29.3506755 31,29.58 C35.8064623,29.3506755 40.5253484,30.9268229 44.2332016,34 L45.7329644,35.5028"></path><ellipse cx="31" cy="29.58" stroke="#FFF" rx="19.85" ry="8.84"></ellipse></g></svg> 