<?xml version="1.0" encoding="UTF-8"?> <svg xmlns="http://www.w3.org/2000/svg" xmlns:xlink="http://www.w3.org/1999/xlink" width="70px" height="70px" viewBox="0 0 70 70"><!-- Generator: Sketch 55.2 (78181) - https://sketchapp.com/ --><title>business-climb-top</title><desc>Created with Sketch.</desc><g id="About-Us" stroke="none" stroke-width="1" fill="none" fill-rule="evenodd" stroke-linecap="round" stroke-linejoin="round"><g id="Bonfire-About-Us-(Desktop)" transform="translate(-1616.000000, -1961.000000)" stroke-width="2"><g id="Group-3" transform="translate(100.000000, 1644.000000)"><g id="business-climb-top" transform="translate(1517.000000, 318.000000)"><path d="M10.75,67.687 L36.25,27.187 C36.9660288,26.2549055 38.0746288,25.70858 39.25,25.70858 C40.4253712,25.70858 41.5339712,26.2549055 42.25,27.187 L67.75,67.687 L10.75,67.687 Z" id="Path" stroke="#FFFFFF"></path><polyline id="Path" stroke="#FFFFFF" points="10.75 67.687 0.25 67.687 11.5 47.437 18.025 56.134"></polyline><path d="M24.1,46.486 L31.144,52.405 C32.3348484,53.4129752 34.0995212,53.3399363 35.203,52.237 L37.129,50.308 C38.3004996,49.1368542 40.1995004,49.1368542 41.371,50.308 L43.297,52.237 C44.4004788,53.3399363 46.1651516,53.4129752 47.356,52.405 L54.4,46.486" id="Path" stroke="#FFFFFF"></path><path d="M38.5,25.801 L38.5,0.187" id="Path" stroke="#F1E82B"></path><path d="M38.5,0.187 L60.079,0.187 C60.6802376,0.190050553 61.2253236,0.540964327 61.477,1.087 C61.7360242,1.63273747 61.6627549,2.27820501 61.288,2.752 L57.877,7.078 C57.4244223,7.6559411 57.4244223,8.4680589 57.877,9.046 L61.3,13.378 C61.6746049,13.8530104 61.747826,14.499216 61.489,15.046 C61.2379086,15.5925436 60.6924578,15.9436921 60.091,15.946 L38.5,15.946" id="Path" stroke="#F1E82B"></path></g></g></g></g></svg> 