<?xml version="1.0" encoding="UTF-8"?> <svg xmlns="http://www.w3.org/2000/svg" xmlns:xlink="http://www.w3.org/1999/xlink" width="50px" height="50px" viewBox="0 0 50 50"><!-- Generator: Sketch 57.1 (83088) - https://sketch.com/ --><title>e-commerce-shopping-bag</title><desc>Created with Sketch.</desc><g id="Icons" stroke="none" stroke-width="1" fill="none" fill-rule="evenodd" stroke-linecap="round" stroke-linejoin="round"><g id="Bonfire-–-Web-Design----Icons-(Desktop)" transform="translate(-1313.000000, -705.000000)" stroke-width="2"><g id="e-commerce-shopping-bag" transform="translate(1314.000000, 706.000000)"><path d="M37.3801288,15.7324444 C37.3443219,14.2845101 36.2289507,13.1014193 34.8040883,13 L12.1938245,13 C10.7693423,13.1014975 9.65463012,14.2848624 9.61990237,15.7324444 L6.03759599,38.6274074 C5.90907591,39.425457 6.11324049,40.2417827 6.60129208,40.8812733 C7.08934367,41.520764 7.81742559,41.9259546 8.61151808,42 L38.3863946,42 C39.1808696,41.9265112 39.9095018,41.5215562 40.398007,40.8819974 C40.8865123,40.2424387 41.0909555,39.4257968 40.9624352,38.6274074 L37.3801288,15.7324444 Z" id="Path" stroke="#FFFFFF"></path><path d="M16.0457597,13 C16.0457597,11.5265252 14.9064499,2 23.9975904,2 L23.9975904,2 C33.0590282,2 31.9579076,11.726601 31.9579076,13" id="Path" stroke="#FFFFFF"></path><path d="M27.2004251,21 L22.8620667,21 C21.4907317,21.0009725 20.3125433,21.9888515 20.0523156,23.3559001 C19.7920879,24.7229488 20.522867,26.085435 21.7950823,26.6051658 L26.1995938,28.3926655 C27.4747634,28.9105935 28.2082471,30.2747516 27.9477216,31.6438936 C27.6871961,33.0130356 26.5060246,34.0016155 25.1326094,34 L20.7985189,34" id="Path" stroke="#F1E82B"></path><path d="M24,19.75 L24,18.25" id="Path" stroke="#F1E82B"></path><path d="M24,36.75 L24,35.25" id="Path" stroke="#F1E82B"></path><path d="M0,6 L0,3 C0,1.34314575 1.34314575,0 3,0 L6,0" id="Path" stroke="#FFFFFF"></path><path d="M48,6 L48,3 C48,1.34314575 46.6568542,0 45,0 L42,0" id="Path" stroke="#FFFFFF"></path><path d="M0,42 L0,45 C0,46.6568542 1.34314575,48 3,48 L6,48" id="Path" stroke="#FFFFFF"></path><path d="M48,42 L48,45 C48,46.6568542 46.6568542,48 45,48 L42,48" id="Path" stroke="#FFFFFF"></path></g></g></g></svg> 