<?xml version="1.0" encoding="UTF-8"?> <svg xmlns="http://www.w3.org/2000/svg" xmlns:xlink="http://www.w3.org/1999/xlink" width="67px" height="68px" viewBox="0 0 67 68"><!-- Generator: Sketch 55.2 (78181) - https://sketchapp.com/ --><title>Google__G__Logo</title><desc>Created with Sketch.</desc><defs><path d="M66.2209302,27.8181818 L34.2790698,27.8181818 L34.2790698,40.9545455 L52.6651163,40.9545455 C50.9511628,49.3 43.7837209,54.0909091 34.2790698,54.0909091 C23.0604651,54.0909091 14.0232558,45.1272727 14.0232558,34 C14.0232558,22.8727273 23.0604651,13.9090909 34.2790698,13.9090909 C39.1093023,13.9090909 43.472093,15.6090909 46.9,18.3909091 L56.872093,8.5 C50.7953488,3.24545455 43.0046512,0 34.2790698,0 C15.2697674,0 0,15.1454545 0,34 C0,52.8545455 15.2697674,68 34.2790698,68 C51.4186047,68 67,55.6363636 67,34 C67,31.9909091 66.6883721,29.8272727 66.2209302,27.8181818 Z" id="path-1"></path><path d="M66.2209302,27.8181818 L34.2790698,27.8181818 L34.2790698,40.9545455 L52.6651163,40.9545455 C50.9511628,49.3 43.7837209,54.0909091 34.2790698,54.0909091 C23.0604651,54.0909091 14.0232558,45.1272727 14.0232558,34 C14.0232558,22.8727273 23.0604651,13.9090909 34.2790698,13.9090909 C39.1093023,13.9090909 43.472093,15.6090909 46.9,18.3909091 L56.872093,8.5 C50.7953488,3.24545455 43.0046512,0 34.2790698,0 C15.2697674,0 0,15.1454545 0,34 C0,52.8545455 15.2697674,68 34.2790698,68 C51.4186047,68 67,55.6363636 67,34 C67,31.9909091 66.6883721,29.8272727 66.2209302,27.8181818 Z" id="path-3"></path><path d="M66.2209302,27.8181818 L34.2790698,27.8181818 L34.2790698,40.9545455 L52.6651163,40.9545455 C50.9511628,49.3 43.7837209,54.0909091 34.2790698,54.0909091 C23.0604651,54.0909091 14.0232558,45.1272727 14.0232558,34 C14.0232558,22.8727273 23.0604651,13.9090909 34.2790698,13.9090909 C39.1093023,13.9090909 43.472093,15.6090909 46.9,18.3909091 L56.872093,8.5 C50.7953488,3.24545455 43.0046512,0 34.2790698,0 C15.2697674,0 0,15.1454545 0,34 C0,52.8545455 15.2697674,68 34.2790698,68 C51.4186047,68 67,55.6363636 67,34 C67,31.9909091 66.6883721,29.8272727 66.2209302,27.8181818 Z" id="path-5"></path><path d="M66.2209302,27.8181818 L34.2790698,27.8181818 L34.2790698,40.9545455 L52.6651163,40.9545455 C50.9511628,49.3 43.7837209,54.0909091 34.2790698,54.0909091 C23.0604651,54.0909091 14.0232558,45.1272727 14.0232558,34 C14.0232558,22.8727273 23.0604651,13.9090909 34.2790698,13.9090909 C39.1093023,13.9090909 43.472093,15.6090909 46.9,18.3909091 L56.872093,8.5 C50.7953488,3.24545455 43.0046512,0 34.2790698,0 C15.2697674,0 0,15.1454545 0,34 C0,52.8545455 15.2697674,68 34.2790698,68 C51.4186047,68 67,55.6363636 67,34 C67,31.9909091 66.6883721,29.8272727 66.2209302,27.8181818 Z" id="path-7"></path></defs><g id="Brighest-Minds" stroke="none" stroke-width="1" fill="none" fill-rule="evenodd"><g id="Bonfire-Brightest-Minds-(Desktop)" transform="translate(-746.000000, -629.000000)"><g id="Group-6" transform="translate(620.000000, 557.000000)"><g id="Google__G__Logo" transform="translate(126.000000, 72.000000)"><g id="Clipped"><mask id="mask-2" fill="white"><use xlink:href="#path-1"></use></mask><g id="a"></g><polygon id="Shape" fill="#FBBC05" fill-rule="nonzero" mask="url(#mask-2)" points="-3.11627907 54.0909091 -3.11627907 13.9090909 23.372093 34"></polygon></g><g id="Clipped"><mask id="mask-4" fill="white"><use xlink:href="#path-3"></use></mask><g id="a"></g><polygon id="Shape" fill="#EA4335" fill-rule="nonzero" mask="url(#mask-4)" points="-3.11627907 13.9090909 23.372093 34 34.2790698 24.5727273 71.6744186 18.5454545 71.6744186 -3.09090909 -3.11627907 -3.09090909"></polygon></g><g id="Clipped"><mask id="mask-6" fill="white"><use xlink:href="#path-5"></use></mask><g id="a"></g><polygon id="Shape" fill="#34A853" fill-rule="nonzero" mask="url(#mask-6)" points="-3.11627907 54.0909091 43.627907 18.5454545 55.9372093 20.0909091 71.6744186 -3.09090909 71.6744186 71.0909091 -3.11627907 71.0909091"></polygon></g><g id="Clipped"><mask id="mask-8" fill="white"><use xlink:href="#path-7"></use></mask><g id="a"></g><polygon id="Shape" fill="#4285F4" fill-rule="nonzero" mask="url(#mask-8)" points="71.6744186 71.0909091 23.372093 34 17.1395349 29.3636364 71.6744186 13.9090909"></polygon></g></g></g></g></g></svg> 