<?xml version="1.0" encoding="UTF-8"?> <svg xmlns="http://www.w3.org/2000/svg" xmlns:xlink="http://www.w3.org/1999/xlink" width="70px" height="69px" viewBox="0 0 70 69"><!-- Generator: Sketch 55.2 (78181) - https://sketchapp.com/ --><title>Group</title><desc>Created with Sketch.</desc><g id="Brighest-Minds" stroke="none" stroke-width="1" fill="none" fill-rule="evenodd" stroke-linecap="round" stroke-linejoin="round"><g id="Bonfire-Brightest-Minds-(Desktop)" transform="translate(-1465.000000, -628.000000)" stroke-width="2"><g id="Group-6" transform="translate(1340.000000, 557.000000)"><g id="Group" transform="translate(126.000000, 72.000000)"><ellipse id="Oval" stroke="#F1E82B" cx="32.9032258" cy="10.05" rx="10.0809883" ry="10.05"></ellipse><path d="M45.0093727,29.0333333 C38.1433998,22.8159696 27.6630518,22.8159696 20.7970789,29.0333333" id="Path" stroke="#F1E82B"></path><path d="M42.9842141,10.3805333 C41.1636712,10.9035324 39.2782869,11.1681785 37.3836651,11.1666888 C32.3280251,11.1741574 27.4555754,9.28029619 23.739234,5.86324444" id="Path" stroke="#F1E82B"></path><ellipse id="Oval" stroke="#FFFFFF" cx="53.8119423" cy="45.7833333" rx="10.0809883" ry="10.05"></ellipse><path d="M68,67 C64.5890171,62.6440592 59.3550656,60.0978773 53.8119423,60.0978773 C48.2688191,60.0978773 43.0348676,62.6440592 39.6238847,67" id="Path" stroke="#FFFFFF"></path><path d="M63.8929307,46.1138667 C57.1266788,48.0562913 49.8340991,46.3445363 44.6479506,41.5965778" id="Path" stroke="#FFFFFF"></path><ellipse id="Oval" stroke="#FFFFFF" cx="14.9814688" cy="45.7833333" rx="10.0809883" ry="10.05"></ellipse><path d="M29.1665395,67 C25.7555566,62.6440592 20.5216051,60.0978773 14.9784818,60.0978773 C9.43535855,60.0978773 4.20140702,62.6440592 0.790424159,67" id="Path" stroke="#FFFFFF"></path><path d="M25.0624571,46.1138667 C18.2962053,48.0562913 11.0036255,46.3445363 5.81747701,41.5965778" id="Path" stroke="#FFFFFF"></path></g></g></g></g></svg> 