<?xml version="1.0" encoding="UTF-8"?> <svg xmlns="http://www.w3.org/2000/svg" xmlns:xlink="http://www.w3.org/1999/xlink" width="52px" height="52px" viewBox="0 0 52 52"><!-- Generator: Sketch 57.1 (83088) - https://sketch.com/ --><title>Group</title><desc>Created with Sketch.</desc><g id="Icons" stroke="none" stroke-width="1" fill="none" fill-rule="evenodd" stroke-linecap="round" stroke-linejoin="round"><g id="Bonfire-–-Social-Advertising----Icons-(Desktop)" transform="translate(-1315.000000, -682.000000)" stroke-width="2"><g id="Group" transform="translate(1316.000000, 683.000000)"><g id="streamline-icon-ab-testing-browsers@60x60"><path d="M0.215517241,8.8362069 L34.6982759,8.8362069" id="Path" stroke="#FFFFFF"></path><path d="M6.14224138,3.98706897 C5.84482759,3.98706897 5.60344828,4.22844828 5.60344828,4.52586207 C5.60344828,4.82327586 5.84482759,5.06465517 6.14224138,5.06465517 C6.43965517,5.06465517 6.68103448,4.82327586 6.68103448,4.52586207 C6.68103448,4.22844828 6.43965517,3.98706897 6.14224138,3.98706897 L6.14224138,3.98706897" id="Path" stroke="#FFFFFF"></path><path d="M11.5301724,3.98706897 C11.2327586,3.98706897 10.9913793,4.22844828 10.9913793,4.52586207 C10.9913793,4.82327586 11.2327586,5.06465517 11.5301724,5.06465517 C11.8275862,5.06465517 12.0689655,4.82327586 12.0689655,4.52586207 C12.0689655,4.22844828 11.8275862,3.98706897 11.5301724,3.98706897 L11.5301724,3.98706897" id="Path" stroke="#FFFFFF"></path><path d="M16.9181034,3.98706897 C16.6206897,3.98706897 16.3793103,4.22844828 16.3793103,4.52586207 C16.3793103,4.82327586 16.6206897,5.06465517 16.9181034,5.06465517 C17.2155172,5.06465517 17.4568966,4.82327586 17.4568966,4.52586207 C17.4568966,4.22844828 17.2155172,3.98706897 16.9181034,3.98706897 L16.9181034,3.98706897" id="Path" stroke="#FFFFFF"></path><path d="M4.52586207,0.215517241 L30.387931,0.215517241 C32.7693966,0.215517241 34.6982759,2.14439655 34.6982759,4.52586207 L34.6982759,23.9224138 C34.6982759,26.3038793 32.7693966,28.2327586 30.387931,28.2327586 L4.52586207,28.2327586 C2.14439655,28.2327586 0.215517241,26.3038793 0.215517241,23.9224138 L0.215517241,4.52586207 C0.215517241,2.14439655 2.14439655,0.215517241 4.52586207,0.215517241 Z" id="Path" stroke="#FFFFFF"></path><path d="M40.0862069,28.2327586 L49.7844828,28.2327586" id="Path" stroke="#FFFFFF"></path><path d="M40.0862069,19.612069 L45.4741379,19.612069 C47.8556034,19.612069 49.7844828,21.5409483 49.7844828,23.9224138 L49.7844828,45.4741379 C49.7844828,47.8556034 47.8556034,49.7844828 45.4741379,49.7844828 L19.612069,49.7844828 C17.2306034,49.7844828 15.3017241,47.8556034 15.3017241,45.4741379 L15.3017241,33.6206897" id="Path" stroke="#FFFFFF"></path><path d="M13.1465517,23.9224138 L13.1465517,16.3793103 C13.1465517,14.5948276 14.5948276,13.1465517 16.3793103,13.1465517 C18.1637931,13.1465517 19.612069,14.5948276 19.612069,16.3793103 L19.612069,23.9224138" id="Path" stroke="#F1E82B"></path><path d="M13.1465517,19.612069 L19.612069,19.612069" id="Path" stroke="#F1E82B"></path><path d="M36.8534483,35.7758621 C36.8534483,37.5603448 35.4051724,39.0086207 33.6206897,39.0086207 L30.387931,39.0086207 L30.387931,32.5431034 L33.6206897,32.5431034 C35.4051724,32.5431034 36.8534483,33.9913793 36.8534483,35.7758621 Z" id="Path" stroke="#F1E82B"></path><path d="M36.8534483,42.2413793 C36.8534483,44.0258621 35.4051724,45.4741379 33.6206897,45.4741379 L30.387931,45.4741379 L30.387931,39.0086207 L33.6206897,39.0086207 C35.4051724,39.0086207 36.8534483,40.4568966 36.8534483,42.2413793 Z" id="Path" stroke="#F1E82B"></path></g></g></g></g></svg> 