<?xml version="1.0" encoding="UTF-8"?> <svg xmlns="http://www.w3.org/2000/svg" width="70" height="70" viewBox="0 0 70 70"><g fill="none" fill-rule="evenodd" stroke-linecap="round" stroke-linejoin="round" stroke-width="2" transform="translate(1 1)"><path stroke="#FFF" d="M36.2173913,0.739130435 C24.9510581,0.722885904 14.5628876,6.82050703 9.0847915,16.6653529 C3.60669535,26.5101988 3.90123301,38.5521387 9.85408696,48.1173913 L0.739130435,67.2608696 L19.8826087,58.145913 C31.0768337,65.1058253 45.4458145,64.2374904 55.7204449,55.9801894 C65.9950754,47.7228883 69.9347627,33.8772942 65.5464632,21.4477375 C61.1581637,9.01818082 49.3988358,0.715180222 36.2173913,0.739130435 Z"></path><path stroke="#F1E82B" d="M45.0869565 38.4347826C45.0869565 43.3333082 41.1159169 47.3043478 36.2173913 47.3043478 31.3188657 47.3043478 27.3478261 43.3333082 27.3478261 38.4347826L45.0869565 38.4347826zM22.9130435 26.2391304L22.9130435 26.2391304M22.9130435 26.2391304C22.3007278 26.2391304 21.8043478 26.7355104 21.8043478 27.3478261 21.8043478 27.9601418 22.3007278 28.4565217 22.9130435 28.4565217 23.5253592 28.4565217 24.0217391 27.9601418 24.0217391 27.3478261 24.0217391 26.7355104 23.5253592 26.2391304 22.9130435 26.2391304M49.5217391 26.2391304L49.5217391 26.2391304M49.5217391 26.2391304C48.9094234 26.2391304 48.4130435 26.7355104 48.4130435 27.3478261 48.4130435 27.9601418 48.9094234 28.4565217 49.5217391 28.4565217 50.1340548 28.4565217 50.6304348 27.9601418 50.6304348 27.3478261 50.6304348 26.7355104 50.1340548 26.2391304 49.5217391 26.2391304"></path></g></svg> 