<?xml version="1.0" encoding="UTF-8"?> <svg xmlns="http://www.w3.org/2000/svg" xmlns:xlink="http://www.w3.org/1999/xlink" width="67" height="68" viewBox="0 0 67 68"><defs><path id="icon-google-a" d="M66.2209302,27.8181818 L34.2790698,27.8181818 L34.2790698,40.9545455 L52.6651163,40.9545455 C50.9511628,49.3 43.7837209,54.0909091 34.2790698,54.0909091 C23.0604651,54.0909091 14.0232558,45.1272727 14.0232558,34 C14.0232558,22.8727273 23.0604651,13.9090909 34.2790698,13.9090909 C39.1093023,13.9090909 43.472093,15.6090909 46.9,18.3909091 L56.872093,8.5 C50.7953488,3.24545455 43.0046512,0 34.2790698,0 C15.2697674,0 0,15.1454545 0,34 C0,52.8545455 15.2697674,68 34.2790698,68 C51.4186047,68 67,55.6363636 67,34 C67,31.9909091 66.6883721,29.8272727 66.2209302,27.8181818 Z"></path><path id="icon-google-c" d="M66.2209302,27.8181818 L34.2790698,27.8181818 L34.2790698,40.9545455 L52.6651163,40.9545455 C50.9511628,49.3 43.7837209,54.0909091 34.2790698,54.0909091 C23.0604651,54.0909091 14.0232558,45.1272727 14.0232558,34 C14.0232558,22.8727273 23.0604651,13.9090909 34.2790698,13.9090909 C39.1093023,13.9090909 43.472093,15.6090909 46.9,18.3909091 L56.872093,8.5 C50.7953488,3.24545455 43.0046512,0 34.2790698,0 C15.2697674,0 0,15.1454545 0,34 C0,52.8545455 15.2697674,68 34.2790698,68 C51.4186047,68 67,55.6363636 67,34 C67,31.9909091 66.6883721,29.8272727 66.2209302,27.8181818 Z"></path><path id="icon-google-e" d="M66.2209302,27.8181818 L34.2790698,27.8181818 L34.2790698,40.9545455 L52.6651163,40.9545455 C50.9511628,49.3 43.7837209,54.0909091 34.2790698,54.0909091 C23.0604651,54.0909091 14.0232558,45.1272727 14.0232558,34 C14.0232558,22.8727273 23.0604651,13.9090909 34.2790698,13.9090909 C39.1093023,13.9090909 43.472093,15.6090909 46.9,18.3909091 L56.872093,8.5 C50.7953488,3.24545455 43.0046512,0 34.2790698,0 C15.2697674,0 0,15.1454545 0,34 C0,52.8545455 15.2697674,68 34.2790698,68 C51.4186047,68 67,55.6363636 67,34 C67,31.9909091 66.6883721,29.8272727 66.2209302,27.8181818 Z"></path><path id="icon-google-g" d="M66.2209302,27.8181818 L34.2790698,27.8181818 L34.2790698,40.9545455 L52.6651163,40.9545455 C50.9511628,49.3 43.7837209,54.0909091 34.2790698,54.0909091 C23.0604651,54.0909091 14.0232558,45.1272727 14.0232558,34 C14.0232558,22.8727273 23.0604651,13.9090909 34.2790698,13.9090909 C39.1093023,13.9090909 43.472093,15.6090909 46.9,18.3909091 L56.872093,8.5 C50.7953488,3.24545455 43.0046512,0 34.2790698,0 C15.2697674,0 0,15.1454545 0,34 C0,52.8545455 15.2697674,68 34.2790698,68 C51.4186047,68 67,55.6363636 67,34 C67,31.9909091 66.6883721,29.8272727 66.2209302,27.8181818 Z"></path></defs><g fill="none" fill-rule="evenodd"><mask id="icon-google-b" fill="#fff"><use xlink:href="#icon-google-a"></use></mask><polygon fill="#FBBC05" fill-rule="nonzero" points="-3.116 54.091 -3.116 13.909 23.372 34" mask="url(#icon-google-b)"></polygon><mask id="icon-google-d" fill="#fff"><use xlink:href="#icon-google-c"></use></mask><polygon fill="#EA4335" fill-rule="nonzero" points="-3.116 13.909 23.372 34 34.279 24.573 71.674 18.545 71.674 -3.091 -3.116 -3.091" mask="url(#icon-google-d)"></polygon><mask id="icon-google-f" fill="#fff"><use xlink:href="#icon-google-e"></use></mask><polygon fill="#34A853" fill-rule="nonzero" points="-3.116 54.091 43.628 18.545 55.937 20.091 71.674 -3.091 71.674 71.091 -3.116 71.091" mask="url(#icon-google-f)"></polygon><mask id="icon-google-h" fill="#fff"><use xlink:href="#icon-google-g"></use></mask><polygon fill="#4285F4" fill-rule="nonzero" points="71.674 71.091 23.372 34 17.14 29.364 71.674 13.909" mask="url(#icon-google-h)"></polygon></g></svg> 