<?xml version="1.0" encoding="UTF-8"?> <svg xmlns="http://www.w3.org/2000/svg" width="66" height="70" viewBox="0 0 66 70"><g fill="none" fill-rule="evenodd" stroke-linecap="round" stroke-linejoin="round" stroke-width="2" transform="translate(1 1)"><path stroke="#F1E82B" d="M18.5000164 18.25L18.5 24.802C18.5052975 27.6052516 17.2290539 30.2571863 15.035 32.002M45.4999836 18.25L45.5 24.802C45.4947025 27.6052516 46.7709461 30.2571863 48.965 32.002M36.5 22.75L36.5 25.879M27.5 22.75L27.5 25.879"></path><rect width="9" height="13.5" x="27.5" y="45.25" stroke="#FFF" rx="4.5"></rect><path stroke="#FFF" d="M20.75 40.75C21.3713203 40.75 21.875 41.2536797 21.875 41.875 21.875 42.4963203 21.3713203 43 20.75 43 20.1286797 43 19.625 42.4963203 19.625 41.875 19.625 41.2536797 20.1286797 40.75 20.75 40.75M43.25 40.75C43.8713203 40.75 44.375 41.2536797 44.375 41.875 44.375 42.4963203 43.8713203 43 43.25 43 42.6286797 43 42.125 42.4963203 42.125 41.875 42.125 41.2536797 42.6286797 40.75 43.25 40.75"></path><path stroke="#FFF" d="M32,34 C24.7199866,34.0734879 17.4777273,32.9453376 10.565,30.661 C4.55523944,41.0639474 6.88326928,54.2802903 16.0859308,62.0036029 C25.2885923,69.7269155 38.7084077,69.7269155 47.9110692,62.0036029 C57.1137307,54.2802903 59.4417606,41.0639474 53.432,30.661 C46.5203561,32.9455462 39.279048,34.0737063 32,34 L32,34 Z"></path><path stroke="#F1E82B" d="M57.2 11.5C56.9374133 7.11612838 53.1855015 3.76620706 48.8 4 46.9953626 3.99594872 45.2314929 4.53650631 43.739 5.551 40.768423 2.18071321 36.4925673.249776455 32 .249776455 27.5074327.249776455 23.231577 2.18071321 20.261 5.551 18.7685071 4.53650631 17.0046374 3.99594872 15.2 4 10.8144985 3.76620706 7.06258667 7.11612838 6.8 11.5M6.8 11.5C3.51248658 11.3292414.701314825 13.8392162.5 17.125.701314825 20.4107838 3.51248658 22.9207586 6.8 22.75M57.2 11.5C60.4875134 11.3292414 63.2986852 13.8392162 63.5 17.125 63.2986852 20.4107838 60.4875134 22.9207586 57.2 22.75"></path></g></svg> 