<?xml version="1.0" encoding="UTF-8"?> <svg xmlns="http://www.w3.org/2000/svg" width="69" height="70" viewBox="0 0 69 70"><g fill="none" fill-rule="evenodd" stroke-linecap="round" stroke-linejoin="round" stroke-width="2" transform="translate(-3 1)"><path stroke="#F1E82B" d="M16.172 9.214C17.777 3.787 20.405.25 23.375.25 26.345.25 28.973 3.787 30.575 9.214M30.575 34.036C28.973 39.463 26.345 43 23.375 43 20.405 43 17.777 39.463 16.175 34.036"></path><ellipse cx="23.375" cy="21.624" stroke="#F1E82B" rx="21.453" ry="8.811" transform="rotate(-29.829 23.375 21.624)"></ellipse><ellipse cx="23.374" cy="21.625" stroke="#F1E82B" rx="8.811" ry="21.453" transform="rotate(-60.171 23.374 21.625)"></ellipse><path stroke="#FFF" d="M23.375 20.5C23.9963203 20.5 24.5 21.0036797 24.5 21.625M22.25 21.625C22.25 21.0036797 22.7536797 20.5 23.375 20.5M23.375 22.75C22.7536797 22.75 22.25 22.2463203 22.25 21.625M24.5 21.625C24.5 22.2463203 23.9963203 22.75 23.375 22.75M17.75 67.75L17.75 48.6273224M36.875.25C58.292.25 62.915 17.884 70.55 37.69 70.8155363 38.3821393 70.7235929 39.1606115 70.3041183 39.7718459 69.8846437 40.3830803 69.1913266 40.748845 68.45 40.75L62.75 40.75 62.75 49.75C62.75 54.7205627 58.7205627 58.75 53.75 58.75L49.25 58.75 49.25 67.75"></path></g></svg> 