<?xml version="1.0" encoding="UTF-8"?> <svg xmlns="http://www.w3.org/2000/svg" xmlns:xlink="http://www.w3.org/1999/xlink" width="48px" height="48px" viewBox="0 0 48 48"><!-- Generator: Sketch 55.2 (78181) - https://sketchapp.com/ --><title>idea-strategy</title><desc>Created with Sketch.</desc><g id="Services" stroke="none" stroke-width="1" fill="none" fill-rule="evenodd" stroke-linecap="round" stroke-linejoin="round"><g id="Bonfire-Service-SEO-(Desktop)" transform="translate(-557.000000, -4948.000000)" stroke-width="2"><g id="Group-7" transform="translate(421.000000, 4195.000000)"><g id="Group-5" transform="translate(0.000000, 176.000000)"><g id="idea-strategy" transform="translate(137.000000, 578.000000)"><circle id="Oval" stroke="#FFFFFF" cx="5.828" cy="40.274" r="5.226"></circle><rect id="Rectangle" stroke="#FFFFFF" x="18.022" y="35.34" width="9.954" height="9.954"></rect><polygon id="Path" stroke="#FFFFFF" points="45.398 45.294 33.452 45.294 39.424 34.344"></polygon><path d="M30.4660113,8.17 C30.4724316,4.43946079 27.7242138,1.27671918 24.0292905,0.762417983 C20.3343671,0.248116785 16.8268961,2.5401209 15.8143041,6.13061134 C14.8017121,9.72110177 16.5948145,13.5079764 20.014,15 L20.014,18.622 L25.986,18.622 L25.986,15 C28.703794,13.8157521 30.4624434,11.1345969 30.4660113,8.17 L30.4660113,8.17 Z" id="Path" stroke="#F1E82B"></path><polyline id="Path" stroke="#FFFFFF" points="6.078 29.864 6.078 24.888 39.922 24.888 39.922 29.864"></polyline><path d="M38.55,9.458 L41.536,9.458" id="Path" stroke="#FFFFFF"></path><path d="M37.932,16.306 L40.042,18.418" id="Path" stroke="#FFFFFF"></path><path d="M37.932,2.612 L40.042,0.5" id="Path" stroke="#FFFFFF"></path><path d="M7.45,9.458 L4.464,9.458" id="Path" stroke="#FFFFFF"></path><path d="M8.068,16.306 L5.956,18.418" id="Path" stroke="#FFFFFF"></path><path d="M8.068,2.612 L5.956,0.5" id="Path" stroke="#FFFFFF"></path><path d="M23,18.622 L23,28.87" id="Path" stroke="#FFFFFF"></path></g></g></g></g></g></svg> 