<?xml version="1.0" encoding="UTF-8"?> <svg xmlns="http://www.w3.org/2000/svg" xmlns:xlink="http://www.w3.org/1999/xlink" width="48px" height="48px" viewBox="0 0 48 48"><!-- Generator: Sketch 55.2 (78181) - https://sketchapp.com/ --><title>move-to-bottom</title><desc>Created with Sketch.</desc><g id="Services" stroke="none" stroke-width="1" fill="none" fill-rule="evenodd" stroke-linecap="round" stroke-linejoin="round"><g id="Bonfire-Service-SEO-(Desktop)" transform="translate(-557.000000, -4688.000000)" stroke-width="2"><g id="Group-7" transform="translate(421.000000, 4195.000000)"><g id="Group-5" transform="translate(0.000000, 176.000000)"><g id="move-to-bottom" transform="translate(137.000000, 318.000000)"><rect id="Rectangle" stroke="#FFFFFF" x="0.5" y="0.496" width="12" height="12"></rect><polyline id="Path" stroke="#FFFFFF" points="0.5 19.996 0.5 18.496 3.5 18.496"></polyline><polyline id="Path" stroke="#FFFFFF" points="3.5 27.496 0.5 27.496 0.5 25.996"></polyline><polyline id="Path" stroke="#FFFFFF" points="12.5 25.996 12.5 27.496 9.5 27.496"></polyline><polyline id="Path" stroke="#FFFFFF" points="3.5 45.496 0.5 45.496 0.5 42.496"></polyline><polyline id="Path" stroke="#FFFFFF" points="12.5 42.496 12.5 45.496 9.5 45.496"></polyline><polyline id="Path" stroke="#FFFFFF" points="9.5 18.496 12.5 18.496 12.5 19.996"></polyline><polyline id="Path" stroke="#FFFFFF" points="0.5 36.496 0.5 33.496 3.5 33.496"></polyline><polyline id="Path" stroke="#FFFFFF" points="9.5 33.496 12.5 33.496 12.5 36.496"></polyline><polyline id="Path" stroke="#F1E82B" points="29 30.496 21.5 37.996 29 45.496"></polyline><path d="M21.5,38 L30.5,38 C38.7842712,38 45.5,31.2842712 45.5,23 C45.5,14.7157288 38.7842712,8 30.5,8 L21.5,8" id="Path" stroke="#F1E82B"></path></g></g></g></g></g></svg> 