<?xml version="1.0" encoding="UTF-8"?> <svg xmlns="http://www.w3.org/2000/svg" xmlns:xlink="http://www.w3.org/1999/xlink" width="46px" height="46px" viewBox="0 0 46 46"><!-- Generator: Sketch 55.2 (78181) - https://sketchapp.com/ --><title>performance-increase</title><desc>Created with Sketch.</desc><g id="Services" stroke="none" stroke-width="1" fill="none" fill-rule="evenodd" stroke-linecap="round" stroke-linejoin="round"><g id="Bonfire-Service-SEO-(Desktop)" transform="translate(-1318.000000, -4949.000000)" stroke-width="2"><g id="Group-7" transform="translate(421.000000, 4195.000000)"><g id="Group-5" transform="translate(0.000000, 176.000000)"><g id="performance-increase" transform="translate(898.000000, 579.000000)"><path d="M0.4375,43.5625 L43.5625,43.5625" id="Path" stroke="#FFFFFF"></path><path d="M10.5,32.0625 L4.75,32.0625 C3.95609067,32.0625 3.3125,32.7060907 3.3125,33.5 L3.3125,43.5625 L11.9375,43.5625 L11.9375,33.5 C11.9375,32.7060907 11.2939093,32.0625 10.5,32.0625 Z" id="Path" stroke="#FFFFFF"></path><path d="M24.875,23.4375 L19.125,23.4375 C18.3310907,23.4375 17.6875,24.0810907 17.6875,24.875 L17.6875,43.5625 L26.3125,43.5625 L26.3125,24.875 C26.3125,24.0810907 25.6689093,23.4375 24.875,23.4375 Z" id="Path" stroke="#FFFFFF"></path><path d="M39.25,17.6875 L33.5,17.6875 C32.7060907,17.6875 32.0625,18.3310907 32.0625,19.125 L32.0625,43.5625 L40.6875,43.5625 L40.6875,19.125 C40.6875,18.3310907 40.0439093,17.6875 39.25,17.6875 Z" id="Path" stroke="#FFFFFF"></path><path d="M7.0155,16.7119167 L37.8125,2.726" id="Path" stroke="#F1E82B"></path><polyline id="Path" stroke="#F1E82B" points="35.524 8.82483333 37.8125 2.726 31.7136667 0.4375"></polyline></g></g></g></g></g></svg> 