<?xml version="1.0" encoding="UTF-8"?> <svg xmlns="http://www.w3.org/2000/svg" xmlns:xlink="http://www.w3.org/1999/xlink" width="50px" height="52px" viewBox="0 0 50 52"><!-- Generator: Sketch 55.2 (78181) - https://sketchapp.com/ --><title>phone-hand-hold-1</title><desc>Created with Sketch.</desc><g id="Services" stroke="none" stroke-width="1" fill="none" fill-rule="evenodd" stroke-linecap="round" stroke-linejoin="round"><g id="Bonfire-Service-SEO-(Desktop)" transform="translate(-936.000000, -4427.000000)" stroke-width="2"><g id="Group-7" transform="translate(421.000000, 4195.000000)"><g id="Group-5" transform="translate(0.000000, 176.000000)"><g id="phone-hand-hold-1" transform="translate(516.000000, 57.000000)"><path d="M15.7461438,29.3880299 L19.6469432,26.4829987 C20.4516064,25.8846835 21.4687139,25.6412408 22.4596078,25.8097929 C23.4505017,25.978345 24.3279599,26.5440554 24.8860922,27.3741836 L24.8860922,27.3741836 C25.7046359,28.5937811 25.7046359,30.1822787 24.8860922,31.4018762 L21.0505781,37.1124037 C19.8731972,38.8656999 18.1878724,40.223262 16.217131,41.0058399 L10.5,43.2766252 L10.5,48.4848485" id="Path" stroke="#FFFFFF"></path><path d="M16.5,19.6969697 L8.58000012,23.1560045 C6.24368417,24.1782173 4.38228232,26.0782169 3.3814002,28.4624018 L0.800800236,34.624018 C0.272149502,35.8822823 -0.000299944518,37.2370592 0,38.6060606 L0,50" id="Path" stroke="#FFFFFF"></path><path d="M18,30.4177778 L18,6.66666667 C18,2.98476833 20.9847683,0 24.6666667,0 L41.3333333,0 C45.0152317,0 48,2.98476833 48,6.66666667 L48,43.3333333 C48,47.0152317 45.0152317,50 41.3333333,50 L24.6666667,50 C20.9847683,50 18,47.0152317 18,43.3333333 L18,42.2222222" id="Path" stroke="#F1E82B"></path><path d="M19.5,38.6363636 L46.5,38.6363636" id="Path" stroke="#F1E82B"></path></g></g></g></g></g></svg> 