<?xml version="1.0" encoding="UTF-8"?> <svg xmlns="http://www.w3.org/2000/svg" xmlns:xlink="http://www.w3.org/1999/xlink" width="69px" height="70px" viewBox="0 0 69 70"><!-- Generator: Sketch 55.2 (78181) - https://sketchapp.com/ --><title>science-brain</title><desc>Created with Sketch.</desc><g id="Brighest-Minds" stroke="none" stroke-width="1" fill="none" fill-rule="evenodd" stroke-linecap="round" stroke-linejoin="round"><g id="Bonfire-Brightest-Minds-(Desktop)" transform="translate(-1108.000000, -628.000000)" stroke-width="2"><g id="Group-6" transform="translate(980.000000, 557.000000)"><g id="science-brain" transform="translate(125.000000, 72.000000)"><path d="M16.172,9.214 C17.777,3.787 20.405,0.25 23.375,0.25 C26.345,0.25 28.973,3.787 30.575,9.214" id="Path" stroke="#F1E82B"></path><path d="M30.575,34.036 C28.973,39.463 26.345,43 23.375,43 C20.405,43 17.777,39.463 16.175,34.036" id="Path" stroke="#F1E82B"></path><ellipse id="Oval" stroke="#F1E82B" transform="translate(23.375492, 21.623808) rotate(-29.829000) translate(-23.375492, -21.623808) " cx="23.3754923" cy="21.6238083" rx="21.453" ry="8.811"></ellipse><ellipse id="Oval" stroke="#F1E82B" transform="translate(23.374219, 21.625277) rotate(-60.171000) translate(-23.374219, -21.625277) " cx="23.3742188" cy="21.6252773" rx="8.811" ry="21.453"></ellipse><path d="M23.375,20.5 C23.9963203,20.5 24.5,21.0036797 24.5,21.625" id="Path" stroke="#FFFFFF"></path><path d="M22.25,21.625 C22.25,21.0036797 22.7536797,20.5 23.375,20.5" id="Path" stroke="#FFFFFF"></path><path d="M23.375,22.75 C22.7536797,22.75 22.25,22.2463203 22.25,21.625" id="Path" stroke="#FFFFFF"></path><path d="M24.5,21.625 C24.5,22.2463203 23.9963203,22.75 23.375,22.75" id="Path" stroke="#FFFFFF"></path><path d="M17.75,67.75 L17.75,48.6273224" id="Path" stroke="#FFFFFF"></path><path d="M36.875,0.25 C58.292,0.25 62.915,17.884 70.55,37.69 C70.8155363,38.3821393 70.7235929,39.1606115 70.3041183,39.7718459 C69.8846437,40.3830803 69.1913266,40.748845 68.45,40.75 L62.75,40.75 L62.75,49.75 C62.75,54.7205627 58.7205627,58.75 53.75,58.75 L49.25,58.75 L49.25,67.75" id="Path" stroke="#FFFFFF"></path></g></g></g></g></svg> 