<?xml version="1.0" encoding="UTF-8"?> <svg xmlns="http://www.w3.org/2000/svg" xmlns:xlink="http://www.w3.org/1999/xlink" width="50px" height="46px" viewBox="0 0 50 46"><!-- Generator: Sketch 57.1 (83088) - https://sketch.com/ --><title>Group 2</title><desc>Created with Sketch.</desc><g id="Icons" stroke="none" stroke-width="1" fill="none" fill-rule="evenodd" stroke-linecap="round" stroke-linejoin="round"><g id="Bonfire-–-Web-Design----Icons-(Desktop)" transform="translate(-935.000000, -443.000000)" stroke-width="2.08333333"><g id="Group-2" transform="translate(936.472917, 444.645833)"><path d="M15.8041667,38.5416667 L24.1375,38.5416667" id="Path" stroke="#FFFFFF"></path><path d="M34.5541667,9.375 C39.15625,9.375 42.8875,13.10625 42.8875,17.7083333 C42.8875,22.3104167 39.15625,26.0416667 34.5541667,26.0416667 C29.9520833,26.0416667 26.2208333,22.3104167 26.2208333,17.7083333 C26.2208333,13.10625 29.9520833,9.375 34.5541667,9.375 Z" id="Path" stroke="#F1E82B"></path><polyline id="Path" stroke="#FFFFFF" points="25.1791667 26.0416667 11.6375 26.0416667 11.6375 21.875 23.0958333 21.875"></polyline><path d="M39.9354167,24.13125 L47.0541667,31.25" id="Path" stroke="#F1E82B"></path><path d="M34.5541667,4.16666667 L34.5541667,-1.9095836e-14" id="Path" stroke="#F1E82B"></path><path d="M27.2625,5.20833333 L25.1791667,3.125" id="Path" stroke="#F1E82B"></path><path d="M41.8458333,5.20833333 L43.9291667,3.125" id="Path" stroke="#F1E82B"></path><path d="M22.0541667,15.625 L7.47083333,15.625 C6.32083333,15.625 5.3875,16.5583333 5.3875,17.7083333 L5.3875,34.375 L34.5541667,34.375 L34.5541667,30.2083333" id="Path" stroke="#FFFFFF"></path><path d="M39.33125,39.1520833 C40.14375,39.9666667 40.14375,41.2854167 39.33125,42.0979167 C38.9416667,42.4875 38.4104167,42.7083333 37.8583333,42.7083333 L2.08333333,42.7083333 C0.933333333,42.7083333 -3.62376795e-13,41.775 -3.62376795e-13,40.625 C-3.62376795e-13,40.0729167 0.21875,39.54375 0.610416667,39.1520833 L5.3875,34.375 L34.5541667,34.375 L39.33125,39.1520833 Z" id="Path" stroke="#FFFFFF"></path></g></g></g></svg> 