<?xml version="1.0" encoding="UTF-8"?> <svg xmlns="http://www.w3.org/2000/svg" xmlns:xlink="http://www.w3.org/1999/xlink" width="48px" height="48px" viewBox="0 0 48 48"><!-- Generator: Sketch 57.1 (83088) - https://sketch.com/ --><title>streamline-icon-idea-strategy@50x50</title><desc>Created with Sketch.</desc><g id="Icons" stroke="none" stroke-width="1" fill="none" fill-rule="evenodd" stroke-linecap="round" stroke-linejoin="round"><g id="Bonfire-–-Social-Advertising----Icons-(Desktop)" transform="translate(-938.000000, -695.000000)" stroke-width="2.08333333"><g id="streamline-icon-idea-strategy@50x50" transform="translate(939.000000, 696.000000)"><path d="M6.33333333,33.4166667 C9.78541667,33.4166667 12.5833333,36.2145833 12.5833333,39.6666667 C12.5833333,43.11875 9.78541667,45.9166667 6.33333333,45.9166667 C2.88125,45.9166667 0.0833333333,43.11875 0.0833333333,39.6666667 C0.0833333333,36.2145833 2.88125,33.4166667 6.33333333,33.4166667 Z" id="Path" stroke="#FFFFFF"></path><polygon id="Path" stroke="#FFFFFF" points="16.75 33.4166667 29.25 33.4166667 29.25 45.9166667 16.75 45.9166667"></polygon><polygon id="Path" stroke="#FFFFFF" points="39.6666667 33.4166667 33.4166667 45.9166667 45.9166667 45.9166667"></polygon><path d="M26.125,23 L19.875,23" id="Path" stroke="#FFFFFF"></path><path d="M29.25,11.5416667 C29.1520833,8.13125 26.4104167,5.38958333 23,5.29166667 C19.5895833,5.38958333 16.8479167,8.13125 16.75,11.5416667 C16.7979167,13.7083333 17.9854167,15.6875 19.875,16.75 L19.875,18.8333333 L26.125,18.8333333 L26.125,16.75 C28.0125,15.6875 29.2020833,13.7083333 29.25,11.5416667 Z" id="Path" stroke="#F1E82B"></path><path d="M6.33333333,33.4166667 L6.33333333,28.2083333 C6.33333333,27.6333333 6.8,27.1666667 7.375,27.1666667 L38.625,27.1666667 C39.2,27.1666667 39.6666667,27.6333333 39.6666667,28.2083333 L39.6666667,33.4166667" id="Path" stroke="#FFFFFF"></path><path d="M23,23 L23,32.375" id="Path" stroke="#FFFFFF"></path><path d="M23,0.0833333333 L23,2.16666667" id="Path" stroke="#F1E82B"></path><path d="M31.1020833,3.43958333 L29.6291667,4.9125" id="Path" stroke="#F1E82B"></path><path d="M34.4583333,10.5 L32.375,10.5" id="Path" stroke="#F1E82B"></path><path d="M14.8979167,3.43958333 L16.3708333,4.9125" id="Path" stroke="#F1E82B"></path><path d="M11.5416667,10.5 L13.625,10.5" id="Path" stroke="#F1E82B"></path></g></g></g></svg> 