<?xml version="1.0" encoding="UTF-8"?> <svg xmlns="http://www.w3.org/2000/svg" xmlns:xlink="http://www.w3.org/1999/xlink" width="50px" height="50px" viewBox="0 0 50 50"><!-- Generator: Sketch 57.1 (83088) - https://sketch.com/ --><title>streamline-icon-multiple-circle@50x50</title><desc>Created with Sketch.</desc><g id="Icons" stroke="none" stroke-width="1" fill="none" fill-rule="evenodd" stroke-linecap="round" stroke-linejoin="round"><g id="Bonfire-–-Consulting----Icons-(Desktop)" transform="translate(-1313.000000, -434.000000)" stroke-width="2.08333333"><g id="streamline-icon-multiple-circle@50x50" transform="translate(1314.000000, 435.000000)"><path d="M34.4166667,40.0416667 C42.4333333,40.71875 47.9583333,42.1458333 47.9583333,43.7916667 C47.9583333,46.0833333 37.2333333,47.9583333 24,47.9583333 C10.7666667,47.9583333 0.0416666667,46.0833333 0.0416666667,43.7916667 C0.0416666667,42.1458333 5.53125,40.7229167 13.4958333,40.0416667" id="Path" stroke="#F1E82B"></path><path d="M41.7083333,4.20833333 C44.2979167,4.20833333 46.3958333,6.30625 46.3958333,8.89583333 C46.3958333,11.4854167 44.2979167,13.5833333 41.7083333,13.5833333 C39.11875,13.5833333 37.0208333,11.4854167 37.0208333,8.89583333 C37.0208333,6.30625 39.11875,4.20833333 41.7083333,4.20833333 Z" id="Path" stroke="#FFFFFF"></path><path d="M41.7083333,15.6666667 C38.25625,15.6666667 35.4583333,18.4645833 35.4583333,21.9166667 L35.4583333,27.125 L38.5833333,27.125 L39.625,36.5 L43.7916667,36.5 L44.8333333,27.125 L47.9583333,27.125 L47.9583333,21.9166667 C47.9583333,18.4645833 45.1604167,15.6666667 41.7083333,15.6666667 Z" id="Path" stroke="#FFFFFF"></path><path d="M6.29166667,4.20833333 C8.88125,4.20833333 10.9791667,6.30625 10.9791667,8.89583333 C10.9791667,11.4854167 8.88125,13.5833333 6.29166667,13.5833333 C3.70208333,13.5833333 1.60416667,11.4854167 1.60416667,8.89583333 C1.60416667,6.30625 3.70208333,4.20833333 6.29166667,4.20833333 Z" id="Path" stroke="#FFFFFF"></path><path d="M6.29166667,15.6666667 C2.83958333,15.6666667 0.0416666667,18.4645833 0.0416666667,21.9166667 L0.0416666667,27.125 L3.16666667,27.125 L4.20833333,36.5 L8.375,36.5 L9.41666667,27.125 L12.5416667,27.125 L12.5416667,21.9166667 C12.5416667,18.4645833 9.74375,15.6666667 6.29166667,15.6666667 Z" id="Path" stroke="#FFFFFF"></path><path d="M24,0.0416666667 C27.1645833,0.0416666667 29.7291667,2.60625 29.7291667,5.77083333 C29.7291667,8.93541667 27.1645833,11.5 24,11.5 C20.8354167,11.5 18.2708333,8.93541667 18.2708333,5.77083333 C18.2708333,2.60625 20.8354167,0.0416666667 24,0.0416666667 Z" id="Path" stroke="#FFFFFF"></path><path d="M31.2916667,20.875 C31.2916667,16.8479167 28.0270833,13.5833333 24,13.5833333 C19.9729167,13.5833333 16.7083333,16.8479167 16.7083333,20.875 L16.7083333,27.125 L20.00625,27.125 L20.875,37.5416667 L27.125,37.5416667 L27.99375,27.125 L31.2916667,27.125 L31.2916667,20.875 Z" id="Path" stroke="#FFFFFF"></path></g></g></g></svg> 