<?xml version="1.0" encoding="UTF-8"?> <svg xmlns="http://www.w3.org/2000/svg" xmlns:xlink="http://www.w3.org/1999/xlink" width="50px" height="48px" viewBox="0 0 50 48"><!-- Generator: Sketch 57.1 (83088) - https://sketch.com/ --><title>streamline-icon-performance-increase-1@50x50</title><desc>Created with Sketch.</desc><g id="Icons" stroke="none" stroke-width="1" fill="none" fill-rule="evenodd" stroke-linecap="round" stroke-linejoin="round"><g id="Bonfire-–-Social-Advertising----Icons-(Desktop)" transform="translate(-1115.000000, -959.000000)" stroke-width="2.08333333"><g id="streamline-icon-performance-increase-1@50x50" transform="translate(1116.000000, 960.000000)"><path d="M0.05,45.9166667 L47.9666667,45.9166667" id="Path" stroke="#FFFFFF"></path><path d="M8.375,45.9166667 L8.375,36.5416667 C8.375,35.9666667 7.90833333,35.5 7.33333333,35.5 L3.16666667,35.5 C2.59166667,35.5 2.125,35.9666667 2.125,36.5416667 L2.125,45.9166667" id="Path" stroke="#FFFFFF"></path><path d="M20.875,45.9166667 L20.875,26.125 C20.875,25.55 20.4083333,25.0833333 19.8333333,25.0833333 L15.6666667,25.0833333 C15.0916667,25.0833333 14.625,25.55 14.625,26.125 L14.625,45.9166667" id="Path" stroke="#FFFFFF"></path><path d="M33.375,45.9166667 L33.375,30.2916667 C33.375,29.7166667 32.9083333,29.25 32.3333333,29.25 L28.1666667,29.25 C27.5916667,29.25 27.125,29.7166667 27.125,30.2916667 L27.125,45.9166667" id="Path" stroke="#FFFFFF"></path><path d="M45.875,45.9166667 L45.875,15.7083333 C45.875,15.1333333 45.4083333,14.6666667 44.8333333,14.6666667 L40.6666667,14.6666667 C40.0916667,14.6666667 39.625,15.1333333 39.625,15.7083333 L39.625,45.9166667" id="Path" stroke="#FFFFFF"></path><path d="M43.7916667,0.0833333333 L32.0833333,12.7 C30.9708333,13.9 29.2604167,14.3375 27.7083333,13.81875 L19.9604167,11.2333333 C18.5916667,10.7770833 17.0833333,11.0604167 15.975,11.9854167 L5.25,20.9166667" id="Path" stroke="#F1E82B"></path><polyline id="Path" stroke="#F1E82B" points="35.4666667 0.0833333333 43.8 0.0833333333 43.8 8.41666667"></polyline></g></g></g></svg> 