<?xml version="1.0" encoding="UTF-8"?> <svg xmlns="http://www.w3.org/2000/svg" xmlns:xlink="http://www.w3.org/1999/xlink" width="50px" height="38px" viewBox="0 0 50 38"><!-- Generator: Sketch 57.1 (83088) - https://sketch.com/ --><title>streamline-icon-responsive-design-1@50x50</title><desc>Created with Sketch.</desc><g id="Icons" stroke="none" stroke-width="1" fill="none" fill-rule="evenodd" stroke-linecap="round" stroke-linejoin="round"><g id="Bonfire-–-Web-Design----Icons-(Desktop)" transform="translate(-549.000000, -716.000000)" stroke-width="2.08333333"><g id="streamline-icon-responsive-design-1@50x50" transform="translate(550.000000, 717.000000)"><path d="M10.6229167,2.33333333 C11.05,1.06666667 12.2479167,0.222916667 13.5833333,0.25 L44.8333333,0.25 C46.6083333,0.302083333 48.0083333,1.78333333 47.9583333,3.55833333 L47.9583333,28.1916667 C48.0083333,29.9666667 46.6083333,31.4479167 44.8333333,31.5 L16.7083333,31.5" id="Path" stroke="#FFFFFF"></path><path d="M19.8333333,35.6666667 L38.5833333,35.6666667" id="Path" stroke="#FFFFFF"></path><path d="M29.2083333,31.5 L29.2083333,35.6666667" id="Path" stroke="#FFFFFF"></path><path d="M27.125,23.1666667 L47.9583333,23.1666667" id="Path" stroke="#FFFFFF"></path><path d="M6.29166667,12.75 L6.29166667,8.58333333 C6.29166667,7.43333333 7.225,6.5 8.375,6.5 L20.875,6.5 C22.025,6.5 22.9583333,7.43333333 22.9583333,8.58333333 L22.9583333,25.25 C22.9583333,26.4 22.025,27.3333333 20.875,27.3333333 L16.7083333,27.3333333" id="Path" stroke="#FFFFFF"></path><path d="M16.7083333,23.1666667 L22.9583333,23.1666667" id="Path" stroke="#FFFFFF"></path><path d="M2.125,16.9166667 L10.4583333,16.9166667 C11.6083333,16.9166667 12.5416667,17.85 12.5416667,19 L12.5416667,33.5833333 C12.5416667,34.7333333 11.6083333,35.6666667 10.4583333,35.6666667 L2.125,35.6666667 C0.975,35.6666667 0.0416666667,34.7333333 0.0416666667,33.5833333 L0.0416666667,19 C0.0416666667,17.85 0.975,16.9166667 2.125,16.9166667 Z" id="Path" stroke="#F1E82B"></path><path d="M0.0416666667,31.5 L12.5416667,31.5" id="Path" stroke="#F1E82B"></path><path d="M0.0416666667,21.0833333 L12.5416667,21.0833333" id="Path" stroke="#F1E82B"></path><path d="M6.28958333,10.66875 L22.95625,10.66875" id="Path" stroke="#FFFFFF"></path></g></g></g></svg> 