<?xml version="1.0" encoding="UTF-8"?> <svg xmlns="http://www.w3.org/2000/svg" xmlns:xlink="http://www.w3.org/1999/xlink" width="50px" height="50px" viewBox="0 0 50 50"><!-- Generator: Sketch 57.1 (83088) - https://sketch.com/ --><title>streamline-icon-content-paper-edit@50x50</title><desc>Created with Sketch.</desc><g id="Icons" stroke="none" stroke-width="1" fill="none" fill-rule="evenodd" stroke-linecap="round" stroke-linejoin="round"><g id="Bonfire-–-Social-Advertising----Icons-(Desktop)" transform="translate(-561.000000, -695.000000)" stroke-width="2.08333333"><g id="streamline-icon-content-paper-edit@50x50" transform="translate(562.000000, 696.000000)"><path d="M21.9166667,37.5416667 L2.125,37.5416667 C0.975,37.5416667 0.0416666667,36.6083333 0.0416666667,35.4583333 L0.0416666667,2.125 C0.0416666667,0.975 0.975,0.0416666667 2.125,0.0416666667 L33.375,0.0416666667 C34.525,0.0416666667 35.4583333,0.975 35.4583333,2.125 L35.4583333,22.9583333" id="Path" stroke="#F1E82B"></path><path d="M31.7083333,45.4583333 L22.9583333,47.9583333 L25.4583333,39.2083333 L40.4145833,24.2520833 C42.1395833,22.5270833 44.9395833,22.5270833 46.6645833,24.2520833 C48.3895833,25.9770833 48.3895833,28.7770833 46.6645833,30.5020833 L31.7083333,45.4583333 Z" id="Path" stroke="#FFFFFF"></path><path d="M38.5395833,26.1270833 L44.7895833,32.3770833" id="Path" stroke="#FFFFFF"></path><path d="M25.4583333,39.2083333 L31.7083333,45.4583333" id="Path" stroke="#FFFFFF"></path><path d="M11.5,8.375 L26.0833333,8.375" id="Path" stroke="#F1E82B"></path><path d="M7.33333333,14.625 L26.0833333,14.625" id="Path" stroke="#F1E82B"></path><path d="M7.33333333,20.875 L26.0833333,20.875" id="Path" stroke="#F1E82B"></path><path d="M7.33333333,27.125 L20.875,27.125" id="Path" stroke="#F1E82B"></path></g></g></g></svg> 