<?xml version="1.0" encoding="UTF-8"?> <svg xmlns="http://www.w3.org/2000/svg" xmlns:xlink="http://www.w3.org/1999/xlink" width="48px" height="50px" viewBox="0 0 48 50"><!-- Generator: Sketch 57.1 (83088) - https://sketch.com/ --><title>streamline-icon-bulb-1@50x50</title><desc>Created with Sketch.</desc><g id="Icons" stroke="none" stroke-width="1" fill="none" fill-rule="evenodd" stroke-linecap="round" stroke-linejoin="round"><g id="Bonfire-–-Social-Advertising----Icons-(Desktop)" transform="translate(-1319.000000, -427.000000)" stroke-width="2.08333333"><g id="streamline-icon-bulb-1@50x50" transform="translate(1320.000000, 428.000000)"><path d="M29.25,34.9145833 L29.25,40.5729167 C29.25,43.54375 26.75,44.7395833 23,44.7395833 C19.25,44.7395833 16.75,43.54375 16.75,40.5729167 L16.75,34.9145833" id="Path" stroke="#FFFFFF"></path><path d="M25.0833333,35.3645833 L25.0833333,22.8645833 C25.0833333,21.7145833 26.0166667,20.78125 27.1666667,20.78125 C28.3166667,20.78125 29.25,21.7145833 29.25,22.8645833 C29.25,24.0145833 28.3166667,24.9479167 27.1666667,24.9479167 L18.8333333,24.9479167 C17.6833333,24.9479167 16.75,24.0145833 16.75,22.8645833 C16.75,21.7145833 17.6833333,20.78125 18.8333333,20.78125 C19.925,20.7229167 20.8583333,21.5625 20.9166667,22.6541667 C20.9208333,22.725 20.9208333,22.79375 20.9166667,22.8645833 L20.9166667,35.3645833" id="Path" stroke="#F1E82B"></path><path d="M28.2083333,35.3645833 C33.3166667,33.3395833 36.6375,28.3604167 36.5416667,22.8645833 C36.4083333,15.4416667 30.4229167,9.45625 23,9.32291667 C15.5770833,9.45625 9.59166667,15.4416667 9.45833333,22.8645833 C9.3625,28.3604167 12.6833333,33.3395833 17.7916667,35.3645833 L28.2083333,35.3645833 Z" id="Path" stroke="#FFFFFF"></path><path d="M16.75,39.53125 L29.25,39.53125" id="Path" stroke="#FFFFFF"></path><path d="M23,0.135416667 L23,4.11458333" id="Path" stroke="#F1E82B"></path><path d="M23,44.7395833 L23,47.8645833" id="Path" stroke="#FFFFFF"></path><path d="M0.0833333333,20.78125 L4.85625,20.78125" id="Path" stroke="#F1E82B"></path><path d="M5.48125,5.34375 L9.45833333,9.32291667" id="Path" stroke="#F1E82B"></path><path d="M45.9166667,20.78125 L41.14375,20.78125" id="Path" stroke="#F1E82B"></path><path d="M40.51875,5.34375 L36.5416667,9.32291667" id="Path" stroke="#F1E82B"></path></g></g></g></svg> 