<?xml version="1.0" encoding="UTF-8"?> <svg xmlns="http://www.w3.org/2000/svg" xmlns:xlink="http://www.w3.org/1999/xlink" width="50px" height="46px" viewBox="0 0 50 46"><!-- Generator: Sketch 57.1 (83088) - https://sketch.com/ --><title>streamline-icon-pie-line-graph-desktop@50x50 (1)</title><desc>Created with Sketch.</desc><g id="Icons" stroke="none" stroke-width="1" fill="none" fill-rule="evenodd" stroke-linecap="round" stroke-linejoin="round"><g id="Bonfire-–-Consulting----Icons-(Desktop)" transform="translate(-935.000000, -439.000000)"><g id="streamline-icon-pie-line-graph-desktop@50x50-(1)" transform="translate(936.000000, 440.000000)"><path d="M17.75,43.875 C19.6375,41.4916667 20.7291667,38.5770833 20.875,35.5416667" id="Path" stroke="#FFFFFF" stroke-width="2.08333333"></path><path d="M30.25,43.875 C28.3625,41.4916667 27.2708333,38.5770833 27.125,35.5416667" id="Path" stroke="#FFFFFF" stroke-width="2.08333333"></path><path d="M14.6229167,43.875 L33.3729167,43.875" id="Path" stroke="#FFFFFF" stroke-width="2.08333333"></path><path d="M0.0416666667,29.2916667 L47.9583333,29.2916667" id="Path" stroke="#FFFFFF" stroke-width="2.08333333"></path><path d="M2.125,0.125 L45.875,0.125 C47.025,0.125 47.9583333,1.05833333 47.9583333,2.20833333 L47.9583333,33.4583333 C47.9583333,34.6083333 47.025,35.5416667 45.875,35.5416667 L2.125,35.5416667 C0.975,35.5416667 0.0416666667,34.6083333 0.0416666667,33.4583333 L0.0416666667,2.20833333 C0.0416666667,1.05833333 0.975,0.125 2.125,0.125 Z" id="Path" stroke="#FFFFFF" stroke-width="2.08333333"></path><polyline id="Path" stroke="#F1E82B" stroke-width="2.08333333" points="10 19 16 11 28 21 38 9"></polyline><polyline id="Path" stroke="#F1E82B" stroke-width="2" points="33 7 39.4655172 7 39.4655172 13.4655172"></polyline></g></g></g></svg> 