<?xml version="1.0" encoding="UTF-8"?> <svg xmlns="http://www.w3.org/2000/svg" xmlns:xlink="http://www.w3.org/1999/xlink" width="50px" height="50px" viewBox="0 0 50 50"><!-- Generator: Sketch 57.1 (83088) - https://sketch.com/ --><title>streamline-icon-target-center-1@50x50</title><desc>Created with Sketch.</desc><g id="Icons" stroke="none" stroke-width="1" fill="none" fill-rule="evenodd" stroke-linecap="round" stroke-linejoin="round"><g id="Bonfire-–-Google-Adwords----Icons-(Desktop)" transform="translate(-557.000000, -687.000000)" stroke-width="2.08333333"><g id="streamline-icon-target-center-1@50x50" transform="translate(558.000000, 688.000000)"><path d="M17.7520833,25.0416667 C20.6291667,25.0416667 22.9604167,27.3729167 22.9604167,30.25 C22.9604167,33.1270833 20.6291667,35.4583333 17.7520833,35.4583333 C14.875,35.4583333 12.54375,33.1270833 12.54375,30.25 C12.54375,27.3729167 14.875,25.0416667 17.7520833,25.0416667 Z" id="Path" stroke="#FFFFFF"></path><path d="M17.7520833,18.7916667 C24.08125,18.7916667 29.2104167,23.9208333 29.2104167,30.25 C29.2104167,36.5791667 24.08125,41.7083333 17.7520833,41.7083333 C11.4229167,41.7083333 6.29375,36.5791667 6.29375,30.25 C6.29375,23.9208333 11.4229167,18.7916667 17.7520833,18.7916667 Z" id="Path" stroke="#FFFFFF"></path><path d="M17.7520833,12.5416667 C27.53125,12.5416667 35.4604167,20.4708333 35.4604167,30.25 C35.4604167,40.0291667 27.53125,47.9583333 17.7520833,47.9583333 C7.97291667,47.9583333 0.04375,40.0291667 0.04375,30.25 C0.04375,20.4708333 7.97291667,12.5416667 17.7520833,12.5416667 Z" id="Path" stroke="#FFFFFF"></path><path d="M17.7520833,30.25 L41.70625,6.29166667" id="Path" stroke="#F1E82B"></path><path d="M41.7083333,6.29166667 L47.9583333,6.29166667 C47.9583333,6.29166667 42.75,21.9166667 34.4166667,13.5833333 C26.0833333,5.25 41.7083333,0.0416666667 41.7083333,0.0416666667 L41.7083333,6.29166667 Z" id="Path" stroke="#F1E82B"></path><path d="M37.54375,10.4583333 L37.54375,1.93333333" id="Path" stroke="#F1E82B"></path><path d="M0.04375,47.9583333 L5.23125,42.7708333" id="Path" stroke="#F1E82B"></path><path d="M30.275,42.7729167 L35.4604167,47.9583333" id="Path" stroke="#FFFFFF"></path><path d="M17.75,29.7291667 C18.0375,29.7291667 18.2708333,29.9625 18.2708333,30.25 C18.2708333,30.5375 18.0375,30.7708333 17.75,30.7708333 C17.4625,30.7708333 17.2291667,30.5375 17.2291667,30.25 C17.2291667,29.9625 17.4625,29.7291667 17.75,29.7291667" id="Path" stroke="#FFFFFF"></path></g></g></g></svg> 