<?xml version="1.0" encoding="UTF-8"?> <svg xmlns="http://www.w3.org/2000/svg" xmlns:xlink="http://www.w3.org/1999/xlink" width="52px" height="52px" viewBox="0 0 52 52"><!-- Generator: Sketch 57.1 (83088) - https://sketch.com/ --><title>streamline-icon-wifi-transfer-hand@50x50 (1)</title><desc>Created with Sketch.</desc><g id="Icons" stroke="none" stroke-width="1" fill="none" fill-rule="evenodd" stroke-linecap="round" stroke-linejoin="round"><g id="Bonfire-–-Consulting----Icons-(Desktop)" transform="translate(-940.000000, -698.000000)" stroke-width="2"><g id="streamline-icon-wifi-transfer-hand@50x50-(1)" transform="translate(941.000000, 699.000000)"><path d="M23.900463,49.9421296 L5.09259259,49.9421296 C2.69965278,49.9334491 0.76099537,47.9947917 0.752314815,45.6018519 L0.752314815,5.09259259 C0.76099537,2.69965278 2.69965278,0.76099537 5.09259259,0.752314815 L25.3472222,0.752314815 C27.7430556,0.752314815 29.6875,2.69675926 29.6875,5.09259259 L29.6875,28.2407407" id="Path" stroke="#F1E82B"></path><path d="M15.2199074,43.431713 C14.8206019,43.431713 14.4965278,43.755787 14.4965278,44.1550926 C14.4965278,44.5543981 14.8206019,44.8784722 15.2199074,44.8784722 C15.619213,44.8784722 15.943287,44.5543981 15.943287,44.1550926 C15.943287,43.755787 15.619213,43.431713 15.2199074,43.431713" id="Path" stroke="#F1E82B"></path><path d="M0.752314815,38.3680556 L21.0069444,38.3680556" id="Path" stroke="#F1E82B"></path><path d="M29.6875,13.7731481 L36.6319444,18.9814815 C39.5457176,21.166088 41.2615741,24.5978009 41.2615741,28.2407407 L41.2615741,38.3680556 L49.9421296,49.9421296" id="Path" stroke="#FFFFFF"></path><path d="M34.0277778,49.9421296 L31.4236111,46.4699074 C30.2980324,44.9681713 29.6875,43.1394676 29.6875,41.2615741 L29.6875,38.3680556 L21.8344907,29.2071759 C21.2991898,28.5850694 21.0069444,27.7922454 21.0069444,26.9704861 C21.0069444,25.2748843 22.3842593,23.900463 24.0769676,23.900463 C24.8900463,23.900463 25.6712963,24.224537 26.2471065,24.8003472 L34.0277778,32.5810185" id="Path" stroke="#FFFFFF"></path></g></g></g></svg> 