<?xml version="1.0" encoding="UTF-8"?> <svg xmlns="http://www.w3.org/2000/svg" xmlns:xlink="http://www.w3.org/1999/xlink" width="44px" height="50px" viewBox="0 0 44 50"><!-- Generator: Sketch 57.1 (83088) - https://sketch.com/ --><title>streamline-icon-notes-book-text@50x50</title><desc>Created with Sketch.</desc><g id="Icons" stroke="none" stroke-width="1" fill="none" fill-rule="evenodd" stroke-linecap="round" stroke-linejoin="round"><g id="Bonfire-–-Consulting----Icons-(Desktop)" transform="translate(-744.000000, -969.000000)" stroke-width="2.08333333"><g id="streamline-icon-notes-book-text@50x50" transform="translate(745.000000, 970.000000)"><path d="M2.25,4.20833333 L39.75,4.20833333 C40.9,4.20833333 41.8333333,5.14166667 41.8333333,6.29166667 L41.8333333,45.875 C41.8333333,47.025 40.9,47.9583333 39.75,47.9583333 L2.25,47.9583333 C1.1,47.9583333 0.166666667,47.025 0.166666667,45.875 L0.166666667,6.29166667 C0.166666667,5.14166667 1.1,4.20833333 2.25,4.20833333 Z" id="Path" stroke="#FFFFFF"></path><path d="M8.5,8.375 L8.5,0.0416666667" id="Path" stroke="#FFFFFF"></path><path d="M33.5,8.375 L33.5,0.0416666667" id="Path" stroke="#FFFFFF"></path><path d="M16.8333333,8.375 L16.8333333,0.0416666667" id="Path" stroke="#FFFFFF"></path><path d="M25.1666667,8.375 L25.1666667,0.0416666667" id="Path" stroke="#FFFFFF"></path><path d="M8.5,18.7916667 L33.5,18.7916667" id="Path" stroke="#F1E82B"></path><path d="M8.5,25.0416667 L33.5,25.0416667" id="Path" stroke="#F1E82B"></path><path d="M8.5,31.2916667 L33.5,31.2916667" id="Path" stroke="#F1E82B"></path><path d="M8.5,37.5416667 L23.0833333,37.5416667" id="Path" stroke="#F1E82B"></path></g></g></g></svg> 