<?xml version="1.0" encoding="UTF-8"?> <svg xmlns="http://www.w3.org/2000/svg" xmlns:xlink="http://www.w3.org/1999/xlink" width="50px" height="50px" viewBox="0 0 50 50"><!-- Generator: Sketch 57.1 (83088) - https://sketch.com/ --><title>streamline-icon-browser-page-account@50x50</title><desc>Created with Sketch.</desc><g id="Icons" stroke="none" stroke-width="1" fill="none" fill-rule="evenodd" stroke-linecap="round" stroke-linejoin="round"><g id="Bonfire-–-Remarketing----Icons-(Desktop)" transform="translate(-934.000000, -686.000000)" stroke-width="2"><g id="streamline-icon-browser-page-account@50x50" transform="translate(935.000000, 687.000000)"><path d="M4.20833333,0.0416666667 L43.7916667,0.0416666667 C46.09375,0.0416666667 47.9583333,1.90625 47.9583333,4.20833333 L47.9583333,43.7916667 C47.9583333,46.09375 46.09375,47.9583333 43.7916667,47.9583333 L4.20833333,47.9583333 C1.90625,47.9583333 0.0416666667,46.09375 0.0416666667,43.7916667 L0.0416666667,4.20833333 C0.0416666667,1.90625 1.90625,0.0416666667 4.20833333,0.0416666667 Z" id="Path" stroke="#FFFFFF"></path><path d="M0.0416666667,10.4583333 L47.9583333,10.4583333" id="Path" stroke="#FFFFFF"></path><path d="M28.1666667,16.7083333 L40.6666667,16.7083333 C41.2416667,16.7083333 41.7083333,17.175 41.7083333,17.75 L41.7083333,26.0833333 C41.7083333,26.6583333 41.2416667,27.125 40.6666667,27.125 L28.1666667,27.125 C27.5916667,27.125 27.125,26.6583333 27.125,26.0833333 L27.125,17.75 C27.125,17.175 27.5916667,16.7083333 28.1666667,16.7083333 Z" id="Path" stroke="#F1E82B"></path><path d="M28.1666667,31.2916667 L40.6666667,31.2916667 C41.2416667,31.2916667 41.7083333,31.7583333 41.7083333,32.3333333 L41.7083333,40.6666667 C41.7083333,41.2416667 41.2416667,41.7083333 40.6666667,41.7083333 L28.1666667,41.7083333 C27.5916667,41.7083333 27.125,41.2416667 27.125,40.6666667 L27.125,32.3333333 C27.125,31.7583333 27.5916667,31.2916667 28.1666667,31.2916667 Z" id="Path" stroke="#F1E82B"></path><path d="M7.04166667,17 L19.5416667,17 C20.1166667,17 20.5833333,17.42 20.5833333,17.9375 L20.5833333,31.0625 C20.5833333,31.58 20.1166667,32 19.5416667,32 L7.04166667,32 C6.46666667,32 6,31.58 6,31.0625 L6,17.9375 C6,17.42 6.46666667,17 7.04166667,17 Z" id="Path" stroke="#FFFFFF"></path><path d="M13.5833333,19.875 C15.3083333,19.875 16.7083333,21.275 16.7083333,23 C16.7083333,24.725 15.3083333,26.125 13.5833333,26.125 C11.8583333,26.125 10.4583333,24.725 10.4583333,23 C10.4583333,21.275 11.8583333,19.875 13.5833333,19.875 Z" id="Path" stroke="#FFFFFF"></path><path d="M8.82881948,31.125 C8.60467876,28.6 10.5986346,26.375 13.3116338,26.125 C16.024633,26.375 18.0185888,28.6 17.7944481,31.125" id="Path" stroke="#FFFFFF"></path><path d="M7.33333333,36.5416667 L15.6666667,36.5416667" id="Path" stroke="#FFFFFF"></path><path d="M7.33333333,40.7083333 L15.6666667,40.7083333" id="Path" stroke="#FFFFFF"></path><path d="M7.33333333,4.72916667 C7.62083333,4.72916667 7.85416667,4.9625 7.85416667,5.25 C7.85416667,5.5375 7.62083333,5.77083333 7.33333333,5.77083333 C7.04583333,5.77083333 6.8125,5.5375 6.8125,5.25 C6.8125,4.9625 7.04583333,4.72916667 7.33333333,4.72916667" id="Path" stroke="#FFFFFF"></path><path d="M13.5833333,4.72916667 C13.8708333,4.72916667 14.1041667,4.9625 14.1041667,5.25 C14.1041667,5.5375 13.8708333,5.77083333 13.5833333,5.77083333 C13.2958333,5.77083333 13.0625,5.5375 13.0625,5.25 C13.0625,4.9625 13.2958333,4.72916667 13.5833333,4.72916667" id="Path" stroke="#FFFFFF"></path><path d="M19.8333333,4.72916667 C20.1208333,4.72916667 20.3541667,4.9625 20.3541667,5.25 C20.3541667,5.5375 20.1208333,5.77083333 19.8333333,5.77083333 C19.5458333,5.77083333 19.3125,5.5375 19.3125,5.25 C19.3125,4.9625 19.5458333,4.72916667 19.8333333,4.72916667" id="Path" stroke="#FFFFFF"></path></g></g></g></svg> 