<?xml version="1.0" encoding="UTF-8"?> <svg xmlns="http://www.w3.org/2000/svg" xmlns:xlink="http://www.w3.org/1999/xlink" width="50px" height="50px" viewBox="0 0 50 50"><!-- Generator: Sketch 57.1 (83088) - https://sketch.com/ --><title>streamline-icon-cog-double-2@50x50</title><desc>Created with Sketch.</desc><g id="Icons" stroke="none" stroke-width="1" fill="none" fill-rule="evenodd" stroke-linecap="round" stroke-linejoin="round"><g id="Bonfire-–-Google-Adwords----Icons-(Desktop)" transform="translate(-749.000000, -947.000000)"><g id="streamline-icon-cog-double-2@50x50" transform="translate(750.000000, 948.000000)"><path d="M16.7083333,25.04375 C20.1604167,25.04375 22.9583333,27.8416667 22.9583333,31.29375 C22.9583333,34.7458333 20.1604167,37.54375 16.7083333,37.54375 C13.25625,37.54375 10.4583333,34.7458333 10.4583333,31.29375 C10.4583333,27.8416667 13.25625,25.04375 16.7083333,25.04375 Z" id="Path" stroke="#FFFFFF" stroke-width="2.08333333"></path><path d="M29.9395833,28.4666667 L31.4208333,27.6104167 C32.4166667,27.0354167 32.7583333,25.7604167 32.1833333,24.7645833 L30.1,21.15625 C29.525,20.1604167 28.25,19.81875 27.2541667,20.39375 L25.7791667,21.2458333 C24.3604167,19.9729167 22.6895833,19.0125 20.875,18.425 L20.875,16.7083333 C20.875,15.5583333 19.9416667,14.625 18.7916667,14.625 L14.625,14.625 C13.475,14.625 12.5416667,15.5583333 12.5416667,16.7083333 L12.5416667,18.41875 C10.7229167,19 9.05,19.9645833 7.63333333,21.24375 L6.16041667,20.39375 C5.16458333,19.81875 3.88958333,20.1583333 3.31458333,21.1541667 L1.23125,24.7625 C0.65625,25.7583333 0.997916667,27.0333333 1.99375,27.6083333 L3.47708333,28.4666667 C3.07708333,30.3291667 3.07708333,32.25625 3.47708333,34.11875 L1.99375,34.975 C0.997916667,35.55 0.65625,36.825 1.23125,37.8208333 L3.31458333,41.4291667 C3.88958333,42.425 5.16458333,42.7666667 6.16041667,42.1916667 L7.63541667,41.3395833 C9.05416667,42.6145833 10.725,43.5791667 12.5416667,44.1645833 L12.5416667,45.875 C12.5416667,47.025 13.475,47.9583333 14.625,47.9583333 L18.7916667,47.9583333 C19.9416667,47.9583333 20.875,47.025 20.875,45.875 L20.875,44.1666667 C22.6916667,43.5833333 24.3645833,42.6208333 25.7833333,41.34375 L27.2541667,42.19375 C28.25,42.76875 29.525,42.4270833 30.1,41.43125 L32.1833333,37.8229167 C32.7583333,36.8270833 32.4166667,35.5520833 31.4208333,34.9770833 L29.9395833,34.1229167 C30.3395833,32.2583333 30.3395833,30.33125 29.9395833,28.4666667 Z" id="Path" stroke="#F1E82B" stroke-width="2.08333333"></path><path d="M38.5833333,6.29375 C40.3083333,6.29375 41.7083333,7.69375 41.7083333,9.41875 C41.7083333,11.14375 40.3083333,12.54375 38.5833333,12.54375 C36.8583333,12.54375 35.4583333,11.14375 35.4583333,9.41875 C35.4583333,7.69375 36.8583333,6.29375 38.5833333,6.29375 Z" id="Path" stroke="#FFFFFF" stroke-width="1.5"></path><path d="M45.6458333,7.75 L46.8416667,7.06041667 C47.3395833,6.77291667 47.5104167,6.13541667 47.2229167,5.6375 L46.18125,3.83125 C45.89375,3.33333333 45.25625,3.16041667 44.7583333,3.44791667 C44.7583333,3.44791667 44.75625,3.44791667 44.75625,3.45 L43.5625,4.14166667 C42.74375,3.35833333 41.7520833,2.77916667 40.6666667,2.45 L40.6666667,1.08333333 C40.6666667,0.508333333 40.2,0.0416666667 39.625,0.0416666667 L37.5416667,0.0416666667 C36.9666667,0.0416666667 36.5,0.508333333 36.5,1.08333333 L36.5,2.45 C35.4145833,2.77708333 34.41875,3.35208333 33.59375,4.12916667 L32.4104167,3.44375 C31.9125,3.15625 31.275,3.325 30.9875,3.82291667 C30.9875,3.82291667 30.9875,3.825 30.9854167,3.825 L29.94375,5.63125 C29.65625,6.12916667 29.8270833,6.76666667 30.3270833,7.05416667 C30.3270833,7.05416667 30.3270833,7.05416667 30.3270833,7.05416667 L31.5083333,7.73541667 C31.24375,8.8375 31.24375,9.9875 31.5083333,11.0895833 L30.3166667,11.7770833 C29.81875,12.0645833 29.6479167,12.7020833 29.9354167,13.2 L30.9770833,15.00625 C31.2645833,15.5041667 31.9020833,15.6770833 32.4,15.3895833 C32.4,15.3895833 32.4020833,15.3895833 32.4020833,15.3875 L33.5916667,14.6979167 C34.4145833,15.4833333 35.4104167,16.0645833 36.5,16.3916667 L36.5,17.75 C36.5,18.325 36.9666667,18.7916667 37.5416667,18.7916667 L39.625,18.7916667 C40.2,18.7916667 40.6666667,18.325 40.6666667,17.75 L40.6666667,16.3854167 C41.7520833,16.0604167 42.7479167,15.4833333 43.5708333,14.7041667 L44.75625,15.3895833 C45.2541667,15.6770833 45.8916667,15.5083333 46.1791667,15.0104167 C46.1791667,15.0104167 46.1791667,15.0083333 46.18125,15.0083333 L47.2229167,13.2020833 C47.5104167,12.7041667 47.3395833,12.0666667 46.8416667,11.7791667 L45.6666667,11.0958333 C45.9208333,9.99375 45.9145833,8.84791667 45.6458333,7.75 Z" id="Path" stroke="#FFFFFF" stroke-width="1.5"></path></g></g></g></svg> 