<?xml version="1.0" encoding="UTF-8"?> <svg xmlns="http://www.w3.org/2000/svg" xmlns:xlink="http://www.w3.org/1999/xlink" width="52px" height="52px" viewBox="0 0 52 52"><!-- Generator: Sketch 57.1 (83088) - https://sketch.com/ --><title>streamline-icon-seo-search-graph@60x60</title><desc>Created with Sketch.</desc><g id="Icons" stroke="none" stroke-width="1" fill="none" fill-rule="evenodd" stroke-linecap="round" stroke-linejoin="round"><g id="Bonfire-–-Consulting----Icons-(Desktop)" transform="translate(-555.000000, -434.000000)" stroke-width="2"><g id="streamline-icon-seo-search-graph@60x60" transform="translate(556.000000, 435.000000)"><path d="M1.31896552,24.875 C-2.15948276,15.375 2.72413793,4.85344828 12.2262931,1.375 C20.1271552,-1.51724138 28.9806034,1.34482759 33.6939655,8.3125" id="Path" stroke="#FFFFFF"></path><path d="M31.487069,31.5538793 L36.5150862,36.5797414" id="Path" stroke="#FFFFFF"></path><path d="M48.7068966,44.200431 C49.9913793,45.4418103 50.0258621,47.487069 48.7866379,48.7715517 C47.5474138,50.0560345 45.5,50.0905172 44.2155172,48.8512931 C44.1896552,48.825431 44.1616379,48.799569 44.1357759,48.7715517 L35.7543103,40.3900862 C34.9137931,39.549569 34.9137931,38.1831897 35.7543103,37.3426724 L37.2780172,35.8189655 C38.1185345,34.9784483 39.4849138,34.9784483 40.325431,35.8189655 L48.7068966,44.200431 Z" id="Path" stroke="#FFFFFF"></path><path d="M0.215517241,32.6077586 L19.1659483,13.6573276 C20.0086207,12.8168103 21.3728448,12.8168103 22.2133621,13.6573276 L27.7866379,19.2306034 C28.6293103,20.0711207 29.9913793,20.0711207 30.8340517,19.2306034 L49.7844828,0.280172414" id="Path" stroke="#F1E82B"></path><polyline id="Path" stroke="#F1E82B" points="43.3189655 0.280172414 49.7844828 0.280172414 49.7844828 6.74568966"></polyline><path d="M36.8211207,19.7112069 C36.2068966,29.8103448 27.5237069,37.5 17.424569,36.8857759 C13.5301724,36.6487069 9.8125,35.174569 6.81465517,32.6788793" id="Path" stroke="#FFFFFF"></path></g></g></g></svg> 