<?xml version="1.0" encoding="UTF-8"?> <svg xmlns="http://www.w3.org/2000/svg" xmlns:xlink="http://www.w3.org/1999/xlink" width="50px" height="50px" viewBox="0 0 50 50"><!-- Generator: Sketch 57.1 (83088) - https://sketch.com/ --><title>streamline-icon-single-neutral-actions-laptop@50x50</title><desc>Created with Sketch.</desc><g id="Icons" stroke="none" stroke-width="1" fill="none" fill-rule="evenodd" stroke-linecap="round" stroke-linejoin="round"><g id="Bonfire-–-Web-Design----Icons-(Desktop)" transform="translate(-944.000000, -705.000000)" stroke-width="2.08333333"><g id="streamline-icon-single-neutral-actions-laptop@50x50" transform="translate(945.000000, 706.000000)"><path d="M47.8479167,46.45 C48.10625,46.9645833 47.8979167,47.5895833 47.3833333,47.8479167 C47.2375,47.9208333 47.0791667,47.9583333 46.9166667,47.9583333 L19.8333333,47.9583333 C19.2583333,47.9583333 18.7916667,47.4916667 18.7916667,46.9166667 C18.7916667,46.7541667 18.8291667,46.5958333 18.9020833,46.45 L22.9583333,39.625 L43.7916667,39.625 L47.8479167,46.45 Z" id="Path" stroke="#FFFFFF"></path><path d="M24,25.0416667 L42.75,25.0416667 C43.325,25.0416667 43.7916667,25.5083333 43.7916667,26.0833333 L43.7916667,39.625 L43.7916667,39.625 L22.9583333,39.625 L22.9583333,39.625 L22.9583333,26.0833333 C22.9583333,25.5083333 23.425,25.0416667 24,25.0416667 Z" id="Path" stroke="#FFFFFF"></path><path d="M32.3333333,43.7916667 L34.4166667,43.7916667" id="Path" stroke="#FFFFFF"></path><path d="M14.625,0.0416666667 C19.5145833,0.0416666667 23.4791667,4.00625 23.4791667,8.89583333 C23.4791667,13.7854167 19.5145833,17.75 14.625,17.75 C9.73541667,17.75 5.77083333,13.7854167 5.77083333,8.89583333 C5.77083333,4.00625 9.73541667,0.0416666667 14.625,0.0416666667 Z" id="Path" stroke="#F1E82B"></path><path d="M18.7916667,21.4791667 C11.0645833,19.1833333 2.94166667,23.5854167 0.645833333,31.3125 C0.245833333,32.6583333 0.0416666667,34.0541667 0.0416666667,35.4583333 L16.7083333,35.4583333" id="Path" stroke="#F1E82B"></path></g></g></g></svg> 