<?xml version="1.0" encoding="UTF-8"?> <svg xmlns="http://www.w3.org/2000/svg" xmlns:xlink="http://www.w3.org/1999/xlink" width="53px" height="54px" viewBox="0 0 53 54"><!-- Generator: Sketch 57.1 (83088) - https://sketch.com/ --><title>streamline-icon-analytics-graph-bar-1@50x50</title><desc>Created with Sketch.</desc><g id="Icons" stroke="none" stroke-width="1" fill="none" fill-rule="evenodd" stroke-linecap="round" stroke-linejoin="round"><g id="Bonfire-–-Google-Adwords----Icons-(Desktop)" transform="translate(-1126.000000, -945.000000)"><g id="streamline-icon-analytics-graph-bar-1@50x50" transform="translate(1127.000000, 947.000000)"><path d="M8.375,43.6666667 C8.375,43.0916667 7.90833333,42.625 7.33333333,42.625 L3.16666667,42.625 C2.59166667,42.625 2.125,43.0916667 2.125,43.6666667 L2.125,50.9583333 L8.375,50.9583333 L8.375,43.6666667 Z" id="Path" stroke="#FFFFFF" stroke-width="2.08333333"></path><path d="M20.875,33.25 C20.875,32.675 20.4083333,32.2083333 19.8333333,32.2083333 L15.6666667,32.2083333 C15.0916667,32.2083333 14.625,32.675 14.625,33.25 L14.625,50.9583333 L20.875,50.9583333 L20.875,33.25 Z" id="Path" stroke="#FFFFFF" stroke-width="2.08333333"></path><path d="M33.375,39.5 C33.375,38.925 32.9083333,38.4583333 32.3333333,38.4583333 L28.1666667,38.4583333 C27.5916667,38.4583333 27.125,38.925 27.125,39.5 L27.125,50.9583333 L33.375,50.9583333 L33.375,39.5 Z" id="Path" stroke="#FFFFFF" stroke-width="2.08333333"></path><path d="M45.875,22.8333333 C45.875,22.2583333 45.4083333,21.7916667 44.8333333,21.7916667 L40.6666667,21.7916667 C40.0916667,21.7916667 39.625,22.2583333 39.625,22.8333333 L39.625,50.9583333 L45.875,50.9583333 L45.875,22.8333333 Z" id="Path" stroke="#FFFFFF" stroke-width="2.08333333"></path><path d="M0.05,50.9583333 L47.9666667,50.9583333" id="Path" stroke="#FFFFFF" stroke-width="2.08333333"></path><path d="M7.1625,19.8875 L12.7291667,14.3208333" id="Path" stroke="#FFFFFF" stroke-width="2.08333333"></path><path d="M19.275,13.475 L24.575,16.5666667" id="Path" stroke="#FFFFFF" stroke-width="2.08333333"></path><path d="M31.4520833,16.0916667 L37.5,9.5" id="Path" stroke="#FFFFFF" stroke-width="2.08333333"></path><path d="M45.6729669,5.23170378 L49.1063542,5.23170378 C49.5996467,5.23170378 50,5.62227704 50,6.1035191 C50,6.38250001 49.8623785,6.64578823 49.6300306,6.80968951 L46.770364,8.83404469 L48.5326335,12.7851117 C48.7274483,13.2279939 48.5165479,13.7406213 48.0625758,13.9289334 C47.8105677,14.0335513 47.5228138,14.0196022 47.2815294,13.8923172 L42.9920294,11.547134 L38.718615,13.8923172 C38.2860905,14.1242201 37.7427538,13.9690369 37.505044,13.5470783 C37.3745717,13.3116882 37.3602734,13.0309637 37.4675109,12.7851117 L39.2297804,8.83404469 L36.3701138,6.80968951 C35.9697605,6.52722135 35.8803959,5.98320859 36.1699371,5.59263532 C36.3361553,5.3694506 36.5988871,5.23519104 36.8812792,5.23170378 L40.3110919,5.23170378 L42.1591515,0.558773649 C42.3360934,0.108916942 42.8544079,-0.114267781 43.3137419,0.0583516533 C43.5496644,0.147276816 43.7355427,0.328614403 43.8266946,0.558773649 L45.6729669,5.23170378 Z" id="Path" stroke="#F1E82B" stroke-width="2.08333333"></path><path d="M28.5,15 C30.43375,15 32,16.56625 32,18.5 C32,20.43375 30.43375,22 28.5,22 C26.56625,22 25,20.43375 25,18.5 C25,16.56625 26.56625,15 28.5,15 Z" id="Path" stroke="#F1E82B" stroke-width="1.66666667"></path><path d="M15.5,8 C17.43375,8 19,9.56625 19,11.5 C19,13.43375 17.43375,15 15.5,15 C13.56625,15 12,13.43375 12,11.5 C12,9.56625 13.56625,8 15.5,8 Z" id="Path" stroke="#F1E82B" stroke-width="1.66666667"></path><path d="M3.5,18 C5.43375,18 7,19.56625 7,21.5 C7,23.43375 5.43375,25 3.5,25 C1.56625,25 0,23.43375 0,21.5 C0,19.56625 1.56625,18 3.5,18 Z" id="Path" stroke="#F1E82B" stroke-width="1.66666667"></path></g></g></g></svg> 