<?xml version="1.0" encoding="UTF-8"?> <svg xmlns="http://www.w3.org/2000/svg" xmlns:xlink="http://www.w3.org/1999/xlink" width="50px" height="36px" viewBox="0 0 50 36"><!-- Generator: Sketch 57.1 (83088) - https://sketch.com/ --><title>streamline-icon-gauge-dashboard@50x50</title><desc>Created with Sketch.</desc><g id="Icons" stroke="none" stroke-width="1" fill="none" fill-rule="evenodd" stroke-linecap="round" stroke-linejoin="round"><g id="Bonfire-–-Web-Design----Icons-(Desktop)" transform="translate(-1126.000000, -966.000000)" stroke-width="2.08333333"><g id="streamline-icon-gauge-dashboard@50x50" transform="translate(1127.000000, 967.000000)"><path d="M24,21.0416667 C25.725,21.0416667 27.125,22.4416667 27.125,24.1666667 C27.125,25.8916667 25.725,27.2916667 24,27.2916667 C22.275,27.2916667 20.875,25.8916667 20.875,24.1666667 C20.875,22.4416667 22.275,21.0416667 24,21.0416667 Z" id="Path" stroke="#F1E82B"></path><path d="M26.2083333,21.95625 L36.5229167,11.6458333" id="Path" stroke="#F1E82B"></path><path d="M4.20833333,25.2083333 L8.375,25.2083333" id="Path" stroke="#FFFFFF"></path><path d="M43.7916667,25.2083333 L39.625,25.2083333" id="Path" stroke="#FFFFFF"></path><path d="M42.2833333,16.59375 L38.4354167,18.1875" id="Path" stroke="#FFFFFF"></path><path d="M31.5729167,5.88125 L29.9791667,9.73125" id="Path" stroke="#FFFFFF"></path><path d="M24,4.375 L24,8.54166667" id="Path" stroke="#FFFFFF"></path><path d="M16.4270833,5.88125 L18.0208333,9.73125" id="Path" stroke="#FFFFFF"></path><path d="M10.00625,10.1708333 L12.9479167,13.11875" id="Path" stroke="#FFFFFF"></path><path d="M5.71666667,16.59375 L9.5625,18.1875" id="Path" stroke="#FFFFFF"></path><path d="M24,0.208333333 C10.76875,0.208333333 0.0416666667,10.9354167 0.0416666667,24.1666667 L0.0416666667,31.4583333 C0.0416666667,32.6083333 0.975,33.5416667 2.125,33.5416667 L45.875,33.5416667 C47.025,33.5416667 47.9583333,32.6083333 47.9583333,31.4583333 L47.9583333,24.1666667 C47.9583333,10.9354167 37.23125,0.208333333 24,0.208333333 Z" id="Path" stroke="#FFFFFF"></path></g></g></g></svg> 