<?xml version="1.0" encoding="UTF-8"?> <svg xmlns="http://www.w3.org/2000/svg" xmlns:xlink="http://www.w3.org/1999/xlink" width="50px" height="50px" viewBox="0 0 50 50"><!-- Generator: Sketch 57.1 (83088) - https://sketch.com/ --><title>streamline-icon-analytics-graph@50x50 (1)</title><desc>Created with Sketch.</desc><g id="Icons" stroke="none" stroke-width="1" fill="none" fill-rule="evenodd" stroke-linecap="round" stroke-linejoin="round"><g id="Bonfire-–-Consulting----Icons-(Desktop)" transform="translate(-555.000000, -693.000000)" stroke-width="2.08333333"><g id="streamline-icon-analytics-graph@50x50-(1)" transform="translate(556.000000, 694.000000)"><path d="M47.9583333,47.9583333 L1.08333333,47.9583333 C0.508333333,47.9583333 0.0416666667,47.4916667 0.0416666667,46.9166667 L0.0416666667,0.0416666667" id="Path" stroke="#FFFFFF"></path><path d="M14.6333333,30.25 C16.3583333,30.25 17.7583333,31.65 17.7583333,33.375 C17.7583333,35.1 16.3583333,36.5 14.6333333,36.5 C12.9083333,36.5 11.5083333,35.1 11.5083333,33.375 C11.5083333,31.65 12.9083333,30.25 14.6333333,30.25 Z" id="Path" stroke="#FFFFFF"></path><path d="M34.25,16.3229167 L42.7416667,5.475" id="Path" stroke="#F1E82B"></path><path d="M19.7020833,14.5458333 L29.3229167,17.9791667" id="Path" stroke="#F1E82B"></path><path d="M0.05,23.54375 L14.0479167,15.2" id="Path" stroke="#F1E82B"></path><path d="M32.9645833,31.8166667 L42.1416667,26.6166667" id="Path" stroke="#FFFFFF"></path><path d="M17.7583333,33.375 L27.1333333,33.375" id="Path" stroke="#FFFFFF"></path><path d="M0.05,42.75 L11.95,34.9708333" id="Path" stroke="#FFFFFF"></path><path d="M16.7166667,10.4583333 C18.4416667,10.4583333 19.8416667,11.8583333 19.8416667,13.5833333 C19.8416667,15.3083333 18.4416667,16.7083333 16.7166667,16.7083333 C14.9916667,16.7083333 13.5916667,15.3083333 13.5916667,13.5833333 C13.5916667,11.8583333 14.9916667,10.4583333 16.7166667,10.4583333 Z" id="Path" stroke="#F1E82B"></path><path d="M32.3416667,15.6666667 C34.0666667,15.6666667 35.4666667,17.0666667 35.4666667,18.7916667 C35.4666667,20.5166667 34.0666667,21.9166667 32.3416667,21.9166667 C30.6166667,21.9166667 29.2166667,20.5166667 29.2166667,18.7916667 C29.2166667,17.0666667 30.6166667,15.6666667 32.3416667,15.6666667 Z" id="Path" stroke="#F1E82B"></path><path d="M44.8416667,0.0416666667 C46.5666667,0.0416666667 47.9666667,1.44166667 47.9666667,3.16666667 C47.9666667,4.89166667 46.5666667,6.29166667 44.8416667,6.29166667 C43.1166667,6.29166667 41.7166667,4.89166667 41.7166667,3.16666667 C41.7166667,1.44166667 43.1166667,0.0416666667 44.8416667,0.0416666667 Z" id="Path" stroke="#F1E82B"></path><path d="M44.8416667,21.9166667 C46.5666667,21.9166667 47.9666667,23.3166667 47.9666667,25.0416667 C47.9666667,26.7666667 46.5666667,28.1666667 44.8416667,28.1666667 C43.1166667,28.1666667 41.7166667,26.7666667 41.7166667,25.0416667 C41.7166667,23.3166667 43.1166667,21.9166667 44.8416667,21.9166667 Z" id="Path" stroke="#FFFFFF"></path><path d="M30.2583333,30.25 C31.9833333,30.25 33.3833333,31.65 33.3833333,33.375 C33.3833333,35.1 31.9833333,36.5 30.2583333,36.5 C28.5333333,36.5 27.1333333,35.1 27.1333333,33.375 C27.1333333,31.65 28.5333333,30.25 30.2583333,30.25 Z" id="Path" stroke="#FFFFFF"></path></g></g></g></svg> 