<?xml version="1.0" encoding="UTF-8"?> <svg xmlns="http://www.w3.org/2000/svg" xmlns:xlink="http://www.w3.org/1999/xlink" width="48px" height="44px" viewBox="0 0 48 44"><!-- Generator: Sketch 55.2 (78181) - https://sketchapp.com/ --><title>study-brain-1</title><desc>Created with Sketch.</desc><g id="Services" stroke="none" stroke-width="1" fill="none" fill-rule="evenodd" stroke-linecap="round" stroke-linejoin="round"><g id="Bonfire-Service-SEO-(Desktop)" transform="translate(-1119.000000, -6452.000000)" stroke="#F1E82B" stroke-width="2"><g id="Industries" transform="translate(260.000000, 5958.000000)"><g id="Row"><g id="Group-3" transform="translate(365.000000, 454.000000)"><g id="Row" transform="translate(0.000000, 40.000000)"><g id="Industry" transform="translate(365.000000, 1.000000)"><g id="study-brain-1" transform="translate(130.000000, 0.000000)"><path d="M21.49,12 C19.0128951,8.68284139 19.6921031,3.98594297 23.0074535,1.50641847 C26.3228039,-0.973106044 31.0201966,-0.297325093 33.5021394,3.01621533 C35.9840822,6.32975576 35.3117287,11.0276403 32,13.512" id="Path"></path><path d="M45.5,15 C45.5,19.9705627 41.4705627,24 36.5,24 L33.5,24" id="Path"></path><path d="M8.126,18.002 L12.5,18.002" id="Path"></path><path d="M13.126,24 C14.7828542,24 16.126,25.3431458 16.126,27 L16.126,33" id="Path"></path><path d="M33.5,42 L33.5,33 L38,33 C40.9521567,32.9986058 43.6287359,31.2650462 44.8373246,28.57162 C46.0459133,25.8781938 45.5615429,22.7262594 43.6,20.52 C45.7065796,17.807241 46.0855083,14.132019 44.5767518,11.0465057 C43.0679952,7.9609923 39.9346366,6.00321119 36.5,6 C35.9552555,6.00102149 35.4117156,6.05122529 34.876,6.15 C34.1740464,2.33773289 30.6826443,-0.31150085 26.8221546,0.0388393732 C22.9616648,0.389179597 20.0042099,3.62364841 20,7.5 C20,7.676 20,7.85 20.02,8.022 C17.012212,6.95066488 13.6619614,7.55311986 11.2158377,9.6051984 C8.76971401,11.6572769 7.59393711,14.8517534 8.126,18 L8,18 C3.85786438,18 0.5,21.3578644 0.5,25.5 C0.5,29.6421356 3.85786438,33 8,33 L16.126,33 C17.0429561,35.1010746 18.8704772,36.6674014 21.0871178,37.2520613 C23.3037584,37.8367212 25.6660643,37.3755009 27.5,36 L27.5,42" id="Path"></path><path d="M27.5,36 L27.5,30 C27.5,28.3431458 26.1568542,27 24.5,27 L21.5,27" id="Path"></path></g></g></g></g></g></g></g></g></svg> 