<?xml version="1.0" encoding="UTF-8"?> <svg xmlns="http://www.w3.org/2000/svg" xmlns:xlink="http://www.w3.org/1999/xlink" width="42px" height="48px" viewBox="0 0 42 48"><!-- Generator: Sketch 55.2 (78181) - https://sketchapp.com/ --><title>sync-location</title><desc>Created with Sketch.</desc><g id="Services" stroke="none" stroke-width="1" fill="none" fill-rule="evenodd" stroke-linecap="round" stroke-linejoin="round"><g id="Bonfire-Service-SEO-(Desktop)" transform="translate(-1320.000000, -4370.000000)" stroke-width="2"><g id="Group-7" transform="translate(421.000000, 4195.000000)"><g id="Group-5" transform="translate(0.000000, 176.000000)"><g id="sync-location" transform="translate(900.000000, 0.000000)"><ellipse id="Oval" stroke="#FFFFFF" cx="19.9875" cy="12.5" rx="6.15" ry="6"></ellipse><path d="M19.9875,0.5 C26.7806024,0.5 32.2875,5.872583 32.2875,12.5 C32.2875,17.844 24.2925,28.222 21.1929,32.042 C20.9013162,32.402073 20.4568337,32.6121231 19.986475,32.6121231 C19.5161163,32.6121231 19.0716338,32.402073 18.78005,32.042 C15.6825,28.22 7.6875,17.844 7.6875,12.5 C7.6875,5.872583 13.1943976,0.5 19.9875,0.5 Z" id="Path" stroke="#FFFFFF"></path><path d="M6.15,27 C2.3575,28.636 0,30.942 0,33.494 C0,38.464 8.94825,42.494 19.9875,42.494 L21.525,42.494" id="Path" stroke="#F1E82B"></path><path d="M33.84345,27.014 C37.62365,28.65 39.975,30.952 39.975,33.5 C39.975,36.972 35.6085,39.986 29.2125,41.486" id="Path" stroke="#F1E82B"></path><polyline id="Path" stroke="#F1E82B" points="18.45 45.5 21.525 42.5 18.45 39.5"></polyline></g></g></g></g></g></svg> 