<?xml version="1.0" encoding="UTF-8"?> <svg xmlns="http://www.w3.org/2000/svg" xmlns:xlink="http://www.w3.org/1999/xlink" width="47px" height="53px" viewBox="0 0 47 53"><!-- Generator: Sketch 57.1 (83088) - https://sketch.com/ --><title>sync-location</title><desc>Created with Sketch.</desc><g id="Icons" stroke="none" stroke-width="1" fill="none" fill-rule="evenodd" stroke-linecap="round" stroke-linejoin="round"><g id="Bonfire-–-Remarketing----Icons-(Desktop)" transform="translate(-556.000000, -686.000000)" stroke-width="2"><g id="sync-location" transform="translate(557.000000, 687.000000)"><circle id="Oval" stroke="#FFFFFF" cx="22" cy="13" r="7"></circle><path d="M22,0 C29.7319865,0 36,6.02305202 36,13.4528632 C36,19.4438716 26.9,31.0783562 23.372,35.360851 C23.040116,35.7645187 22.5342009,36 21.9988333,36 C21.4634657,36 20.9575506,35.7645187 20.6256667,35.360851 C17.1,31.076114 8,19.4438716 8,13.4528632 C8,6.02305202 14.2680135,0 22,0 Z" id="Path" stroke="#FFFFFF"></path><path d="M6.85714286,29 C2.62857143,30.9006067 0,33.5795792 0,36.5443397 C0,42.3181877 9.97714286,47 22.2857143,47 L24,47" id="Path" stroke="#F1E82B"></path><path d="M38.1634286,30 C42.3782857,31.8087341 45,34.3537866 45,37.1708126 C45,41.0093975 40.1314286,44.3416252 33,46" id="Path" stroke="#F1E82B"></path><polyline id="Path" stroke="#F1E82B" points="22 51 27 47.5 22 44"></polyline></g></g></g></svg> 